G04 #@! TF.GenerationSoftware,KiCad,Pcbnew,6.0.5+dfsg-1~bpo11+1*
G04 #@! TF.CreationDate,2023-01-30T19:55:39+00:00*
G04 #@! TF.ProjectId,phasor_II,70686173-6f72-45f4-9949-2e6b69636164,0*
G04 #@! TF.SameCoordinates,Original*
G04 #@! TF.FileFunction,Soldermask,Top*
G04 #@! TF.FilePolarity,Negative*
%FSLAX46Y46*%
G04 Gerber Fmt 4.6, Leading zero omitted, Abs format (unit mm)*
G04 Created by KiCad (PCBNEW 6.0.5+dfsg-1~bpo11+1) date 2023-01-30 19:55:39*
%MOMM*%
%LPD*%
G01*
G04 APERTURE LIST*
%ADD10O,2.720000X3.240000*%
%ADD11R,1.800000X1.800000*%
%ADD12C,1.800000*%
%ADD13C,2.600000*%
%ADD14C,1.524000*%
%ADD15O,1.500000X1.500000*%
%ADD16R,1.700000X1.700000*%
%ADD17O,1.700000X1.700000*%
%ADD18C,1.600000*%
%ADD19C,1.440000*%
%ADD20C,2.000000*%
%ADD21C,3.000000*%
%ADD22R,1.600000X1.600000*%
%ADD23R,4.000000X2.000000*%
%ADD24O,3.300000X2.000000*%
%ADD25O,2.000000X3.500000*%
G04 APERTURE END LIST*
D10*
X134340000Y-122040000D03*
X124740000Y-122040000D03*
D11*
X127040000Y-129540000D03*
D12*
X129540000Y-129540000D03*
X132040000Y-129540000D03*
D10*
X124740000Y-99180000D03*
X134340000Y-99180000D03*
D11*
X127040000Y-106680000D03*
D12*
X129540000Y-106680000D03*
X132040000Y-106680000D03*
D11*
X132075000Y-144780000D03*
D12*
X134615000Y-144780000D03*
D10*
X134340000Y-76320000D03*
X124740000Y-76320000D03*
D11*
X127040000Y-83820000D03*
D12*
X129540000Y-83820000D03*
X132040000Y-83820000D03*
D13*
X119380000Y-151384000D03*
X111760000Y-151384000D03*
D14*
X162306000Y-102506000D03*
X162306000Y-120506000D03*
D12*
X162306000Y-112776000D03*
D11*
X162306000Y-110236000D03*
D15*
X156306000Y-111506000D03*
X157109848Y-114505999D03*
X159306000Y-116702152D03*
X162306000Y-117506000D03*
X165305999Y-116702152D03*
X167502152Y-114505999D03*
X168306000Y-111506000D03*
X167502152Y-108506000D03*
X165306000Y-106309848D03*
X162306000Y-105506000D03*
X159306000Y-106309848D03*
X157109848Y-108506000D03*
D16*
X189230000Y-129794000D03*
D17*
X186690000Y-129794000D03*
X184150000Y-129794000D03*
X181610000Y-129794000D03*
X179070000Y-129794000D03*
X176530000Y-129794000D03*
D18*
X168108000Y-89408000D03*
X163108000Y-89408000D03*
D19*
X163513000Y-95313000D03*
X166053000Y-95313000D03*
X168593000Y-95313000D03*
D20*
X134874000Y-64008000D03*
D19*
X163312000Y-125476000D03*
X165852000Y-125476000D03*
X168392000Y-125476000D03*
D18*
X189738000Y-62992000D03*
X189738000Y-67992000D03*
D21*
X185915000Y-55965000D03*
X169685000Y-55965000D03*
X185915000Y-49615000D03*
X169685000Y-49615000D03*
X185915000Y-62315000D03*
X169685000Y-62315000D03*
D22*
X120562380Y-128524000D03*
D18*
X118062380Y-128524000D03*
D20*
X111760000Y-147320000D03*
D18*
X139700000Y-47300000D03*
D23*
X139700000Y-56300000D03*
D24*
X139700000Y-50300000D03*
D25*
X135200000Y-49300000D03*
X144200000Y-49300000D03*
D22*
X113792000Y-120396000D03*
D18*
X111292000Y-120396000D03*
D16*
X130815000Y-109235000D03*
D17*
X128275000Y-109235000D03*
X130815000Y-111775000D03*
X128275000Y-111775000D03*
X130815000Y-114315000D03*
X128275000Y-114315000D03*
D21*
X165100000Y-55965000D03*
X148870000Y-55965000D03*
X165100000Y-49615000D03*
X148870000Y-49615000D03*
X165100000Y-62315000D03*
X148870000Y-62315000D03*
D18*
X160060000Y-85598000D03*
X165060000Y-85598000D03*
D21*
X130556000Y-55965000D03*
X114326000Y-55965000D03*
X130556000Y-49615000D03*
X114326000Y-49615000D03*
X130556000Y-62315000D03*
X114326000Y-62315000D03*
D22*
X120650000Y-120396000D03*
D18*
X118150000Y-120396000D03*
D20*
X111760000Y-143510000D03*
D19*
X114290000Y-75692000D03*
X116830000Y-75692000D03*
X119370000Y-75692000D03*
D22*
X113704380Y-128524000D03*
D18*
X111204380Y-128524000D03*
M02*
