M48
; DRILL file {KiCad 6.0.5+dfsg-1~bpo11+1} date Mon Jan 30 19:55:39 2023
; FORMAT={-:-/ absolute / metric / decimal}
; #@! TF.CreationDate,2023-01-30T19:55:39+00:00
; #@! TF.GenerationSoftware,Kicad,Pcbnew,6.0.5+dfsg-1~bpo11+1
; #@! TF.FileFunction,Plated,1,2,PTH
FMAT,2
METRIC
; #@! TA.AperFunction,Plated,PTH,ViaDrill
T1C0.400
; #@! TA.AperFunction,Plated,PTH,ViaDrill
T2C0.500
; #@! TA.AperFunction,Plated,PTH,ComponentDrill
T3C0.762
; #@! TA.AperFunction,Plated,PTH,ComponentDrill
T4C0.800
; #@! TA.AperFunction,Plated,PTH,ComponentDrill
T5C0.900
; #@! TA.AperFunction,Plated,PTH,ComponentDrill
T6C1.000
; #@! TA.AperFunction,Plated,PTH,ComponentDrill
T7C1.100
; #@! TA.AperFunction,Plated,PTH,ComponentDrill
T8C1.300
; #@! TA.AperFunction,Plated,PTH,ComponentDrill
T9C1.400
%
G90
G05
T1
X108.763Y-117.577
T2
X109.982Y-66.04
X110.236Y-84.582
X110.236Y-86.36
X110.236Y-88.138
X110.236Y-89.916
X110.236Y-91.694
X110.617Y-96.52
X111.887Y-99.797
X112.217Y-96.241
X112.268Y-83.82
X113.284Y-101.778
X113.462Y-107.417
X113.462Y-108.941
X113.462Y-110.465
X113.462Y-111.989
X113.589Y-97.942
X114.046Y-83.82
X114.122Y-116.332
X114.808Y-103.403
X115.189Y-91.059
X115.519Y-100.0
X115.773Y-96.241
X115.824Y-83.82
X115.824Y-122.682
X115.824Y-124.206
X115.824Y-125.73
X115.9Y-105.029
X116.332Y-131.318
X116.383Y-116.332
X118.262Y-100.381
X118.364Y-77.445
X118.77Y-89.967
X118.77Y-91.846
X118.821Y-88.189
X120.015Y-104.775
X120.04Y-99.593
X120.091Y-132.994
X121.666Y-81.788
X121.666Y-83.82
X121.666Y-85.852
X121.92Y-116.332
X122.301Y-78.029
X122.555Y-104.724
X123.063Y-130.581
X123.698Y-90.17
X123.698Y-91.948
X124.714Y-148.336
X126.802Y-87.294
X128.778Y-73.914
X129.184Y-121.818
X131.524Y-121.732
X131.826Y-73.914
X132.521Y-116.417
X133.364Y-113.03
X134.696Y-114.579
X134.889Y-70.953
X135.382Y-108.458
X135.865Y-130.48
X139.446Y-93.472
X139.446Y-115.57
X139.651Y-127.015
X139.7Y-74.93
X139.7Y-89.408
X139.7Y-112.268
X139.7Y-124.206
X139.954Y-103.886
X141.224Y-99.06
X141.732Y-121.158
X141.884Y-108.636
X141.908Y-109.861
X142.748Y-103.632
X144.347Y-70.77
X144.526Y-121.412
X144.704Y-69.418
X145.034Y-103.632
X145.593Y-109.804
X145.593Y-131.826
X145.664Y-108.607
X146.025Y-69.24
X146.558Y-72.746
X146.558Y-86.868
X146.558Y-99.06
X147.828Y-75.184
X147.828Y-113.284
X147.862Y-124.172
X147.935Y-126.492
X148.01Y-72.996
X148.109Y-71.8
X152.089Y-93.444
X152.146Y-84.328
X152.146Y-103.378
X152.566Y-95.442
X152.566Y-96.802
X152.654Y-85.852
X153.416Y-93.98
X154.432Y-85.598
X155.448Y-129.794
X155.615Y-95.342
X155.615Y-96.687
X156.464Y-94.234
X157.48Y-88.9
X158.496Y-77.724
X158.496Y-103.378
X158.75Y-74.93
X159.004Y-129.794
X159.258Y-102.362
X161.392Y-72.365
X161.823Y-131.521
X162.331Y-70.51
X164.592Y-88.9
X165.1Y-87.63
X166.878Y-74.676
X166.934Y-87.989
X167.386Y-85.344
X168.402Y-119.126
X168.656Y-117.856
X170.18Y-131.572
X170.406Y-119.183
X170.84Y-114.656
X170.942Y-118.11
X171.171Y-104.47
X171.45Y-77.47
X171.45Y-86.868
X171.45Y-112.268
X171.486Y-71.41
X171.537Y-99.568
X175.561Y-114.721
X175.702Y-104.14
X175.717Y-67.818
X175.743Y-71.171
X175.768Y-100.838
X175.768Y-111.76
X176.022Y-74.93
X176.022Y-88.9
X178.765Y-71.577
X178.816Y-83.566
X178.816Y-85.852
X180.645Y-70.434
X181.61Y-83.566
X181.61Y-85.852
X183.642Y-88.9
X183.642Y-101.092
X183.642Y-111.76
X183.896Y-74.93
X187.873Y-112.33
X188.214Y-71.374
X188.214Y-74.422
X188.214Y-86.868
X188.38Y-99.807
X191.174Y-81.919
T3
X162.306Y-102.506
X162.306Y-120.506
T4
X111.204Y-128.524
X111.292Y-120.396
X113.704Y-128.524
X113.792Y-120.396
X114.29Y-75.692
X116.83Y-75.692
X118.062Y-128.524
X118.15Y-120.396
X119.37Y-75.692
X120.562Y-128.524
X120.65Y-120.396
X156.306Y-111.506
X157.11Y-108.506
X157.11Y-114.506
X159.306Y-106.31
X159.306Y-116.702
X160.06Y-85.598
X162.306Y-105.506
X162.306Y-117.506
X163.108Y-89.408
X163.312Y-125.476
X163.513Y-95.313
X165.06Y-85.598
X165.306Y-116.702
X165.306Y-106.31
X165.852Y-125.476
X166.053Y-95.313
X167.502Y-108.506
X167.502Y-114.506
X168.108Y-89.408
X168.306Y-111.506
X168.392Y-125.476
X168.593Y-95.313
X189.738Y-62.992
X189.738Y-67.992
T5
X132.075Y-144.78
X134.615Y-144.78
X162.306Y-110.236
X162.306Y-112.776
T6
X111.76Y-143.51
X111.76Y-147.32
X127.04Y-83.82
X127.04Y-106.68
X127.04Y-129.54
X128.275Y-109.235
X128.275Y-111.775
X128.275Y-114.315
X129.54Y-83.82
X129.54Y-106.68
X129.54Y-129.54
X130.815Y-109.235
X130.815Y-111.775
X130.815Y-114.315
X132.04Y-83.82
X132.04Y-106.68
X132.04Y-129.54
X134.874Y-64.008
X176.53Y-129.794
X179.07Y-129.794
X181.61Y-129.794
X184.15Y-129.794
X186.69Y-129.794
X189.23Y-129.794
T8
X111.76Y-151.384
X119.38Y-151.384
T9
X114.326Y-49.615
X114.326Y-55.965
X114.326Y-62.315
X130.556Y-49.615
X130.556Y-55.965
X130.556Y-62.315
X148.87Y-49.615
X148.87Y-55.965
X148.87Y-62.315
X165.1Y-49.615
X165.1Y-55.965
X165.1Y-62.315
X169.685Y-49.615
X169.685Y-55.965
X169.685Y-62.315
X185.915Y-49.615
X185.915Y-55.965
X185.915Y-62.315
T6
X135.2Y-48.55G85X135.2Y-50.05
G05
X139.05Y-50.3G85X140.35Y-50.3
G05
X138.7Y-56.3G85X140.7Y-56.3
G05
X144.2Y-48.55G85X144.2Y-50.05
G05
T7
X124.74Y-76.67G85X124.74Y-75.97
G05
X124.74Y-99.53G85X124.74Y-98.83
G05
X124.74Y-122.39G85X124.74Y-121.69
G05
X134.34Y-76.67G85X134.34Y-75.97
G05
X134.34Y-99.53G85X134.34Y-98.83
G05
X134.34Y-122.39G85X134.34Y-121.69
G05
T0
M30
