G04 #@! TF.GenerationSoftware,KiCad,Pcbnew,6.0.5+dfsg-1~bpo11+1*
G04 #@! TF.CreationDate,2023-01-30T19:55:39+00:00*
G04 #@! TF.ProjectId,phasor_II,70686173-6f72-45f4-9949-2e6b69636164,0*
G04 #@! TF.SameCoordinates,Original*
G04 #@! TF.FileFunction,Legend,Top*
G04 #@! TF.FilePolarity,Positive*
%FSLAX46Y46*%
G04 Gerber Fmt 4.6, Leading zero omitted, Abs format (unit mm)*
G04 Created by KiCad (PCBNEW 6.0.5+dfsg-1~bpo11+1) date 2023-01-30 19:55:39*
%MOMM*%
%LPD*%
G01*
G04 APERTURE LIST*
%ADD10C,0.150000*%
%ADD11C,0.120000*%
%ADD12O,2.720000X3.240000*%
%ADD13R,1.800000X1.800000*%
%ADD14C,1.800000*%
%ADD15C,2.600000*%
%ADD16C,1.524000*%
%ADD17O,1.500000X1.500000*%
%ADD18R,1.700000X1.700000*%
%ADD19O,1.700000X1.700000*%
%ADD20C,1.600000*%
%ADD21C,1.440000*%
%ADD22C,2.000000*%
%ADD23C,3.000000*%
%ADD24R,1.600000X1.600000*%
%ADD25R,4.000000X2.000000*%
%ADD26O,3.300000X2.000000*%
%ADD27O,2.000000X3.500000*%
G04 APERTURE END LIST*
D10*
X122852380Y-124377619D02*
X122376190Y-124710952D01*
X122852380Y-124949047D02*
X121852380Y-124949047D01*
X121852380Y-124568095D01*
X121900000Y-124472857D01*
X121947619Y-124425238D01*
X122042857Y-124377619D01*
X122185714Y-124377619D01*
X122280952Y-124425238D01*
X122328571Y-124472857D01*
X122376190Y-124568095D01*
X122376190Y-124949047D01*
X121852380Y-124091904D02*
X122852380Y-123758571D01*
X121852380Y-123425238D01*
X121947619Y-123139523D02*
X121900000Y-123091904D01*
X121852380Y-122996666D01*
X121852380Y-122758571D01*
X121900000Y-122663333D01*
X121947619Y-122615714D01*
X122042857Y-122568095D01*
X122138095Y-122568095D01*
X122280952Y-122615714D01*
X122852380Y-123187142D01*
X122852380Y-122568095D01*
X121852380Y-121949047D02*
X121852380Y-121853809D01*
X121900000Y-121758571D01*
X121947619Y-121710952D01*
X122042857Y-121663333D01*
X122233333Y-121615714D01*
X122471428Y-121615714D01*
X122661904Y-121663333D01*
X122757142Y-121710952D01*
X122804761Y-121758571D01*
X122852380Y-121853809D01*
X122852380Y-121949047D01*
X122804761Y-122044285D01*
X122757142Y-122091904D01*
X122661904Y-122139523D01*
X122471428Y-122187142D01*
X122233333Y-122187142D01*
X122042857Y-122139523D01*
X121947619Y-122091904D01*
X121900000Y-122044285D01*
X121852380Y-121949047D01*
X122852380Y-120663333D02*
X122852380Y-121234761D01*
X122852380Y-120949047D02*
X121852380Y-120949047D01*
X121995238Y-121044285D01*
X122090476Y-121139523D01*
X122138095Y-121234761D01*
X122852380Y-101517619D02*
X122376190Y-101850952D01*
X122852380Y-102089047D02*
X121852380Y-102089047D01*
X121852380Y-101708095D01*
X121900000Y-101612857D01*
X121947619Y-101565238D01*
X122042857Y-101517619D01*
X122185714Y-101517619D01*
X122280952Y-101565238D01*
X122328571Y-101612857D01*
X122376190Y-101708095D01*
X122376190Y-102089047D01*
X121852380Y-101231904D02*
X122852380Y-100898571D01*
X121852380Y-100565238D01*
X121852380Y-99755714D02*
X121852380Y-100231904D01*
X122328571Y-100279523D01*
X122280952Y-100231904D01*
X122233333Y-100136666D01*
X122233333Y-99898571D01*
X122280952Y-99803333D01*
X122328571Y-99755714D01*
X122423809Y-99708095D01*
X122661904Y-99708095D01*
X122757142Y-99755714D01*
X122804761Y-99803333D01*
X122852380Y-99898571D01*
X122852380Y-100136666D01*
X122804761Y-100231904D01*
X122757142Y-100279523D01*
X121852380Y-99089047D02*
X121852380Y-98993809D01*
X121900000Y-98898571D01*
X121947619Y-98850952D01*
X122042857Y-98803333D01*
X122233333Y-98755714D01*
X122471428Y-98755714D01*
X122661904Y-98803333D01*
X122757142Y-98850952D01*
X122804761Y-98898571D01*
X122852380Y-98993809D01*
X122852380Y-99089047D01*
X122804761Y-99184285D01*
X122757142Y-99231904D01*
X122661904Y-99279523D01*
X122471428Y-99327142D01*
X122233333Y-99327142D01*
X122042857Y-99279523D01*
X121947619Y-99231904D01*
X121900000Y-99184285D01*
X121852380Y-99089047D01*
X121947619Y-98374761D02*
X121900000Y-98327142D01*
X121852380Y-98231904D01*
X121852380Y-97993809D01*
X121900000Y-97898571D01*
X121947619Y-97850952D01*
X122042857Y-97803333D01*
X122138095Y-97803333D01*
X122280952Y-97850952D01*
X122852380Y-98422380D01*
X122852380Y-97803333D01*
X131654523Y-141272380D02*
X131654523Y-140272380D01*
X131892619Y-140272380D01*
X132035476Y-140320000D01*
X132130714Y-140415238D01*
X132178333Y-140510476D01*
X132225952Y-140700952D01*
X132225952Y-140843809D01*
X132178333Y-141034285D01*
X132130714Y-141129523D01*
X132035476Y-141224761D01*
X131892619Y-141272380D01*
X131654523Y-141272380D01*
X133083095Y-140272380D02*
X132892619Y-140272380D01*
X132797380Y-140320000D01*
X132749761Y-140367619D01*
X132654523Y-140510476D01*
X132606904Y-140700952D01*
X132606904Y-141081904D01*
X132654523Y-141177142D01*
X132702142Y-141224761D01*
X132797380Y-141272380D01*
X132987857Y-141272380D01*
X133083095Y-141224761D01*
X133130714Y-141177142D01*
X133178333Y-141081904D01*
X133178333Y-140843809D01*
X133130714Y-140748571D01*
X133083095Y-140700952D01*
X132987857Y-140653333D01*
X132797380Y-140653333D01*
X132702142Y-140700952D01*
X132654523Y-140748571D01*
X132606904Y-140843809D01*
X133797380Y-140272380D02*
X133892619Y-140272380D01*
X133987857Y-140320000D01*
X134035476Y-140367619D01*
X134083095Y-140462857D01*
X134130714Y-140653333D01*
X134130714Y-140891428D01*
X134083095Y-141081904D01*
X134035476Y-141177142D01*
X133987857Y-141224761D01*
X133892619Y-141272380D01*
X133797380Y-141272380D01*
X133702142Y-141224761D01*
X133654523Y-141177142D01*
X133606904Y-141081904D01*
X133559285Y-140891428D01*
X133559285Y-140653333D01*
X133606904Y-140462857D01*
X133654523Y-140367619D01*
X133702142Y-140320000D01*
X133797380Y-140272380D01*
X135083095Y-141272380D02*
X134511666Y-141272380D01*
X134797380Y-141272380D02*
X134797380Y-140272380D01*
X134702142Y-140415238D01*
X134606904Y-140510476D01*
X134511666Y-140558095D01*
X122852380Y-78657619D02*
X122376190Y-78990952D01*
X122852380Y-79229047D02*
X121852380Y-79229047D01*
X121852380Y-78848095D01*
X121900000Y-78752857D01*
X121947619Y-78705238D01*
X122042857Y-78657619D01*
X122185714Y-78657619D01*
X122280952Y-78705238D01*
X122328571Y-78752857D01*
X122376190Y-78848095D01*
X122376190Y-79229047D01*
X121852380Y-78371904D02*
X122852380Y-78038571D01*
X121852380Y-77705238D01*
X121852380Y-76895714D02*
X121852380Y-77371904D01*
X122328571Y-77419523D01*
X122280952Y-77371904D01*
X122233333Y-77276666D01*
X122233333Y-77038571D01*
X122280952Y-76943333D01*
X122328571Y-76895714D01*
X122423809Y-76848095D01*
X122661904Y-76848095D01*
X122757142Y-76895714D01*
X122804761Y-76943333D01*
X122852380Y-77038571D01*
X122852380Y-77276666D01*
X122804761Y-77371904D01*
X122757142Y-77419523D01*
X121852380Y-76229047D02*
X121852380Y-76133809D01*
X121900000Y-76038571D01*
X121947619Y-75990952D01*
X122042857Y-75943333D01*
X122233333Y-75895714D01*
X122471428Y-75895714D01*
X122661904Y-75943333D01*
X122757142Y-75990952D01*
X122804761Y-76038571D01*
X122852380Y-76133809D01*
X122852380Y-76229047D01*
X122804761Y-76324285D01*
X122757142Y-76371904D01*
X122661904Y-76419523D01*
X122471428Y-76467142D01*
X122233333Y-76467142D01*
X122042857Y-76419523D01*
X121947619Y-76371904D01*
X121900000Y-76324285D01*
X121852380Y-76229047D01*
X122852380Y-74943333D02*
X122852380Y-75514761D01*
X122852380Y-75229047D02*
X121852380Y-75229047D01*
X121995238Y-75324285D01*
X122090476Y-75419523D01*
X122138095Y-75514761D01*
D11*
X124670000Y-120130000D02*
X124670000Y-117070000D01*
X134410000Y-128660000D02*
X134410000Y-123940000D01*
X125850000Y-128660000D02*
X124670000Y-128660000D01*
X128750000Y-128660000D02*
X128220000Y-128660000D01*
X131200000Y-128660000D02*
X130370000Y-128660000D01*
X134410000Y-120130000D02*
X134410000Y-117070000D01*
X124660000Y-128660000D02*
X124660000Y-123940000D01*
X134410000Y-128660000D02*
X132920000Y-128660000D01*
X134410000Y-117070000D02*
X124670000Y-117070000D01*
X125850000Y-105800000D02*
X124670000Y-105800000D01*
X134410000Y-97270000D02*
X134410000Y-94210000D01*
X131200000Y-105800000D02*
X130370000Y-105800000D01*
X124670000Y-97270000D02*
X124670000Y-94210000D01*
X134410000Y-94210000D02*
X124670000Y-94210000D01*
X128750000Y-105800000D02*
X128220000Y-105800000D01*
X124660000Y-105800000D02*
X124660000Y-101080000D01*
X134410000Y-105800000D02*
X134410000Y-101080000D01*
X134410000Y-105800000D02*
X132920000Y-105800000D01*
X130785000Y-143235000D02*
X130785000Y-146325000D01*
X136335000Y-144780462D02*
G75*
G03*
X130785000Y-143235170I-2990000J462D01*
G01*
X130785000Y-146324830D02*
G75*
G03*
X136335000Y-144779538I2560000J1544830D01*
G01*
X135845000Y-144780000D02*
G75*
G03*
X135845000Y-144780000I-2500000J0D01*
G01*
X134410000Y-82940000D02*
X132920000Y-82940000D01*
X124670000Y-74410000D02*
X124670000Y-71350000D01*
X128750000Y-82940000D02*
X128220000Y-82940000D01*
X134410000Y-82940000D02*
X134410000Y-78220000D01*
X125850000Y-82940000D02*
X124670000Y-82940000D01*
X131200000Y-82940000D02*
X130370000Y-82940000D01*
X134410000Y-74410000D02*
X134410000Y-71350000D01*
X134410000Y-71350000D02*
X124670000Y-71350000D01*
X124660000Y-82940000D02*
X124660000Y-78220000D01*
%LPC*%
D12*
X134340000Y-122040000D03*
X124740000Y-122040000D03*
D13*
X127040000Y-129540000D03*
D14*
X129540000Y-129540000D03*
X132040000Y-129540000D03*
D12*
X124740000Y-99180000D03*
X134340000Y-99180000D03*
D13*
X127040000Y-106680000D03*
D14*
X129540000Y-106680000D03*
X132040000Y-106680000D03*
D13*
X132075000Y-144780000D03*
D14*
X134615000Y-144780000D03*
D12*
X134340000Y-76320000D03*
X124740000Y-76320000D03*
D13*
X127040000Y-83820000D03*
D14*
X129540000Y-83820000D03*
X132040000Y-83820000D03*
D15*
X119380000Y-151384000D03*
X111760000Y-151384000D03*
D16*
X162306000Y-102506000D03*
X162306000Y-120506000D03*
D14*
X162306000Y-112776000D03*
D13*
X162306000Y-110236000D03*
D17*
X156306000Y-111506000D03*
X157109848Y-114505999D03*
X159306000Y-116702152D03*
X162306000Y-117506000D03*
X165305999Y-116702152D03*
X167502152Y-114505999D03*
X168306000Y-111506000D03*
X167502152Y-108506000D03*
X165306000Y-106309848D03*
X162306000Y-105506000D03*
X159306000Y-106309848D03*
X157109848Y-108506000D03*
D18*
X189230000Y-129794000D03*
D19*
X186690000Y-129794000D03*
X184150000Y-129794000D03*
X181610000Y-129794000D03*
X179070000Y-129794000D03*
X176530000Y-129794000D03*
D20*
X168108000Y-89408000D03*
X163108000Y-89408000D03*
D21*
X163513000Y-95313000D03*
X166053000Y-95313000D03*
X168593000Y-95313000D03*
D22*
X134874000Y-64008000D03*
D21*
X163312000Y-125476000D03*
X165852000Y-125476000D03*
X168392000Y-125476000D03*
D20*
X189738000Y-62992000D03*
X189738000Y-67992000D03*
D23*
X185915000Y-55965000D03*
X169685000Y-55965000D03*
X185915000Y-49615000D03*
X169685000Y-49615000D03*
X185915000Y-62315000D03*
X169685000Y-62315000D03*
D24*
X120562380Y-128524000D03*
D20*
X118062380Y-128524000D03*
D22*
X111760000Y-147320000D03*
D20*
X139700000Y-47300000D03*
D25*
X139700000Y-56300000D03*
D26*
X139700000Y-50300000D03*
D27*
X135200000Y-49300000D03*
X144200000Y-49300000D03*
D24*
X113792000Y-120396000D03*
D20*
X111292000Y-120396000D03*
D18*
X130815000Y-109235000D03*
D19*
X128275000Y-109235000D03*
X130815000Y-111775000D03*
X128275000Y-111775000D03*
X130815000Y-114315000D03*
X128275000Y-114315000D03*
D23*
X165100000Y-55965000D03*
X148870000Y-55965000D03*
X165100000Y-49615000D03*
X148870000Y-49615000D03*
X165100000Y-62315000D03*
X148870000Y-62315000D03*
D20*
X160060000Y-85598000D03*
X165060000Y-85598000D03*
D23*
X130556000Y-55965000D03*
X114326000Y-55965000D03*
X130556000Y-49615000D03*
X114326000Y-49615000D03*
X130556000Y-62315000D03*
X114326000Y-62315000D03*
D24*
X120650000Y-120396000D03*
D20*
X118150000Y-120396000D03*
D22*
X111760000Y-143510000D03*
D21*
X114290000Y-75692000D03*
X116830000Y-75692000D03*
X119370000Y-75692000D03*
D24*
X113704380Y-128524000D03*
D20*
X111204380Y-128524000D03*
M02*
