%FSLAX45Y45*%
G04 Gerber Fmt 4.5, Leading zero omitted, Abs format (unit mm)*
G04 Created by KiCad (PCBNEW 6.0.5+dfsg-1~bpo11+1) date 2023-01-30 19:55:39*
%MOMM*%
%LPD*%
G01*
G04 APERTURE LIST*
%TA.AperFunction,Profile*%
%ADD10C,0.100000*%
%TD*%
%ADD11C,0.200000*%
%ADD12C,0.040000*%
%ADD13C,0.050000*%
%ADD14C,0.076200*%
%ADD15C,0.080000*%
%ADD16C,0.090000*%
%ADD17C,0.100000*%
%ADD18C,0.110000*%
%ADD19C,0.130000*%
%ADD20C,0.140000*%
G04 APERTURE END LIST*
D10*
X18923000Y-13398500D02*
G75*
G03*
X19240500Y-13081000I0J317500D01*
G01*
X18923000Y-13398500D02*
X14033500Y-13398500D01*
X11239500Y-5207000D02*
X11239500Y-4572000D01*
X14033500Y-13398500D02*
G75*
G03*
X13716000Y-13716000I0J-317500D01*
G01*
X18796000Y-5207000D02*
G75*
G03*
X19050000Y-5461000I254000J0D01*
G01*
X19240500Y-5651500D02*
X19240500Y-13081000D01*
X10985500Y-5461000D02*
G75*
G03*
X10795000Y-5651500I0J-190500D01*
G01*
X10985500Y-5461000D02*
G75*
G03*
X11239500Y-5207000I0J254000D01*
G01*
X11239500Y-4572000D02*
X18796000Y-4572000D01*
X11125200Y-15405100D02*
X13398500Y-15406114D01*
X19240500Y-5651500D02*
G75*
G03*
X19050000Y-5461000I-190500J0D01*
G01*
X10807700Y-15087600D02*
G75*
G03*
X11125200Y-15405100I317500J0D01*
G01*
X10807700Y-15087600D02*
X10795000Y-5651500D01*
X18796000Y-5207000D02*
X18796000Y-4572000D01*
X13717014Y-15087600D02*
X13716000Y-13716000D01*
X13398500Y-15406114D02*
G75*
G03*
X13717014Y-15087600I0J318514D01*
G01*
D11*
D12*
X10856280Y-11737660D02*
X10896280Y-11777660D01*
X10896280Y-11737660D02*
X10856280Y-11777660D01*
D13*
X11023200Y-6604000D02*
G75*
G03*
X11023200Y-6604000I-25000J0D01*
G01*
X11048600Y-8458200D02*
G75*
G03*
X11048600Y-8458200I-25000J0D01*
G01*
X11048600Y-8636000D02*
G75*
G03*
X11048600Y-8636000I-25000J0D01*
G01*
X11048600Y-8813800D02*
G75*
G03*
X11048600Y-8813800I-25000J0D01*
G01*
X11048600Y-8991600D02*
G75*
G03*
X11048600Y-8991600I-25000J0D01*
G01*
X11048600Y-9169400D02*
G75*
G03*
X11048600Y-9169400I-25000J0D01*
G01*
X11086700Y-9652000D02*
G75*
G03*
X11086700Y-9652000I-25000J0D01*
G01*
X11213700Y-9979660D02*
G75*
G03*
X11213700Y-9979660I-25000J0D01*
G01*
X11246720Y-9624060D02*
G75*
G03*
X11246720Y-9624060I-25000J0D01*
G01*
X11251800Y-8382000D02*
G75*
G03*
X11251800Y-8382000I-25000J0D01*
G01*
X11353400Y-10177780D02*
G75*
G03*
X11353400Y-10177780I-25000J0D01*
G01*
X11371180Y-10741660D02*
G75*
G03*
X11371180Y-10741660I-25000J0D01*
G01*
X11371180Y-10894060D02*
G75*
G03*
X11371180Y-10894060I-25000J0D01*
G01*
X11371180Y-11046460D02*
G75*
G03*
X11371180Y-11046460I-25000J0D01*
G01*
X11371180Y-11198860D02*
G75*
G03*
X11371180Y-11198860I-25000J0D01*
G01*
X11383880Y-9794240D02*
G75*
G03*
X11383880Y-9794240I-25000J0D01*
G01*
X11429600Y-8382000D02*
G75*
G03*
X11429600Y-8382000I-25000J0D01*
G01*
X11437220Y-11633200D02*
G75*
G03*
X11437220Y-11633200I-25000J0D01*
G01*
X11505800Y-10340340D02*
G75*
G03*
X11505800Y-10340340I-25000J0D01*
G01*
X11543900Y-9105900D02*
G75*
G03*
X11543900Y-9105900I-25000J0D01*
G01*
X11576920Y-9999980D02*
G75*
G03*
X11576920Y-9999980I-25000J0D01*
G01*
X11602320Y-9624060D02*
G75*
G03*
X11602320Y-9624060I-25000J0D01*
G01*
X11607400Y-8382000D02*
G75*
G03*
X11607400Y-8382000I-25000J0D01*
G01*
X11607400Y-12268200D02*
G75*
G03*
X11607400Y-12268200I-25000J0D01*
G01*
X11607400Y-12420600D02*
G75*
G03*
X11607400Y-12420600I-25000J0D01*
G01*
X11607400Y-12573000D02*
G75*
G03*
X11607400Y-12573000I-25000J0D01*
G01*
X11615020Y-10502900D02*
G75*
G03*
X11615020Y-10502900I-25000J0D01*
G01*
X11658200Y-13131800D02*
G75*
G03*
X11658200Y-13131800I-25000J0D01*
G01*
X11663280Y-11633200D02*
G75*
G03*
X11663280Y-11633200I-25000J0D01*
G01*
X11851240Y-10038080D02*
G75*
G03*
X11851240Y-10038080I-25000J0D01*
G01*
X11861400Y-7744460D02*
G75*
G03*
X11861400Y-7744460I-25000J0D01*
G01*
X11902040Y-8996680D02*
G75*
G03*
X11902040Y-8996680I-25000J0D01*
G01*
X11902040Y-9184640D02*
G75*
G03*
X11902040Y-9184640I-25000J0D01*
G01*
X11907120Y-8818880D02*
G75*
G03*
X11907120Y-8818880I-25000J0D01*
G01*
X12026500Y-10477500D02*
G75*
G03*
X12026500Y-10477500I-25000J0D01*
G01*
X12029040Y-9959340D02*
G75*
G03*
X12029040Y-9959340I-25000J0D01*
G01*
X12034120Y-13299440D02*
G75*
G03*
X12034120Y-13299440I-25000J0D01*
G01*
X12191600Y-8178800D02*
G75*
G03*
X12191600Y-8178800I-25000J0D01*
G01*
X12191600Y-8382000D02*
G75*
G03*
X12191600Y-8382000I-25000J0D01*
G01*
X12191600Y-8585200D02*
G75*
G03*
X12191600Y-8585200I-25000J0D01*
G01*
X12217000Y-11633200D02*
G75*
G03*
X12217000Y-11633200I-25000J0D01*
G01*
X12255100Y-7802880D02*
G75*
G03*
X12255100Y-7802880I-25000J0D01*
G01*
X12280500Y-10472420D02*
G75*
G03*
X12280500Y-10472420I-25000J0D01*
G01*
X12331300Y-13058140D02*
G75*
G03*
X12331300Y-13058140I-25000J0D01*
G01*
X12394800Y-9017000D02*
G75*
G03*
X12394800Y-9017000I-25000J0D01*
G01*
X12394800Y-9194800D02*
G75*
G03*
X12394800Y-9194800I-25000J0D01*
G01*
X12496400Y-14833600D02*
G75*
G03*
X12496400Y-14833600I-25000J0D01*
G01*
X12705250Y-8729410D02*
G75*
G03*
X12705250Y-8729410I-25000J0D01*
G01*
X12902800Y-7391400D02*
G75*
G03*
X12902800Y-7391400I-25000J0D01*
G01*
X12943440Y-12181840D02*
G75*
G03*
X12943440Y-12181840I-25000J0D01*
G01*
X13177413Y-12173188D02*
G75*
G03*
X13177413Y-12173188I-25000J0D01*
G01*
X13207600Y-7391400D02*
G75*
G03*
X13207600Y-7391400I-25000J0D01*
G01*
X13277071Y-11641711D02*
G75*
G03*
X13277071Y-11641711I-25000J0D01*
G01*
X13361400Y-11303000D02*
G75*
G03*
X13361400Y-11303000I-25000J0D01*
G01*
X13494620Y-11457940D02*
G75*
G03*
X13494620Y-11457940I-25000J0D01*
G01*
X13513942Y-7095350D02*
G75*
G03*
X13513942Y-7095350I-25000J0D01*
G01*
X13563200Y-10845800D02*
G75*
G03*
X13563200Y-10845800I-25000J0D01*
G01*
X13611460Y-13047980D02*
G75*
G03*
X13611460Y-13047980I-25000J0D01*
G01*
X13969600Y-9347200D02*
G75*
G03*
X13969600Y-9347200I-25000J0D01*
G01*
X13969600Y-11557000D02*
G75*
G03*
X13969600Y-11557000I-25000J0D01*
G01*
X13990085Y-12701486D02*
G75*
G03*
X13990085Y-12701486I-25000J0D01*
G01*
X13995000Y-7493000D02*
G75*
G03*
X13995000Y-7493000I-25000J0D01*
G01*
X13995000Y-8940800D02*
G75*
G03*
X13995000Y-8940800I-25000J0D01*
G01*
X13995000Y-11226800D02*
G75*
G03*
X13995000Y-11226800I-25000J0D01*
G01*
X13995000Y-12420600D02*
G75*
G03*
X13995000Y-12420600I-25000J0D01*
G01*
X14020400Y-10388600D02*
G75*
G03*
X14020400Y-10388600I-25000J0D01*
G01*
X14147400Y-9906000D02*
G75*
G03*
X14147400Y-9906000I-25000J0D01*
G01*
X14198200Y-12115800D02*
G75*
G03*
X14198200Y-12115800I-25000J0D01*
G01*
X14213440Y-10863580D02*
G75*
G03*
X14213440Y-10863580I-25000J0D01*
G01*
X14215772Y-10986050D02*
G75*
G03*
X14215772Y-10986050I-25000J0D01*
G01*
X14299800Y-10363200D02*
G75*
G03*
X14299800Y-10363200I-25000J0D01*
G01*
X14459659Y-7077036D02*
G75*
G03*
X14459659Y-7077036I-25000J0D01*
G01*
X14477600Y-12141200D02*
G75*
G03*
X14477600Y-12141200I-25000J0D01*
G01*
X14495380Y-6941820D02*
G75*
G03*
X14495380Y-6941820I-25000J0D01*
G01*
X14528400Y-10363200D02*
G75*
G03*
X14528400Y-10363200I-25000J0D01*
G01*
X14584280Y-10980420D02*
G75*
G03*
X14584280Y-10980420I-25000J0D01*
G01*
X14584280Y-13182600D02*
G75*
G03*
X14584280Y-13182600I-25000J0D01*
G01*
X14591416Y-10860682D02*
G75*
G03*
X14591416Y-10860682I-25000J0D01*
G01*
X14627460Y-6924040D02*
G75*
G03*
X14627460Y-6924040I-25000J0D01*
G01*
X14680800Y-7274560D02*
G75*
G03*
X14680800Y-7274560I-25000J0D01*
G01*
X14680800Y-8686800D02*
G75*
G03*
X14680800Y-8686800I-25000J0D01*
G01*
X14680800Y-9906000D02*
G75*
G03*
X14680800Y-9906000I-25000J0D01*
G01*
X14807800Y-7518400D02*
G75*
G03*
X14807800Y-7518400I-25000J0D01*
G01*
X14807800Y-11328400D02*
G75*
G03*
X14807800Y-11328400I-25000J0D01*
G01*
X14811231Y-12417169D02*
G75*
G03*
X14811231Y-12417169I-25000J0D01*
G01*
X14818550Y-12649200D02*
G75*
G03*
X14818550Y-12649200I-25000J0D01*
G01*
X14825959Y-7299581D02*
G75*
G03*
X14825959Y-7299581I-25000J0D01*
G01*
X14835927Y-7180046D02*
G75*
G03*
X14835927Y-7180046I-25000J0D01*
G01*
X15233913Y-9344357D02*
G75*
G03*
X15233913Y-9344357I-25000J0D01*
G01*
X15239600Y-8432800D02*
G75*
G03*
X15239600Y-8432800I-25000J0D01*
G01*
X15239600Y-10337800D02*
G75*
G03*
X15239600Y-10337800I-25000J0D01*
G01*
X15281650Y-9544193D02*
G75*
G03*
X15281650Y-9544193I-25000J0D01*
G01*
X15281650Y-9680231D02*
G75*
G03*
X15281650Y-9680231I-25000J0D01*
G01*
X15290400Y-8585200D02*
G75*
G03*
X15290400Y-8585200I-25000J0D01*
G01*
X15366600Y-9398000D02*
G75*
G03*
X15366600Y-9398000I-25000J0D01*
G01*
X15468200Y-8559800D02*
G75*
G03*
X15468200Y-8559800I-25000J0D01*
G01*
X15569800Y-12979400D02*
G75*
G03*
X15569800Y-12979400I-25000J0D01*
G01*
X15586450Y-9534195D02*
G75*
G03*
X15586450Y-9534195I-25000J0D01*
G01*
X15586450Y-9668724D02*
G75*
G03*
X15586450Y-9668724I-25000J0D01*
G01*
X15671400Y-9423400D02*
G75*
G03*
X15671400Y-9423400I-25000J0D01*
G01*
X15773000Y-8890000D02*
G75*
G03*
X15773000Y-8890000I-25000J0D01*
G01*
X15874600Y-7772400D02*
G75*
G03*
X15874600Y-7772400I-25000J0D01*
G01*
X15874600Y-10337800D02*
G75*
G03*
X15874600Y-10337800I-25000J0D01*
G01*
X15900000Y-7493000D02*
G75*
G03*
X15900000Y-7493000I-25000J0D01*
G01*
X15925400Y-12979400D02*
G75*
G03*
X15925400Y-12979400I-25000J0D01*
G01*
X15950800Y-10236200D02*
G75*
G03*
X15950800Y-10236200I-25000J0D01*
G01*
X16164160Y-7236460D02*
G75*
G03*
X16164160Y-7236460I-25000J0D01*
G01*
X16207340Y-13152120D02*
G75*
G03*
X16207340Y-13152120I-25000J0D01*
G01*
X16258140Y-7051040D02*
G75*
G03*
X16258140Y-7051040I-25000J0D01*
G01*
X16484200Y-8890000D02*
G75*
G03*
X16484200Y-8890000I-25000J0D01*
G01*
X16535000Y-8763000D02*
G75*
G03*
X16535000Y-8763000I-25000J0D01*
G01*
X16712800Y-7467600D02*
G75*
G03*
X16712800Y-7467600I-25000J0D01*
G01*
X16718413Y-8798930D02*
G75*
G03*
X16718413Y-8798930I-25000J0D01*
G01*
X16763600Y-8534400D02*
G75*
G03*
X16763600Y-8534400I-25000J0D01*
G01*
X16865200Y-11912600D02*
G75*
G03*
X16865200Y-11912600I-25000J0D01*
G01*
X16890600Y-11785600D02*
G75*
G03*
X16890600Y-11785600I-25000J0D01*
G01*
X17043000Y-13157200D02*
G75*
G03*
X17043000Y-13157200I-25000J0D01*
G01*
X17065557Y-11918287D02*
G75*
G03*
X17065557Y-11918287I-25000J0D01*
G01*
X17109040Y-11465560D02*
G75*
G03*
X17109040Y-11465560I-25000J0D01*
G01*
X17119200Y-11811000D02*
G75*
G03*
X17119200Y-11811000I-25000J0D01*
G01*
X17142060Y-10447020D02*
G75*
G03*
X17142060Y-10447020I-25000J0D01*
G01*
X17170000Y-7747000D02*
G75*
G03*
X17170000Y-7747000I-25000J0D01*
G01*
X17170000Y-8686800D02*
G75*
G03*
X17170000Y-8686800I-25000J0D01*
G01*
X17170000Y-11226800D02*
G75*
G03*
X17170000Y-11226800I-25000J0D01*
G01*
X17173572Y-7140972D02*
G75*
G03*
X17173572Y-7140972I-25000J0D01*
G01*
X17178750Y-9956800D02*
G75*
G03*
X17178750Y-9956800I-25000J0D01*
G01*
X17581095Y-11472050D02*
G75*
G03*
X17581095Y-11472050I-25000J0D01*
G01*
X17595200Y-10414000D02*
G75*
G03*
X17595200Y-10414000I-25000J0D01*
G01*
X17596720Y-6781800D02*
G75*
G03*
X17596720Y-6781800I-25000J0D01*
G01*
X17599260Y-7117080D02*
G75*
G03*
X17599260Y-7117080I-25000J0D01*
G01*
X17601800Y-10083800D02*
G75*
G03*
X17601800Y-10083800I-25000J0D01*
G01*
X17601800Y-11176000D02*
G75*
G03*
X17601800Y-11176000I-25000J0D01*
G01*
X17627200Y-7493000D02*
G75*
G03*
X17627200Y-7493000I-25000J0D01*
G01*
X17627200Y-8890000D02*
G75*
G03*
X17627200Y-8890000I-25000J0D01*
G01*
X17901520Y-7157720D02*
G75*
G03*
X17901520Y-7157720I-25000J0D01*
G01*
X17906600Y-8356600D02*
G75*
G03*
X17906600Y-8356600I-25000J0D01*
G01*
X17906600Y-8585200D02*
G75*
G03*
X17906600Y-8585200I-25000J0D01*
G01*
X18089480Y-7043420D02*
G75*
G03*
X18089480Y-7043420I-25000J0D01*
G01*
X18186000Y-8356600D02*
G75*
G03*
X18186000Y-8356600I-25000J0D01*
G01*
X18186000Y-8585200D02*
G75*
G03*
X18186000Y-8585200I-25000J0D01*
G01*
X18389200Y-8890000D02*
G75*
G03*
X18389200Y-8890000I-25000J0D01*
G01*
X18389200Y-10109200D02*
G75*
G03*
X18389200Y-10109200I-25000J0D01*
G01*
X18389200Y-11176000D02*
G75*
G03*
X18389200Y-11176000I-25000J0D01*
G01*
X18414600Y-7493000D02*
G75*
G03*
X18414600Y-7493000I-25000J0D01*
G01*
X18812250Y-11233007D02*
G75*
G03*
X18812250Y-11233007I-25000J0D01*
G01*
X18846400Y-7137400D02*
G75*
G03*
X18846400Y-7137400I-25000J0D01*
G01*
X18846400Y-7442200D02*
G75*
G03*
X18846400Y-7442200I-25000J0D01*
G01*
X18846400Y-8686800D02*
G75*
G03*
X18846400Y-8686800I-25000J0D01*
G01*
X18863050Y-9980736D02*
G75*
G03*
X18863050Y-9980736I-25000J0D01*
G01*
X19142450Y-8191914D02*
G75*
G03*
X19142450Y-8191914I-25000J0D01*
G01*
D14*
X16230600Y-10212500D02*
X16230600Y-10288700D01*
X16192500Y-10250600D02*
X16268700Y-10250600D01*
X16230600Y-12012500D02*
X16230600Y-12088700D01*
X16192500Y-12050600D02*
X16268700Y-12050600D01*
D15*
X11148723Y-12880684D02*
X11148723Y-12824115D01*
X11092154Y-12824115D01*
X11092154Y-12880684D01*
X11148723Y-12880684D01*
X11157485Y-12067884D02*
X11157485Y-12011315D01*
X11100916Y-12011315D01*
X11100916Y-12067884D01*
X11157485Y-12067884D01*
X11398722Y-12880684D02*
X11398722Y-12824115D01*
X11342153Y-12824115D01*
X11342153Y-12880684D01*
X11398722Y-12880684D01*
X11407484Y-12067884D02*
X11407484Y-12011315D01*
X11350915Y-12011315D01*
X11350915Y-12067884D01*
X11407484Y-12067884D01*
X11457284Y-7597484D02*
X11457284Y-7540915D01*
X11400715Y-7540915D01*
X11400715Y-7597484D01*
X11457284Y-7597484D01*
X11711284Y-7597484D02*
X11711284Y-7540915D01*
X11654715Y-7540915D01*
X11654715Y-7597484D01*
X11711284Y-7597484D01*
X11834522Y-12880684D02*
X11834522Y-12824115D01*
X11777953Y-12824115D01*
X11777953Y-12880684D01*
X11834522Y-12880684D01*
X11843284Y-12067884D02*
X11843284Y-12011315D01*
X11786715Y-12011315D01*
X11786715Y-12067884D01*
X11843284Y-12067884D01*
X11965284Y-7597484D02*
X11965284Y-7540915D01*
X11908715Y-7540915D01*
X11908715Y-7597484D01*
X11965284Y-7597484D01*
X12084522Y-12880684D02*
X12084522Y-12824115D01*
X12027953Y-12824115D01*
X12027953Y-12880684D01*
X12084522Y-12880684D01*
X12093284Y-12067884D02*
X12093284Y-12011315D01*
X12036715Y-12011315D01*
X12036715Y-12067884D01*
X12093284Y-12067884D01*
X15658884Y-11178885D02*
X15658884Y-11122316D01*
X15602315Y-11122316D01*
X15602315Y-11178885D01*
X15658884Y-11178885D01*
X15739269Y-10878885D02*
X15739269Y-10822316D01*
X15682700Y-10822316D01*
X15682700Y-10878885D01*
X15739269Y-10878885D01*
X15739269Y-11478884D02*
X15739269Y-11422315D01*
X15682700Y-11422315D01*
X15682700Y-11478884D01*
X15739269Y-11478884D01*
X15958884Y-10659269D02*
X15958884Y-10602700D01*
X15902315Y-10602700D01*
X15902315Y-10659269D01*
X15958884Y-10659269D01*
X15958884Y-11698500D02*
X15958884Y-11641931D01*
X15902315Y-11641931D01*
X15902315Y-11698500D01*
X15958884Y-11698500D01*
X16034284Y-8588085D02*
X16034284Y-8531516D01*
X15977715Y-8531516D01*
X15977715Y-8588085D01*
X16034284Y-8588085D01*
X16258884Y-10578885D02*
X16258884Y-10522316D01*
X16202315Y-10522316D01*
X16202315Y-10578885D01*
X16258884Y-10578885D01*
X16258884Y-11778884D02*
X16258884Y-11722315D01*
X16202315Y-11722315D01*
X16202315Y-11778884D01*
X16258884Y-11778884D01*
X16339084Y-8969085D02*
X16339084Y-8912516D01*
X16282515Y-8912516D01*
X16282515Y-8969085D01*
X16339084Y-8969085D01*
X16359484Y-12575884D02*
X16359484Y-12519315D01*
X16302915Y-12519315D01*
X16302915Y-12575884D01*
X16359484Y-12575884D01*
X16379584Y-9559585D02*
X16379584Y-9503016D01*
X16323015Y-9503016D01*
X16323015Y-9559585D01*
X16379584Y-9559585D01*
X16534284Y-8588085D02*
X16534284Y-8531516D01*
X16477715Y-8531516D01*
X16477715Y-8588085D01*
X16534284Y-8588085D01*
X16558884Y-11698500D02*
X16558884Y-11641931D01*
X16502315Y-11641931D01*
X16502315Y-11698500D01*
X16558884Y-11698500D01*
X16558884Y-10659269D02*
X16558884Y-10602700D01*
X16502315Y-10602700D01*
X16502315Y-10659269D01*
X16558884Y-10659269D01*
X16613484Y-12575884D02*
X16613484Y-12519315D01*
X16556915Y-12519315D01*
X16556915Y-12575884D01*
X16613484Y-12575884D01*
X16633584Y-9559585D02*
X16633584Y-9503016D01*
X16577015Y-9503016D01*
X16577015Y-9559585D01*
X16633584Y-9559585D01*
X16778500Y-10878885D02*
X16778500Y-10822316D01*
X16721931Y-10822316D01*
X16721931Y-10878885D01*
X16778500Y-10878885D01*
X16778500Y-11478884D02*
X16778500Y-11422315D01*
X16721931Y-11422315D01*
X16721931Y-11478884D01*
X16778500Y-11478884D01*
X16839085Y-8969085D02*
X16839085Y-8912516D01*
X16782516Y-8912516D01*
X16782516Y-8969085D01*
X16839085Y-8969085D01*
X16858885Y-11178885D02*
X16858885Y-11122316D01*
X16802316Y-11122316D01*
X16802316Y-11178885D01*
X16858885Y-11178885D01*
X16867485Y-12575884D02*
X16867485Y-12519315D01*
X16810916Y-12519315D01*
X16810916Y-12575884D01*
X16867485Y-12575884D01*
X16887585Y-9559585D02*
X16887585Y-9503016D01*
X16831016Y-9503016D01*
X16831016Y-9559585D01*
X16887585Y-9559585D01*
X19002085Y-6327484D02*
X19002085Y-6270915D01*
X18945516Y-6270915D01*
X18945516Y-6327484D01*
X19002085Y-6327484D01*
X19002085Y-6827484D02*
X19002085Y-6770915D01*
X18945516Y-6770915D01*
X18945516Y-6827484D01*
X19002085Y-6827484D01*
D16*
X13207500Y-14523000D02*
X13252500Y-14478000D01*
X13207500Y-14433000D01*
X13162500Y-14478000D01*
X13207500Y-14523000D01*
X13461500Y-14523000D02*
X13506500Y-14478000D01*
X13461500Y-14433000D01*
X13416500Y-14478000D01*
X13461500Y-14523000D01*
X16230600Y-11068600D02*
X16275600Y-11023600D01*
X16230600Y-10978600D01*
X16185600Y-11023600D01*
X16230600Y-11068600D01*
X16230600Y-11322600D02*
X16275600Y-11277600D01*
X16230600Y-11232600D01*
X16185600Y-11277600D01*
X16230600Y-11322600D01*
D17*
X11126000Y-14301000D02*
X11226000Y-14401000D01*
X11226000Y-14301000D02*
X11126000Y-14401000D01*
X11226000Y-14351000D02*
G75*
G03*
X11226000Y-14351000I-50000J0D01*
G01*
X11126000Y-14682000D02*
X11226000Y-14782000D01*
X11226000Y-14682000D02*
X11126000Y-14782000D01*
X11226000Y-14732000D02*
G75*
G03*
X11226000Y-14732000I-50000J0D01*
G01*
X12654000Y-8332000D02*
X12754000Y-8432000D01*
X12754000Y-8332000D02*
X12654000Y-8432000D01*
X12754000Y-8382000D02*
G75*
G03*
X12754000Y-8382000I-50000J0D01*
G01*
X12654000Y-10618000D02*
X12754000Y-10718000D01*
X12754000Y-10618000D02*
X12654000Y-10718000D01*
X12754000Y-10668000D02*
G75*
G03*
X12754000Y-10668000I-50000J0D01*
G01*
X12654000Y-12904000D02*
X12754000Y-13004000D01*
X12754000Y-12904000D02*
X12654000Y-13004000D01*
X12754000Y-12954000D02*
G75*
G03*
X12754000Y-12954000I-50000J0D01*
G01*
X12777500Y-10873500D02*
X12877500Y-10973500D01*
X12877500Y-10873500D02*
X12777500Y-10973500D01*
X12877500Y-10923500D02*
G75*
G03*
X12877500Y-10923500I-50000J0D01*
G01*
X12777500Y-11127500D02*
X12877500Y-11227500D01*
X12877500Y-11127500D02*
X12777500Y-11227500D01*
X12877500Y-11177500D02*
G75*
G03*
X12877500Y-11177500I-50000J0D01*
G01*
X12777500Y-11381500D02*
X12877500Y-11481500D01*
X12877500Y-11381500D02*
X12777500Y-11481500D01*
X12877500Y-11431500D02*
G75*
G03*
X12877500Y-11431500I-50000J0D01*
G01*
X12904000Y-8332000D02*
X13004000Y-8432000D01*
X13004000Y-8332000D02*
X12904000Y-8432000D01*
X13004000Y-8382000D02*
G75*
G03*
X13004000Y-8382000I-50000J0D01*
G01*
X12904000Y-10618000D02*
X13004000Y-10718000D01*
X13004000Y-10618000D02*
X12904000Y-10718000D01*
X13004000Y-10668000D02*
G75*
G03*
X13004000Y-10668000I-50000J0D01*
G01*
X12904000Y-12904000D02*
X13004000Y-13004000D01*
X13004000Y-12904000D02*
X12904000Y-13004000D01*
X13004000Y-12954000D02*
G75*
G03*
X13004000Y-12954000I-50000J0D01*
G01*
X13031500Y-10873500D02*
X13131500Y-10973500D01*
X13131500Y-10873500D02*
X13031500Y-10973500D01*
X13131500Y-10923500D02*
G75*
G03*
X13131500Y-10923500I-50000J0D01*
G01*
X13031500Y-11127500D02*
X13131500Y-11227500D01*
X13131500Y-11127500D02*
X13031500Y-11227500D01*
X13131500Y-11177500D02*
G75*
G03*
X13131500Y-11177500I-50000J0D01*
G01*
X13031500Y-11381500D02*
X13131500Y-11481500D01*
X13131500Y-11381500D02*
X13031500Y-11481500D01*
X13131500Y-11431500D02*
G75*
G03*
X13131500Y-11431500I-50000J0D01*
G01*
X13154000Y-8332000D02*
X13254000Y-8432000D01*
X13254000Y-8332000D02*
X13154000Y-8432000D01*
X13254000Y-8382000D02*
G75*
G03*
X13254000Y-8382000I-50000J0D01*
G01*
X13154000Y-10618000D02*
X13254000Y-10718000D01*
X13254000Y-10618000D02*
X13154000Y-10718000D01*
X13254000Y-10668000D02*
G75*
G03*
X13254000Y-10668000I-50000J0D01*
G01*
X13154000Y-12904000D02*
X13254000Y-13004000D01*
X13254000Y-12904000D02*
X13154000Y-13004000D01*
X13254000Y-12954000D02*
G75*
G03*
X13254000Y-12954000I-50000J0D01*
G01*
X13437400Y-6350800D02*
X13537400Y-6450800D01*
X13537400Y-6350800D02*
X13437400Y-6450800D01*
X13537400Y-6400800D02*
G75*
G03*
X13537400Y-6400800I-50000J0D01*
G01*
X13470000Y-4880000D02*
X13570000Y-4980000D01*
X13570000Y-4880000D02*
X13470000Y-4980000D01*
X13570000Y-4930000D02*
G75*
G03*
X13570000Y-4930000I-50000J0D01*
G01*
D11*
X13480000Y-4855000D02*
X13480000Y-5005000D01*
X13560000Y-4855000D02*
X13560000Y-5005000D01*
X13480000Y-5005000D02*
G75*
G03*
X13560000Y-5005000I40000J0D01*
G01*
X13560000Y-4855000D02*
G75*
G03*
X13480000Y-4855000I-40000J0D01*
G01*
D17*
X13920000Y-4980000D02*
X14020000Y-5080000D01*
X14020000Y-4980000D02*
X13920000Y-5080000D01*
X14020000Y-5030000D02*
G75*
G03*
X14020000Y-5030000I-50000J0D01*
G01*
D11*
X13905000Y-5070000D02*
X14035000Y-5070000D01*
X13905000Y-4990000D02*
X14035000Y-4990000D01*
X14035000Y-5070000D02*
G75*
G03*
X14035000Y-4990000I0J40000D01*
G01*
X13905000Y-4990000D02*
G75*
G03*
X13905000Y-5070000I0J-40000D01*
G01*
D17*
X13920000Y-5580000D02*
X14020000Y-5680000D01*
X14020000Y-5580000D02*
X13920000Y-5680000D01*
X14020000Y-5630000D02*
G75*
G03*
X14020000Y-5630000I-50000J0D01*
G01*
D11*
X13870000Y-5670000D02*
X14070000Y-5670000D01*
X13870000Y-5590000D02*
X14070000Y-5590000D01*
X14070000Y-5670000D02*
G75*
G03*
X14070000Y-5590000I0J40000D01*
G01*
X13870000Y-5590000D02*
G75*
G03*
X13870000Y-5670000I0J-40000D01*
G01*
D17*
X14370000Y-4880000D02*
X14470000Y-4980000D01*
X14470000Y-4880000D02*
X14370000Y-4980000D01*
X14470000Y-4930000D02*
G75*
G03*
X14470000Y-4930000I-50000J0D01*
G01*
D11*
X14380000Y-4855000D02*
X14380000Y-5005000D01*
X14460000Y-4855000D02*
X14460000Y-5005000D01*
X14380000Y-5005000D02*
G75*
G03*
X14460000Y-5005000I40000J0D01*
G01*
X14460000Y-4855000D02*
G75*
G03*
X14380000Y-4855000I-40000J0D01*
G01*
D17*
X17603000Y-12929400D02*
X17703000Y-13029400D01*
X17703000Y-12929400D02*
X17603000Y-13029400D01*
X17703000Y-12979400D02*
G75*
G03*
X17703000Y-12979400I-50000J0D01*
G01*
X17857000Y-12929400D02*
X17957000Y-13029400D01*
X17957000Y-12929400D02*
X17857000Y-13029400D01*
X17957000Y-12979400D02*
G75*
G03*
X17957000Y-12979400I-50000J0D01*
G01*
X18111000Y-12929400D02*
X18211000Y-13029400D01*
X18211000Y-12929400D02*
X18111000Y-13029400D01*
X18211000Y-12979400D02*
G75*
G03*
X18211000Y-12979400I-50000J0D01*
G01*
X18365000Y-12929400D02*
X18465000Y-13029400D01*
X18465000Y-12929400D02*
X18365000Y-13029400D01*
X18465000Y-12979400D02*
G75*
G03*
X18465000Y-12979400I-50000J0D01*
G01*
X18619000Y-12929400D02*
X18719000Y-13029400D01*
X18719000Y-12929400D02*
X18619000Y-13029400D01*
X18719000Y-12979400D02*
G75*
G03*
X18719000Y-12979400I-50000J0D01*
G01*
X18873000Y-12929400D02*
X18973000Y-13029400D01*
X18973000Y-12929400D02*
X18873000Y-13029400D01*
X18973000Y-12979400D02*
G75*
G03*
X18973000Y-12979400I-50000J0D01*
G01*
D18*
X12419000Y-7577000D02*
X12529000Y-7687000D01*
X12529000Y-7577000D02*
X12419000Y-7687000D01*
X12474000Y-7577000D02*
X12474000Y-7687000D01*
X12419000Y-7632000D02*
X12529000Y-7632000D01*
D11*
X12519000Y-7667000D02*
X12519000Y-7597000D01*
X12429000Y-7667000D02*
X12429000Y-7597000D01*
X12519000Y-7597000D02*
G75*
G03*
X12429000Y-7597000I-45000J0D01*
G01*
X12429000Y-7667000D02*
G75*
G03*
X12519000Y-7667000I45000J0D01*
G01*
D18*
X12419000Y-9863000D02*
X12529000Y-9973000D01*
X12529000Y-9863000D02*
X12419000Y-9973000D01*
X12474000Y-9863000D02*
X12474000Y-9973000D01*
X12419000Y-9918000D02*
X12529000Y-9918000D01*
D11*
X12519000Y-9953000D02*
X12519000Y-9883000D01*
X12429000Y-9953000D02*
X12429000Y-9883000D01*
X12519000Y-9883000D02*
G75*
G03*
X12429000Y-9883000I-45000J0D01*
G01*
X12429000Y-9953000D02*
G75*
G03*
X12519000Y-9953000I45000J0D01*
G01*
D18*
X12419000Y-12149000D02*
X12529000Y-12259000D01*
X12529000Y-12149000D02*
X12419000Y-12259000D01*
X12474000Y-12149000D02*
X12474000Y-12259000D01*
X12419000Y-12204000D02*
X12529000Y-12204000D01*
D11*
X12519000Y-12239000D02*
X12519000Y-12169000D01*
X12429000Y-12239000D02*
X12429000Y-12169000D01*
X12519000Y-12169000D02*
G75*
G03*
X12429000Y-12169000I-45000J0D01*
G01*
X12429000Y-12239000D02*
G75*
G03*
X12519000Y-12239000I45000J0D01*
G01*
D18*
X13379000Y-7577000D02*
X13489000Y-7687000D01*
X13489000Y-7577000D02*
X13379000Y-7687000D01*
X13434000Y-7577000D02*
X13434000Y-7687000D01*
X13379000Y-7632000D02*
X13489000Y-7632000D01*
D11*
X13479000Y-7667000D02*
X13479000Y-7597000D01*
X13389000Y-7667000D02*
X13389000Y-7597000D01*
X13479000Y-7597000D02*
G75*
G03*
X13389000Y-7597000I-45000J0D01*
G01*
X13389000Y-7667000D02*
G75*
G03*
X13479000Y-7667000I45000J0D01*
G01*
D18*
X13379000Y-9863000D02*
X13489000Y-9973000D01*
X13489000Y-9863000D02*
X13379000Y-9973000D01*
X13434000Y-9863000D02*
X13434000Y-9973000D01*
X13379000Y-9918000D02*
X13489000Y-9918000D01*
D11*
X13479000Y-9953000D02*
X13479000Y-9883000D01*
X13389000Y-9953000D02*
X13389000Y-9883000D01*
X13479000Y-9883000D02*
G75*
G03*
X13389000Y-9883000I-45000J0D01*
G01*
X13389000Y-9953000D02*
G75*
G03*
X13479000Y-9953000I45000J0D01*
G01*
D18*
X13379000Y-12149000D02*
X13489000Y-12259000D01*
X13489000Y-12149000D02*
X13379000Y-12259000D01*
X13434000Y-12149000D02*
X13434000Y-12259000D01*
X13379000Y-12204000D02*
X13489000Y-12204000D01*
D11*
X13479000Y-12239000D02*
X13479000Y-12169000D01*
X13389000Y-12239000D02*
X13389000Y-12169000D01*
X13479000Y-12169000D02*
G75*
G03*
X13389000Y-12169000I-45000J0D01*
G01*
X13389000Y-12239000D02*
G75*
G03*
X13479000Y-12239000I45000J0D01*
G01*
D19*
X11111000Y-15073400D02*
X11241000Y-15203400D01*
X11241000Y-15073400D02*
X11111000Y-15203400D01*
X11221962Y-15184362D02*
X11221962Y-15092438D01*
X11130038Y-15092438D01*
X11130038Y-15184362D01*
X11221962Y-15184362D01*
X11873000Y-15073400D02*
X12003000Y-15203400D01*
X12003000Y-15073400D02*
X11873000Y-15203400D01*
X11983962Y-15184362D02*
X11983962Y-15092438D01*
X11892038Y-15092438D01*
X11892038Y-15184362D01*
X11983962Y-15184362D01*
D20*
X11362600Y-4891500D02*
X11502600Y-5031500D01*
X11502600Y-4891500D02*
X11362600Y-5031500D01*
X11432600Y-5031500D02*
X11502600Y-4961500D01*
X11432600Y-4891500D01*
X11362600Y-4961500D01*
X11432600Y-5031500D01*
X11362600Y-5526500D02*
X11502600Y-5666500D01*
X11502600Y-5526500D02*
X11362600Y-5666500D01*
X11432600Y-5666500D02*
X11502600Y-5596500D01*
X11432600Y-5526500D01*
X11362600Y-5596500D01*
X11432600Y-5666500D01*
X11362600Y-6161500D02*
X11502600Y-6301500D01*
X11502600Y-6161500D02*
X11362600Y-6301500D01*
X11432600Y-6301500D02*
X11502600Y-6231500D01*
X11432600Y-6161500D01*
X11362600Y-6231500D01*
X11432600Y-6301500D01*
X12985600Y-4891500D02*
X13125600Y-5031500D01*
X13125600Y-4891500D02*
X12985600Y-5031500D01*
X13055600Y-5031500D02*
X13125600Y-4961500D01*
X13055600Y-4891500D01*
X12985600Y-4961500D01*
X13055600Y-5031500D01*
X12985600Y-5526500D02*
X13125600Y-5666500D01*
X13125600Y-5526500D02*
X12985600Y-5666500D01*
X13055600Y-5666500D02*
X13125600Y-5596500D01*
X13055600Y-5526500D01*
X12985600Y-5596500D01*
X13055600Y-5666500D01*
X12985600Y-6161500D02*
X13125600Y-6301500D01*
X13125600Y-6161500D02*
X12985600Y-6301500D01*
X13055600Y-6301500D02*
X13125600Y-6231500D01*
X13055600Y-6161500D01*
X12985600Y-6231500D01*
X13055600Y-6301500D01*
X14817000Y-4891500D02*
X14957000Y-5031500D01*
X14957000Y-4891500D02*
X14817000Y-5031500D01*
X14887000Y-5031500D02*
X14957000Y-4961500D01*
X14887000Y-4891500D01*
X14817000Y-4961500D01*
X14887000Y-5031500D01*
X14817000Y-5526500D02*
X14957000Y-5666500D01*
X14957000Y-5526500D02*
X14817000Y-5666500D01*
X14887000Y-5666500D02*
X14957000Y-5596500D01*
X14887000Y-5526500D01*
X14817000Y-5596500D01*
X14887000Y-5666500D01*
X14817000Y-6161500D02*
X14957000Y-6301500D01*
X14957000Y-6161500D02*
X14817000Y-6301500D01*
X14887000Y-6301500D02*
X14957000Y-6231500D01*
X14887000Y-6161500D01*
X14817000Y-6231500D01*
X14887000Y-6301500D01*
X16440000Y-4891500D02*
X16580000Y-5031500D01*
X16580000Y-4891500D02*
X16440000Y-5031500D01*
X16510000Y-5031500D02*
X16580000Y-4961500D01*
X16510000Y-4891500D01*
X16440000Y-4961500D01*
X16510000Y-5031500D01*
X16440000Y-5526500D02*
X16580000Y-5666500D01*
X16580000Y-5526500D02*
X16440000Y-5666500D01*
X16510000Y-5666500D02*
X16580000Y-5596500D01*
X16510000Y-5526500D01*
X16440000Y-5596500D01*
X16510000Y-5666500D01*
X16440000Y-6161500D02*
X16580000Y-6301500D01*
X16580000Y-6161500D02*
X16440000Y-6301500D01*
X16510000Y-6301500D02*
X16580000Y-6231500D01*
X16510000Y-6161500D01*
X16440000Y-6231500D01*
X16510000Y-6301500D01*
X16898500Y-4891500D02*
X17038500Y-5031500D01*
X17038500Y-4891500D02*
X16898500Y-5031500D01*
X16968500Y-5031500D02*
X17038500Y-4961500D01*
X16968500Y-4891500D01*
X16898500Y-4961500D01*
X16968500Y-5031500D01*
X16898500Y-5526500D02*
X17038500Y-5666500D01*
X17038500Y-5526500D02*
X16898500Y-5666500D01*
X16968500Y-5666500D02*
X17038500Y-5596500D01*
X16968500Y-5526500D01*
X16898500Y-5596500D01*
X16968500Y-5666500D01*
X16898500Y-6161500D02*
X17038500Y-6301500D01*
X17038500Y-6161500D02*
X16898500Y-6301500D01*
X16968500Y-6301500D02*
X17038500Y-6231500D01*
X16968500Y-6161500D01*
X16898500Y-6231500D01*
X16968500Y-6301500D01*
X18521500Y-4891500D02*
X18661500Y-5031500D01*
X18661500Y-4891500D02*
X18521500Y-5031500D01*
X18591500Y-5031500D02*
X18661500Y-4961500D01*
X18591500Y-4891500D01*
X18521500Y-4961500D01*
X18591500Y-5031500D01*
X18521500Y-5526500D02*
X18661500Y-5666500D01*
X18661500Y-5526500D02*
X18521500Y-5666500D01*
X18591500Y-5666500D02*
X18661500Y-5596500D01*
X18591500Y-5526500D01*
X18521500Y-5596500D01*
X18591500Y-5666500D01*
X18521500Y-6161500D02*
X18661500Y-6301500D01*
X18661500Y-6161500D02*
X18521500Y-6301500D01*
X18591500Y-6301500D02*
X18661500Y-6231500D01*
X18591500Y-6161500D01*
X18521500Y-6231500D01*
X18591500Y-6301500D01*
D11*
X11047619Y-15721590D02*
X11047619Y-15521590D01*
X11095238Y-15521590D01*
X11123810Y-15531114D01*
X11142857Y-15550162D01*
X11152381Y-15569209D01*
X11161905Y-15607305D01*
X11161905Y-15635876D01*
X11152381Y-15673971D01*
X11142857Y-15693019D01*
X11123810Y-15712067D01*
X11095238Y-15721590D01*
X11047619Y-15721590D01*
X11247619Y-15721590D02*
X11247619Y-15588257D01*
X11247619Y-15626352D02*
X11257143Y-15607305D01*
X11266667Y-15597781D01*
X11285714Y-15588257D01*
X11304762Y-15588257D01*
X11371428Y-15721590D02*
X11371428Y-15588257D01*
X11371428Y-15521590D02*
X11361905Y-15531114D01*
X11371428Y-15540638D01*
X11380952Y-15531114D01*
X11371428Y-15521590D01*
X11371428Y-15540638D01*
X11495238Y-15721590D02*
X11476190Y-15712067D01*
X11466667Y-15693019D01*
X11466667Y-15521590D01*
X11600000Y-15721590D02*
X11580952Y-15712067D01*
X11571428Y-15693019D01*
X11571428Y-15521590D01*
X11828571Y-15721590D02*
X11828571Y-15521590D01*
X11895238Y-15664448D01*
X11961905Y-15521590D01*
X11961905Y-15721590D01*
X12142857Y-15721590D02*
X12142857Y-15616828D01*
X12133333Y-15597781D01*
X12114286Y-15588257D01*
X12076190Y-15588257D01*
X12057143Y-15597781D01*
X12142857Y-15712067D02*
X12123809Y-15721590D01*
X12076190Y-15721590D01*
X12057143Y-15712067D01*
X12047619Y-15693019D01*
X12047619Y-15673971D01*
X12057143Y-15654924D01*
X12076190Y-15645400D01*
X12123809Y-15645400D01*
X12142857Y-15635876D01*
X12238095Y-15588257D02*
X12238095Y-15788257D01*
X12238095Y-15597781D02*
X12257143Y-15588257D01*
X12295238Y-15588257D01*
X12314286Y-15597781D01*
X12323809Y-15607305D01*
X12333333Y-15626352D01*
X12333333Y-15683495D01*
X12323809Y-15702543D01*
X12314286Y-15712067D01*
X12295238Y-15721590D01*
X12257143Y-15721590D01*
X12238095Y-15712067D01*
X12419048Y-15702543D02*
X12428571Y-15712067D01*
X12419048Y-15721590D01*
X12409524Y-15712067D01*
X12419048Y-15702543D01*
X12419048Y-15721590D01*
X12419048Y-15597781D02*
X12428571Y-15607305D01*
X12419048Y-15616828D01*
X12409524Y-15607305D01*
X12419048Y-15597781D01*
X12419048Y-15616828D01*
D12*
X10750000Y-16031114D02*
X10790000Y-16071114D01*
X10790000Y-16031114D02*
X10750000Y-16071114D01*
D11*
X11085714Y-15941590D02*
X11104762Y-15941590D01*
X11123810Y-15951114D01*
X11133333Y-15960638D01*
X11142857Y-15979686D01*
X11152381Y-16017781D01*
X11152381Y-16065400D01*
X11142857Y-16103495D01*
X11133333Y-16122543D01*
X11123810Y-16132067D01*
X11104762Y-16141590D01*
X11085714Y-16141590D01*
X11066667Y-16132067D01*
X11057143Y-16122543D01*
X11047619Y-16103495D01*
X11038095Y-16065400D01*
X11038095Y-16017781D01*
X11047619Y-15979686D01*
X11057143Y-15960638D01*
X11066667Y-15951114D01*
X11085714Y-15941590D01*
X11238095Y-16122543D02*
X11247619Y-16132067D01*
X11238095Y-16141590D01*
X11228571Y-16132067D01*
X11238095Y-16122543D01*
X11238095Y-16141590D01*
X11419048Y-16008257D02*
X11419048Y-16141590D01*
X11371428Y-15932067D02*
X11323809Y-16074924D01*
X11447619Y-16074924D01*
X11561905Y-15941590D02*
X11580952Y-15941590D01*
X11600000Y-15951114D01*
X11609524Y-15960638D01*
X11619048Y-15979686D01*
X11628571Y-16017781D01*
X11628571Y-16065400D01*
X11619048Y-16103495D01*
X11609524Y-16122543D01*
X11600000Y-16132067D01*
X11580952Y-16141590D01*
X11561905Y-16141590D01*
X11542857Y-16132067D01*
X11533333Y-16122543D01*
X11523809Y-16103495D01*
X11514286Y-16065400D01*
X11514286Y-16017781D01*
X11523809Y-15979686D01*
X11533333Y-15960638D01*
X11542857Y-15951114D01*
X11561905Y-15941590D01*
X11752381Y-15941590D02*
X11771428Y-15941590D01*
X11790476Y-15951114D01*
X11800000Y-15960638D01*
X11809524Y-15979686D01*
X11819048Y-16017781D01*
X11819048Y-16065400D01*
X11809524Y-16103495D01*
X11800000Y-16122543D01*
X11790476Y-16132067D01*
X11771428Y-16141590D01*
X11752381Y-16141590D01*
X11733333Y-16132067D01*
X11723809Y-16122543D01*
X11714286Y-16103495D01*
X11704762Y-16065400D01*
X11704762Y-16017781D01*
X11714286Y-15979686D01*
X11723809Y-15960638D01*
X11733333Y-15951114D01*
X11752381Y-15941590D01*
X11904762Y-16141590D02*
X11904762Y-16008257D01*
X11904762Y-16027305D02*
X11914286Y-16017781D01*
X11933333Y-16008257D01*
X11961905Y-16008257D01*
X11980952Y-16017781D01*
X11990476Y-16036828D01*
X11990476Y-16141590D01*
X11990476Y-16036828D02*
X12000000Y-16017781D01*
X12019048Y-16008257D01*
X12047619Y-16008257D01*
X12066667Y-16017781D01*
X12076190Y-16036828D01*
X12076190Y-16141590D01*
X12171428Y-16141590D02*
X12171428Y-16008257D01*
X12171428Y-16027305D02*
X12180952Y-16017781D01*
X12200000Y-16008257D01*
X12228571Y-16008257D01*
X12247619Y-16017781D01*
X12257143Y-16036828D01*
X12257143Y-16141590D01*
X12257143Y-16036828D02*
X12266667Y-16017781D01*
X12285714Y-16008257D01*
X12314286Y-16008257D01*
X12333333Y-16017781D01*
X12342857Y-16036828D01*
X12342857Y-16141590D01*
X12733333Y-15932067D02*
X12561905Y-16189209D01*
X12990476Y-15941590D02*
X13009524Y-15941590D01*
X13028571Y-15951114D01*
X13038095Y-15960638D01*
X13047619Y-15979686D01*
X13057143Y-16017781D01*
X13057143Y-16065400D01*
X13047619Y-16103495D01*
X13038095Y-16122543D01*
X13028571Y-16132067D01*
X13009524Y-16141590D01*
X12990476Y-16141590D01*
X12971428Y-16132067D01*
X12961905Y-16122543D01*
X12952381Y-16103495D01*
X12942857Y-16065400D01*
X12942857Y-16017781D01*
X12952381Y-15979686D01*
X12961905Y-15960638D01*
X12971428Y-15951114D01*
X12990476Y-15941590D01*
X13142857Y-16122543D02*
X13152381Y-16132067D01*
X13142857Y-16141590D01*
X13133333Y-16132067D01*
X13142857Y-16122543D01*
X13142857Y-16141590D01*
X13276190Y-15941590D02*
X13295238Y-15941590D01*
X13314286Y-15951114D01*
X13323809Y-15960638D01*
X13333333Y-15979686D01*
X13342857Y-16017781D01*
X13342857Y-16065400D01*
X13333333Y-16103495D01*
X13323809Y-16122543D01*
X13314286Y-16132067D01*
X13295238Y-16141590D01*
X13276190Y-16141590D01*
X13257143Y-16132067D01*
X13247619Y-16122543D01*
X13238095Y-16103495D01*
X13228571Y-16065400D01*
X13228571Y-16017781D01*
X13238095Y-15979686D01*
X13247619Y-15960638D01*
X13257143Y-15951114D01*
X13276190Y-15941590D01*
X13533333Y-16141590D02*
X13419048Y-16141590D01*
X13476190Y-16141590D02*
X13476190Y-15941590D01*
X13457143Y-15970162D01*
X13438095Y-15989209D01*
X13419048Y-15998733D01*
X13714286Y-15941590D02*
X13619048Y-15941590D01*
X13609524Y-16036828D01*
X13619048Y-16027305D01*
X13638095Y-16017781D01*
X13685714Y-16017781D01*
X13704762Y-16027305D01*
X13714286Y-16036828D01*
X13723809Y-16055876D01*
X13723809Y-16103495D01*
X13714286Y-16122543D01*
X13704762Y-16132067D01*
X13685714Y-16141590D01*
X13638095Y-16141590D01*
X13619048Y-16132067D01*
X13609524Y-16122543D01*
X13790476Y-15941590D02*
X13923809Y-15941590D01*
X13838095Y-16141590D01*
X13990476Y-15941590D02*
X13990476Y-15979686D01*
X14066667Y-15941590D02*
X14066667Y-15979686D01*
X14361905Y-16217781D02*
X14352381Y-16208257D01*
X14333333Y-16179686D01*
X14323809Y-16160638D01*
X14314286Y-16132067D01*
X14304762Y-16084448D01*
X14304762Y-16046352D01*
X14314286Y-15998733D01*
X14323809Y-15970162D01*
X14333333Y-15951114D01*
X14352381Y-15922543D01*
X14361905Y-15913019D01*
X14542857Y-16141590D02*
X14428571Y-16141590D01*
X14485714Y-16141590D02*
X14485714Y-15941590D01*
X14466667Y-15970162D01*
X14447619Y-15989209D01*
X14428571Y-15998733D01*
X14780952Y-16141590D02*
X14780952Y-15941590D01*
X14866667Y-16141590D02*
X14866667Y-16036828D01*
X14857143Y-16017781D01*
X14838095Y-16008257D01*
X14809524Y-16008257D01*
X14790476Y-16017781D01*
X14780952Y-16027305D01*
X14990476Y-16141590D02*
X14971428Y-16132067D01*
X14961905Y-16122543D01*
X14952381Y-16103495D01*
X14952381Y-16046352D01*
X14961905Y-16027305D01*
X14971428Y-16017781D01*
X14990476Y-16008257D01*
X15019048Y-16008257D01*
X15038095Y-16017781D01*
X15047619Y-16027305D01*
X15057143Y-16046352D01*
X15057143Y-16103495D01*
X15047619Y-16122543D01*
X15038095Y-16132067D01*
X15019048Y-16141590D01*
X14990476Y-16141590D01*
X15171428Y-16141590D02*
X15152381Y-16132067D01*
X15142857Y-16113019D01*
X15142857Y-15941590D01*
X15323809Y-16132067D02*
X15304762Y-16141590D01*
X15266667Y-16141590D01*
X15247619Y-16132067D01*
X15238095Y-16113019D01*
X15238095Y-16036828D01*
X15247619Y-16017781D01*
X15266667Y-16008257D01*
X15304762Y-16008257D01*
X15323809Y-16017781D01*
X15333333Y-16036828D01*
X15333333Y-16055876D01*
X15238095Y-16074924D01*
X15400000Y-16217781D02*
X15409524Y-16208257D01*
X15428571Y-16179686D01*
X15438095Y-16160638D01*
X15447619Y-16132067D01*
X15457143Y-16084448D01*
X15457143Y-16046352D01*
X15447619Y-15998733D01*
X15438095Y-15970162D01*
X15428571Y-15951114D01*
X15409524Y-15922543D01*
X15400000Y-15913019D01*
D13*
X10790000Y-16315114D02*
G75*
G03*
X10790000Y-16315114I-25000J0D01*
G01*
D11*
X11085714Y-16205590D02*
X11104762Y-16205590D01*
X11123810Y-16215114D01*
X11133333Y-16224638D01*
X11142857Y-16243686D01*
X11152381Y-16281781D01*
X11152381Y-16329400D01*
X11142857Y-16367495D01*
X11133333Y-16386543D01*
X11123810Y-16396067D01*
X11104762Y-16405590D01*
X11085714Y-16405590D01*
X11066667Y-16396067D01*
X11057143Y-16386543D01*
X11047619Y-16367495D01*
X11038095Y-16329400D01*
X11038095Y-16281781D01*
X11047619Y-16243686D01*
X11057143Y-16224638D01*
X11066667Y-16215114D01*
X11085714Y-16205590D01*
X11238095Y-16386543D02*
X11247619Y-16396067D01*
X11238095Y-16405590D01*
X11228571Y-16396067D01*
X11238095Y-16386543D01*
X11238095Y-16405590D01*
X11428571Y-16205590D02*
X11333333Y-16205590D01*
X11323809Y-16300828D01*
X11333333Y-16291305D01*
X11352381Y-16281781D01*
X11400000Y-16281781D01*
X11419048Y-16291305D01*
X11428571Y-16300828D01*
X11438095Y-16319876D01*
X11438095Y-16367495D01*
X11428571Y-16386543D01*
X11419048Y-16396067D01*
X11400000Y-16405590D01*
X11352381Y-16405590D01*
X11333333Y-16396067D01*
X11323809Y-16386543D01*
X11561905Y-16205590D02*
X11580952Y-16205590D01*
X11600000Y-16215114D01*
X11609524Y-16224638D01*
X11619048Y-16243686D01*
X11628571Y-16281781D01*
X11628571Y-16329400D01*
X11619048Y-16367495D01*
X11609524Y-16386543D01*
X11600000Y-16396067D01*
X11580952Y-16405590D01*
X11561905Y-16405590D01*
X11542857Y-16396067D01*
X11533333Y-16386543D01*
X11523809Y-16367495D01*
X11514286Y-16329400D01*
X11514286Y-16281781D01*
X11523809Y-16243686D01*
X11533333Y-16224638D01*
X11542857Y-16215114D01*
X11561905Y-16205590D01*
X11752381Y-16205590D02*
X11771428Y-16205590D01*
X11790476Y-16215114D01*
X11800000Y-16224638D01*
X11809524Y-16243686D01*
X11819048Y-16281781D01*
X11819048Y-16329400D01*
X11809524Y-16367495D01*
X11800000Y-16386543D01*
X11790476Y-16396067D01*
X11771428Y-16405590D01*
X11752381Y-16405590D01*
X11733333Y-16396067D01*
X11723809Y-16386543D01*
X11714286Y-16367495D01*
X11704762Y-16329400D01*
X11704762Y-16281781D01*
X11714286Y-16243686D01*
X11723809Y-16224638D01*
X11733333Y-16215114D01*
X11752381Y-16205590D01*
X11904762Y-16405590D02*
X11904762Y-16272257D01*
X11904762Y-16291305D02*
X11914286Y-16281781D01*
X11933333Y-16272257D01*
X11961905Y-16272257D01*
X11980952Y-16281781D01*
X11990476Y-16300828D01*
X11990476Y-16405590D01*
X11990476Y-16300828D02*
X12000000Y-16281781D01*
X12019048Y-16272257D01*
X12047619Y-16272257D01*
X12066667Y-16281781D01*
X12076190Y-16300828D01*
X12076190Y-16405590D01*
X12171428Y-16405590D02*
X12171428Y-16272257D01*
X12171428Y-16291305D02*
X12180952Y-16281781D01*
X12200000Y-16272257D01*
X12228571Y-16272257D01*
X12247619Y-16281781D01*
X12257143Y-16300828D01*
X12257143Y-16405590D01*
X12257143Y-16300828D02*
X12266667Y-16281781D01*
X12285714Y-16272257D01*
X12314286Y-16272257D01*
X12333333Y-16281781D01*
X12342857Y-16300828D01*
X12342857Y-16405590D01*
X12733333Y-16196067D02*
X12561905Y-16453209D01*
X12990476Y-16205590D02*
X13009524Y-16205590D01*
X13028571Y-16215114D01*
X13038095Y-16224638D01*
X13047619Y-16243686D01*
X13057143Y-16281781D01*
X13057143Y-16329400D01*
X13047619Y-16367495D01*
X13038095Y-16386543D01*
X13028571Y-16396067D01*
X13009524Y-16405590D01*
X12990476Y-16405590D01*
X12971428Y-16396067D01*
X12961905Y-16386543D01*
X12952381Y-16367495D01*
X12942857Y-16329400D01*
X12942857Y-16281781D01*
X12952381Y-16243686D01*
X12961905Y-16224638D01*
X12971428Y-16215114D01*
X12990476Y-16205590D01*
X13142857Y-16386543D02*
X13152381Y-16396067D01*
X13142857Y-16405590D01*
X13133333Y-16396067D01*
X13142857Y-16386543D01*
X13142857Y-16405590D01*
X13276190Y-16205590D02*
X13295238Y-16205590D01*
X13314286Y-16215114D01*
X13323809Y-16224638D01*
X13333333Y-16243686D01*
X13342857Y-16281781D01*
X13342857Y-16329400D01*
X13333333Y-16367495D01*
X13323809Y-16386543D01*
X13314286Y-16396067D01*
X13295238Y-16405590D01*
X13276190Y-16405590D01*
X13257143Y-16396067D01*
X13247619Y-16386543D01*
X13238095Y-16367495D01*
X13228571Y-16329400D01*
X13228571Y-16281781D01*
X13238095Y-16243686D01*
X13247619Y-16224638D01*
X13257143Y-16215114D01*
X13276190Y-16205590D01*
X13533333Y-16405590D02*
X13419048Y-16405590D01*
X13476190Y-16405590D02*
X13476190Y-16205590D01*
X13457143Y-16234162D01*
X13438095Y-16253209D01*
X13419048Y-16262733D01*
X13628571Y-16405590D02*
X13666667Y-16405590D01*
X13685714Y-16396067D01*
X13695238Y-16386543D01*
X13714286Y-16357971D01*
X13723809Y-16319876D01*
X13723809Y-16243686D01*
X13714286Y-16224638D01*
X13704762Y-16215114D01*
X13685714Y-16205590D01*
X13647619Y-16205590D01*
X13628571Y-16215114D01*
X13619048Y-16224638D01*
X13609524Y-16243686D01*
X13609524Y-16291305D01*
X13619048Y-16310352D01*
X13628571Y-16319876D01*
X13647619Y-16329400D01*
X13685714Y-16329400D01*
X13704762Y-16319876D01*
X13714286Y-16310352D01*
X13723809Y-16291305D01*
X13790476Y-16205590D02*
X13923809Y-16205590D01*
X13838095Y-16405590D01*
X13990476Y-16205590D02*
X13990476Y-16243686D01*
X14066667Y-16205590D02*
X14066667Y-16243686D01*
X14361905Y-16481781D02*
X14352381Y-16472257D01*
X14333333Y-16443686D01*
X14323809Y-16424638D01*
X14314286Y-16396067D01*
X14304762Y-16348448D01*
X14304762Y-16310352D01*
X14314286Y-16262733D01*
X14323809Y-16234162D01*
X14333333Y-16215114D01*
X14352381Y-16186543D01*
X14361905Y-16177019D01*
X14542857Y-16405590D02*
X14428571Y-16405590D01*
X14485714Y-16405590D02*
X14485714Y-16205590D01*
X14466667Y-16234162D01*
X14447619Y-16253209D01*
X14428571Y-16262733D01*
X14723809Y-16205590D02*
X14628571Y-16205590D01*
X14619048Y-16300828D01*
X14628571Y-16291305D01*
X14647619Y-16281781D01*
X14695238Y-16281781D01*
X14714286Y-16291305D01*
X14723809Y-16300828D01*
X14733333Y-16319876D01*
X14733333Y-16367495D01*
X14723809Y-16386543D01*
X14714286Y-16396067D01*
X14695238Y-16405590D01*
X14647619Y-16405590D01*
X14628571Y-16396067D01*
X14619048Y-16386543D01*
X14857143Y-16205590D02*
X14876190Y-16205590D01*
X14895238Y-16215114D01*
X14904762Y-16224638D01*
X14914286Y-16243686D01*
X14923809Y-16281781D01*
X14923809Y-16329400D01*
X14914286Y-16367495D01*
X14904762Y-16386543D01*
X14895238Y-16396067D01*
X14876190Y-16405590D01*
X14857143Y-16405590D01*
X14838095Y-16396067D01*
X14828571Y-16386543D01*
X14819048Y-16367495D01*
X14809524Y-16329400D01*
X14809524Y-16281781D01*
X14819048Y-16243686D01*
X14828571Y-16224638D01*
X14838095Y-16215114D01*
X14857143Y-16205590D01*
X15161905Y-16405590D02*
X15161905Y-16205590D01*
X15247619Y-16405590D02*
X15247619Y-16300828D01*
X15238095Y-16281781D01*
X15219048Y-16272257D01*
X15190476Y-16272257D01*
X15171428Y-16281781D01*
X15161905Y-16291305D01*
X15371428Y-16405590D02*
X15352381Y-16396067D01*
X15342857Y-16386543D01*
X15333333Y-16367495D01*
X15333333Y-16310352D01*
X15342857Y-16291305D01*
X15352381Y-16281781D01*
X15371428Y-16272257D01*
X15400000Y-16272257D01*
X15419048Y-16281781D01*
X15428571Y-16291305D01*
X15438095Y-16310352D01*
X15438095Y-16367495D01*
X15428571Y-16386543D01*
X15419048Y-16396067D01*
X15400000Y-16405590D01*
X15371428Y-16405590D01*
X15552381Y-16405590D02*
X15533333Y-16396067D01*
X15523809Y-16377019D01*
X15523809Y-16205590D01*
X15704762Y-16396067D02*
X15685714Y-16405590D01*
X15647619Y-16405590D01*
X15628571Y-16396067D01*
X15619048Y-16377019D01*
X15619048Y-16300828D01*
X15628571Y-16281781D01*
X15647619Y-16272257D01*
X15685714Y-16272257D01*
X15704762Y-16281781D01*
X15714286Y-16300828D01*
X15714286Y-16319876D01*
X15619048Y-16338924D01*
X15790476Y-16396067D02*
X15809524Y-16405590D01*
X15847619Y-16405590D01*
X15866667Y-16396067D01*
X15876190Y-16377019D01*
X15876190Y-16367495D01*
X15866667Y-16348448D01*
X15847619Y-16338924D01*
X15819048Y-16338924D01*
X15800000Y-16329400D01*
X15790476Y-16310352D01*
X15790476Y-16300828D01*
X15800000Y-16281781D01*
X15819048Y-16272257D01*
X15847619Y-16272257D01*
X15866667Y-16281781D01*
X15942857Y-16481781D02*
X15952381Y-16472257D01*
X15971428Y-16443686D01*
X15980952Y-16424638D01*
X15990476Y-16396067D01*
X16000000Y-16348448D01*
X16000000Y-16310352D01*
X15990476Y-16262733D01*
X15980952Y-16234162D01*
X15971428Y-16215114D01*
X15952381Y-16186543D01*
X15942857Y-16177019D01*
D14*
X10751900Y-16541014D02*
X10751900Y-16617214D01*
X10713800Y-16579114D02*
X10790000Y-16579114D01*
D11*
X11085714Y-16469590D02*
X11104762Y-16469590D01*
X11123810Y-16479114D01*
X11133333Y-16488638D01*
X11142857Y-16507686D01*
X11152381Y-16545781D01*
X11152381Y-16593400D01*
X11142857Y-16631495D01*
X11133333Y-16650543D01*
X11123810Y-16660067D01*
X11104762Y-16669590D01*
X11085714Y-16669590D01*
X11066667Y-16660067D01*
X11057143Y-16650543D01*
X11047619Y-16631495D01*
X11038095Y-16593400D01*
X11038095Y-16545781D01*
X11047619Y-16507686D01*
X11057143Y-16488638D01*
X11066667Y-16479114D01*
X11085714Y-16469590D01*
X11238095Y-16650543D02*
X11247619Y-16660067D01*
X11238095Y-16669590D01*
X11228571Y-16660067D01*
X11238095Y-16650543D01*
X11238095Y-16669590D01*
X11314286Y-16469590D02*
X11447619Y-16469590D01*
X11361905Y-16669590D01*
X11609524Y-16469590D02*
X11571428Y-16469590D01*
X11552381Y-16479114D01*
X11542857Y-16488638D01*
X11523809Y-16517209D01*
X11514286Y-16555305D01*
X11514286Y-16631495D01*
X11523809Y-16650543D01*
X11533333Y-16660067D01*
X11552381Y-16669590D01*
X11590476Y-16669590D01*
X11609524Y-16660067D01*
X11619048Y-16650543D01*
X11628571Y-16631495D01*
X11628571Y-16583876D01*
X11619048Y-16564828D01*
X11609524Y-16555305D01*
X11590476Y-16545781D01*
X11552381Y-16545781D01*
X11533333Y-16555305D01*
X11523809Y-16564828D01*
X11514286Y-16583876D01*
X11704762Y-16488638D02*
X11714286Y-16479114D01*
X11733333Y-16469590D01*
X11780952Y-16469590D01*
X11800000Y-16479114D01*
X11809524Y-16488638D01*
X11819048Y-16507686D01*
X11819048Y-16526733D01*
X11809524Y-16555305D01*
X11695238Y-16669590D01*
X11819048Y-16669590D01*
X11904762Y-16669590D02*
X11904762Y-16536257D01*
X11904762Y-16555305D02*
X11914286Y-16545781D01*
X11933333Y-16536257D01*
X11961905Y-16536257D01*
X11980952Y-16545781D01*
X11990476Y-16564828D01*
X11990476Y-16669590D01*
X11990476Y-16564828D02*
X12000000Y-16545781D01*
X12019048Y-16536257D01*
X12047619Y-16536257D01*
X12066667Y-16545781D01*
X12076190Y-16564828D01*
X12076190Y-16669590D01*
X12171428Y-16669590D02*
X12171428Y-16536257D01*
X12171428Y-16555305D02*
X12180952Y-16545781D01*
X12200000Y-16536257D01*
X12228571Y-16536257D01*
X12247619Y-16545781D01*
X12257143Y-16564828D01*
X12257143Y-16669590D01*
X12257143Y-16564828D02*
X12266667Y-16545781D01*
X12285714Y-16536257D01*
X12314286Y-16536257D01*
X12333333Y-16545781D01*
X12342857Y-16564828D01*
X12342857Y-16669590D01*
X12733333Y-16460067D02*
X12561905Y-16717209D01*
X12990476Y-16469590D02*
X13009524Y-16469590D01*
X13028571Y-16479114D01*
X13038095Y-16488638D01*
X13047619Y-16507686D01*
X13057143Y-16545781D01*
X13057143Y-16593400D01*
X13047619Y-16631495D01*
X13038095Y-16650543D01*
X13028571Y-16660067D01*
X13009524Y-16669590D01*
X12990476Y-16669590D01*
X12971428Y-16660067D01*
X12961905Y-16650543D01*
X12952381Y-16631495D01*
X12942857Y-16593400D01*
X12942857Y-16545781D01*
X12952381Y-16507686D01*
X12961905Y-16488638D01*
X12971428Y-16479114D01*
X12990476Y-16469590D01*
X13142857Y-16650543D02*
X13152381Y-16660067D01*
X13142857Y-16669590D01*
X13133333Y-16660067D01*
X13142857Y-16650543D01*
X13142857Y-16669590D01*
X13276190Y-16469590D02*
X13295238Y-16469590D01*
X13314286Y-16479114D01*
X13323809Y-16488638D01*
X13333333Y-16507686D01*
X13342857Y-16545781D01*
X13342857Y-16593400D01*
X13333333Y-16631495D01*
X13323809Y-16650543D01*
X13314286Y-16660067D01*
X13295238Y-16669590D01*
X13276190Y-16669590D01*
X13257143Y-16660067D01*
X13247619Y-16650543D01*
X13238095Y-16631495D01*
X13228571Y-16593400D01*
X13228571Y-16545781D01*
X13238095Y-16507686D01*
X13247619Y-16488638D01*
X13257143Y-16479114D01*
X13276190Y-16469590D01*
X13409524Y-16469590D02*
X13533333Y-16469590D01*
X13466667Y-16545781D01*
X13495238Y-16545781D01*
X13514286Y-16555305D01*
X13523809Y-16564828D01*
X13533333Y-16583876D01*
X13533333Y-16631495D01*
X13523809Y-16650543D01*
X13514286Y-16660067D01*
X13495238Y-16669590D01*
X13438095Y-16669590D01*
X13419048Y-16660067D01*
X13409524Y-16650543D01*
X13657143Y-16469590D02*
X13676190Y-16469590D01*
X13695238Y-16479114D01*
X13704762Y-16488638D01*
X13714286Y-16507686D01*
X13723809Y-16545781D01*
X13723809Y-16593400D01*
X13714286Y-16631495D01*
X13704762Y-16650543D01*
X13695238Y-16660067D01*
X13676190Y-16669590D01*
X13657143Y-16669590D01*
X13638095Y-16660067D01*
X13628571Y-16650543D01*
X13619048Y-16631495D01*
X13609524Y-16593400D01*
X13609524Y-16545781D01*
X13619048Y-16507686D01*
X13628571Y-16488638D01*
X13638095Y-16479114D01*
X13657143Y-16469590D01*
X13847619Y-16469590D02*
X13866667Y-16469590D01*
X13885714Y-16479114D01*
X13895238Y-16488638D01*
X13904762Y-16507686D01*
X13914286Y-16545781D01*
X13914286Y-16593400D01*
X13904762Y-16631495D01*
X13895238Y-16650543D01*
X13885714Y-16660067D01*
X13866667Y-16669590D01*
X13847619Y-16669590D01*
X13828571Y-16660067D01*
X13819048Y-16650543D01*
X13809524Y-16631495D01*
X13800000Y-16593400D01*
X13800000Y-16545781D01*
X13809524Y-16507686D01*
X13819048Y-16488638D01*
X13828571Y-16479114D01*
X13847619Y-16469590D01*
X13990476Y-16469590D02*
X13990476Y-16507686D01*
X14066667Y-16469590D02*
X14066667Y-16507686D01*
X14361905Y-16745781D02*
X14352381Y-16736257D01*
X14333333Y-16707686D01*
X14323809Y-16688638D01*
X14314286Y-16660067D01*
X14304762Y-16612448D01*
X14304762Y-16574352D01*
X14314286Y-16526733D01*
X14323809Y-16498162D01*
X14333333Y-16479114D01*
X14352381Y-16450543D01*
X14361905Y-16441019D01*
X14428571Y-16488638D02*
X14438095Y-16479114D01*
X14457143Y-16469590D01*
X14504762Y-16469590D01*
X14523809Y-16479114D01*
X14533333Y-16488638D01*
X14542857Y-16507686D01*
X14542857Y-16526733D01*
X14533333Y-16555305D01*
X14419048Y-16669590D01*
X14542857Y-16669590D01*
X14780952Y-16669590D02*
X14780952Y-16469590D01*
X14866667Y-16669590D02*
X14866667Y-16564828D01*
X14857143Y-16545781D01*
X14838095Y-16536257D01*
X14809524Y-16536257D01*
X14790476Y-16545781D01*
X14780952Y-16555305D01*
X14990476Y-16669590D02*
X14971428Y-16660067D01*
X14961905Y-16650543D01*
X14952381Y-16631495D01*
X14952381Y-16574352D01*
X14961905Y-16555305D01*
X14971428Y-16545781D01*
X14990476Y-16536257D01*
X15019048Y-16536257D01*
X15038095Y-16545781D01*
X15047619Y-16555305D01*
X15057143Y-16574352D01*
X15057143Y-16631495D01*
X15047619Y-16650543D01*
X15038095Y-16660067D01*
X15019048Y-16669590D01*
X14990476Y-16669590D01*
X15171428Y-16669590D02*
X15152381Y-16660067D01*
X15142857Y-16641019D01*
X15142857Y-16469590D01*
X15323809Y-16660067D02*
X15304762Y-16669590D01*
X15266667Y-16669590D01*
X15247619Y-16660067D01*
X15238095Y-16641019D01*
X15238095Y-16564828D01*
X15247619Y-16545781D01*
X15266667Y-16536257D01*
X15304762Y-16536257D01*
X15323809Y-16545781D01*
X15333333Y-16564828D01*
X15333333Y-16583876D01*
X15238095Y-16602924D01*
X15409524Y-16660067D02*
X15428571Y-16669590D01*
X15466667Y-16669590D01*
X15485714Y-16660067D01*
X15495238Y-16641019D01*
X15495238Y-16631495D01*
X15485714Y-16612448D01*
X15466667Y-16602924D01*
X15438095Y-16602924D01*
X15419048Y-16593400D01*
X15409524Y-16574352D01*
X15409524Y-16564828D01*
X15419048Y-16545781D01*
X15438095Y-16536257D01*
X15466667Y-16536257D01*
X15485714Y-16545781D01*
X15561905Y-16745781D02*
X15571428Y-16736257D01*
X15590476Y-16707686D01*
X15600000Y-16688638D01*
X15609524Y-16660067D01*
X15619048Y-16612448D01*
X15619048Y-16574352D01*
X15609524Y-16526733D01*
X15600000Y-16498162D01*
X15590476Y-16479114D01*
X15571428Y-16450543D01*
X15561905Y-16441019D01*
D15*
X10778285Y-16871399D02*
X10778285Y-16814830D01*
X10721716Y-16814830D01*
X10721716Y-16871399D01*
X10778285Y-16871399D01*
D11*
X11085714Y-16733590D02*
X11104762Y-16733590D01*
X11123810Y-16743114D01*
X11133333Y-16752638D01*
X11142857Y-16771686D01*
X11152381Y-16809781D01*
X11152381Y-16857400D01*
X11142857Y-16895495D01*
X11133333Y-16914543D01*
X11123810Y-16924067D01*
X11104762Y-16933590D01*
X11085714Y-16933590D01*
X11066667Y-16924067D01*
X11057143Y-16914543D01*
X11047619Y-16895495D01*
X11038095Y-16857400D01*
X11038095Y-16809781D01*
X11047619Y-16771686D01*
X11057143Y-16752638D01*
X11066667Y-16743114D01*
X11085714Y-16733590D01*
X11238095Y-16914543D02*
X11247619Y-16924067D01*
X11238095Y-16933590D01*
X11228571Y-16924067D01*
X11238095Y-16914543D01*
X11238095Y-16933590D01*
X11361905Y-16819305D02*
X11342857Y-16809781D01*
X11333333Y-16800257D01*
X11323809Y-16781210D01*
X11323809Y-16771686D01*
X11333333Y-16752638D01*
X11342857Y-16743114D01*
X11361905Y-16733590D01*
X11400000Y-16733590D01*
X11419048Y-16743114D01*
X11428571Y-16752638D01*
X11438095Y-16771686D01*
X11438095Y-16781210D01*
X11428571Y-16800257D01*
X11419048Y-16809781D01*
X11400000Y-16819305D01*
X11361905Y-16819305D01*
X11342857Y-16828829D01*
X11333333Y-16838352D01*
X11323809Y-16857400D01*
X11323809Y-16895495D01*
X11333333Y-16914543D01*
X11342857Y-16924067D01*
X11361905Y-16933590D01*
X11400000Y-16933590D01*
X11419048Y-16924067D01*
X11428571Y-16914543D01*
X11438095Y-16895495D01*
X11438095Y-16857400D01*
X11428571Y-16838352D01*
X11419048Y-16828829D01*
X11400000Y-16819305D01*
X11561905Y-16733590D02*
X11580952Y-16733590D01*
X11600000Y-16743114D01*
X11609524Y-16752638D01*
X11619048Y-16771686D01*
X11628571Y-16809781D01*
X11628571Y-16857400D01*
X11619048Y-16895495D01*
X11609524Y-16914543D01*
X11600000Y-16924067D01*
X11580952Y-16933590D01*
X11561905Y-16933590D01*
X11542857Y-16924067D01*
X11533333Y-16914543D01*
X11523809Y-16895495D01*
X11514286Y-16857400D01*
X11514286Y-16809781D01*
X11523809Y-16771686D01*
X11533333Y-16752638D01*
X11542857Y-16743114D01*
X11561905Y-16733590D01*
X11752381Y-16733590D02*
X11771428Y-16733590D01*
X11790476Y-16743114D01*
X11800000Y-16752638D01*
X11809524Y-16771686D01*
X11819048Y-16809781D01*
X11819048Y-16857400D01*
X11809524Y-16895495D01*
X11800000Y-16914543D01*
X11790476Y-16924067D01*
X11771428Y-16933590D01*
X11752381Y-16933590D01*
X11733333Y-16924067D01*
X11723809Y-16914543D01*
X11714286Y-16895495D01*
X11704762Y-16857400D01*
X11704762Y-16809781D01*
X11714286Y-16771686D01*
X11723809Y-16752638D01*
X11733333Y-16743114D01*
X11752381Y-16733590D01*
X11904762Y-16933590D02*
X11904762Y-16800257D01*
X11904762Y-16819305D02*
X11914286Y-16809781D01*
X11933333Y-16800257D01*
X11961905Y-16800257D01*
X11980952Y-16809781D01*
X11990476Y-16828829D01*
X11990476Y-16933590D01*
X11990476Y-16828829D02*
X12000000Y-16809781D01*
X12019048Y-16800257D01*
X12047619Y-16800257D01*
X12066667Y-16809781D01*
X12076190Y-16828829D01*
X12076190Y-16933590D01*
X12171428Y-16933590D02*
X12171428Y-16800257D01*
X12171428Y-16819305D02*
X12180952Y-16809781D01*
X12200000Y-16800257D01*
X12228571Y-16800257D01*
X12247619Y-16809781D01*
X12257143Y-16828829D01*
X12257143Y-16933590D01*
X12257143Y-16828829D02*
X12266667Y-16809781D01*
X12285714Y-16800257D01*
X12314286Y-16800257D01*
X12333333Y-16809781D01*
X12342857Y-16828829D01*
X12342857Y-16933590D01*
X12733333Y-16724067D02*
X12561905Y-16981210D01*
X12990476Y-16733590D02*
X13009524Y-16733590D01*
X13028571Y-16743114D01*
X13038095Y-16752638D01*
X13047619Y-16771686D01*
X13057143Y-16809781D01*
X13057143Y-16857400D01*
X13047619Y-16895495D01*
X13038095Y-16914543D01*
X13028571Y-16924067D01*
X13009524Y-16933590D01*
X12990476Y-16933590D01*
X12971428Y-16924067D01*
X12961905Y-16914543D01*
X12952381Y-16895495D01*
X12942857Y-16857400D01*
X12942857Y-16809781D01*
X12952381Y-16771686D01*
X12961905Y-16752638D01*
X12971428Y-16743114D01*
X12990476Y-16733590D01*
X13142857Y-16914543D02*
X13152381Y-16924067D01*
X13142857Y-16933590D01*
X13133333Y-16924067D01*
X13142857Y-16914543D01*
X13142857Y-16933590D01*
X13276190Y-16733590D02*
X13295238Y-16733590D01*
X13314286Y-16743114D01*
X13323809Y-16752638D01*
X13333333Y-16771686D01*
X13342857Y-16809781D01*
X13342857Y-16857400D01*
X13333333Y-16895495D01*
X13323809Y-16914543D01*
X13314286Y-16924067D01*
X13295238Y-16933590D01*
X13276190Y-16933590D01*
X13257143Y-16924067D01*
X13247619Y-16914543D01*
X13238095Y-16895495D01*
X13228571Y-16857400D01*
X13228571Y-16809781D01*
X13238095Y-16771686D01*
X13247619Y-16752638D01*
X13257143Y-16743114D01*
X13276190Y-16733590D01*
X13409524Y-16733590D02*
X13533333Y-16733590D01*
X13466667Y-16809781D01*
X13495238Y-16809781D01*
X13514286Y-16819305D01*
X13523809Y-16828829D01*
X13533333Y-16847876D01*
X13533333Y-16895495D01*
X13523809Y-16914543D01*
X13514286Y-16924067D01*
X13495238Y-16933590D01*
X13438095Y-16933590D01*
X13419048Y-16924067D01*
X13409524Y-16914543D01*
X13723809Y-16933590D02*
X13609524Y-16933590D01*
X13666667Y-16933590D02*
X13666667Y-16733590D01*
X13647619Y-16762162D01*
X13628571Y-16781210D01*
X13609524Y-16790733D01*
X13904762Y-16733590D02*
X13809524Y-16733590D01*
X13800000Y-16828829D01*
X13809524Y-16819305D01*
X13828571Y-16809781D01*
X13876190Y-16809781D01*
X13895238Y-16819305D01*
X13904762Y-16828829D01*
X13914286Y-16847876D01*
X13914286Y-16895495D01*
X13904762Y-16914543D01*
X13895238Y-16924067D01*
X13876190Y-16933590D01*
X13828571Y-16933590D01*
X13809524Y-16924067D01*
X13800000Y-16914543D01*
X13990476Y-16733590D02*
X13990476Y-16771686D01*
X14066667Y-16733590D02*
X14066667Y-16771686D01*
X14361905Y-17009781D02*
X14352381Y-17000257D01*
X14333333Y-16971686D01*
X14323809Y-16952638D01*
X14314286Y-16924067D01*
X14304762Y-16876448D01*
X14304762Y-16838352D01*
X14314286Y-16790733D01*
X14323809Y-16762162D01*
X14333333Y-16743114D01*
X14352381Y-16714543D01*
X14361905Y-16705019D01*
X14419048Y-16733590D02*
X14542857Y-16733590D01*
X14476190Y-16809781D01*
X14504762Y-16809781D01*
X14523809Y-16819305D01*
X14533333Y-16828829D01*
X14542857Y-16847876D01*
X14542857Y-16895495D01*
X14533333Y-16914543D01*
X14523809Y-16924067D01*
X14504762Y-16933590D01*
X14447619Y-16933590D01*
X14428571Y-16924067D01*
X14419048Y-16914543D01*
X14723809Y-16733590D02*
X14628571Y-16733590D01*
X14619048Y-16828829D01*
X14628571Y-16819305D01*
X14647619Y-16809781D01*
X14695238Y-16809781D01*
X14714286Y-16819305D01*
X14723809Y-16828829D01*
X14733333Y-16847876D01*
X14733333Y-16895495D01*
X14723809Y-16914543D01*
X14714286Y-16924067D01*
X14695238Y-16933590D01*
X14647619Y-16933590D01*
X14628571Y-16924067D01*
X14619048Y-16914543D01*
X14971428Y-16933590D02*
X14971428Y-16733590D01*
X15057143Y-16933590D02*
X15057143Y-16828829D01*
X15047619Y-16809781D01*
X15028571Y-16800257D01*
X15000000Y-16800257D01*
X14980952Y-16809781D01*
X14971428Y-16819305D01*
X15180952Y-16933590D02*
X15161905Y-16924067D01*
X15152381Y-16914543D01*
X15142857Y-16895495D01*
X15142857Y-16838352D01*
X15152381Y-16819305D01*
X15161905Y-16809781D01*
X15180952Y-16800257D01*
X15209524Y-16800257D01*
X15228571Y-16809781D01*
X15238095Y-16819305D01*
X15247619Y-16838352D01*
X15247619Y-16895495D01*
X15238095Y-16914543D01*
X15228571Y-16924067D01*
X15209524Y-16933590D01*
X15180952Y-16933590D01*
X15361905Y-16933590D02*
X15342857Y-16924067D01*
X15333333Y-16905019D01*
X15333333Y-16733590D01*
X15514286Y-16924067D02*
X15495238Y-16933590D01*
X15457143Y-16933590D01*
X15438095Y-16924067D01*
X15428571Y-16905019D01*
X15428571Y-16828829D01*
X15438095Y-16809781D01*
X15457143Y-16800257D01*
X15495238Y-16800257D01*
X15514286Y-16809781D01*
X15523809Y-16828829D01*
X15523809Y-16847876D01*
X15428571Y-16866924D01*
X15600000Y-16924067D02*
X15619048Y-16933590D01*
X15657143Y-16933590D01*
X15676190Y-16924067D01*
X15685714Y-16905019D01*
X15685714Y-16895495D01*
X15676190Y-16876448D01*
X15657143Y-16866924D01*
X15628571Y-16866924D01*
X15609524Y-16857400D01*
X15600000Y-16838352D01*
X15600000Y-16828829D01*
X15609524Y-16809781D01*
X15628571Y-16800257D01*
X15657143Y-16800257D01*
X15676190Y-16809781D01*
X15752381Y-17009781D02*
X15761905Y-17000257D01*
X15780952Y-16971686D01*
X15790476Y-16952638D01*
X15800000Y-16924067D01*
X15809524Y-16876448D01*
X15809524Y-16838352D01*
X15800000Y-16790733D01*
X15790476Y-16762162D01*
X15780952Y-16743114D01*
X15761905Y-16714543D01*
X15752381Y-16705019D01*
D16*
X10745000Y-17152114D02*
X10790000Y-17107114D01*
X10745000Y-17062114D01*
X10700000Y-17107114D01*
X10745000Y-17152114D01*
D11*
X11085714Y-16997590D02*
X11104762Y-16997590D01*
X11123810Y-17007114D01*
X11133333Y-17016638D01*
X11142857Y-17035686D01*
X11152381Y-17073781D01*
X11152381Y-17121400D01*
X11142857Y-17159495D01*
X11133333Y-17178543D01*
X11123810Y-17188067D01*
X11104762Y-17197590D01*
X11085714Y-17197590D01*
X11066667Y-17188067D01*
X11057143Y-17178543D01*
X11047619Y-17159495D01*
X11038095Y-17121400D01*
X11038095Y-17073781D01*
X11047619Y-17035686D01*
X11057143Y-17016638D01*
X11066667Y-17007114D01*
X11085714Y-16997590D01*
X11238095Y-17178543D02*
X11247619Y-17188067D01*
X11238095Y-17197590D01*
X11228571Y-17188067D01*
X11238095Y-17178543D01*
X11238095Y-17197590D01*
X11342857Y-17197590D02*
X11380952Y-17197590D01*
X11400000Y-17188067D01*
X11409524Y-17178543D01*
X11428571Y-17149971D01*
X11438095Y-17111876D01*
X11438095Y-17035686D01*
X11428571Y-17016638D01*
X11419048Y-17007114D01*
X11400000Y-16997590D01*
X11361905Y-16997590D01*
X11342857Y-17007114D01*
X11333333Y-17016638D01*
X11323809Y-17035686D01*
X11323809Y-17083305D01*
X11333333Y-17102352D01*
X11342857Y-17111876D01*
X11361905Y-17121400D01*
X11400000Y-17121400D01*
X11419048Y-17111876D01*
X11428571Y-17102352D01*
X11438095Y-17083305D01*
X11561905Y-16997590D02*
X11580952Y-16997590D01*
X11600000Y-17007114D01*
X11609524Y-17016638D01*
X11619048Y-17035686D01*
X11628571Y-17073781D01*
X11628571Y-17121400D01*
X11619048Y-17159495D01*
X11609524Y-17178543D01*
X11600000Y-17188067D01*
X11580952Y-17197590D01*
X11561905Y-17197590D01*
X11542857Y-17188067D01*
X11533333Y-17178543D01*
X11523809Y-17159495D01*
X11514286Y-17121400D01*
X11514286Y-17073781D01*
X11523809Y-17035686D01*
X11533333Y-17016638D01*
X11542857Y-17007114D01*
X11561905Y-16997590D01*
X11752381Y-16997590D02*
X11771428Y-16997590D01*
X11790476Y-17007114D01*
X11800000Y-17016638D01*
X11809524Y-17035686D01*
X11819048Y-17073781D01*
X11819048Y-17121400D01*
X11809524Y-17159495D01*
X11800000Y-17178543D01*
X11790476Y-17188067D01*
X11771428Y-17197590D01*
X11752381Y-17197590D01*
X11733333Y-17188067D01*
X11723809Y-17178543D01*
X11714286Y-17159495D01*
X11704762Y-17121400D01*
X11704762Y-17073781D01*
X11714286Y-17035686D01*
X11723809Y-17016638D01*
X11733333Y-17007114D01*
X11752381Y-16997590D01*
X11904762Y-17197590D02*
X11904762Y-17064257D01*
X11904762Y-17083305D02*
X11914286Y-17073781D01*
X11933333Y-17064257D01*
X11961905Y-17064257D01*
X11980952Y-17073781D01*
X11990476Y-17092829D01*
X11990476Y-17197590D01*
X11990476Y-17092829D02*
X12000000Y-17073781D01*
X12019048Y-17064257D01*
X12047619Y-17064257D01*
X12066667Y-17073781D01*
X12076190Y-17092829D01*
X12076190Y-17197590D01*
X12171428Y-17197590D02*
X12171428Y-17064257D01*
X12171428Y-17083305D02*
X12180952Y-17073781D01*
X12200000Y-17064257D01*
X12228571Y-17064257D01*
X12247619Y-17073781D01*
X12257143Y-17092829D01*
X12257143Y-17197590D01*
X12257143Y-17092829D02*
X12266667Y-17073781D01*
X12285714Y-17064257D01*
X12314286Y-17064257D01*
X12333333Y-17073781D01*
X12342857Y-17092829D01*
X12342857Y-17197590D01*
X12733333Y-16988067D02*
X12561905Y-17245210D01*
X12990476Y-16997590D02*
X13009524Y-16997590D01*
X13028571Y-17007114D01*
X13038095Y-17016638D01*
X13047619Y-17035686D01*
X13057143Y-17073781D01*
X13057143Y-17121400D01*
X13047619Y-17159495D01*
X13038095Y-17178543D01*
X13028571Y-17188067D01*
X13009524Y-17197590D01*
X12990476Y-17197590D01*
X12971428Y-17188067D01*
X12961905Y-17178543D01*
X12952381Y-17159495D01*
X12942857Y-17121400D01*
X12942857Y-17073781D01*
X12952381Y-17035686D01*
X12961905Y-17016638D01*
X12971428Y-17007114D01*
X12990476Y-16997590D01*
X13142857Y-17178543D02*
X13152381Y-17188067D01*
X13142857Y-17197590D01*
X13133333Y-17188067D01*
X13142857Y-17178543D01*
X13142857Y-17197590D01*
X13276190Y-16997590D02*
X13295238Y-16997590D01*
X13314286Y-17007114D01*
X13323809Y-17016638D01*
X13333333Y-17035686D01*
X13342857Y-17073781D01*
X13342857Y-17121400D01*
X13333333Y-17159495D01*
X13323809Y-17178543D01*
X13314286Y-17188067D01*
X13295238Y-17197590D01*
X13276190Y-17197590D01*
X13257143Y-17188067D01*
X13247619Y-17178543D01*
X13238095Y-17159495D01*
X13228571Y-17121400D01*
X13228571Y-17073781D01*
X13238095Y-17035686D01*
X13247619Y-17016638D01*
X13257143Y-17007114D01*
X13276190Y-16997590D01*
X13409524Y-16997590D02*
X13533333Y-16997590D01*
X13466667Y-17073781D01*
X13495238Y-17073781D01*
X13514286Y-17083305D01*
X13523809Y-17092829D01*
X13533333Y-17111876D01*
X13533333Y-17159495D01*
X13523809Y-17178543D01*
X13514286Y-17188067D01*
X13495238Y-17197590D01*
X13438095Y-17197590D01*
X13419048Y-17188067D01*
X13409524Y-17178543D01*
X13714286Y-16997590D02*
X13619048Y-16997590D01*
X13609524Y-17092829D01*
X13619048Y-17083305D01*
X13638095Y-17073781D01*
X13685714Y-17073781D01*
X13704762Y-17083305D01*
X13714286Y-17092829D01*
X13723809Y-17111876D01*
X13723809Y-17159495D01*
X13714286Y-17178543D01*
X13704762Y-17188067D01*
X13685714Y-17197590D01*
X13638095Y-17197590D01*
X13619048Y-17188067D01*
X13609524Y-17178543D01*
X13895238Y-17064257D02*
X13895238Y-17197590D01*
X13847619Y-16988067D02*
X13800000Y-17130924D01*
X13923809Y-17130924D01*
X13990476Y-16997590D02*
X13990476Y-17035686D01*
X14066667Y-16997590D02*
X14066667Y-17035686D01*
X14361905Y-17273781D02*
X14352381Y-17264257D01*
X14333333Y-17235686D01*
X14323809Y-17216638D01*
X14314286Y-17188067D01*
X14304762Y-17140448D01*
X14304762Y-17102352D01*
X14314286Y-17054733D01*
X14323809Y-17026162D01*
X14333333Y-17007114D01*
X14352381Y-16978543D01*
X14361905Y-16969019D01*
X14523809Y-17064257D02*
X14523809Y-17197590D01*
X14476190Y-16988067D02*
X14428571Y-17130924D01*
X14552381Y-17130924D01*
X14780952Y-17197590D02*
X14780952Y-16997590D01*
X14866667Y-17197590D02*
X14866667Y-17092829D01*
X14857143Y-17073781D01*
X14838095Y-17064257D01*
X14809524Y-17064257D01*
X14790476Y-17073781D01*
X14780952Y-17083305D01*
X14990476Y-17197590D02*
X14971428Y-17188067D01*
X14961905Y-17178543D01*
X14952381Y-17159495D01*
X14952381Y-17102352D01*
X14961905Y-17083305D01*
X14971428Y-17073781D01*
X14990476Y-17064257D01*
X15019048Y-17064257D01*
X15038095Y-17073781D01*
X15047619Y-17083305D01*
X15057143Y-17102352D01*
X15057143Y-17159495D01*
X15047619Y-17178543D01*
X15038095Y-17188067D01*
X15019048Y-17197590D01*
X14990476Y-17197590D01*
X15171428Y-17197590D02*
X15152381Y-17188067D01*
X15142857Y-17169019D01*
X15142857Y-16997590D01*
X15323809Y-17188067D02*
X15304762Y-17197590D01*
X15266667Y-17197590D01*
X15247619Y-17188067D01*
X15238095Y-17169019D01*
X15238095Y-17092829D01*
X15247619Y-17073781D01*
X15266667Y-17064257D01*
X15304762Y-17064257D01*
X15323809Y-17073781D01*
X15333333Y-17092829D01*
X15333333Y-17111876D01*
X15238095Y-17130924D01*
X15409524Y-17188067D02*
X15428571Y-17197590D01*
X15466667Y-17197590D01*
X15485714Y-17188067D01*
X15495238Y-17169019D01*
X15495238Y-17159495D01*
X15485714Y-17140448D01*
X15466667Y-17130924D01*
X15438095Y-17130924D01*
X15419048Y-17121400D01*
X15409524Y-17102352D01*
X15409524Y-17092829D01*
X15419048Y-17073781D01*
X15438095Y-17064257D01*
X15466667Y-17064257D01*
X15485714Y-17073781D01*
X15561905Y-17273781D02*
X15571428Y-17264257D01*
X15590476Y-17235686D01*
X15600000Y-17216638D01*
X15609524Y-17188067D01*
X15619048Y-17140448D01*
X15619048Y-17102352D01*
X15609524Y-17054733D01*
X15600000Y-17026162D01*
X15590476Y-17007114D01*
X15571428Y-16978543D01*
X15561905Y-16969019D01*
D17*
X10690000Y-17321114D02*
X10790000Y-17421114D01*
X10790000Y-17321114D02*
X10690000Y-17421114D01*
X10790000Y-17371114D02*
G75*
G03*
X10790000Y-17371114I-50000J0D01*
G01*
D11*
X11152381Y-17461590D02*
X11038095Y-17461590D01*
X11095238Y-17461590D02*
X11095238Y-17261590D01*
X11076190Y-17290162D01*
X11057143Y-17309210D01*
X11038095Y-17318733D01*
X11238095Y-17442543D02*
X11247619Y-17452067D01*
X11238095Y-17461590D01*
X11228571Y-17452067D01*
X11238095Y-17442543D01*
X11238095Y-17461590D01*
X11371428Y-17261590D02*
X11390476Y-17261590D01*
X11409524Y-17271114D01*
X11419048Y-17280638D01*
X11428571Y-17299686D01*
X11438095Y-17337781D01*
X11438095Y-17385400D01*
X11428571Y-17423495D01*
X11419048Y-17442543D01*
X11409524Y-17452067D01*
X11390476Y-17461590D01*
X11371428Y-17461590D01*
X11352381Y-17452067D01*
X11342857Y-17442543D01*
X11333333Y-17423495D01*
X11323809Y-17385400D01*
X11323809Y-17337781D01*
X11333333Y-17299686D01*
X11342857Y-17280638D01*
X11352381Y-17271114D01*
X11371428Y-17261590D01*
X11561905Y-17261590D02*
X11580952Y-17261590D01*
X11600000Y-17271114D01*
X11609524Y-17280638D01*
X11619048Y-17299686D01*
X11628571Y-17337781D01*
X11628571Y-17385400D01*
X11619048Y-17423495D01*
X11609524Y-17442543D01*
X11600000Y-17452067D01*
X11580952Y-17461590D01*
X11561905Y-17461590D01*
X11542857Y-17452067D01*
X11533333Y-17442543D01*
X11523809Y-17423495D01*
X11514286Y-17385400D01*
X11514286Y-17337781D01*
X11523809Y-17299686D01*
X11533333Y-17280638D01*
X11542857Y-17271114D01*
X11561905Y-17261590D01*
X11752381Y-17261590D02*
X11771428Y-17261590D01*
X11790476Y-17271114D01*
X11800000Y-17280638D01*
X11809524Y-17299686D01*
X11819048Y-17337781D01*
X11819048Y-17385400D01*
X11809524Y-17423495D01*
X11800000Y-17442543D01*
X11790476Y-17452067D01*
X11771428Y-17461590D01*
X11752381Y-17461590D01*
X11733333Y-17452067D01*
X11723809Y-17442543D01*
X11714286Y-17423495D01*
X11704762Y-17385400D01*
X11704762Y-17337781D01*
X11714286Y-17299686D01*
X11723809Y-17280638D01*
X11733333Y-17271114D01*
X11752381Y-17261590D01*
X11904762Y-17461590D02*
X11904762Y-17328257D01*
X11904762Y-17347305D02*
X11914286Y-17337781D01*
X11933333Y-17328257D01*
X11961905Y-17328257D01*
X11980952Y-17337781D01*
X11990476Y-17356829D01*
X11990476Y-17461590D01*
X11990476Y-17356829D02*
X12000000Y-17337781D01*
X12019048Y-17328257D01*
X12047619Y-17328257D01*
X12066667Y-17337781D01*
X12076190Y-17356829D01*
X12076190Y-17461590D01*
X12171428Y-17461590D02*
X12171428Y-17328257D01*
X12171428Y-17347305D02*
X12180952Y-17337781D01*
X12200000Y-17328257D01*
X12228571Y-17328257D01*
X12247619Y-17337781D01*
X12257143Y-17356829D01*
X12257143Y-17461590D01*
X12257143Y-17356829D02*
X12266667Y-17337781D01*
X12285714Y-17328257D01*
X12314286Y-17328257D01*
X12333333Y-17337781D01*
X12342857Y-17356829D01*
X12342857Y-17461590D01*
X12733333Y-17252067D02*
X12561905Y-17509210D01*
X12990476Y-17261590D02*
X13009524Y-17261590D01*
X13028571Y-17271114D01*
X13038095Y-17280638D01*
X13047619Y-17299686D01*
X13057143Y-17337781D01*
X13057143Y-17385400D01*
X13047619Y-17423495D01*
X13038095Y-17442543D01*
X13028571Y-17452067D01*
X13009524Y-17461590D01*
X12990476Y-17461590D01*
X12971428Y-17452067D01*
X12961905Y-17442543D01*
X12952381Y-17423495D01*
X12942857Y-17385400D01*
X12942857Y-17337781D01*
X12952381Y-17299686D01*
X12961905Y-17280638D01*
X12971428Y-17271114D01*
X12990476Y-17261590D01*
X13142857Y-17442543D02*
X13152381Y-17452067D01*
X13142857Y-17461590D01*
X13133333Y-17452067D01*
X13142857Y-17442543D01*
X13142857Y-17461590D01*
X13276190Y-17261590D02*
X13295238Y-17261590D01*
X13314286Y-17271114D01*
X13323809Y-17280638D01*
X13333333Y-17299686D01*
X13342857Y-17337781D01*
X13342857Y-17385400D01*
X13333333Y-17423495D01*
X13323809Y-17442543D01*
X13314286Y-17452067D01*
X13295238Y-17461590D01*
X13276190Y-17461590D01*
X13257143Y-17452067D01*
X13247619Y-17442543D01*
X13238095Y-17423495D01*
X13228571Y-17385400D01*
X13228571Y-17337781D01*
X13238095Y-17299686D01*
X13247619Y-17280638D01*
X13257143Y-17271114D01*
X13276190Y-17261590D01*
X13409524Y-17261590D02*
X13533333Y-17261590D01*
X13466667Y-17337781D01*
X13495238Y-17337781D01*
X13514286Y-17347305D01*
X13523809Y-17356829D01*
X13533333Y-17375876D01*
X13533333Y-17423495D01*
X13523809Y-17442543D01*
X13514286Y-17452067D01*
X13495238Y-17461590D01*
X13438095Y-17461590D01*
X13419048Y-17452067D01*
X13409524Y-17442543D01*
X13628571Y-17461590D02*
X13666667Y-17461590D01*
X13685714Y-17452067D01*
X13695238Y-17442543D01*
X13714286Y-17413971D01*
X13723809Y-17375876D01*
X13723809Y-17299686D01*
X13714286Y-17280638D01*
X13704762Y-17271114D01*
X13685714Y-17261590D01*
X13647619Y-17261590D01*
X13628571Y-17271114D01*
X13619048Y-17280638D01*
X13609524Y-17299686D01*
X13609524Y-17347305D01*
X13619048Y-17366352D01*
X13628571Y-17375876D01*
X13647619Y-17385400D01*
X13685714Y-17385400D01*
X13704762Y-17375876D01*
X13714286Y-17366352D01*
X13723809Y-17347305D01*
X13895238Y-17328257D02*
X13895238Y-17461590D01*
X13847619Y-17252067D02*
X13800000Y-17394924D01*
X13923809Y-17394924D01*
X13990476Y-17261590D02*
X13990476Y-17299686D01*
X14066667Y-17261590D02*
X14066667Y-17299686D01*
X14361905Y-17537781D02*
X14352381Y-17528257D01*
X14333333Y-17499686D01*
X14323809Y-17480638D01*
X14314286Y-17452067D01*
X14304762Y-17404448D01*
X14304762Y-17366352D01*
X14314286Y-17318733D01*
X14323809Y-17290162D01*
X14333333Y-17271114D01*
X14352381Y-17242543D01*
X14361905Y-17233019D01*
X14428571Y-17280638D02*
X14438095Y-17271114D01*
X14457143Y-17261590D01*
X14504762Y-17261590D01*
X14523809Y-17271114D01*
X14533333Y-17280638D01*
X14542857Y-17299686D01*
X14542857Y-17318733D01*
X14533333Y-17347305D01*
X14419048Y-17461590D01*
X14542857Y-17461590D01*
X14714286Y-17328257D02*
X14714286Y-17461590D01*
X14666667Y-17252067D02*
X14619048Y-17394924D01*
X14742857Y-17394924D01*
X14971428Y-17461590D02*
X14971428Y-17261590D01*
X15057143Y-17461590D02*
X15057143Y-17356829D01*
X15047619Y-17337781D01*
X15028571Y-17328257D01*
X15000000Y-17328257D01*
X14980952Y-17337781D01*
X14971428Y-17347305D01*
X15180952Y-17461590D02*
X15161905Y-17452067D01*
X15152381Y-17442543D01*
X15142857Y-17423495D01*
X15142857Y-17366352D01*
X15152381Y-17347305D01*
X15161905Y-17337781D01*
X15180952Y-17328257D01*
X15209524Y-17328257D01*
X15228571Y-17337781D01*
X15238095Y-17347305D01*
X15247619Y-17366352D01*
X15247619Y-17423495D01*
X15238095Y-17442543D01*
X15228571Y-17452067D01*
X15209524Y-17461590D01*
X15180952Y-17461590D01*
X15361905Y-17461590D02*
X15342857Y-17452067D01*
X15333333Y-17433019D01*
X15333333Y-17261590D01*
X15514286Y-17452067D02*
X15495238Y-17461590D01*
X15457143Y-17461590D01*
X15438095Y-17452067D01*
X15428571Y-17433019D01*
X15428571Y-17356829D01*
X15438095Y-17337781D01*
X15457143Y-17328257D01*
X15495238Y-17328257D01*
X15514286Y-17337781D01*
X15523809Y-17356829D01*
X15523809Y-17375876D01*
X15428571Y-17394924D01*
X15600000Y-17452067D02*
X15619048Y-17461590D01*
X15657143Y-17461590D01*
X15676190Y-17452067D01*
X15685714Y-17433019D01*
X15685714Y-17423495D01*
X15676190Y-17404448D01*
X15657143Y-17394924D01*
X15628571Y-17394924D01*
X15609524Y-17385400D01*
X15600000Y-17366352D01*
X15600000Y-17356829D01*
X15609524Y-17337781D01*
X15628571Y-17328257D01*
X15657143Y-17328257D01*
X15676190Y-17337781D01*
X15923809Y-17385400D02*
X16076190Y-17385400D01*
X16000000Y-17461590D02*
X16000000Y-17309210D01*
X16409524Y-17328257D02*
X16409524Y-17461590D01*
X16361905Y-17252067D02*
X16314286Y-17394924D01*
X16438095Y-17394924D01*
X16657143Y-17452067D02*
X16676190Y-17461590D01*
X16714286Y-17461590D01*
X16733333Y-17452067D01*
X16742857Y-17433019D01*
X16742857Y-17423495D01*
X16733333Y-17404448D01*
X16714286Y-17394924D01*
X16685714Y-17394924D01*
X16666667Y-17385400D01*
X16657143Y-17366352D01*
X16657143Y-17356829D01*
X16666667Y-17337781D01*
X16685714Y-17328257D01*
X16714286Y-17328257D01*
X16733333Y-17337781D01*
X16857143Y-17461590D02*
X16838095Y-17452067D01*
X16828571Y-17433019D01*
X16828571Y-17261590D01*
X16961905Y-17461590D02*
X16942857Y-17452067D01*
X16933333Y-17442543D01*
X16923810Y-17423495D01*
X16923810Y-17366352D01*
X16933333Y-17347305D01*
X16942857Y-17337781D01*
X16961905Y-17328257D01*
X16990476Y-17328257D01*
X17009524Y-17337781D01*
X17019048Y-17347305D01*
X17028571Y-17366352D01*
X17028571Y-17423495D01*
X17019048Y-17442543D01*
X17009524Y-17452067D01*
X16990476Y-17461590D01*
X16961905Y-17461590D01*
X17085714Y-17328257D02*
X17161905Y-17328257D01*
X17114286Y-17261590D02*
X17114286Y-17433019D01*
X17123810Y-17452067D01*
X17142857Y-17461590D01*
X17161905Y-17461590D01*
X17219048Y-17452067D02*
X17238095Y-17461590D01*
X17276190Y-17461590D01*
X17295238Y-17452067D01*
X17304762Y-17433019D01*
X17304762Y-17423495D01*
X17295238Y-17404448D01*
X17276190Y-17394924D01*
X17247619Y-17394924D01*
X17228571Y-17385400D01*
X17219048Y-17366352D01*
X17219048Y-17356829D01*
X17228571Y-17337781D01*
X17247619Y-17328257D01*
X17276190Y-17328257D01*
X17295238Y-17337781D01*
X17371429Y-17537781D02*
X17380952Y-17528257D01*
X17400000Y-17499686D01*
X17409524Y-17480638D01*
X17419048Y-17452067D01*
X17428571Y-17404448D01*
X17428571Y-17366352D01*
X17419048Y-17318733D01*
X17409524Y-17290162D01*
X17400000Y-17271114D01*
X17380952Y-17242543D01*
X17371429Y-17233019D01*
D18*
X10680000Y-17580114D02*
X10790000Y-17690114D01*
X10790000Y-17580114D02*
X10680000Y-17690114D01*
X10735000Y-17580114D02*
X10735000Y-17690114D01*
X10680000Y-17635114D02*
X10790000Y-17635114D01*
D11*
X11152381Y-17725590D02*
X11038095Y-17725590D01*
X11095238Y-17725590D02*
X11095238Y-17525590D01*
X11076190Y-17554162D01*
X11057143Y-17573210D01*
X11038095Y-17582733D01*
X11238095Y-17706543D02*
X11247619Y-17716067D01*
X11238095Y-17725590D01*
X11228571Y-17716067D01*
X11238095Y-17706543D01*
X11238095Y-17725590D01*
X11438095Y-17725590D02*
X11323809Y-17725590D01*
X11380952Y-17725590D02*
X11380952Y-17525590D01*
X11361905Y-17554162D01*
X11342857Y-17573210D01*
X11323809Y-17582733D01*
X11561905Y-17525590D02*
X11580952Y-17525590D01*
X11600000Y-17535114D01*
X11609524Y-17544638D01*
X11619048Y-17563686D01*
X11628571Y-17601781D01*
X11628571Y-17649400D01*
X11619048Y-17687495D01*
X11609524Y-17706543D01*
X11600000Y-17716067D01*
X11580952Y-17725590D01*
X11561905Y-17725590D01*
X11542857Y-17716067D01*
X11533333Y-17706543D01*
X11523809Y-17687495D01*
X11514286Y-17649400D01*
X11514286Y-17601781D01*
X11523809Y-17563686D01*
X11533333Y-17544638D01*
X11542857Y-17535114D01*
X11561905Y-17525590D01*
X11752381Y-17525590D02*
X11771428Y-17525590D01*
X11790476Y-17535114D01*
X11800000Y-17544638D01*
X11809524Y-17563686D01*
X11819048Y-17601781D01*
X11819048Y-17649400D01*
X11809524Y-17687495D01*
X11800000Y-17706543D01*
X11790476Y-17716067D01*
X11771428Y-17725590D01*
X11752381Y-17725590D01*
X11733333Y-17716067D01*
X11723809Y-17706543D01*
X11714286Y-17687495D01*
X11704762Y-17649400D01*
X11704762Y-17601781D01*
X11714286Y-17563686D01*
X11723809Y-17544638D01*
X11733333Y-17535114D01*
X11752381Y-17525590D01*
X11904762Y-17725590D02*
X11904762Y-17592257D01*
X11904762Y-17611305D02*
X11914286Y-17601781D01*
X11933333Y-17592257D01*
X11961905Y-17592257D01*
X11980952Y-17601781D01*
X11990476Y-17620829D01*
X11990476Y-17725590D01*
X11990476Y-17620829D02*
X12000000Y-17601781D01*
X12019048Y-17592257D01*
X12047619Y-17592257D01*
X12066667Y-17601781D01*
X12076190Y-17620829D01*
X12076190Y-17725590D01*
X12171428Y-17725590D02*
X12171428Y-17592257D01*
X12171428Y-17611305D02*
X12180952Y-17601781D01*
X12200000Y-17592257D01*
X12228571Y-17592257D01*
X12247619Y-17601781D01*
X12257143Y-17620829D01*
X12257143Y-17725590D01*
X12257143Y-17620829D02*
X12266667Y-17601781D01*
X12285714Y-17592257D01*
X12314286Y-17592257D01*
X12333333Y-17601781D01*
X12342857Y-17620829D01*
X12342857Y-17725590D01*
X12733333Y-17516067D02*
X12561905Y-17773210D01*
X12990476Y-17525590D02*
X13009524Y-17525590D01*
X13028571Y-17535114D01*
X13038095Y-17544638D01*
X13047619Y-17563686D01*
X13057143Y-17601781D01*
X13057143Y-17649400D01*
X13047619Y-17687495D01*
X13038095Y-17706543D01*
X13028571Y-17716067D01*
X13009524Y-17725590D01*
X12990476Y-17725590D01*
X12971428Y-17716067D01*
X12961905Y-17706543D01*
X12952381Y-17687495D01*
X12942857Y-17649400D01*
X12942857Y-17601781D01*
X12952381Y-17563686D01*
X12961905Y-17544638D01*
X12971428Y-17535114D01*
X12990476Y-17525590D01*
X13142857Y-17706543D02*
X13152381Y-17716067D01*
X13142857Y-17725590D01*
X13133333Y-17716067D01*
X13142857Y-17706543D01*
X13142857Y-17725590D01*
X13276190Y-17525590D02*
X13295238Y-17525590D01*
X13314286Y-17535114D01*
X13323809Y-17544638D01*
X13333333Y-17563686D01*
X13342857Y-17601781D01*
X13342857Y-17649400D01*
X13333333Y-17687495D01*
X13323809Y-17706543D01*
X13314286Y-17716067D01*
X13295238Y-17725590D01*
X13276190Y-17725590D01*
X13257143Y-17716067D01*
X13247619Y-17706543D01*
X13238095Y-17687495D01*
X13228571Y-17649400D01*
X13228571Y-17601781D01*
X13238095Y-17563686D01*
X13247619Y-17544638D01*
X13257143Y-17535114D01*
X13276190Y-17525590D01*
X13514286Y-17592257D02*
X13514286Y-17725590D01*
X13466667Y-17516067D02*
X13419048Y-17658924D01*
X13542857Y-17658924D01*
X13600000Y-17525590D02*
X13723809Y-17525590D01*
X13657143Y-17601781D01*
X13685714Y-17601781D01*
X13704762Y-17611305D01*
X13714286Y-17620829D01*
X13723809Y-17639876D01*
X13723809Y-17687495D01*
X13714286Y-17706543D01*
X13704762Y-17716067D01*
X13685714Y-17725590D01*
X13628571Y-17725590D01*
X13609524Y-17716067D01*
X13600000Y-17706543D01*
X13790476Y-17525590D02*
X13914286Y-17525590D01*
X13847619Y-17601781D01*
X13876190Y-17601781D01*
X13895238Y-17611305D01*
X13904762Y-17620829D01*
X13914286Y-17639876D01*
X13914286Y-17687495D01*
X13904762Y-17706543D01*
X13895238Y-17716067D01*
X13876190Y-17725590D01*
X13819048Y-17725590D01*
X13800000Y-17716067D01*
X13790476Y-17706543D01*
X13990476Y-17525590D02*
X13990476Y-17563686D01*
X14066667Y-17525590D02*
X14066667Y-17563686D01*
X14361905Y-17801781D02*
X14352381Y-17792257D01*
X14333333Y-17763686D01*
X14323809Y-17744638D01*
X14314286Y-17716067D01*
X14304762Y-17668448D01*
X14304762Y-17630352D01*
X14314286Y-17582733D01*
X14323809Y-17554162D01*
X14333333Y-17535114D01*
X14352381Y-17506543D01*
X14361905Y-17497019D01*
X14476190Y-17525590D02*
X14495238Y-17525590D01*
X14514286Y-17535114D01*
X14523809Y-17544638D01*
X14533333Y-17563686D01*
X14542857Y-17601781D01*
X14542857Y-17649400D01*
X14533333Y-17687495D01*
X14523809Y-17706543D01*
X14514286Y-17716067D01*
X14495238Y-17725590D01*
X14476190Y-17725590D01*
X14457143Y-17716067D01*
X14447619Y-17706543D01*
X14438095Y-17687495D01*
X14428571Y-17649400D01*
X14428571Y-17601781D01*
X14438095Y-17563686D01*
X14447619Y-17544638D01*
X14457143Y-17535114D01*
X14476190Y-17525590D01*
X14780952Y-17725590D02*
X14780952Y-17525590D01*
X14866667Y-17725590D02*
X14866667Y-17620829D01*
X14857143Y-17601781D01*
X14838095Y-17592257D01*
X14809524Y-17592257D01*
X14790476Y-17601781D01*
X14780952Y-17611305D01*
X14990476Y-17725590D02*
X14971428Y-17716067D01*
X14961905Y-17706543D01*
X14952381Y-17687495D01*
X14952381Y-17630352D01*
X14961905Y-17611305D01*
X14971428Y-17601781D01*
X14990476Y-17592257D01*
X15019048Y-17592257D01*
X15038095Y-17601781D01*
X15047619Y-17611305D01*
X15057143Y-17630352D01*
X15057143Y-17687495D01*
X15047619Y-17706543D01*
X15038095Y-17716067D01*
X15019048Y-17725590D01*
X14990476Y-17725590D01*
X15171428Y-17725590D02*
X15152381Y-17716067D01*
X15142857Y-17697019D01*
X15142857Y-17525590D01*
X15323809Y-17716067D02*
X15304762Y-17725590D01*
X15266667Y-17725590D01*
X15247619Y-17716067D01*
X15238095Y-17697019D01*
X15238095Y-17620829D01*
X15247619Y-17601781D01*
X15266667Y-17592257D01*
X15304762Y-17592257D01*
X15323809Y-17601781D01*
X15333333Y-17620829D01*
X15333333Y-17639876D01*
X15238095Y-17658924D01*
X15409524Y-17716067D02*
X15428571Y-17725590D01*
X15466667Y-17725590D01*
X15485714Y-17716067D01*
X15495238Y-17697019D01*
X15495238Y-17687495D01*
X15485714Y-17668448D01*
X15466667Y-17658924D01*
X15438095Y-17658924D01*
X15419048Y-17649400D01*
X15409524Y-17630352D01*
X15409524Y-17620829D01*
X15419048Y-17601781D01*
X15438095Y-17592257D01*
X15466667Y-17592257D01*
X15485714Y-17601781D01*
X15733333Y-17649400D02*
X15885714Y-17649400D01*
X15809524Y-17725590D02*
X15809524Y-17573210D01*
X16219048Y-17525590D02*
X16180952Y-17525590D01*
X16161905Y-17535114D01*
X16152381Y-17544638D01*
X16133333Y-17573210D01*
X16123809Y-17611305D01*
X16123809Y-17687495D01*
X16133333Y-17706543D01*
X16142857Y-17716067D01*
X16161905Y-17725590D01*
X16200000Y-17725590D01*
X16219048Y-17716067D01*
X16228571Y-17706543D01*
X16238095Y-17687495D01*
X16238095Y-17639876D01*
X16228571Y-17620829D01*
X16219048Y-17611305D01*
X16200000Y-17601781D01*
X16161905Y-17601781D01*
X16142857Y-17611305D01*
X16133333Y-17620829D01*
X16123809Y-17639876D01*
X16466667Y-17716067D02*
X16485714Y-17725590D01*
X16523809Y-17725590D01*
X16542857Y-17716067D01*
X16552381Y-17697019D01*
X16552381Y-17687495D01*
X16542857Y-17668448D01*
X16523809Y-17658924D01*
X16495238Y-17658924D01*
X16476190Y-17649400D01*
X16466667Y-17630352D01*
X16466667Y-17620829D01*
X16476190Y-17601781D01*
X16495238Y-17592257D01*
X16523809Y-17592257D01*
X16542857Y-17601781D01*
X16666667Y-17725590D02*
X16647619Y-17716067D01*
X16638095Y-17697019D01*
X16638095Y-17525590D01*
X16771428Y-17725590D02*
X16752381Y-17716067D01*
X16742857Y-17706543D01*
X16733333Y-17687495D01*
X16733333Y-17630352D01*
X16742857Y-17611305D01*
X16752381Y-17601781D01*
X16771428Y-17592257D01*
X16800000Y-17592257D01*
X16819048Y-17601781D01*
X16828571Y-17611305D01*
X16838095Y-17630352D01*
X16838095Y-17687495D01*
X16828571Y-17706543D01*
X16819048Y-17716067D01*
X16800000Y-17725590D01*
X16771428Y-17725590D01*
X16895238Y-17592257D02*
X16971429Y-17592257D01*
X16923810Y-17525590D02*
X16923810Y-17697019D01*
X16933333Y-17716067D01*
X16952381Y-17725590D01*
X16971429Y-17725590D01*
X17028571Y-17716067D02*
X17047619Y-17725590D01*
X17085714Y-17725590D01*
X17104762Y-17716067D01*
X17114286Y-17697019D01*
X17114286Y-17687495D01*
X17104762Y-17668448D01*
X17085714Y-17658924D01*
X17057143Y-17658924D01*
X17038095Y-17649400D01*
X17028571Y-17630352D01*
X17028571Y-17620829D01*
X17038095Y-17601781D01*
X17057143Y-17592257D01*
X17085714Y-17592257D01*
X17104762Y-17601781D01*
X17180952Y-17801781D02*
X17190476Y-17792257D01*
X17209524Y-17763686D01*
X17219048Y-17744638D01*
X17228571Y-17716067D01*
X17238095Y-17668448D01*
X17238095Y-17630352D01*
X17228571Y-17582733D01*
X17219048Y-17554162D01*
X17209524Y-17535114D01*
X17190476Y-17506543D01*
X17180952Y-17497019D01*
D19*
X10660000Y-17834114D02*
X10790000Y-17964114D01*
X10790000Y-17834114D02*
X10660000Y-17964114D01*
X10770962Y-17945077D02*
X10770962Y-17853152D01*
X10679038Y-17853152D01*
X10679038Y-17945077D01*
X10770962Y-17945077D01*
D11*
X11152381Y-17989590D02*
X11038095Y-17989590D01*
X11095238Y-17989590D02*
X11095238Y-17789590D01*
X11076190Y-17818162D01*
X11057143Y-17837210D01*
X11038095Y-17846733D01*
X11238095Y-17970543D02*
X11247619Y-17980067D01*
X11238095Y-17989590D01*
X11228571Y-17980067D01*
X11238095Y-17970543D01*
X11238095Y-17989590D01*
X11314286Y-17789590D02*
X11438095Y-17789590D01*
X11371428Y-17865781D01*
X11400000Y-17865781D01*
X11419048Y-17875305D01*
X11428571Y-17884829D01*
X11438095Y-17903876D01*
X11438095Y-17951495D01*
X11428571Y-17970543D01*
X11419048Y-17980067D01*
X11400000Y-17989590D01*
X11342857Y-17989590D01*
X11323809Y-17980067D01*
X11314286Y-17970543D01*
X11561905Y-17789590D02*
X11580952Y-17789590D01*
X11600000Y-17799114D01*
X11609524Y-17808638D01*
X11619048Y-17827686D01*
X11628571Y-17865781D01*
X11628571Y-17913400D01*
X11619048Y-17951495D01*
X11609524Y-17970543D01*
X11600000Y-17980067D01*
X11580952Y-17989590D01*
X11561905Y-17989590D01*
X11542857Y-17980067D01*
X11533333Y-17970543D01*
X11523809Y-17951495D01*
X11514286Y-17913400D01*
X11514286Y-17865781D01*
X11523809Y-17827686D01*
X11533333Y-17808638D01*
X11542857Y-17799114D01*
X11561905Y-17789590D01*
X11752381Y-17789590D02*
X11771428Y-17789590D01*
X11790476Y-17799114D01*
X11800000Y-17808638D01*
X11809524Y-17827686D01*
X11819048Y-17865781D01*
X11819048Y-17913400D01*
X11809524Y-17951495D01*
X11800000Y-17970543D01*
X11790476Y-17980067D01*
X11771428Y-17989590D01*
X11752381Y-17989590D01*
X11733333Y-17980067D01*
X11723809Y-17970543D01*
X11714286Y-17951495D01*
X11704762Y-17913400D01*
X11704762Y-17865781D01*
X11714286Y-17827686D01*
X11723809Y-17808638D01*
X11733333Y-17799114D01*
X11752381Y-17789590D01*
X11904762Y-17989590D02*
X11904762Y-17856257D01*
X11904762Y-17875305D02*
X11914286Y-17865781D01*
X11933333Y-17856257D01*
X11961905Y-17856257D01*
X11980952Y-17865781D01*
X11990476Y-17884829D01*
X11990476Y-17989590D01*
X11990476Y-17884829D02*
X12000000Y-17865781D01*
X12019048Y-17856257D01*
X12047619Y-17856257D01*
X12066667Y-17865781D01*
X12076190Y-17884829D01*
X12076190Y-17989590D01*
X12171428Y-17989590D02*
X12171428Y-17856257D01*
X12171428Y-17875305D02*
X12180952Y-17865781D01*
X12200000Y-17856257D01*
X12228571Y-17856257D01*
X12247619Y-17865781D01*
X12257143Y-17884829D01*
X12257143Y-17989590D01*
X12257143Y-17884829D02*
X12266667Y-17865781D01*
X12285714Y-17856257D01*
X12314286Y-17856257D01*
X12333333Y-17865781D01*
X12342857Y-17884829D01*
X12342857Y-17989590D01*
X12733333Y-17780067D02*
X12561905Y-18037210D01*
X12990476Y-17789590D02*
X13009524Y-17789590D01*
X13028571Y-17799114D01*
X13038095Y-17808638D01*
X13047619Y-17827686D01*
X13057143Y-17865781D01*
X13057143Y-17913400D01*
X13047619Y-17951495D01*
X13038095Y-17970543D01*
X13028571Y-17980067D01*
X13009524Y-17989590D01*
X12990476Y-17989590D01*
X12971428Y-17980067D01*
X12961905Y-17970543D01*
X12952381Y-17951495D01*
X12942857Y-17913400D01*
X12942857Y-17865781D01*
X12952381Y-17827686D01*
X12961905Y-17808638D01*
X12971428Y-17799114D01*
X12990476Y-17789590D01*
X13142857Y-17970543D02*
X13152381Y-17980067D01*
X13142857Y-17989590D01*
X13133333Y-17980067D01*
X13142857Y-17970543D01*
X13142857Y-17989590D01*
X13276190Y-17789590D02*
X13295238Y-17789590D01*
X13314286Y-17799114D01*
X13323809Y-17808638D01*
X13333333Y-17827686D01*
X13342857Y-17865781D01*
X13342857Y-17913400D01*
X13333333Y-17951495D01*
X13323809Y-17970543D01*
X13314286Y-17980067D01*
X13295238Y-17989590D01*
X13276190Y-17989590D01*
X13257143Y-17980067D01*
X13247619Y-17970543D01*
X13238095Y-17951495D01*
X13228571Y-17913400D01*
X13228571Y-17865781D01*
X13238095Y-17827686D01*
X13247619Y-17808638D01*
X13257143Y-17799114D01*
X13276190Y-17789590D01*
X13523809Y-17789590D02*
X13428571Y-17789590D01*
X13419048Y-17884829D01*
X13428571Y-17875305D01*
X13447619Y-17865781D01*
X13495238Y-17865781D01*
X13514286Y-17875305D01*
X13523809Y-17884829D01*
X13533333Y-17903876D01*
X13533333Y-17951495D01*
X13523809Y-17970543D01*
X13514286Y-17980067D01*
X13495238Y-17989590D01*
X13447619Y-17989590D01*
X13428571Y-17980067D01*
X13419048Y-17970543D01*
X13723809Y-17989590D02*
X13609524Y-17989590D01*
X13666667Y-17989590D02*
X13666667Y-17789590D01*
X13647619Y-17818162D01*
X13628571Y-17837210D01*
X13609524Y-17846733D01*
X13800000Y-17808638D02*
X13809524Y-17799114D01*
X13828571Y-17789590D01*
X13876190Y-17789590D01*
X13895238Y-17799114D01*
X13904762Y-17808638D01*
X13914286Y-17827686D01*
X13914286Y-17846733D01*
X13904762Y-17875305D01*
X13790476Y-17989590D01*
X13914286Y-17989590D01*
X13990476Y-17789590D02*
X13990476Y-17827686D01*
X14066667Y-17789590D02*
X14066667Y-17827686D01*
X14361905Y-18065781D02*
X14352381Y-18056257D01*
X14333333Y-18027686D01*
X14323809Y-18008638D01*
X14314286Y-17980067D01*
X14304762Y-17932448D01*
X14304762Y-17894352D01*
X14314286Y-17846733D01*
X14323809Y-17818162D01*
X14333333Y-17799114D01*
X14352381Y-17770543D01*
X14361905Y-17761019D01*
X14428571Y-17808638D02*
X14438095Y-17799114D01*
X14457143Y-17789590D01*
X14504762Y-17789590D01*
X14523809Y-17799114D01*
X14533333Y-17808638D01*
X14542857Y-17827686D01*
X14542857Y-17846733D01*
X14533333Y-17875305D01*
X14419048Y-17989590D01*
X14542857Y-17989590D01*
X14780952Y-17989590D02*
X14780952Y-17789590D01*
X14866667Y-17989590D02*
X14866667Y-17884829D01*
X14857143Y-17865781D01*
X14838095Y-17856257D01*
X14809524Y-17856257D01*
X14790476Y-17865781D01*
X14780952Y-17875305D01*
X14990476Y-17989590D02*
X14971428Y-17980067D01*
X14961905Y-17970543D01*
X14952381Y-17951495D01*
X14952381Y-17894352D01*
X14961905Y-17875305D01*
X14971428Y-17865781D01*
X14990476Y-17856257D01*
X15019048Y-17856257D01*
X15038095Y-17865781D01*
X15047619Y-17875305D01*
X15057143Y-17894352D01*
X15057143Y-17951495D01*
X15047619Y-17970543D01*
X15038095Y-17980067D01*
X15019048Y-17989590D01*
X14990476Y-17989590D01*
X15171428Y-17989590D02*
X15152381Y-17980067D01*
X15142857Y-17961019D01*
X15142857Y-17789590D01*
X15323809Y-17980067D02*
X15304762Y-17989590D01*
X15266667Y-17989590D01*
X15247619Y-17980067D01*
X15238095Y-17961019D01*
X15238095Y-17884829D01*
X15247619Y-17865781D01*
X15266667Y-17856257D01*
X15304762Y-17856257D01*
X15323809Y-17865781D01*
X15333333Y-17884829D01*
X15333333Y-17903876D01*
X15238095Y-17922924D01*
X15409524Y-17980067D02*
X15428571Y-17989590D01*
X15466667Y-17989590D01*
X15485714Y-17980067D01*
X15495238Y-17961019D01*
X15495238Y-17951495D01*
X15485714Y-17932448D01*
X15466667Y-17922924D01*
X15438095Y-17922924D01*
X15419048Y-17913400D01*
X15409524Y-17894352D01*
X15409524Y-17884829D01*
X15419048Y-17865781D01*
X15438095Y-17856257D01*
X15466667Y-17856257D01*
X15485714Y-17865781D01*
X15561905Y-18065781D02*
X15571428Y-18056257D01*
X15590476Y-18027686D01*
X15600000Y-18008638D01*
X15609524Y-17980067D01*
X15619048Y-17932448D01*
X15619048Y-17894352D01*
X15609524Y-17846733D01*
X15600000Y-17818162D01*
X15590476Y-17799114D01*
X15571428Y-17770543D01*
X15561905Y-17761019D01*
D20*
X10650000Y-18093114D02*
X10790000Y-18233114D01*
X10790000Y-18093114D02*
X10650000Y-18233114D01*
X10720000Y-18233114D02*
X10790000Y-18163114D01*
X10720000Y-18093114D01*
X10650000Y-18163114D01*
X10720000Y-18233114D01*
D11*
X11152381Y-18253590D02*
X11038095Y-18253590D01*
X11095238Y-18253590D02*
X11095238Y-18053590D01*
X11076190Y-18082162D01*
X11057143Y-18101210D01*
X11038095Y-18110733D01*
X11238095Y-18234543D02*
X11247619Y-18244067D01*
X11238095Y-18253590D01*
X11228571Y-18244067D01*
X11238095Y-18234543D01*
X11238095Y-18253590D01*
X11419048Y-18120257D02*
X11419048Y-18253590D01*
X11371428Y-18044067D02*
X11323809Y-18186924D01*
X11447619Y-18186924D01*
X11561905Y-18053590D02*
X11580952Y-18053590D01*
X11600000Y-18063114D01*
X11609524Y-18072638D01*
X11619048Y-18091686D01*
X11628571Y-18129781D01*
X11628571Y-18177400D01*
X11619048Y-18215495D01*
X11609524Y-18234543D01*
X11600000Y-18244067D01*
X11580952Y-18253590D01*
X11561905Y-18253590D01*
X11542857Y-18244067D01*
X11533333Y-18234543D01*
X11523809Y-18215495D01*
X11514286Y-18177400D01*
X11514286Y-18129781D01*
X11523809Y-18091686D01*
X11533333Y-18072638D01*
X11542857Y-18063114D01*
X11561905Y-18053590D01*
X11752381Y-18053590D02*
X11771428Y-18053590D01*
X11790476Y-18063114D01*
X11800000Y-18072638D01*
X11809524Y-18091686D01*
X11819048Y-18129781D01*
X11819048Y-18177400D01*
X11809524Y-18215495D01*
X11800000Y-18234543D01*
X11790476Y-18244067D01*
X11771428Y-18253590D01*
X11752381Y-18253590D01*
X11733333Y-18244067D01*
X11723809Y-18234543D01*
X11714286Y-18215495D01*
X11704762Y-18177400D01*
X11704762Y-18129781D01*
X11714286Y-18091686D01*
X11723809Y-18072638D01*
X11733333Y-18063114D01*
X11752381Y-18053590D01*
X11904762Y-18253590D02*
X11904762Y-18120257D01*
X11904762Y-18139305D02*
X11914286Y-18129781D01*
X11933333Y-18120257D01*
X11961905Y-18120257D01*
X11980952Y-18129781D01*
X11990476Y-18148829D01*
X11990476Y-18253590D01*
X11990476Y-18148829D02*
X12000000Y-18129781D01*
X12019048Y-18120257D01*
X12047619Y-18120257D01*
X12066667Y-18129781D01*
X12076190Y-18148829D01*
X12076190Y-18253590D01*
X12171428Y-18253590D02*
X12171428Y-18120257D01*
X12171428Y-18139305D02*
X12180952Y-18129781D01*
X12200000Y-18120257D01*
X12228571Y-18120257D01*
X12247619Y-18129781D01*
X12257143Y-18148829D01*
X12257143Y-18253590D01*
X12257143Y-18148829D02*
X12266667Y-18129781D01*
X12285714Y-18120257D01*
X12314286Y-18120257D01*
X12333333Y-18129781D01*
X12342857Y-18148829D01*
X12342857Y-18253590D01*
X12733333Y-18044067D02*
X12561905Y-18301210D01*
X12990476Y-18053590D02*
X13009524Y-18053590D01*
X13028571Y-18063114D01*
X13038095Y-18072638D01*
X13047619Y-18091686D01*
X13057143Y-18129781D01*
X13057143Y-18177400D01*
X13047619Y-18215495D01*
X13038095Y-18234543D01*
X13028571Y-18244067D01*
X13009524Y-18253590D01*
X12990476Y-18253590D01*
X12971428Y-18244067D01*
X12961905Y-18234543D01*
X12952381Y-18215495D01*
X12942857Y-18177400D01*
X12942857Y-18129781D01*
X12952381Y-18091686D01*
X12961905Y-18072638D01*
X12971428Y-18063114D01*
X12990476Y-18053590D01*
X13142857Y-18234543D02*
X13152381Y-18244067D01*
X13142857Y-18253590D01*
X13133333Y-18244067D01*
X13142857Y-18234543D01*
X13142857Y-18253590D01*
X13276190Y-18053590D02*
X13295238Y-18053590D01*
X13314286Y-18063114D01*
X13323809Y-18072638D01*
X13333333Y-18091686D01*
X13342857Y-18129781D01*
X13342857Y-18177400D01*
X13333333Y-18215495D01*
X13323809Y-18234543D01*
X13314286Y-18244067D01*
X13295238Y-18253590D01*
X13276190Y-18253590D01*
X13257143Y-18244067D01*
X13247619Y-18234543D01*
X13238095Y-18215495D01*
X13228571Y-18177400D01*
X13228571Y-18129781D01*
X13238095Y-18091686D01*
X13247619Y-18072638D01*
X13257143Y-18063114D01*
X13276190Y-18053590D01*
X13523809Y-18053590D02*
X13428571Y-18053590D01*
X13419048Y-18148829D01*
X13428571Y-18139305D01*
X13447619Y-18129781D01*
X13495238Y-18129781D01*
X13514286Y-18139305D01*
X13523809Y-18148829D01*
X13533333Y-18167876D01*
X13533333Y-18215495D01*
X13523809Y-18234543D01*
X13514286Y-18244067D01*
X13495238Y-18253590D01*
X13447619Y-18253590D01*
X13428571Y-18244067D01*
X13419048Y-18234543D01*
X13714286Y-18053590D02*
X13619048Y-18053590D01*
X13609524Y-18148829D01*
X13619048Y-18139305D01*
X13638095Y-18129781D01*
X13685714Y-18129781D01*
X13704762Y-18139305D01*
X13714286Y-18148829D01*
X13723809Y-18167876D01*
X13723809Y-18215495D01*
X13714286Y-18234543D01*
X13704762Y-18244067D01*
X13685714Y-18253590D01*
X13638095Y-18253590D01*
X13619048Y-18244067D01*
X13609524Y-18234543D01*
X13914286Y-18253590D02*
X13800000Y-18253590D01*
X13857143Y-18253590D02*
X13857143Y-18053590D01*
X13838095Y-18082162D01*
X13819048Y-18101210D01*
X13800000Y-18110733D01*
X13990476Y-18053590D02*
X13990476Y-18091686D01*
X14066667Y-18053590D02*
X14066667Y-18091686D01*
X14361905Y-18329781D02*
X14352381Y-18320257D01*
X14333333Y-18291686D01*
X14323809Y-18272638D01*
X14314286Y-18244067D01*
X14304762Y-18196448D01*
X14304762Y-18158352D01*
X14314286Y-18110733D01*
X14323809Y-18082162D01*
X14333333Y-18063114D01*
X14352381Y-18034543D01*
X14361905Y-18025019D01*
X14542857Y-18253590D02*
X14428571Y-18253590D01*
X14485714Y-18253590D02*
X14485714Y-18053590D01*
X14466667Y-18082162D01*
X14447619Y-18101210D01*
X14428571Y-18110733D01*
X14657143Y-18139305D02*
X14638095Y-18129781D01*
X14628571Y-18120257D01*
X14619048Y-18101210D01*
X14619048Y-18091686D01*
X14628571Y-18072638D01*
X14638095Y-18063114D01*
X14657143Y-18053590D01*
X14695238Y-18053590D01*
X14714286Y-18063114D01*
X14723809Y-18072638D01*
X14733333Y-18091686D01*
X14733333Y-18101210D01*
X14723809Y-18120257D01*
X14714286Y-18129781D01*
X14695238Y-18139305D01*
X14657143Y-18139305D01*
X14638095Y-18148829D01*
X14628571Y-18158352D01*
X14619048Y-18177400D01*
X14619048Y-18215495D01*
X14628571Y-18234543D01*
X14638095Y-18244067D01*
X14657143Y-18253590D01*
X14695238Y-18253590D01*
X14714286Y-18244067D01*
X14723809Y-18234543D01*
X14733333Y-18215495D01*
X14733333Y-18177400D01*
X14723809Y-18158352D01*
X14714286Y-18148829D01*
X14695238Y-18139305D01*
X14971428Y-18253590D02*
X14971428Y-18053590D01*
X15057143Y-18253590D02*
X15057143Y-18148829D01*
X15047619Y-18129781D01*
X15028571Y-18120257D01*
X15000000Y-18120257D01*
X14980952Y-18129781D01*
X14971428Y-18139305D01*
X15180952Y-18253590D02*
X15161905Y-18244067D01*
X15152381Y-18234543D01*
X15142857Y-18215495D01*
X15142857Y-18158352D01*
X15152381Y-18139305D01*
X15161905Y-18129781D01*
X15180952Y-18120257D01*
X15209524Y-18120257D01*
X15228571Y-18129781D01*
X15238095Y-18139305D01*
X15247619Y-18158352D01*
X15247619Y-18215495D01*
X15238095Y-18234543D01*
X15228571Y-18244067D01*
X15209524Y-18253590D01*
X15180952Y-18253590D01*
X15361905Y-18253590D02*
X15342857Y-18244067D01*
X15333333Y-18225019D01*
X15333333Y-18053590D01*
X15514286Y-18244067D02*
X15495238Y-18253590D01*
X15457143Y-18253590D01*
X15438095Y-18244067D01*
X15428571Y-18225019D01*
X15428571Y-18148829D01*
X15438095Y-18129781D01*
X15457143Y-18120257D01*
X15495238Y-18120257D01*
X15514286Y-18129781D01*
X15523809Y-18148829D01*
X15523809Y-18167876D01*
X15428571Y-18186924D01*
X15600000Y-18244067D02*
X15619048Y-18253590D01*
X15657143Y-18253590D01*
X15676190Y-18244067D01*
X15685714Y-18225019D01*
X15685714Y-18215495D01*
X15676190Y-18196448D01*
X15657143Y-18186924D01*
X15628571Y-18186924D01*
X15609524Y-18177400D01*
X15600000Y-18158352D01*
X15600000Y-18148829D01*
X15609524Y-18129781D01*
X15628571Y-18120257D01*
X15657143Y-18120257D01*
X15676190Y-18129781D01*
X15752381Y-18329781D02*
X15761905Y-18320257D01*
X15780952Y-18291686D01*
X15790476Y-18272638D01*
X15800000Y-18244067D01*
X15809524Y-18196448D01*
X15809524Y-18158352D01*
X15800000Y-18110733D01*
X15790476Y-18082162D01*
X15780952Y-18063114D01*
X15761905Y-18034543D01*
X15752381Y-18025019D01*
M02*
