%FSLAX45Y45*%
G04 Gerber Fmt 4.5, Leading zero omitted, Abs format (unit mm)*
G04 Created by KiCad (PCBNEW 6.0.5+dfsg-1~bpo11+1) date 2022-10-16 01:22:10*
%MOMM*%
%LPD*%
G01*
G04 APERTURE LIST*
%TA.AperFunction,Profile*%
%ADD10C,0.050000*%
%TD*%
%ADD11C,0.200000*%
G04 APERTURE END LIST*
D10*
X13309000Y-12192000D02*
G75*
G03*
X13309000Y-12192000I-355000J0D01*
G01*
X18821400Y-15494000D02*
G75*
G03*
X19329400Y-14986000I0J508000D01*
G01*
X10693400Y-14986000D02*
G75*
G03*
X11201400Y-15494000I508000J0D01*
G01*
X11201400Y-5334000D02*
G75*
G03*
X10693400Y-5842000I0J-508000D01*
G01*
X19329400Y-14986000D02*
X19329400Y-5842000D01*
X10693400Y-5842000D02*
X10693400Y-14986000D01*
X18821400Y-5334000D02*
X11201400Y-5334000D01*
X15611400Y-14478000D02*
G75*
G03*
X15611400Y-14478000I-600000J0D01*
G01*
X13309000Y-7620000D02*
G75*
G03*
X13309000Y-7620000I-355000J0D01*
G01*
X13590000Y-14478000D02*
G75*
G03*
X13590000Y-14478000I-255000J0D01*
G01*
X19329400Y-5842000D02*
G75*
G03*
X18821400Y-5334000I-508000J0D01*
G01*
X11201400Y-15494000D02*
X18821400Y-15494000D01*
X13309000Y-9906000D02*
G75*
G03*
X13309000Y-9906000I-355000J0D01*
G01*
D11*
X10948519Y-15806976D02*
X10948519Y-15606976D01*
X10996138Y-15606976D01*
X11024710Y-15616500D01*
X11043757Y-15635548D01*
X11053281Y-15654595D01*
X11062805Y-15692690D01*
X11062805Y-15721262D01*
X11053281Y-15759357D01*
X11043757Y-15778405D01*
X11024710Y-15797452D01*
X10996138Y-15806976D01*
X10948519Y-15806976D01*
X11148519Y-15806976D02*
X11148519Y-15673643D01*
X11148519Y-15711738D02*
X11158043Y-15692690D01*
X11167567Y-15683167D01*
X11186614Y-15673643D01*
X11205662Y-15673643D01*
X11272328Y-15806976D02*
X11272328Y-15673643D01*
X11272328Y-15606976D02*
X11262805Y-15616500D01*
X11272328Y-15626024D01*
X11281852Y-15616500D01*
X11272328Y-15606976D01*
X11272328Y-15626024D01*
X11396138Y-15806976D02*
X11377090Y-15797452D01*
X11367567Y-15778405D01*
X11367567Y-15606976D01*
X11500900Y-15806976D02*
X11481852Y-15797452D01*
X11472328Y-15778405D01*
X11472328Y-15606976D01*
X11729471Y-15806976D02*
X11729471Y-15606976D01*
X11796138Y-15749833D01*
X11862805Y-15606976D01*
X11862805Y-15806976D01*
X12043757Y-15806976D02*
X12043757Y-15702214D01*
X12034233Y-15683167D01*
X12015186Y-15673643D01*
X11977090Y-15673643D01*
X11958043Y-15683167D01*
X12043757Y-15797452D02*
X12024709Y-15806976D01*
X11977090Y-15806976D01*
X11958043Y-15797452D01*
X11948519Y-15778405D01*
X11948519Y-15759357D01*
X11958043Y-15740309D01*
X11977090Y-15730786D01*
X12024709Y-15730786D01*
X12043757Y-15721262D01*
X12138995Y-15673643D02*
X12138995Y-15873643D01*
X12138995Y-15683167D02*
X12158043Y-15673643D01*
X12196138Y-15673643D01*
X12215186Y-15683167D01*
X12224709Y-15692690D01*
X12234233Y-15711738D01*
X12234233Y-15768881D01*
X12224709Y-15787928D01*
X12215186Y-15797452D01*
X12196138Y-15806976D01*
X12158043Y-15806976D01*
X12138995Y-15797452D01*
X12319948Y-15787928D02*
X12329471Y-15797452D01*
X12319948Y-15806976D01*
X12310424Y-15797452D01*
X12319948Y-15787928D01*
X12319948Y-15806976D01*
X12319948Y-15683167D02*
X12329471Y-15692690D01*
X12319948Y-15702214D01*
X12310424Y-15692690D01*
X12319948Y-15683167D01*
X12319948Y-15702214D01*
M02*
