G04 #@! TF.GenerationSoftware,KiCad,Pcbnew,6.0.5+dfsg-1~bpo11+1*
G04 #@! TF.CreationDate,2022-10-16T01:22:10+00:00*
G04 #@! TF.ProjectId,phasor_II_front_panel,70686173-6f72-45f4-9949-5f66726f6e74,0*
G04 #@! TF.SameCoordinates,Original*
G04 #@! TF.FileFunction,Legend,Top*
G04 #@! TF.FilePolarity,Positive*
%FSLAX46Y46*%
G04 Gerber Fmt 4.6, Leading zero omitted, Abs format (unit mm)*
G04 Created by KiCad (PCBNEW 6.0.5+dfsg-1~bpo11+1) date 2022-10-16 01:22:10*
%MOMM*%
%LPD*%
G01*
G04 APERTURE LIST*
%ADD10C,0.500000*%
%ADD11C,0.800000*%
%ADD12C,6.400000*%
G04 APERTURE END LIST*
D10*
X129540000Y-99060000D02*
X134937500Y-89711256D01*
X129540000Y-99060000D02*
X124142500Y-89711256D01*
X129540000Y-99060000D02*
X138888744Y-104457500D01*
X129540000Y-76200000D02*
X124142500Y-66851256D01*
X129540000Y-76200000D02*
X120191256Y-70802500D01*
X129540000Y-99060000D02*
X120191256Y-93662500D01*
X129540000Y-99060000D02*
X134937500Y-108408744D01*
X129540000Y-99060000D02*
X118745000Y-99060000D01*
X129540000Y-76200000D02*
X129540000Y-65405000D01*
X129540000Y-99060000D02*
X140335000Y-99060000D01*
X129540000Y-76200000D02*
X118745000Y-76200000D01*
X129540000Y-99060000D02*
X138888744Y-93662500D01*
X129540000Y-121920000D02*
X118745000Y-121920000D01*
X129540000Y-76200000D02*
X134937500Y-66851256D01*
X129540000Y-76200000D02*
X124142500Y-85548744D01*
X129540000Y-99060000D02*
X124142500Y-108408744D01*
X129540000Y-121920000D02*
X120191256Y-127317500D01*
X129540000Y-121920000D02*
X124142500Y-131268744D01*
X129540000Y-76200000D02*
X134937500Y-85548744D01*
X129540000Y-121920000D02*
X124142500Y-112571256D01*
X129540000Y-121920000D02*
X120191256Y-116522500D01*
X129540000Y-76200000D02*
X140335000Y-76200000D01*
X129540000Y-99060000D02*
X120191256Y-104457500D01*
X129540000Y-121920000D02*
X140335000Y-121920000D01*
X129540000Y-76200000D02*
X138888744Y-81597500D01*
X129540000Y-99060000D02*
X129540000Y-88265000D01*
X129540000Y-121920000D02*
X129540000Y-111125000D01*
X129540000Y-121920000D02*
X138888744Y-127317500D01*
X129540000Y-76200000D02*
X138888744Y-70802500D01*
X129540000Y-121920000D02*
X134937500Y-112571256D01*
X129540000Y-121920000D02*
X138888744Y-116522500D01*
X129540000Y-76200000D02*
X120191256Y-81597500D01*
X129540000Y-121920000D02*
X134937500Y-131268744D01*
G36*
X112316516Y-92435449D02*
G01*
X112431599Y-92056071D01*
X112618484Y-91706435D01*
X112869988Y-91399976D01*
X113176447Y-91148472D01*
X113526083Y-90961588D01*
X113905461Y-90846505D01*
X114300000Y-90807646D01*
X114694539Y-90846505D01*
X115073917Y-90961588D01*
X115423553Y-91148472D01*
X115730012Y-91399976D01*
X115981516Y-91706435D01*
X116168401Y-92056071D01*
X116283484Y-92435449D01*
X116322343Y-92829988D01*
X116322343Y-105290011D01*
X116283484Y-105684551D01*
X116168401Y-106063928D01*
X115981517Y-106413565D01*
X115730012Y-106720023D01*
X115423553Y-106971528D01*
X115073917Y-107158412D01*
X114694539Y-107273495D01*
X114300000Y-107312354D01*
X113905461Y-107273495D01*
X113526083Y-107158412D01*
X113176447Y-106971528D01*
X112869988Y-106720023D01*
X112618483Y-106413565D01*
X112431599Y-106063928D01*
X112316516Y-105684551D01*
X112277657Y-105290011D01*
X112277657Y-104072531D01*
X112790287Y-104072531D01*
X112804575Y-104401143D01*
X112861725Y-104777381D01*
X115738275Y-104777381D01*
X115793044Y-104455912D01*
X115809713Y-104148731D01*
X115788877Y-103861195D01*
X115726369Y-103598662D01*
X115618617Y-103365895D01*
X115462050Y-103167656D01*
X115254286Y-103006326D01*
X114992944Y-102884287D01*
X114674452Y-102807492D01*
X114295237Y-102781893D01*
X113924358Y-102805111D01*
X113611819Y-102874762D01*
X113353453Y-102986086D01*
X113145094Y-103134318D01*
X112986145Y-103319461D01*
X112876012Y-103541512D01*
X112811719Y-103794520D01*
X112790287Y-104072531D01*
X112277657Y-104072531D01*
X112277657Y-102353268D01*
X112823625Y-102353268D01*
X115771613Y-102353268D01*
X115771613Y-100462556D01*
X115285838Y-100462556D01*
X115285838Y-101767481D01*
X114457163Y-101767481D01*
X114457163Y-100724493D01*
X113971387Y-100724493D01*
X113971387Y-101767481D01*
X113309400Y-101767481D01*
X113309400Y-100567331D01*
X112823625Y-100567331D01*
X112823625Y-102353268D01*
X112277657Y-102353268D01*
X112277657Y-99205256D01*
X112790287Y-99205256D01*
X112795050Y-99390993D01*
X112806956Y-99605306D01*
X112828387Y-99822000D01*
X112861725Y-100014881D01*
X115771613Y-100014881D01*
X115771613Y-99429093D01*
X114776250Y-99429093D01*
X114776250Y-99219543D01*
X114750056Y-98867383D01*
X114671475Y-98572902D01*
X114540506Y-98336100D01*
X114350800Y-98162798D01*
X114096006Y-98058816D01*
X113776125Y-98024156D01*
X113459419Y-98058552D01*
X113207800Y-98161739D01*
X113021269Y-98333718D01*
X112892946Y-98568139D01*
X112815952Y-98858652D01*
X112790287Y-99205256D01*
X112277657Y-99205256D01*
X112277657Y-97771743D01*
X112823625Y-97771743D01*
X113309400Y-97771743D01*
X113309400Y-96995456D01*
X115771613Y-96995456D01*
X115771613Y-96404906D01*
X113309400Y-96404906D01*
X113309400Y-95628618D01*
X112823625Y-95628618D01*
X112823625Y-97771743D01*
X112277657Y-97771743D01*
X112277657Y-93342618D01*
X112823625Y-93342618D01*
X112823625Y-93928406D01*
X113985675Y-93928406D01*
X113985675Y-94709456D01*
X112823625Y-94709456D01*
X112823625Y-95295243D01*
X115771613Y-95295243D01*
X115771613Y-94709456D01*
X114471450Y-94709456D01*
X114471450Y-93928406D01*
X115771613Y-93928406D01*
X115771613Y-93342618D01*
X112823625Y-93342618D01*
X112277657Y-93342618D01*
X112277657Y-92829988D01*
X112316516Y-92435449D01*
G37*
G36*
X114505383Y-103386136D02*
G01*
X114697669Y-103412925D01*
X115014375Y-103531987D01*
X115223925Y-103751062D01*
X115300125Y-104086818D01*
X115300125Y-104139206D01*
X115295363Y-104191593D01*
X113314162Y-104191593D01*
X113302256Y-104105868D01*
X113299875Y-104020143D01*
X113383219Y-103701056D01*
X113604675Y-103505793D01*
X113923762Y-103405781D01*
X114295237Y-103377206D01*
X114505383Y-103386136D01*
G37*
G36*
X114002939Y-98659950D02*
G01*
X114154744Y-98767106D01*
X114238683Y-98944509D01*
X114266662Y-99190968D01*
X114266662Y-99429093D01*
X113314162Y-99429093D01*
X113302256Y-99283837D01*
X113299875Y-99138581D01*
X113326664Y-98928436D01*
X113407031Y-98764725D01*
X113551692Y-98659354D01*
X113771362Y-98624231D01*
X114002939Y-98659950D01*
G37*
G36*
X114623850Y-77719237D02*
G01*
X114319050Y-77659706D01*
X114026156Y-77593031D01*
X113730881Y-77516831D01*
X113414175Y-77428725D01*
X113730881Y-77340618D01*
X114026156Y-77264418D01*
X114319050Y-77200125D01*
X114623850Y-77142975D01*
X114623850Y-77719237D01*
G37*
G36*
X114102356Y-79590900D02*
G01*
X114189867Y-79765922D01*
X114219037Y-80024287D01*
X114219037Y-80152875D01*
X113333212Y-80152875D01*
X113321306Y-80057625D01*
X113318925Y-79976662D01*
X113346309Y-79765922D01*
X113428462Y-79600425D01*
X113568956Y-79493268D01*
X113771362Y-79457550D01*
X114102356Y-79590900D01*
G37*
G36*
X112335200Y-70757884D02*
G01*
X112449199Y-70382080D01*
X112634323Y-70035737D01*
X112883458Y-69732166D01*
X113187030Y-69483030D01*
X113533373Y-69297906D01*
X113909177Y-69183908D01*
X114300000Y-69145415D01*
X114690823Y-69183908D01*
X115066627Y-69297906D01*
X115412970Y-69483030D01*
X115716542Y-69732166D01*
X115965677Y-70035737D01*
X116150801Y-70382080D01*
X116264800Y-70757884D01*
X116303293Y-71148707D01*
X116303293Y-81251292D01*
X116264800Y-81642115D01*
X116150801Y-82017919D01*
X115965677Y-82364262D01*
X115716542Y-82667834D01*
X115412970Y-82916969D01*
X115066627Y-83102094D01*
X114690823Y-83216092D01*
X114300000Y-83254585D01*
X113909177Y-83216092D01*
X113533373Y-83102094D01*
X113187030Y-82916969D01*
X112883458Y-82667834D01*
X112634323Y-82364262D01*
X112449199Y-82017919D01*
X112335200Y-81642115D01*
X112296707Y-81251292D01*
X112296707Y-79976662D01*
X112809337Y-79976662D01*
X112814100Y-80143350D01*
X112826006Y-80343375D01*
X112849819Y-80550543D01*
X112885537Y-80738662D01*
X115790663Y-80738662D01*
X115790663Y-80152875D01*
X114704813Y-80152875D01*
X114704813Y-79848075D01*
X114974489Y-79686745D01*
X115240594Y-79536131D01*
X115510270Y-79399804D01*
X115790663Y-79281337D01*
X115790663Y-78666975D01*
X115478719Y-78802706D01*
X115150106Y-78967012D01*
X114835781Y-79143225D01*
X114561938Y-79314675D01*
X114427397Y-79106315D01*
X114242850Y-78967012D01*
X114021394Y-78888431D01*
X113776125Y-78862237D01*
X113544548Y-78881882D01*
X113345119Y-78940818D01*
X113042700Y-79167037D01*
X112939116Y-79328962D01*
X112866487Y-79519462D01*
X112823625Y-79736156D01*
X112809337Y-79976662D01*
X112296707Y-79976662D01*
X112296707Y-77095350D01*
X112842675Y-77095350D01*
X112842675Y-77733525D01*
X113168757Y-77834430D01*
X113504067Y-77937122D01*
X113848604Y-78041599D01*
X114202369Y-78147862D01*
X114495263Y-78233397D01*
X114800539Y-78318550D01*
X115118198Y-78403323D01*
X115448239Y-78487714D01*
X115790663Y-78571725D01*
X115790663Y-77962125D01*
X115109625Y-77828775D01*
X115109625Y-77042962D01*
X115790663Y-76904850D01*
X115790663Y-76276200D01*
X115456430Y-76354781D01*
X115131914Y-76434315D01*
X114817112Y-76514801D01*
X114512027Y-76596240D01*
X114216656Y-76678631D01*
X113858427Y-76782364D01*
X113510020Y-76886395D01*
X113171436Y-76990723D01*
X112842675Y-77095350D01*
X112296707Y-77095350D01*
X112296707Y-76114275D01*
X112842675Y-76114275D01*
X113328450Y-76114275D01*
X113328450Y-75337987D01*
X115790663Y-75337987D01*
X115790663Y-74747437D01*
X113328450Y-74747437D01*
X113328450Y-73971150D01*
X112842675Y-73971150D01*
X112842675Y-76114275D01*
X112296707Y-76114275D01*
X112296707Y-73552050D01*
X112842675Y-73552050D01*
X115790663Y-73552050D01*
X115790663Y-71661337D01*
X115304887Y-71661337D01*
X115304887Y-72966262D01*
X114476213Y-72966262D01*
X114476213Y-71923275D01*
X113990437Y-71923275D01*
X113990437Y-72966262D01*
X113328450Y-72966262D01*
X113328450Y-71766112D01*
X112842675Y-71766112D01*
X112842675Y-73552050D01*
X112296707Y-73552050D01*
X112296707Y-71148707D01*
X112335200Y-70757884D01*
G37*
G36*
X159458384Y-100933311D02*
G01*
X159535517Y-100547900D01*
X159547827Y-100517126D01*
X159861838Y-100517126D01*
X159899870Y-100632910D01*
X160045279Y-100704139D01*
X160096460Y-100685768D01*
X160145499Y-100562241D01*
X160090351Y-100487736D01*
X159933708Y-100421000D01*
X159861838Y-100517126D01*
X159547827Y-100517126D01*
X159657536Y-100242872D01*
X159757844Y-100127672D01*
X160023445Y-100067845D01*
X160248832Y-100206075D01*
X160388179Y-100507459D01*
X160406052Y-100621383D01*
X160470099Y-100886527D01*
X160563495Y-100983287D01*
X160640735Y-100894928D01*
X160645335Y-100853752D01*
X161031286Y-100853752D01*
X161033506Y-101286812D01*
X161143591Y-101515182D01*
X161330428Y-101548758D01*
X161463506Y-101466238D01*
X161524266Y-101249102D01*
X161534679Y-100986707D01*
X161519335Y-100659663D01*
X161455663Y-100505266D01*
X161359459Y-100476706D01*
X162189804Y-100476706D01*
X162218730Y-100637846D01*
X162253181Y-100677599D01*
X162423718Y-100751817D01*
X162521139Y-100630548D01*
X162525046Y-100580504D01*
X162431781Y-100426034D01*
X162350275Y-100405734D01*
X162189804Y-100476706D01*
X161359459Y-100476706D01*
X161317204Y-100464162D01*
X161301652Y-100463990D01*
X161129290Y-100522814D01*
X161046089Y-100736674D01*
X161031286Y-100853752D01*
X160645335Y-100853752D01*
X160660826Y-100715076D01*
X160749058Y-100423937D01*
X160961205Y-100174964D01*
X161218448Y-100057304D01*
X161243395Y-100056192D01*
X161446091Y-100129023D01*
X161612890Y-100249021D01*
X161790436Y-100377897D01*
X161935147Y-100336979D01*
X162039037Y-100249021D01*
X162255854Y-100098965D01*
X162388578Y-100056192D01*
X162513393Y-99983054D01*
X162485446Y-99835291D01*
X162408532Y-99764908D01*
X162301167Y-99774146D01*
X162292019Y-99816288D01*
X162207440Y-99934937D01*
X162175505Y-99939679D01*
X162098601Y-99837228D01*
X162060037Y-99585200D01*
X162058991Y-99530445D01*
X162058991Y-99358329D01*
X162641560Y-99358329D01*
X162707656Y-99508542D01*
X162892412Y-99816938D01*
X163175532Y-100254635D01*
X163536720Y-100792753D01*
X163955677Y-101402411D01*
X164412108Y-102054728D01*
X164885716Y-102720822D01*
X165356204Y-103371814D01*
X165803276Y-103978822D01*
X166206634Y-104512965D01*
X166545981Y-104945362D01*
X166693905Y-105124541D01*
X167213703Y-105717810D01*
X167690537Y-106224333D01*
X168080182Y-106597433D01*
X168130845Y-106641093D01*
X168537691Y-106939167D01*
X169028794Y-107234207D01*
X169520373Y-107480726D01*
X169928646Y-107633232D01*
X169981927Y-107646148D01*
X170362443Y-107692419D01*
X170859831Y-107705288D01*
X171402097Y-107688526D01*
X171917244Y-107645903D01*
X172333278Y-107581190D01*
X172555758Y-107511345D01*
X172777660Y-107390981D01*
X172878919Y-107328663D01*
X172819472Y-107239178D01*
X172624244Y-107032208D01*
X172330444Y-106746400D01*
X172208964Y-106632812D01*
X171856925Y-106279388D01*
X171608073Y-105974366D01*
X171498730Y-105763174D01*
X171496606Y-105741907D01*
X171532251Y-105665929D01*
X171655005Y-105709136D01*
X171888596Y-105886878D01*
X172256749Y-106214506D01*
X172326386Y-106278769D01*
X172703726Y-106610012D01*
X173036602Y-106869532D01*
X173277453Y-107021814D01*
X173355154Y-107047018D01*
X173617543Y-106951312D01*
X173988334Y-106676176D01*
X174452101Y-106239583D01*
X174993417Y-105659505D01*
X175596854Y-104953915D01*
X176246984Y-104140786D01*
X176928381Y-103238091D01*
X177625617Y-102263803D01*
X178255742Y-101337844D01*
X178714067Y-100639252D01*
X179046474Y-100111950D01*
X179263325Y-99738203D01*
X179374982Y-99500280D01*
X179394447Y-99389147D01*
X179349515Y-99353953D01*
X179219970Y-99324295D01*
X178989097Y-99299750D01*
X178640182Y-99279897D01*
X178156509Y-99264313D01*
X177521365Y-99252577D01*
X176718035Y-99244267D01*
X175729805Y-99238960D01*
X174539959Y-99236234D01*
X173314436Y-99235636D01*
X172149680Y-99236837D01*
X171056522Y-99240049D01*
X170056890Y-99245061D01*
X169172715Y-99251664D01*
X168425924Y-99259649D01*
X167838447Y-99268807D01*
X167432213Y-99278928D01*
X167229149Y-99289803D01*
X167209989Y-99293880D01*
X167224934Y-99417035D01*
X167294451Y-99522652D01*
X167392292Y-99769848D01*
X167396199Y-99962394D01*
X167360333Y-100100352D01*
X167291486Y-100092589D01*
X167156031Y-99917933D01*
X167036252Y-99735779D01*
X166825759Y-99448774D01*
X166642684Y-99264902D01*
X166572438Y-99230172D01*
X166399462Y-99226226D01*
X166044736Y-99223757D01*
X165559529Y-99222721D01*
X164995114Y-99223075D01*
X164402761Y-99224773D01*
X163833742Y-99227773D01*
X163339327Y-99232028D01*
X163253257Y-99233035D01*
X162911446Y-99257492D01*
X162689427Y-99312205D01*
X162641560Y-99358329D01*
X162058991Y-99358329D01*
X162058991Y-99121211D01*
X153497463Y-99182339D01*
X153428139Y-99531880D01*
X153358816Y-99881422D01*
X153310509Y-99531880D01*
X153262202Y-99182339D01*
X151368853Y-99150324D01*
X149475505Y-99118310D01*
X149475505Y-99405604D01*
X149434662Y-99666658D01*
X149344714Y-99757008D01*
X149254527Y-99657599D01*
X149221279Y-99504727D01*
X149184220Y-99182339D01*
X145047982Y-99118705D01*
X145047982Y-104422770D01*
X145045439Y-105825148D01*
X145037871Y-107019690D01*
X145025373Y-108002130D01*
X145008038Y-108768201D01*
X144985960Y-109313636D01*
X144959233Y-109634169D01*
X144931468Y-109726835D01*
X144870583Y-109619829D01*
X144828897Y-109336367D01*
X144814954Y-108969495D01*
X144809289Y-108583753D01*
X144794468Y-108310969D01*
X144774598Y-108212156D01*
X144652744Y-108256871D01*
X144412370Y-108365278D01*
X144395929Y-108373076D01*
X144021043Y-108514898D01*
X143678945Y-108603191D01*
X143417867Y-108629748D01*
X143314109Y-108559593D01*
X143300275Y-108447830D01*
X143270022Y-108322153D01*
X143145060Y-108247999D01*
X142874092Y-108207106D01*
X142572064Y-108188587D01*
X142127598Y-108144049D01*
X141912667Y-108073653D01*
X141927370Y-107992314D01*
X142171810Y-107914948D01*
X142569849Y-107862614D01*
X142955727Y-107817743D01*
X143165933Y-107751532D01*
X143257783Y-107638446D01*
X143278641Y-107546855D01*
X143315263Y-107289353D01*
X143919466Y-107530044D01*
X144281151Y-107674191D01*
X144564462Y-107787220D01*
X144669312Y-107829140D01*
X144696689Y-107797603D01*
X144720631Y-107671167D01*
X144741338Y-107437172D01*
X144759009Y-107082962D01*
X144773842Y-106595878D01*
X144786037Y-105963263D01*
X144795792Y-105172458D01*
X144803308Y-104210805D01*
X144808782Y-103065647D01*
X144812415Y-101724325D01*
X144814404Y-100174182D01*
X144814940Y-98608730D01*
X145281009Y-98608730D01*
X145311656Y-98672347D01*
X145424162Y-98716759D01*
X145649379Y-98744186D01*
X146018157Y-98756846D01*
X146561347Y-98756957D01*
X147220772Y-98748230D01*
X149160534Y-98716284D01*
X149791185Y-97696789D01*
X150138221Y-97158778D01*
X150389583Y-96823977D01*
X150551550Y-96686052D01*
X150630402Y-96738672D01*
X150640642Y-96840156D01*
X150583127Y-97012964D01*
X150431076Y-97320906D01*
X150215236Y-97702632D01*
X150174587Y-97770160D01*
X149951964Y-98150978D01*
X149787209Y-98460193D01*
X149710619Y-98640293D01*
X149708532Y-98654854D01*
X149820613Y-98677065D01*
X150139125Y-98698469D01*
X150637472Y-98718837D01*
X151289059Y-98737938D01*
X152067289Y-98755543D01*
X152945567Y-98771422D01*
X153897298Y-98785345D01*
X154895884Y-98797081D01*
X155914732Y-98806402D01*
X156927244Y-98813078D01*
X157906826Y-98816878D01*
X158826880Y-98817572D01*
X159660813Y-98814931D01*
X160382027Y-98808725D01*
X160963927Y-98798723D01*
X161379917Y-98784697D01*
X161603402Y-98766416D01*
X161632858Y-98757921D01*
X161660766Y-98611610D01*
X161599644Y-98437533D01*
X161478283Y-98240050D01*
X161242945Y-97882576D01*
X160914281Y-97395321D01*
X160512942Y-96808496D01*
X160059579Y-96152312D01*
X159574843Y-95456979D01*
X159122298Y-94813434D01*
X158489123Y-93945344D01*
X157868733Y-93148086D01*
X157280961Y-92443831D01*
X156745641Y-91854752D01*
X156282606Y-91403019D01*
X155911688Y-91110805D01*
X155724814Y-91015379D01*
X155462656Y-91034408D01*
X155184544Y-91182823D01*
X154915845Y-91339271D01*
X154790225Y-91331752D01*
X154831551Y-91181977D01*
X154979714Y-90996501D01*
X155150212Y-90798670D01*
X155165854Y-90682733D01*
X155035066Y-90564327D01*
X155023715Y-90556010D01*
X154623071Y-90366464D01*
X154068740Y-90242571D01*
X153433287Y-90194202D01*
X152789275Y-90231223D01*
X152714348Y-90241952D01*
X152092554Y-90385752D01*
X151492893Y-90631604D01*
X150897471Y-90995542D01*
X150288391Y-91493605D01*
X149647759Y-92141827D01*
X148957680Y-92956245D01*
X148200256Y-93952896D01*
X147548274Y-94871330D01*
X147119218Y-95502785D01*
X146692631Y-96153658D01*
X146288443Y-96791095D01*
X145926584Y-97382247D01*
X145626983Y-97894260D01*
X145409568Y-98294283D01*
X145294270Y-98549464D01*
X145281009Y-98608730D01*
X144814940Y-98608730D01*
X144814954Y-98567568D01*
X144814865Y-96876518D01*
X144814345Y-95403354D01*
X144813015Y-94132935D01*
X144810499Y-93050121D01*
X144806419Y-92139769D01*
X144800395Y-91386740D01*
X144792051Y-90775891D01*
X144781008Y-90292082D01*
X144766889Y-89920172D01*
X144749315Y-89645019D01*
X144727909Y-89451482D01*
X144702292Y-89324421D01*
X144672087Y-89248694D01*
X144636915Y-89209160D01*
X144596399Y-89190678D01*
X144580778Y-89186352D01*
X144423944Y-89109792D01*
X144418143Y-88951739D01*
X144464264Y-88815637D01*
X144553243Y-88508213D01*
X144581927Y-88294947D01*
X144625589Y-88053818D01*
X144733658Y-87723653D01*
X144764667Y-87646373D01*
X144900364Y-87388519D01*
X145023875Y-87319491D01*
X145146842Y-87450192D01*
X145280905Y-87791522D01*
X145411408Y-88252060D01*
X145523498Y-88721095D01*
X145557720Y-89010260D01*
X145508151Y-89161329D01*
X145368870Y-89216073D01*
X145274133Y-89220412D01*
X145215629Y-89227570D01*
X145168191Y-89263768D01*
X145130659Y-89351097D01*
X145101876Y-89511644D01*
X145080682Y-89767499D01*
X145065918Y-90140751D01*
X145056427Y-90653489D01*
X145051048Y-91327801D01*
X145048623Y-92185778D01*
X145047994Y-93249507D01*
X145047982Y-93531422D01*
X145050677Y-94539055D01*
X145058381Y-95455800D01*
X145070525Y-96257829D01*
X145086537Y-96921319D01*
X145105847Y-97422443D01*
X145127885Y-97737376D01*
X145151217Y-97842431D01*
X145253655Y-97748785D01*
X145436942Y-97499249D01*
X145667488Y-97140923D01*
X145753612Y-96997706D01*
X145992868Y-96606741D01*
X146195103Y-96301594D01*
X146326740Y-96132054D01*
X146349459Y-96114143D01*
X146445645Y-95987928D01*
X146446147Y-95977791D01*
X146512910Y-95828022D01*
X146696777Y-95528456D01*
X146973115Y-95114263D01*
X147317290Y-94620612D01*
X147704669Y-94082672D01*
X148110618Y-93535611D01*
X148510503Y-93014600D01*
X148610989Y-92887052D01*
X149404062Y-91949897D01*
X150145932Y-91209891D01*
X150861995Y-90644101D01*
X151526994Y-90254190D01*
X152414353Y-89944532D01*
X153365865Y-89847060D01*
X154347065Y-89962829D01*
X154972992Y-90148688D01*
X155384959Y-90295621D01*
X155653248Y-90364624D01*
X155851802Y-90361090D01*
X156054565Y-90290411D01*
X156171211Y-90236073D01*
X156538219Y-90094664D01*
X156832794Y-90041480D01*
X157004758Y-90080158D01*
X157022198Y-90174369D01*
X156887909Y-90305243D01*
X156633819Y-90423041D01*
X156370926Y-90518736D01*
X156225182Y-90621318D01*
X156206040Y-90761817D01*
X156322951Y-90971265D01*
X156585365Y-91280693D01*
X157002735Y-91721132D01*
X157041375Y-91761169D01*
X157467299Y-92208761D01*
X157868449Y-92641864D01*
X158196994Y-93008160D01*
X158390822Y-93237152D01*
X158742378Y-93679730D01*
X159381189Y-93268939D01*
X159801234Y-92988904D01*
X160213626Y-92698122D01*
X160444637Y-92524830D01*
X160749057Y-92294073D01*
X161007380Y-92111878D01*
X161072635Y-92070392D01*
X161192182Y-91898048D01*
X161092399Y-91657378D01*
X160775601Y-91352000D01*
X160472267Y-91132459D01*
X160186500Y-90925659D01*
X160002089Y-90763333D01*
X159964305Y-90705963D01*
X160040410Y-90608778D01*
X160248952Y-90645513D01*
X160545322Y-90798574D01*
X160884910Y-91050370D01*
X160924457Y-91084633D01*
X161237156Y-91334280D01*
X161504670Y-91503418D01*
X161639616Y-91550688D01*
X161818827Y-91484868D01*
X162120808Y-91311094D01*
X162484714Y-91064894D01*
X162537536Y-91026376D01*
X162892210Y-90774710D01*
X163178285Y-90589043D01*
X163341847Y-90504018D01*
X163353460Y-90502064D01*
X163462552Y-90555957D01*
X163372246Y-90712948D01*
X163088503Y-90966003D01*
X162745388Y-91219485D01*
X162381104Y-91501208D01*
X162091177Y-91773513D01*
X161934480Y-91980636D01*
X161929701Y-91992089D01*
X161784633Y-92194252D01*
X161621974Y-92201180D01*
X161503701Y-92206302D01*
X161309461Y-92285285D01*
X161018534Y-92451109D01*
X160610198Y-92716753D01*
X160063735Y-93095199D01*
X159358423Y-93599426D01*
X159154544Y-93746876D01*
X158871657Y-93951830D01*
X159446868Y-94702864D01*
X159709368Y-95059093D01*
X160063138Y-95558276D01*
X160471951Y-96148315D01*
X160899578Y-96777110D01*
X161164181Y-97172477D01*
X162306281Y-98891055D01*
X164338141Y-98891055D01*
X164996976Y-98887767D01*
X165566675Y-98878646D01*
X166009886Y-98864806D01*
X166289256Y-98847359D01*
X166370000Y-98830482D01*
X166313103Y-98704496D01*
X166168883Y-98454308D01*
X166078716Y-98308486D01*
X165861147Y-97925311D01*
X165795330Y-97698595D01*
X165877181Y-97611541D01*
X165908758Y-97609403D01*
X166030696Y-97701025D01*
X166222315Y-97938446D01*
X166393813Y-98194521D01*
X166631222Y-98522500D01*
X166865191Y-98759578D01*
X167000698Y-98838276D01*
X167152269Y-98846887D01*
X167519164Y-98854359D01*
X168083683Y-98860643D01*
X168828125Y-98865692D01*
X169734791Y-98869458D01*
X170785979Y-98871895D01*
X171963990Y-98872955D01*
X173251123Y-98872590D01*
X174629676Y-98870753D01*
X176081951Y-98867396D01*
X176914496Y-98864855D01*
X178704326Y-98858267D01*
X180273519Y-98850975D01*
X181634464Y-98842751D01*
X182799553Y-98833367D01*
X183781175Y-98822594D01*
X184591719Y-98810204D01*
X185243577Y-98795969D01*
X185749137Y-98779660D01*
X186120790Y-98761049D01*
X186370926Y-98739907D01*
X186511934Y-98716007D01*
X186556206Y-98689119D01*
X186556009Y-98687156D01*
X186625072Y-98568923D01*
X186899643Y-98557063D01*
X187377929Y-98651511D01*
X187651540Y-98726465D01*
X188064019Y-98879779D01*
X188245263Y-99034328D01*
X188194860Y-99192468D01*
X187912398Y-99356554D01*
X187516972Y-99494315D01*
X187050706Y-99627914D01*
X186764457Y-99687773D01*
X186617314Y-99674258D01*
X186568361Y-99587733D01*
X186568955Y-99502752D01*
X186548239Y-99400441D01*
X186437139Y-99334974D01*
X186191851Y-99295307D01*
X185768569Y-99270395D01*
X185626121Y-99265048D01*
X184667105Y-99231244D01*
X184364024Y-99672846D01*
X184189425Y-99932428D01*
X183921056Y-100337666D01*
X183591816Y-100838624D01*
X183234603Y-101385363D01*
X183132822Y-101541743D01*
X182792990Y-102047385D01*
X182485068Y-102474266D01*
X182235833Y-102787555D01*
X182072061Y-102952425D01*
X182035516Y-102969036D01*
X181883672Y-102943835D01*
X181866330Y-102924057D01*
X181925793Y-102812520D01*
X182078832Y-102566425D01*
X182287427Y-102243521D01*
X182513559Y-101901562D01*
X182719206Y-101598300D01*
X182866348Y-101391487D01*
X182910597Y-101337844D01*
X183016680Y-101197023D01*
X183197633Y-100916309D01*
X183420723Y-100551230D01*
X183653214Y-100157315D01*
X183862374Y-99790091D01*
X184015468Y-99505088D01*
X184079762Y-99357832D01*
X184080092Y-99353971D01*
X183967260Y-99312412D01*
X183643270Y-99279230D01*
X183129880Y-99255600D01*
X182448848Y-99242699D01*
X181982844Y-99240596D01*
X181312892Y-99245770D01*
X180731485Y-99260143D01*
X180275387Y-99281991D01*
X179981362Y-99309592D01*
X179885597Y-99338901D01*
X179825809Y-99478824D01*
X179668637Y-99753685D01*
X179447361Y-100105476D01*
X179434344Y-100125368D01*
X179115242Y-100614579D01*
X178762888Y-101158576D01*
X178535054Y-101512614D01*
X177990253Y-102329901D01*
X177376310Y-103195619D01*
X176726798Y-104066541D01*
X176075290Y-104899441D01*
X175455360Y-105651090D01*
X174900580Y-106278262D01*
X174566010Y-106622959D01*
X174171325Y-106951084D01*
X173666226Y-107295500D01*
X173156148Y-107584680D01*
X173127798Y-107598658D01*
X172625168Y-107827128D01*
X172205172Y-107964372D01*
X171757732Y-108038399D01*
X171263578Y-108073027D01*
X170736048Y-108080231D01*
X170234651Y-108056058D01*
X169852726Y-108005641D01*
X169797081Y-107992373D01*
X169374684Y-107826426D01*
X168853761Y-107547078D01*
X168306541Y-107199503D01*
X167805253Y-106828871D01*
X167487995Y-106548272D01*
X167135260Y-106169327D01*
X166686648Y-105643935D01*
X166178546Y-105017505D01*
X165647340Y-104335444D01*
X165129417Y-103643161D01*
X164853331Y-103260321D01*
X164546886Y-102831688D01*
X164288946Y-102476529D01*
X164109783Y-102236174D01*
X164042552Y-102153440D01*
X163951783Y-102034766D01*
X163769236Y-101770933D01*
X163529651Y-101412473D01*
X163455476Y-101299581D01*
X163197260Y-100911951D01*
X163030665Y-100693935D01*
X162922349Y-100618458D01*
X162838969Y-100658447D01*
X162773927Y-100746140D01*
X162519452Y-100943995D01*
X162219550Y-100988302D01*
X161945625Y-101015652D01*
X161837608Y-101123525D01*
X161825964Y-101228990D01*
X161746712Y-101598887D01*
X161545747Y-101838026D01*
X161278253Y-101921897D01*
X160999412Y-101825994D01*
X160844575Y-101664847D01*
X160665570Y-101409281D01*
X160381826Y-101675844D01*
X160061330Y-101859882D01*
X159754299Y-101833752D01*
X159513263Y-101602984D01*
X159502322Y-101583266D01*
X159456541Y-101374731D01*
X159735017Y-101374731D01*
X159806392Y-101493195D01*
X159985080Y-101562387D01*
X160179493Y-101414509D01*
X160248890Y-101229523D01*
X160109050Y-101122451D01*
X159942324Y-101104816D01*
X159764742Y-101189752D01*
X159735017Y-101374731D01*
X159456541Y-101374731D01*
X159442023Y-101308601D01*
X159458384Y-100933311D01*
G37*
G36*
X165300904Y-88109121D02*
G01*
X165301957Y-88155238D01*
X165241613Y-88299055D01*
X165110528Y-88605484D01*
X164930653Y-89023339D01*
X164802325Y-89320376D01*
X164536020Y-89898990D01*
X164326522Y-90255555D01*
X164162590Y-90390894D01*
X164032986Y-90305827D01*
X163926467Y-90001178D01*
X163831795Y-89477767D01*
X163819567Y-89392237D01*
X163748617Y-88918481D01*
X163680726Y-88522188D01*
X163627437Y-88268987D01*
X163614674Y-88227099D01*
X163636817Y-88079842D01*
X163733755Y-88055275D01*
X163827970Y-88069681D01*
X163898910Y-88141225D01*
X163961858Y-88312395D01*
X164032095Y-88625680D01*
X164124903Y-89123566D01*
X164131869Y-89162156D01*
X164236947Y-89744724D01*
X164621739Y-88900000D01*
X164827649Y-88491566D01*
X165015851Y-88195405D01*
X165155221Y-88059154D01*
X165173663Y-88055275D01*
X165300904Y-88109121D01*
G37*
G36*
X147824429Y-108048499D02*
G01*
X147964653Y-107766110D01*
X148119667Y-107595583D01*
X148139119Y-107586100D01*
X148419415Y-107557813D01*
X148597267Y-107688384D01*
X148663155Y-107922973D01*
X148607559Y-108206742D01*
X148420957Y-108484849D01*
X148311539Y-108579253D01*
X148057679Y-108816020D01*
X147898590Y-109053599D01*
X147889960Y-109077925D01*
X147741104Y-109382425D01*
X147528522Y-109624687D01*
X147321142Y-109726753D01*
X147316209Y-109726835D01*
X147126276Y-109645513D01*
X147036181Y-109561059D01*
X146972628Y-109428335D01*
X147107195Y-109365148D01*
X147155657Y-109357160D01*
X147420537Y-109239227D01*
X147539734Y-109116404D01*
X147594866Y-108936944D01*
X147468753Y-108777350D01*
X147405991Y-108731127D01*
X147213584Y-108490496D01*
X147142408Y-108175874D01*
X147182857Y-107859769D01*
X147325320Y-107614691D01*
X147560190Y-107513146D01*
X147567400Y-107513073D01*
X147639976Y-107570640D01*
X147580603Y-107768360D01*
X147536304Y-107861130D01*
X147433256Y-108174345D01*
X147467777Y-108384742D01*
X147594755Y-108445183D01*
X147686815Y-108347133D01*
X147741515Y-108233298D01*
X148077340Y-108233298D01*
X148143912Y-108280265D01*
X148254926Y-108209819D01*
X148377067Y-108067346D01*
X148379192Y-108009115D01*
X148249827Y-108006621D01*
X148115317Y-108124193D01*
X148077340Y-108233298D01*
X147741515Y-108233298D01*
X147802915Y-108105520D01*
X147824429Y-108048499D01*
G37*
G36*
X157987171Y-89925179D02*
G01*
X158288910Y-89943560D01*
X158827251Y-90013091D01*
X159255526Y-90128643D01*
X159530733Y-90274941D01*
X159612202Y-90413577D01*
X159523252Y-90490435D01*
X159345517Y-90490246D01*
X159234663Y-90435229D01*
X159092864Y-90390728D01*
X158785449Y-90338366D01*
X158379957Y-90289586D01*
X157883169Y-90215645D01*
X157599870Y-90116028D01*
X157538227Y-90048387D01*
X157550616Y-89964270D01*
X157686753Y-89925087D01*
X157987171Y-89925179D01*
G37*
G36*
X152719405Y-100158525D02*
G01*
X152997498Y-100056233D01*
X153002614Y-100056192D01*
X153237200Y-100161685D01*
X153429503Y-100434120D01*
X153540479Y-100807438D01*
X153553486Y-100988302D01*
X153483793Y-101433303D01*
X153298067Y-101748011D01*
X153031337Y-101900872D01*
X152718634Y-101860331D01*
X152635578Y-101815141D01*
X152531011Y-101671074D01*
X152604646Y-101551625D01*
X152805945Y-101525907D01*
X152841370Y-101533703D01*
X153058560Y-101525157D01*
X153139415Y-101464508D01*
X153115602Y-101360932D01*
X152995852Y-101337844D01*
X152716369Y-101236682D01*
X152487373Y-100990949D01*
X152388476Y-100687277D01*
X152388349Y-100676773D01*
X152391222Y-100668524D01*
X152652451Y-100668524D01*
X152733792Y-100808594D01*
X152946709Y-100968118D01*
X153125243Y-100950141D01*
X153203809Y-100762610D01*
X153203945Y-100751618D01*
X153119949Y-100526141D01*
X152928792Y-100424254D01*
X152721721Y-100492258D01*
X152711694Y-100501838D01*
X152652451Y-100668524D01*
X152391222Y-100668524D01*
X152486194Y-100395844D01*
X152719405Y-100158525D01*
G37*
G36*
X153846761Y-100393562D02*
G01*
X153875683Y-100338978D01*
X154122756Y-100156949D01*
X154442458Y-100119992D01*
X154594066Y-100168401D01*
X154761499Y-100371946D01*
X154866856Y-100716225D01*
X154899581Y-101114714D01*
X154849119Y-101480886D01*
X154774670Y-101648855D01*
X154520117Y-101878832D01*
X154229800Y-101885661D01*
X153979343Y-101707339D01*
X153862800Y-101457740D01*
X153796579Y-101085928D01*
X153796075Y-101061356D01*
X154046441Y-101061356D01*
X154065231Y-101270995D01*
X154207311Y-101517831D01*
X154369083Y-101570871D01*
X154583623Y-101465754D01*
X154672935Y-101270995D01*
X154685229Y-100977410D01*
X154611102Y-100678609D01*
X154481218Y-100461909D01*
X154369083Y-100405734D01*
X154217889Y-100507686D01*
X154100120Y-100755333D01*
X154046441Y-101061356D01*
X153796075Y-101061356D01*
X153788594Y-100696376D01*
X153846761Y-100393562D01*
G37*
G36*
X174055133Y-107481264D02*
G01*
X174367944Y-107589683D01*
X174798380Y-107708987D01*
X175380683Y-107778999D01*
X175720230Y-107792077D01*
X176235275Y-107814879D01*
X176539139Y-107867349D01*
X176623211Y-107934705D01*
X176515285Y-108070002D01*
X176216505Y-108154126D01*
X175764371Y-108182350D01*
X175196380Y-108149944D01*
X175050275Y-108133036D01*
X174707874Y-108064100D01*
X174334928Y-107951497D01*
X173999854Y-107821075D01*
X173771066Y-107698679D01*
X173710367Y-107626827D01*
X173797245Y-107477067D01*
X174055133Y-107481264D01*
G37*
G36*
X170915156Y-91715478D02*
G01*
X170893020Y-91881150D01*
X170774496Y-92195481D01*
X170606862Y-92570183D01*
X170407648Y-93009411D01*
X170244258Y-93385619D01*
X170144177Y-93634993D01*
X170130159Y-93677064D01*
X169979756Y-93850311D01*
X169859675Y-93880963D01*
X169653153Y-93784215D01*
X169591774Y-93677064D01*
X169544602Y-93444401D01*
X169488838Y-93085505D01*
X169462996Y-92890596D01*
X169406654Y-92475450D01*
X169348581Y-92104058D01*
X169327431Y-91987614D01*
X169316020Y-91744836D01*
X169425171Y-91667505D01*
X169437830Y-91667201D01*
X169550083Y-91747639D01*
X169650550Y-92006475D01*
X169749145Y-92469998D01*
X169756428Y-92511926D01*
X169901524Y-93356651D01*
X170287726Y-92511926D01*
X170508481Y-92076026D01*
X170702087Y-91781999D01*
X170843483Y-91667538D01*
X170849298Y-91667201D01*
X170915156Y-91715478D01*
G37*
G36*
X148718166Y-100278426D02*
G01*
X148664569Y-100571873D01*
X148645042Y-100631325D01*
X148581962Y-100907571D01*
X148600534Y-101077826D01*
X148684010Y-101096589D01*
X148776422Y-100988302D01*
X148895600Y-100884919D01*
X148981263Y-100990299D01*
X149024984Y-101281529D01*
X149022867Y-101658257D01*
X148965583Y-101843410D01*
X148863001Y-101928781D01*
X148785048Y-101873043D01*
X148776422Y-101803899D01*
X148680164Y-101704220D01*
X148572523Y-101685601D01*
X148282244Y-101645433D01*
X148141933Y-101506923D01*
X148137571Y-101233346D01*
X148243673Y-100824125D01*
X148369738Y-100463168D01*
X148484328Y-100201932D01*
X148546120Y-100112765D01*
X148675662Y-100109554D01*
X148718166Y-100278426D01*
G37*
G36*
X168937501Y-93850572D02*
G01*
X168899143Y-93958420D01*
X168895230Y-93964818D01*
X168782463Y-94058276D01*
X168506924Y-94256950D01*
X168100839Y-94538469D01*
X167596433Y-94880467D01*
X167079588Y-95225093D01*
X166518327Y-95601654D01*
X166031206Y-95938273D01*
X165649147Y-96212772D01*
X165403072Y-96402978D01*
X165323364Y-96484536D01*
X165383940Y-96638648D01*
X165534100Y-96881534D01*
X165550961Y-96905486D01*
X165697844Y-97183341D01*
X165670353Y-97344696D01*
X165558328Y-97376376D01*
X165466207Y-97286589D01*
X165272169Y-97042905D01*
X165005753Y-96683835D01*
X164733022Y-96300314D01*
X164377986Y-95790984D01*
X164140252Y-95442416D01*
X164003975Y-95224132D01*
X163953309Y-95105650D01*
X163972412Y-95056492D01*
X164045436Y-95046175D01*
X164081033Y-95046101D01*
X164242883Y-95134648D01*
X164470856Y-95362473D01*
X164634806Y-95570412D01*
X164864356Y-95859924D01*
X165056831Y-96050344D01*
X165140607Y-96094724D01*
X165275127Y-96033478D01*
X165570311Y-95863287D01*
X165992936Y-95604475D01*
X166509781Y-95277364D01*
X167056121Y-94922957D01*
X167756131Y-94468948D01*
X168280080Y-94142099D01*
X168642163Y-93935017D01*
X168856571Y-93840306D01*
X168937501Y-93850572D01*
G37*
G36*
X162441883Y-92726396D02*
G01*
X162725391Y-93041621D01*
X162965942Y-93336684D01*
X163348761Y-93844867D01*
X163563626Y-94198792D01*
X163612876Y-94403270D01*
X163513499Y-94463532D01*
X163425336Y-94378735D01*
X163228315Y-94151698D01*
X162957498Y-93823452D01*
X162813446Y-93644320D01*
X162521332Y-93251584D01*
X162307823Y-92912465D01*
X162203666Y-92678022D01*
X162199541Y-92624825D01*
X162269964Y-92590588D01*
X162441883Y-92726396D01*
G37*
G36*
X169582748Y-103030658D02*
G01*
X169823922Y-103271321D01*
X170175359Y-103702436D01*
X170305059Y-103872018D01*
X170667814Y-104353593D01*
X170908385Y-104682515D01*
X171046060Y-104891298D01*
X171100128Y-105012457D01*
X171089878Y-105078506D01*
X171043395Y-105116603D01*
X170919818Y-105068901D01*
X170705701Y-104878269D01*
X170484127Y-104629470D01*
X169990048Y-104008995D01*
X169641923Y-103537763D01*
X169444891Y-103223050D01*
X169399358Y-103093324D01*
X169443879Y-102973607D01*
X169582748Y-103030658D01*
G37*
G36*
X150635566Y-100176930D02*
G01*
X150773119Y-100068951D01*
X151010160Y-100100843D01*
X151070709Y-100121018D01*
X151350467Y-100306813D01*
X151434581Y-100561573D01*
X151312912Y-100824579D01*
X151203916Y-100918795D01*
X150984694Y-101058398D01*
X150835227Y-101082507D01*
X150669771Y-101027651D01*
X150562352Y-100875597D01*
X150529592Y-100602529D01*
X150549328Y-100476706D01*
X150771456Y-100476706D01*
X150800382Y-100637846D01*
X150834832Y-100677599D01*
X151005369Y-100751817D01*
X151102790Y-100630548D01*
X151106697Y-100580504D01*
X151013432Y-100426034D01*
X150931927Y-100405734D01*
X150771456Y-100476706D01*
X150549328Y-100476706D01*
X150575553Y-100309513D01*
X150635566Y-100176930D01*
G37*
G36*
X165764908Y-89318996D02*
G01*
X165786981Y-89707789D01*
X165787431Y-89802981D01*
X165769743Y-90175353D01*
X165723536Y-90427807D01*
X165670918Y-90502064D01*
X165601228Y-90397970D01*
X165559595Y-90134791D01*
X165554404Y-89981409D01*
X165541839Y-89663393D01*
X165489123Y-89528413D01*
X165373719Y-89527144D01*
X165350505Y-89535110D01*
X165224202Y-89568121D01*
X165251616Y-89495291D01*
X165368563Y-89356683D01*
X165571377Y-89160148D01*
X165698266Y-89142018D01*
X165764908Y-89318996D01*
G37*
G36*
X167849048Y-100494455D02*
G01*
X168043270Y-100728658D01*
X168297680Y-101060399D01*
X168577395Y-101441738D01*
X168847530Y-101824731D01*
X169073199Y-102161437D01*
X169219519Y-102403913D01*
X169248696Y-102465535D01*
X169258120Y-102613037D01*
X169146437Y-102622602D01*
X168961550Y-102516724D01*
X168751360Y-102317897D01*
X168646109Y-102182568D01*
X168207569Y-101537353D01*
X167901665Y-101057614D01*
X167718773Y-100724268D01*
X167649266Y-100518229D01*
X167683519Y-100420414D01*
X167749900Y-100405734D01*
X167849048Y-100494455D01*
G37*
G36*
X158986836Y-100270844D02*
G01*
X159019373Y-100571158D01*
X159027049Y-100947024D01*
X159010614Y-101320452D01*
X158970817Y-101613453D01*
X158913119Y-101745642D01*
X158837342Y-101692373D01*
X158799203Y-101444064D01*
X158796606Y-101328436D01*
X158740794Y-100905963D01*
X158594253Y-100691258D01*
X158462160Y-100569621D01*
X158487712Y-100447918D01*
X158609825Y-100302491D01*
X158799762Y-100147248D01*
X158928691Y-100124073D01*
X158986836Y-100270844D01*
G37*
G36*
X171233453Y-92737215D02*
G01*
X171507108Y-92847452D01*
X171593012Y-93076212D01*
X171486004Y-93397231D01*
X171391398Y-93541049D01*
X171208255Y-93803065D01*
X171169794Y-93938051D01*
X171278094Y-94003279D01*
X171409220Y-94031763D01*
X171495012Y-94066681D01*
X171358326Y-94091541D01*
X171234450Y-94098123D01*
X170953676Y-94090344D01*
X170804753Y-94051175D01*
X170797523Y-94037603D01*
X170862108Y-93905100D01*
X171023454Y-93666957D01*
X171088808Y-93579322D01*
X171278411Y-93275241D01*
X171367603Y-93021218D01*
X171358747Y-92858271D01*
X171254203Y-92827420D01*
X171056333Y-92969683D01*
X171053853Y-92972156D01*
X170941766Y-93039247D01*
X170914037Y-92906160D01*
X170973851Y-92758273D01*
X171188400Y-92732665D01*
X171233453Y-92737215D01*
G37*
G36*
X178931803Y-106840755D02*
G01*
X178839924Y-106985206D01*
X178636213Y-107160532D01*
X178308714Y-107376300D01*
X177930643Y-107591609D01*
X177575217Y-107765559D01*
X177315651Y-107857250D01*
X177269273Y-107862614D01*
X177123228Y-107798423D01*
X177116514Y-107722613D01*
X177241724Y-107579717D01*
X177493063Y-107402108D01*
X177563150Y-107361658D01*
X177943003Y-107151381D01*
X178348509Y-106926303D01*
X178398743Y-106898367D01*
X178714345Y-106756476D01*
X178901499Y-106739136D01*
X178931803Y-106840755D01*
G37*
G36*
X155292743Y-100186091D02*
G01*
X155558989Y-100088495D01*
X155833985Y-100142383D01*
X156035394Y-100349336D01*
X156061618Y-100415455D01*
X156064372Y-100718344D01*
X155904067Y-100932542D01*
X155645626Y-101017573D01*
X155353974Y-100932964D01*
X155297211Y-100891994D01*
X155111275Y-100660316D01*
X155112055Y-100632259D01*
X155469029Y-100632259D01*
X155498550Y-100680767D01*
X155667683Y-100751645D01*
X155763866Y-100626937D01*
X155767248Y-100580504D01*
X155707982Y-100425397D01*
X155657610Y-100405734D01*
X155505465Y-100482826D01*
X155469029Y-100632259D01*
X155112055Y-100632259D01*
X155117581Y-100433589D01*
X155292743Y-100186091D01*
G37*
G36*
X149395050Y-102150829D02*
G01*
X149428985Y-102482141D01*
X149458022Y-103015267D01*
X149481389Y-103734614D01*
X149498316Y-104624587D01*
X149502633Y-104978899D01*
X149517593Y-105964704D01*
X149539325Y-106758686D01*
X149567336Y-107351132D01*
X149601135Y-107732333D01*
X149640231Y-107892579D01*
X149650275Y-107897096D01*
X149910748Y-107823687D01*
X150271252Y-107700897D01*
X150616931Y-107569480D01*
X150795439Y-107490751D01*
X150975657Y-107453617D01*
X151068907Y-107614314D01*
X151071184Y-107622882D01*
X151130176Y-107750608D01*
X151259608Y-107823060D01*
X151514006Y-107855356D01*
X151935883Y-107862614D01*
X152374783Y-107873190D01*
X152624368Y-107911165D01*
X152727651Y-107985914D01*
X152737890Y-108037385D01*
X152689925Y-108132341D01*
X152517459Y-108186687D01*
X152177632Y-108209608D01*
X151922294Y-108212156D01*
X151494120Y-108218217D01*
X151248858Y-108246143D01*
X151136505Y-108310542D01*
X151107057Y-108426025D01*
X151106697Y-108450463D01*
X151079451Y-108601501D01*
X150954837Y-108647393D01*
X150669771Y-108612156D01*
X150301189Y-108515281D01*
X149989018Y-108381992D01*
X149967397Y-108369006D01*
X149712084Y-108260133D01*
X149556899Y-108334627D01*
X149485282Y-108609015D01*
X149475505Y-108859858D01*
X149452074Y-109170152D01*
X149392874Y-109354844D01*
X149358991Y-109377293D01*
X149323088Y-109262020D01*
X149293485Y-108921006D01*
X149270410Y-108361458D01*
X149254092Y-107590583D01*
X149244760Y-106615589D01*
X149242477Y-105707110D01*
X149246056Y-104607736D01*
X149256572Y-103689345D01*
X149273692Y-102962582D01*
X149297084Y-102438093D01*
X149326417Y-102126525D01*
X149356990Y-102036926D01*
X149395050Y-102150829D01*
G37*
G36*
X143290637Y-88110396D02*
G01*
X143259651Y-88292702D01*
X143133862Y-88627607D01*
X142905429Y-89140528D01*
X142888661Y-89176715D01*
X142675314Y-89640247D01*
X142504301Y-90019151D01*
X142396001Y-90267812D01*
X142368165Y-90341852D01*
X142286569Y-90395404D01*
X142119347Y-90362217D01*
X141982847Y-90271774D01*
X141965885Y-90239908D01*
X141930032Y-90062666D01*
X141875227Y-89725926D01*
X141811735Y-89301380D01*
X141749820Y-88860717D01*
X141699747Y-88475629D01*
X141671781Y-88217807D01*
X141669083Y-88167029D01*
X141762921Y-88066528D01*
X141835470Y-88055275D01*
X141950878Y-88147231D01*
X142036042Y-88437224D01*
X142076944Y-88725229D01*
X142141433Y-89226355D01*
X142209084Y-89500431D01*
X142298452Y-89552923D01*
X142428095Y-89389300D01*
X142616566Y-89015030D01*
X142670061Y-88900000D01*
X142890224Y-88469192D01*
X143084421Y-88174688D01*
X143226245Y-88055992D01*
X143234662Y-88055275D01*
X143290637Y-88110396D01*
G37*
G36*
X150187733Y-100148982D02*
G01*
X150365922Y-100237332D01*
X150378486Y-100260091D01*
X150318396Y-100371011D01*
X150067783Y-100405734D01*
X149818194Y-100438641D01*
X149708745Y-100518229D01*
X149708532Y-100522247D01*
X149805009Y-100620189D01*
X149918257Y-100638761D01*
X150214325Y-100738451D01*
X150381363Y-101010467D01*
X150405831Y-101215504D01*
X150345471Y-101575886D01*
X150144338Y-101785265D01*
X149990237Y-101848099D01*
X149703829Y-101827815D01*
X149553056Y-101708705D01*
X149427600Y-101499307D01*
X149482687Y-101397004D01*
X149691005Y-101445327D01*
X149711617Y-101456008D01*
X149937423Y-101490171D01*
X150060106Y-101393652D01*
X150125524Y-101179640D01*
X150011508Y-100994915D01*
X149769096Y-100903168D01*
X149667960Y-100904318D01*
X149498181Y-100886953D01*
X149428329Y-100746009D01*
X149417248Y-100522247D01*
X149431929Y-100259242D01*
X149521215Y-100143760D01*
X149752969Y-100115158D01*
X149873593Y-100114449D01*
X150187733Y-100148982D01*
G37*
G36*
X152305736Y-94217800D02*
G01*
X152347102Y-94283198D01*
X152339090Y-94380343D01*
X152263917Y-94541041D01*
X152103799Y-94797096D01*
X151840955Y-95180313D01*
X151489524Y-95677586D01*
X151234240Y-95994141D01*
X151027822Y-96170973D01*
X150900200Y-96187520D01*
X150873670Y-96100692D01*
X150937024Y-95954725D01*
X151107431Y-95667831D01*
X151355410Y-95287922D01*
X151529800Y-95034360D01*
X151878751Y-94561304D01*
X152124809Y-94286659D01*
X152274791Y-94203252D01*
X152305736Y-94217800D01*
G37*
G36*
X181417207Y-103962316D02*
G01*
X181347721Y-104093122D01*
X181162582Y-104356204D01*
X180896039Y-104708880D01*
X180582343Y-105108471D01*
X180255742Y-105512295D01*
X179950487Y-105877671D01*
X179700827Y-106161919D01*
X179541011Y-106322358D01*
X179506927Y-106342843D01*
X179433846Y-106250651D01*
X179419542Y-106135218D01*
X179500077Y-105915352D01*
X179696425Y-105663671D01*
X179720895Y-105640034D01*
X179933682Y-105411742D01*
X180226016Y-105061305D01*
X180542042Y-104656229D01*
X180609364Y-104566263D01*
X180964376Y-104120219D01*
X181219571Y-103872215D01*
X181371529Y-103824807D01*
X181417207Y-103962316D01*
G37*
G36*
X146091310Y-107888990D02*
G01*
X146259620Y-107623545D01*
X146392562Y-107466117D01*
X146439389Y-107450639D01*
X146525991Y-107584650D01*
X146647910Y-107859216D01*
X146773810Y-108191602D01*
X146872353Y-108499072D01*
X146912202Y-108698891D01*
X146912202Y-108698966D01*
X146807381Y-108753598D01*
X146539379Y-108788269D01*
X146329633Y-108794724D01*
X145994623Y-108773015D01*
X145784735Y-108717234D01*
X145747064Y-108674337D01*
X145797744Y-108480295D01*
X145865703Y-108328669D01*
X146213119Y-108328669D01*
X146271274Y-108530935D01*
X146413453Y-108541825D01*
X146476957Y-108492049D01*
X146503839Y-108334742D01*
X146421948Y-108157303D01*
X146317168Y-108095642D01*
X146232595Y-108193337D01*
X146213119Y-108328669D01*
X145865703Y-108328669D01*
X145924922Y-108196543D01*
X146091310Y-107888990D01*
G37*
G36*
X190200509Y-98393770D02*
G01*
X190467321Y-98218347D01*
X190718952Y-98257588D01*
X190831968Y-98359607D01*
X190931499Y-98643420D01*
X190833410Y-98974696D01*
X190555137Y-99311161D01*
X190383207Y-99447768D01*
X190049489Y-99752929D01*
X189770893Y-100122313D01*
X189716294Y-100223599D01*
X189452591Y-100649170D01*
X189170327Y-100875406D01*
X188889692Y-100887860D01*
X188828028Y-100859266D01*
X188658415Y-100687646D01*
X188624129Y-100574715D01*
X188686986Y-100420545D01*
X188849260Y-100458415D01*
X188940215Y-100535398D01*
X189118741Y-100607710D01*
X189311760Y-100467396D01*
X189510956Y-100147618D01*
X189625146Y-99897939D01*
X189620532Y-99767732D01*
X189515879Y-99686380D01*
X189156692Y-99412014D01*
X189011222Y-99095850D01*
X189023778Y-98844415D01*
X189123206Y-98552046D01*
X189270779Y-98315258D01*
X189420208Y-98195646D01*
X189498846Y-98212255D01*
X189490206Y-98345250D01*
X189384651Y-98587297D01*
X189360795Y-98630143D01*
X189235337Y-98892098D01*
X189242757Y-99063934D01*
X189316387Y-99174116D01*
X189462922Y-99308557D01*
X189594520Y-99296236D01*
X189747332Y-99113939D01*
X189784056Y-99048765D01*
X190140387Y-99048765D01*
X190177770Y-99209912D01*
X190252635Y-99240596D01*
X190392121Y-99152695D01*
X190553963Y-98954435D01*
X190673101Y-98689294D01*
X190652952Y-98524928D01*
X190518409Y-98505576D01*
X190360268Y-98610238D01*
X190205906Y-98821422D01*
X190140387Y-99048765D01*
X189784056Y-99048765D01*
X189938575Y-98774541D01*
X190200509Y-98393770D01*
G37*
G36*
X154283827Y-91768368D02*
G01*
X154264131Y-91906244D01*
X154097913Y-92183960D01*
X153801902Y-92575068D01*
X153681070Y-92721550D01*
X153373464Y-93097694D01*
X153132999Y-93410360D01*
X152993008Y-93615225D01*
X152970918Y-93665893D01*
X152881739Y-93761692D01*
X152854404Y-93764449D01*
X152756615Y-93668396D01*
X152739958Y-93560550D01*
X152809881Y-93379546D01*
X152991783Y-93099317D01*
X153247407Y-92764271D01*
X153538500Y-92418816D01*
X153826806Y-92107360D01*
X154074071Y-91874310D01*
X154242039Y-91764074D01*
X154283827Y-91768368D01*
G37*
G36*
X150434675Y-57156350D02*
G01*
X150622000Y-57448450D01*
X150710900Y-57883425D01*
X150727568Y-58142981D01*
X150733125Y-58420000D01*
X150727568Y-58696225D01*
X150710900Y-58953400D01*
X150622000Y-59388375D01*
X150431500Y-59683650D01*
X150110825Y-59791600D01*
X149786975Y-59683650D01*
X149599650Y-59391550D01*
X149510750Y-58956575D01*
X149494081Y-58697019D01*
X149488525Y-58420000D01*
X149494081Y-58143775D01*
X149510750Y-57886600D01*
X149599650Y-57451625D01*
X149786975Y-57156350D01*
X150110825Y-57048400D01*
X150434675Y-57156350D01*
G37*
G36*
X129185671Y-60551622D02*
G01*
X128986906Y-60388500D01*
X136166225Y-60388500D01*
X136947275Y-60388500D01*
X139284075Y-60388500D01*
X140065125Y-60388500D01*
X140065125Y-58654950D01*
X141106525Y-58654950D01*
X141106525Y-60388500D01*
X141887575Y-60388500D01*
X142230475Y-60388500D01*
X143043275Y-60388500D01*
X143221075Y-59480450D01*
X144268825Y-59480450D01*
X144452975Y-60388500D01*
X145291175Y-60388500D01*
X145240415Y-60172600D01*
X145602325Y-60172600D01*
X146040475Y-60366275D01*
X146381787Y-60444856D01*
X146821525Y-60471050D01*
X147267083Y-60437536D01*
X147630091Y-60336994D01*
X147910550Y-60169425D01*
X148179631Y-59805094D01*
X148269325Y-59315350D01*
X148242337Y-59019281D01*
X148161375Y-58778775D01*
X147885150Y-58423175D01*
X147880035Y-58420000D01*
X148694775Y-58420000D01*
X148717595Y-58896845D01*
X148786056Y-59311381D01*
X148900157Y-59663608D01*
X149059900Y-59953525D01*
X149339652Y-60241039D01*
X149692077Y-60413547D01*
X150117175Y-60471050D01*
X150532041Y-60413547D01*
X150582443Y-60388500D01*
X152041225Y-60388500D01*
X152822275Y-60388500D01*
X152822275Y-58940700D01*
X153228675Y-58940700D01*
X153443781Y-59300269D01*
X153644600Y-59655075D01*
X153826368Y-60014644D01*
X153984325Y-60388500D01*
X154803475Y-60388500D01*
X158391225Y-60388500D01*
X160886775Y-60388500D01*
X161566225Y-60388500D01*
X164061775Y-60388500D01*
X164061775Y-59740800D01*
X163210875Y-59740800D01*
X163210875Y-57105550D01*
X164061775Y-57105550D01*
X164061775Y-56457850D01*
X161566225Y-56457850D01*
X161566225Y-57105550D01*
X162423475Y-57105550D01*
X162423475Y-59740800D01*
X161566225Y-59740800D01*
X161566225Y-60388500D01*
X160886775Y-60388500D01*
X160886775Y-59740800D01*
X160035875Y-59740800D01*
X160035875Y-57105550D01*
X160886775Y-57105550D01*
X160886775Y-56457850D01*
X158391225Y-56457850D01*
X158391225Y-57105550D01*
X159248475Y-57105550D01*
X159248475Y-59740800D01*
X158391225Y-59740800D01*
X158391225Y-60388500D01*
X154803475Y-60388500D01*
X154622500Y-59972575D01*
X154403425Y-59534425D01*
X154168475Y-59115325D01*
X153939875Y-58750200D01*
X154217687Y-58570813D01*
X154403425Y-58324750D01*
X154508200Y-58029475D01*
X154543125Y-57702450D01*
X154516931Y-57393681D01*
X154438350Y-57127775D01*
X154136725Y-56724550D01*
X153920825Y-56586437D01*
X153666825Y-56489600D01*
X153377900Y-56432450D01*
X153057225Y-56413400D01*
X152834975Y-56419750D01*
X152568275Y-56435625D01*
X152292050Y-56467375D01*
X152041225Y-56515000D01*
X152041225Y-60388500D01*
X150582443Y-60388500D01*
X150879175Y-60241039D01*
X151158575Y-59953525D01*
X151319706Y-59663608D01*
X151434800Y-59311381D01*
X151503856Y-58896845D01*
X151526875Y-58420000D01*
X151504253Y-57943155D01*
X151436387Y-57528619D01*
X151323278Y-57176392D01*
X151164925Y-56886475D01*
X150886936Y-56598961D01*
X150535569Y-56426453D01*
X150110825Y-56368950D01*
X149698780Y-56426453D01*
X149351647Y-56598961D01*
X149069425Y-56886475D01*
X148905515Y-57176392D01*
X148788437Y-57528619D01*
X148718190Y-57943155D01*
X148694775Y-58420000D01*
X147880035Y-58420000D01*
X147516850Y-58194575D01*
X147132675Y-58039000D01*
X146888200Y-57943750D01*
X146665950Y-57826275D01*
X146504025Y-57673875D01*
X146440525Y-57473850D01*
X146509669Y-57223378D01*
X146717102Y-57073094D01*
X147062825Y-57023000D01*
X147510500Y-57086500D01*
X147862925Y-57238900D01*
X148091525Y-56635650D01*
X147637500Y-56451500D01*
X147344606Y-56389587D01*
X147005675Y-56368950D01*
X146616561Y-56403522D01*
X146287419Y-56507239D01*
X146018250Y-56680100D01*
X145749168Y-57051575D01*
X145659475Y-57543700D01*
X145761075Y-58010425D01*
X146018250Y-58324750D01*
X146364325Y-58534300D01*
X146732625Y-58680350D01*
X146999325Y-58791475D01*
X147240625Y-58924825D01*
X147418425Y-59093100D01*
X147488275Y-59309000D01*
X147459700Y-59496325D01*
X147354925Y-59661425D01*
X147148550Y-59775725D01*
X146821525Y-59817000D01*
X146504818Y-59794775D01*
X146240500Y-59728100D01*
X145830925Y-59537600D01*
X145602325Y-60172600D01*
X145240415Y-60172600D01*
X145186400Y-59942857D01*
X145080355Y-59510168D01*
X144973040Y-59090433D01*
X144864455Y-58683652D01*
X144754600Y-58289825D01*
X144616289Y-57812186D01*
X144477581Y-57347644D01*
X144338476Y-56896198D01*
X144198975Y-56457850D01*
X143348075Y-56457850D01*
X143213534Y-56892627D01*
X143076612Y-57339706D01*
X142937309Y-57799089D01*
X142795625Y-58270775D01*
X142681579Y-58661300D01*
X142568041Y-59068335D01*
X142455011Y-59491880D01*
X142342489Y-59931935D01*
X142230475Y-60388500D01*
X141887575Y-60388500D01*
X141887575Y-56457850D01*
X141106525Y-56457850D01*
X141106525Y-58007250D01*
X140065125Y-58007250D01*
X140065125Y-56457850D01*
X139284075Y-56457850D01*
X139284075Y-60388500D01*
X136947275Y-60388500D01*
X136947275Y-59061350D01*
X137226675Y-59061350D01*
X137696222Y-59026425D01*
X138088863Y-58921650D01*
X138404600Y-58747025D01*
X138635669Y-58494083D01*
X138774311Y-58154358D01*
X138820525Y-57727850D01*
X138774663Y-57305575D01*
X138637080Y-56970083D01*
X138407775Y-56721375D01*
X138095213Y-56550278D01*
X137707863Y-56447619D01*
X137245725Y-56413400D01*
X136998075Y-56419750D01*
X136712325Y-56435625D01*
X136423400Y-56464200D01*
X136166225Y-56508650D01*
X136166225Y-60388500D01*
X128986906Y-60388500D01*
X128797179Y-60232795D01*
X128478353Y-59844304D01*
X128241444Y-59401078D01*
X128095556Y-58920149D01*
X128046295Y-58420000D01*
X128095556Y-57919851D01*
X128241444Y-57438922D01*
X128478353Y-56995696D01*
X128797179Y-56607205D01*
X129185671Y-56288378D01*
X129628897Y-56051469D01*
X130109826Y-55905580D01*
X130609975Y-55856320D01*
X169618025Y-55856320D01*
X170118174Y-55905580D01*
X170599103Y-56051468D01*
X171042329Y-56288378D01*
X171430820Y-56607204D01*
X171749647Y-56995696D01*
X171986556Y-57438922D01*
X172132444Y-57919851D01*
X172181705Y-58420000D01*
X172132444Y-58920149D01*
X171986556Y-59401078D01*
X171749647Y-59844304D01*
X171430820Y-60232796D01*
X171042329Y-60551622D01*
X170599103Y-60788532D01*
X170118174Y-60934420D01*
X169618025Y-60983680D01*
X130609975Y-60983680D01*
X130109826Y-60934420D01*
X129628897Y-60788531D01*
X129185671Y-60551622D01*
G37*
G36*
X153338212Y-57129362D02*
G01*
X153558875Y-57238900D01*
X153701750Y-57426225D01*
X153749375Y-57696100D01*
X153571575Y-58137425D01*
X153338212Y-58254106D01*
X152993725Y-58293000D01*
X152822275Y-58293000D01*
X152822275Y-57111900D01*
X152949275Y-57096025D01*
X153057225Y-57092850D01*
X153338212Y-57129362D01*
G37*
G36*
X137614818Y-57128569D02*
G01*
X137833100Y-57235725D01*
X137973593Y-57428606D01*
X138020425Y-57721500D01*
X137972800Y-58030269D01*
X137829925Y-58232675D01*
X137593387Y-58344594D01*
X137264775Y-58381900D01*
X136947275Y-58381900D01*
X136947275Y-57111900D01*
X137140950Y-57096025D01*
X137334625Y-57092850D01*
X137614818Y-57128569D01*
G37*
G36*
X143871950Y-57642125D02*
G01*
X143973550Y-58035825D01*
X144059275Y-58426350D01*
X144135475Y-58832750D01*
X143367125Y-58832750D01*
X143446500Y-58426350D01*
X143535400Y-58035825D01*
X143637000Y-57642125D01*
X143754475Y-57219850D01*
X143871950Y-57642125D01*
G37*
G36*
X114510145Y-122776654D02*
G01*
X114702431Y-122803443D01*
X115019138Y-122922506D01*
X115228688Y-123141581D01*
X115304887Y-123477337D01*
X115304887Y-123529725D01*
X115300125Y-123582112D01*
X113318925Y-123582112D01*
X113307019Y-123496387D01*
X113304637Y-123410662D01*
X113387981Y-123091575D01*
X113609437Y-122896312D01*
X113928525Y-122796300D01*
X114300000Y-122767725D01*
X114510145Y-122776654D01*
G37*
G36*
X114609563Y-118767225D02*
G01*
X114304763Y-118707693D01*
X114011869Y-118641018D01*
X113716594Y-118564818D01*
X113399887Y-118476712D01*
X113716594Y-118388606D01*
X114011869Y-118312406D01*
X114304763Y-118248112D01*
X114609563Y-118190962D01*
X114609563Y-118767225D01*
G37*
G36*
X116108748Y-132748213D02*
G01*
X116005276Y-132920846D01*
X115885381Y-133082506D01*
X115750218Y-133231635D01*
X115601088Y-133366798D01*
X115439429Y-133486693D01*
X115266796Y-133590165D01*
X115084852Y-133676218D01*
X114895350Y-133744023D01*
X114700114Y-133792927D01*
X114501025Y-133822459D01*
X114300000Y-133832335D01*
X114098975Y-133822459D01*
X113899886Y-133792927D01*
X113704650Y-133744023D01*
X113515148Y-133676218D01*
X113333204Y-133590165D01*
X113160571Y-133486693D01*
X112998912Y-133366798D01*
X112849782Y-133231635D01*
X112714619Y-133082506D01*
X112594724Y-132920846D01*
X112491252Y-132748213D01*
X112405199Y-132566270D01*
X112337394Y-132376767D01*
X112288490Y-132181532D01*
X112258958Y-131982442D01*
X112249082Y-131781417D01*
X112249082Y-131268787D01*
X112828387Y-131268787D01*
X115776375Y-131268787D01*
X115776375Y-130683000D01*
X114514313Y-130683000D01*
X114514313Y-129616200D01*
X114028537Y-129616200D01*
X114028537Y-130683000D01*
X113314162Y-130683000D01*
X113314162Y-129463800D01*
X112828387Y-129463800D01*
X112828387Y-131268787D01*
X112249082Y-131268787D01*
X112249082Y-128887537D01*
X112828387Y-128887537D01*
X115776375Y-128887537D01*
X115776375Y-126996825D01*
X115290600Y-126996825D01*
X115290600Y-128301750D01*
X114461925Y-128301750D01*
X114461925Y-127258762D01*
X113976150Y-127258762D01*
X113976150Y-128301750D01*
X113314162Y-128301750D01*
X113314162Y-127101600D01*
X112828387Y-127101600D01*
X112828387Y-128887537D01*
X112249082Y-128887537D01*
X112249082Y-126506287D01*
X112828387Y-126506287D01*
X115776375Y-126506287D01*
X115776375Y-124615575D01*
X115290600Y-124615575D01*
X115290600Y-125920500D01*
X114461925Y-125920500D01*
X114461925Y-124877512D01*
X113976150Y-124877512D01*
X113976150Y-125920500D01*
X113314162Y-125920500D01*
X113314162Y-124720350D01*
X112828387Y-124720350D01*
X112828387Y-126506287D01*
X112249082Y-126506287D01*
X112249082Y-123463050D01*
X112795050Y-123463050D01*
X112809337Y-123791662D01*
X112866487Y-124167900D01*
X115743038Y-124167900D01*
X115797806Y-123846431D01*
X115814475Y-123539250D01*
X115793639Y-123251714D01*
X115731131Y-122989181D01*
X115623380Y-122756414D01*
X115466813Y-122558175D01*
X115259048Y-122396845D01*
X114997706Y-122274806D01*
X114679214Y-122198011D01*
X114300000Y-122172412D01*
X113929120Y-122195629D01*
X113616581Y-122265281D01*
X113358216Y-122376604D01*
X113149856Y-122524837D01*
X112990908Y-122709979D01*
X112880775Y-122932031D01*
X112816481Y-123185039D01*
X112795050Y-123463050D01*
X112249082Y-123463050D01*
X112249082Y-121024650D01*
X112795050Y-121024650D01*
X112816481Y-121419937D01*
X112866487Y-121786650D01*
X115728750Y-121786650D01*
X115766255Y-121580672D01*
X115793044Y-121372312D01*
X115809117Y-121166334D01*
X115814475Y-120967500D01*
X115803164Y-120732351D01*
X115769231Y-120512681D01*
X115708509Y-120315037D01*
X115616831Y-120145968D01*
X115331081Y-119900700D01*
X115130461Y-119832834D01*
X114885788Y-119810212D01*
X114685763Y-119837001D01*
X114495263Y-119917368D01*
X114328575Y-120072745D01*
X114199987Y-120324562D01*
X113942812Y-120050718D01*
X113768981Y-119973923D01*
X113571337Y-119948325D01*
X113295113Y-119991187D01*
X113045081Y-120153112D01*
X112864106Y-120481725D01*
X112812314Y-120722231D01*
X112795050Y-121024650D01*
X112249082Y-121024650D01*
X112249082Y-118781512D01*
X112828387Y-118781512D01*
X113154470Y-118882418D01*
X113489780Y-118985109D01*
X113834317Y-119089586D01*
X114188081Y-119195850D01*
X114480975Y-119281384D01*
X114786251Y-119366538D01*
X115103910Y-119451310D01*
X115433951Y-119535702D01*
X115776375Y-119619712D01*
X115776375Y-119010112D01*
X115095338Y-118876762D01*
X115095338Y-118090950D01*
X115776375Y-117952837D01*
X115776375Y-117324187D01*
X115442143Y-117402768D01*
X115117626Y-117482302D01*
X114802825Y-117562788D01*
X114497739Y-117644227D01*
X114202369Y-117726618D01*
X113844139Y-117830352D01*
X113495733Y-117934382D01*
X113157149Y-118038711D01*
X112828387Y-118143337D01*
X112828387Y-118781512D01*
X112249082Y-118781512D01*
X112249082Y-115814475D01*
X112761712Y-115814475D01*
X112787311Y-116093676D01*
X112864106Y-116350256D01*
X112990312Y-116578856D01*
X113164144Y-116774118D01*
X113383814Y-116933067D01*
X113647537Y-117052725D01*
X113953528Y-117127734D01*
X114300000Y-117152737D01*
X114647960Y-117132199D01*
X114953653Y-117070584D01*
X115217079Y-116967893D01*
X115438238Y-116824125D01*
X115660488Y-116572241D01*
X115793838Y-116254741D01*
X115838288Y-115871625D01*
X115822214Y-115611473D01*
X115773994Y-115383468D01*
X115633500Y-115047712D01*
X115171538Y-115195350D01*
X115276313Y-115435856D01*
X115328700Y-115814475D01*
X115261430Y-116154398D01*
X115059619Y-116383593D01*
X114854038Y-116480166D01*
X114596069Y-116538110D01*
X114285712Y-116557425D01*
X114019012Y-116541351D01*
X113799938Y-116493131D01*
X113487994Y-116326443D01*
X113321306Y-116093081D01*
X113271300Y-115824000D01*
X113321306Y-115469193D01*
X113442750Y-115204875D01*
X112976025Y-115052475D01*
X112918875Y-115150106D01*
X112847437Y-115309650D01*
X112787906Y-115531106D01*
X112761712Y-115814475D01*
X112249082Y-115814475D01*
X112249082Y-114685762D01*
X112828387Y-114685762D01*
X115776375Y-114685762D01*
X115776375Y-114099975D01*
X114428588Y-114099975D01*
X114697669Y-113849943D01*
X114863166Y-113721951D01*
X115040569Y-113599912D01*
X115226306Y-113486207D01*
X115416806Y-113383218D01*
X115776375Y-113233200D01*
X115776375Y-112571212D01*
X115563848Y-112648603D01*
X115345369Y-112747425D01*
X115126294Y-112863511D01*
X114911981Y-112992693D01*
X114706598Y-113132592D01*
X114514313Y-113280825D01*
X114339291Y-113432034D01*
X114185700Y-113580862D01*
X114010678Y-113436201D01*
X113828512Y-113297493D01*
X113644561Y-113165929D01*
X113464181Y-113042700D01*
X113289159Y-112930186D01*
X113121281Y-112830768D01*
X112828387Y-112671225D01*
X112828387Y-113333212D01*
X113114137Y-113476087D01*
X113433225Y-113664206D01*
X113757075Y-113880900D01*
X114052350Y-114099975D01*
X112828387Y-114099975D01*
X112828387Y-114685762D01*
X112249082Y-114685762D01*
X112249082Y-112058582D01*
X112258958Y-111857557D01*
X112288490Y-111658468D01*
X112337394Y-111463232D01*
X112405199Y-111273730D01*
X112491252Y-111091786D01*
X112594724Y-110919153D01*
X112714619Y-110757494D01*
X112849782Y-110608365D01*
X112998912Y-110473202D01*
X113160571Y-110353307D01*
X113333204Y-110249835D01*
X113515148Y-110163782D01*
X113704650Y-110095977D01*
X113899886Y-110047073D01*
X114098975Y-110017541D01*
X114300000Y-110007665D01*
X114501025Y-110017541D01*
X114700114Y-110047073D01*
X114895350Y-110095977D01*
X115084852Y-110163782D01*
X115266796Y-110249835D01*
X115439429Y-110353307D01*
X115601088Y-110473202D01*
X115750218Y-110608365D01*
X115885381Y-110757494D01*
X116005276Y-110919153D01*
X116108748Y-111091786D01*
X116194801Y-111273730D01*
X116262606Y-111463232D01*
X116311510Y-111658468D01*
X116341042Y-111857557D01*
X116350918Y-112058582D01*
X116350918Y-131781417D01*
X116341042Y-131982442D01*
X116311510Y-132181532D01*
X116262606Y-132376767D01*
X116194801Y-132566270D01*
X116108748Y-132748213D01*
G37*
G36*
X115097719Y-120434100D02*
G01*
X115226306Y-120555543D01*
X115288219Y-120724612D01*
X115304887Y-120919875D01*
X115300125Y-121065131D01*
X115285838Y-121200862D01*
X114485738Y-121200862D01*
X114485738Y-120886537D01*
X114578606Y-120522206D01*
X114885788Y-120386475D01*
X115097719Y-120434100D01*
G37*
G36*
X113902331Y-120634125D02*
G01*
X113999962Y-120972262D01*
X113999962Y-121200862D01*
X113323687Y-121200862D01*
X113309400Y-121072275D01*
X113304637Y-120934162D01*
X113316544Y-120777000D01*
X113364169Y-120643650D01*
X113464181Y-120553162D01*
X113633250Y-120519825D01*
X113902331Y-120634125D01*
G37*
%LPC*%
D11*
X189911056Y-56722944D03*
X186516944Y-60117056D03*
X188214000Y-56020000D03*
X190614000Y-58420000D03*
D12*
X188214000Y-58420000D03*
D11*
X186516944Y-56722944D03*
X185814000Y-58420000D03*
X189911056Y-60117056D03*
X188214000Y-60820000D03*
X188214000Y-142380000D03*
X186516944Y-146477056D03*
X185814000Y-144780000D03*
X190614000Y-144780000D03*
X189911056Y-143082944D03*
X189911056Y-146477056D03*
X186516944Y-143082944D03*
D12*
X188214000Y-144780000D03*
D11*
X188214000Y-147180000D03*
X109614000Y-144780000D03*
X112014000Y-142380000D03*
X113711056Y-146477056D03*
X110316944Y-143082944D03*
X113711056Y-143082944D03*
X110316944Y-146477056D03*
D12*
X112014000Y-144780000D03*
D11*
X112014000Y-147180000D03*
X114414000Y-144780000D03*
X110316944Y-56722944D03*
X112014000Y-60820000D03*
X109614000Y-58420000D03*
X113711056Y-56722944D03*
D12*
X112014000Y-58420000D03*
D11*
X112014000Y-56020000D03*
X114414000Y-58420000D03*
X110316944Y-60117056D03*
X113711056Y-60117056D03*
M02*
