G04 #@! TF.GenerationSoftware,KiCad,Pcbnew,6.0.5+dfsg-1~bpo11+1*
G04 #@! TF.CreationDate,2022-10-16T01:22:10+00:00*
G04 #@! TF.ProjectId,phasor_II_front_panel,70686173-6f72-45f4-9949-5f66726f6e74,0*
G04 #@! TF.SameCoordinates,Original*
G04 #@! TF.FileFunction,Copper,L2,Bot*
G04 #@! TF.FilePolarity,Positive*
%FSLAX46Y46*%
G04 Gerber Fmt 4.6, Leading zero omitted, Abs format (unit mm)*
G04 Created by KiCad (PCBNEW 6.0.5+dfsg-1~bpo11+1) date 2022-10-16 01:22:10*
%MOMM*%
%LPD*%
G01*
G04 APERTURE LIST*
G04 #@! TA.AperFunction,ComponentPad*
%ADD10C,0.800000*%
G04 #@! TD*
G04 #@! TA.AperFunction,ComponentPad*
%ADD11C,6.400000*%
G04 #@! TD*
G04 APERTURE END LIST*
D10*
X189911056Y-56722944D03*
X186516944Y-60117056D03*
X188214000Y-56020000D03*
X190614000Y-58420000D03*
D11*
X188214000Y-58420000D03*
D10*
X186516944Y-56722944D03*
X185814000Y-58420000D03*
X189911056Y-60117056D03*
X188214000Y-60820000D03*
X188214000Y-142380000D03*
X186516944Y-146477056D03*
X185814000Y-144780000D03*
X190614000Y-144780000D03*
X189911056Y-143082944D03*
X189911056Y-146477056D03*
X186516944Y-143082944D03*
D11*
X188214000Y-144780000D03*
D10*
X188214000Y-147180000D03*
X109614000Y-144780000D03*
X112014000Y-142380000D03*
X113711056Y-146477056D03*
X110316944Y-143082944D03*
X113711056Y-143082944D03*
X110316944Y-146477056D03*
D11*
X112014000Y-144780000D03*
D10*
X112014000Y-147180000D03*
X114414000Y-144780000D03*
X110316944Y-56722944D03*
X112014000Y-60820000D03*
X109614000Y-58420000D03*
X113711056Y-56722944D03*
D11*
X112014000Y-58420000D03*
D10*
X112014000Y-56020000D03*
X114414000Y-58420000D03*
X110316944Y-60117056D03*
X113711056Y-60117056D03*
G04 #@! TA.AperFunction,Conductor*
G36*
X188184018Y-53850000D02*
G01*
X188198851Y-53852310D01*
X188198855Y-53852310D01*
X188207724Y-53853691D01*
X188228183Y-53851016D01*
X188250008Y-53850072D01*
X188606937Y-53865656D01*
X188617886Y-53866614D01*
X189002379Y-53917233D01*
X189013205Y-53919142D01*
X189391822Y-54003080D01*
X189402439Y-54005925D01*
X189572702Y-54059608D01*
X189772302Y-54122542D01*
X189782615Y-54126295D01*
X190140932Y-54274715D01*
X190150876Y-54279353D01*
X190494867Y-54458423D01*
X190504387Y-54463919D01*
X190831468Y-54672292D01*
X190840472Y-54678597D01*
X191148138Y-54914678D01*
X191156558Y-54921743D01*
X191442483Y-55183744D01*
X191450252Y-55191513D01*
X191463682Y-55206169D01*
X191712257Y-55477442D01*
X191719322Y-55485862D01*
X191955403Y-55793528D01*
X191961708Y-55802532D01*
X192170081Y-56129613D01*
X192175576Y-56139132D01*
X192225451Y-56234939D01*
X192354643Y-56483115D01*
X192359289Y-56493077D01*
X192507702Y-56851377D01*
X192511461Y-56861706D01*
X192628075Y-57231561D01*
X192630920Y-57242178D01*
X192714858Y-57620795D01*
X192716767Y-57631621D01*
X192767386Y-58016114D01*
X192768344Y-58027064D01*
X192783603Y-58376552D01*
X192782223Y-58401429D01*
X192780309Y-58413724D01*
X192781473Y-58422626D01*
X192781473Y-58422628D01*
X192784436Y-58445283D01*
X192785500Y-58461621D01*
X192785500Y-149810633D01*
X192784000Y-149830018D01*
X192781690Y-149844851D01*
X192781690Y-149844855D01*
X192780309Y-149853724D01*
X192782984Y-149874183D01*
X192783928Y-149896008D01*
X192777291Y-150048014D01*
X192768344Y-150252936D01*
X192767386Y-150263886D01*
X192716767Y-150648379D01*
X192714858Y-150659205D01*
X192630920Y-151037822D01*
X192628075Y-151048439D01*
X192511461Y-151418294D01*
X192507702Y-151428623D01*
X192359289Y-151786923D01*
X192354643Y-151796885D01*
X192175577Y-152140867D01*
X192170081Y-152150387D01*
X191961708Y-152477468D01*
X191955403Y-152486472D01*
X191719322Y-152794138D01*
X191712257Y-152802558D01*
X191450256Y-153088483D01*
X191442483Y-153096256D01*
X191156558Y-153358257D01*
X191148138Y-153365322D01*
X190840472Y-153601403D01*
X190831468Y-153607708D01*
X190504387Y-153816081D01*
X190494868Y-153821576D01*
X190150876Y-154000647D01*
X190140932Y-154005285D01*
X189782615Y-154153705D01*
X189772302Y-154157458D01*
X189572702Y-154220392D01*
X189402439Y-154274075D01*
X189391822Y-154276920D01*
X189013205Y-154360858D01*
X189002379Y-154362767D01*
X188617886Y-154413386D01*
X188606937Y-154414344D01*
X188257446Y-154429603D01*
X188232571Y-154428223D01*
X188220276Y-154426309D01*
X188211374Y-154427473D01*
X188211372Y-154427473D01*
X188196323Y-154429441D01*
X188188714Y-154430436D01*
X188172379Y-154431500D01*
X112063367Y-154431500D01*
X112043982Y-154430000D01*
X112029149Y-154427690D01*
X112029145Y-154427690D01*
X112020276Y-154426309D01*
X111999817Y-154428984D01*
X111977992Y-154429928D01*
X111621063Y-154414344D01*
X111610114Y-154413386D01*
X111225621Y-154362767D01*
X111214795Y-154360858D01*
X110836178Y-154276920D01*
X110825561Y-154274075D01*
X110655298Y-154220392D01*
X110455698Y-154157458D01*
X110445385Y-154153705D01*
X110087068Y-154005285D01*
X110077124Y-154000647D01*
X109733132Y-153821576D01*
X109723613Y-153816081D01*
X109396532Y-153607708D01*
X109387528Y-153601403D01*
X109079862Y-153365322D01*
X109071442Y-153358257D01*
X108785517Y-153096256D01*
X108777744Y-153088483D01*
X108515743Y-152802558D01*
X108508678Y-152794138D01*
X108272597Y-152486472D01*
X108266292Y-152477468D01*
X108057919Y-152150387D01*
X108052423Y-152140867D01*
X107873357Y-151796885D01*
X107868711Y-151786923D01*
X107720298Y-151428623D01*
X107716539Y-151418294D01*
X107599925Y-151048439D01*
X107597080Y-151037822D01*
X107513142Y-150659205D01*
X107511233Y-150648379D01*
X107460614Y-150263886D01*
X107459656Y-150252936D01*
X107444561Y-149907208D01*
X107446188Y-149880805D01*
X107446769Y-149877352D01*
X107446770Y-149877345D01*
X107447576Y-149872552D01*
X107447729Y-149860000D01*
X107443773Y-149832376D01*
X107442500Y-149814514D01*
X107442500Y-147577386D01*
X109581759Y-147577386D01*
X109589216Y-147587753D01*
X109828935Y-147781874D01*
X109834272Y-147785751D01*
X110154685Y-147993830D01*
X110160394Y-147997127D01*
X110500811Y-148170578D01*
X110506836Y-148173260D01*
X110863502Y-148310171D01*
X110869784Y-148312212D01*
X111238816Y-148411094D01*
X111245266Y-148412465D01*
X111622629Y-148472234D01*
X111629167Y-148472920D01*
X112010699Y-148492916D01*
X112017301Y-148492916D01*
X112398833Y-148472920D01*
X112405371Y-148472234D01*
X112782734Y-148412465D01*
X112789184Y-148411094D01*
X113158216Y-148312212D01*
X113164498Y-148310171D01*
X113521164Y-148173260D01*
X113527189Y-148170578D01*
X113867606Y-147997127D01*
X113873315Y-147993830D01*
X114193728Y-147785751D01*
X114199065Y-147781874D01*
X114437835Y-147588522D01*
X114446300Y-147576267D01*
X114439966Y-147565176D01*
X112026812Y-145152022D01*
X112012868Y-145144408D01*
X112011035Y-145144539D01*
X112004420Y-145148790D01*
X109588900Y-147564310D01*
X109581759Y-147577386D01*
X107442500Y-147577386D01*
X107442500Y-144783301D01*
X108301084Y-144783301D01*
X108321080Y-145164833D01*
X108321766Y-145171371D01*
X108381535Y-145548734D01*
X108382906Y-145555184D01*
X108481788Y-145924216D01*
X108483829Y-145930498D01*
X108620740Y-146287164D01*
X108623422Y-146293189D01*
X108796872Y-146633603D01*
X108800169Y-146639313D01*
X109008253Y-146959735D01*
X109012123Y-146965061D01*
X109205478Y-147203835D01*
X109217733Y-147212300D01*
X109228824Y-147205966D01*
X111641978Y-144792812D01*
X111648356Y-144781132D01*
X112378408Y-144781132D01*
X112378539Y-144782965D01*
X112382790Y-144789580D01*
X114798310Y-147205100D01*
X114811386Y-147212241D01*
X114821753Y-147204784D01*
X115015877Y-146965061D01*
X115019747Y-146959735D01*
X115227831Y-146639313D01*
X115231128Y-146633603D01*
X115404578Y-146293189D01*
X115407260Y-146287164D01*
X115544171Y-145930498D01*
X115546212Y-145924216D01*
X115645094Y-145555184D01*
X115646465Y-145548734D01*
X115706234Y-145171371D01*
X115706920Y-145164833D01*
X115726916Y-144783301D01*
X115726916Y-144776699D01*
X115724847Y-144737229D01*
X130286980Y-144737229D01*
X130287877Y-144758622D01*
X130301301Y-145078928D01*
X130321024Y-145206332D01*
X130334139Y-145291045D01*
X130353622Y-145416900D01*
X130443290Y-145746934D01*
X130569188Y-146064916D01*
X130570843Y-146068028D01*
X130570845Y-146068033D01*
X130657646Y-146231281D01*
X130729746Y-146366882D01*
X130731736Y-146369788D01*
X130731737Y-146369790D01*
X130920973Y-146646162D01*
X130920978Y-146646168D01*
X130922964Y-146649069D01*
X131146433Y-146907960D01*
X131397367Y-147140328D01*
X131672639Y-147343276D01*
X131675676Y-147345030D01*
X131675680Y-147345032D01*
X131793231Y-147412900D01*
X131968818Y-147514275D01*
X132095715Y-147569715D01*
X132278992Y-147649787D01*
X132278995Y-147649788D01*
X132282213Y-147651194D01*
X132285570Y-147652233D01*
X132285575Y-147652235D01*
X132421434Y-147694290D01*
X132608916Y-147752325D01*
X132612372Y-147752984D01*
X132612371Y-147752984D01*
X132941405Y-147815751D01*
X132941410Y-147815752D01*
X132944856Y-147816409D01*
X133169015Y-147833657D01*
X133282350Y-147842378D01*
X133282351Y-147842378D01*
X133285847Y-147842647D01*
X133498892Y-147835208D01*
X133624122Y-147830835D01*
X133624127Y-147830835D01*
X133627637Y-147830712D01*
X133796802Y-147805731D01*
X133962487Y-147781265D01*
X133962491Y-147781264D01*
X133965966Y-147780751D01*
X133969358Y-147779855D01*
X133969362Y-147779854D01*
X134293210Y-147694290D01*
X134293219Y-147694287D01*
X134296618Y-147693389D01*
X134615471Y-147569715D01*
X134918551Y-147411268D01*
X135202080Y-147220025D01*
X135462525Y-146998369D01*
X135464920Y-146995819D01*
X135464928Y-146995811D01*
X135694227Y-146751631D01*
X135694231Y-146751626D01*
X135696638Y-146749063D01*
X135698743Y-146746249D01*
X135698749Y-146746242D01*
X135899394Y-146478034D01*
X135901503Y-146475215D01*
X135903284Y-146472180D01*
X136072784Y-146183275D01*
X136072787Y-146183270D01*
X136074566Y-146180237D01*
X136111313Y-146097702D01*
X136212237Y-145871023D01*
X136212239Y-145871018D01*
X136213669Y-145867806D01*
X136317079Y-145541816D01*
X136383507Y-145206332D01*
X136394501Y-145075411D01*
X136411942Y-144867715D01*
X136411942Y-144867708D01*
X136412125Y-144865533D01*
X136413140Y-144792812D01*
X136413289Y-144782178D01*
X136413289Y-144782166D01*
X136413319Y-144780000D01*
X143600478Y-144780000D01*
X143609513Y-145009960D01*
X143620557Y-145291045D01*
X143620846Y-145293488D01*
X143620847Y-145293499D01*
X143650634Y-145545167D01*
X143680670Y-145798939D01*
X143780447Y-146300552D01*
X143919272Y-146792789D01*
X144096290Y-147272617D01*
X144097320Y-147274852D01*
X144097322Y-147274856D01*
X144309372Y-147734829D01*
X144309379Y-147734842D01*
X144310409Y-147737077D01*
X144560310Y-148183306D01*
X144844450Y-148608552D01*
X145161079Y-149010194D01*
X145162756Y-149012009D01*
X145162761Y-149012014D01*
X145419119Y-149289341D01*
X145508244Y-149385756D01*
X145883806Y-149732921D01*
X145885749Y-149734453D01*
X145885754Y-149734457D01*
X146037044Y-149853724D01*
X146285448Y-150049550D01*
X146710694Y-150333690D01*
X147156923Y-150583591D01*
X147159158Y-150584621D01*
X147159171Y-150584628D01*
X147619144Y-150796678D01*
X147621383Y-150797710D01*
X148101211Y-150974728D01*
X148324926Y-151037822D01*
X148591068Y-151112882D01*
X148591073Y-151112883D01*
X148593448Y-151113553D01*
X149095061Y-151213330D01*
X149258981Y-151232731D01*
X149600501Y-151273153D01*
X149600512Y-151273154D01*
X149602955Y-151273443D01*
X150114000Y-151293522D01*
X150625045Y-151273443D01*
X150627488Y-151273154D01*
X150627499Y-151273153D01*
X150969019Y-151232731D01*
X151132939Y-151213330D01*
X151634552Y-151113553D01*
X151636927Y-151112883D01*
X151636932Y-151112882D01*
X151903074Y-151037822D01*
X152126789Y-150974728D01*
X152606617Y-150797710D01*
X152608856Y-150796678D01*
X153068829Y-150584628D01*
X153068842Y-150584621D01*
X153071077Y-150583591D01*
X153517306Y-150333690D01*
X153942552Y-150049550D01*
X154190956Y-149853724D01*
X154342246Y-149734457D01*
X154342251Y-149734453D01*
X154344194Y-149732921D01*
X154719756Y-149385756D01*
X154808881Y-149289341D01*
X155065239Y-149012014D01*
X155065244Y-149012009D01*
X155066921Y-149010194D01*
X155383550Y-148608552D01*
X155667690Y-148183306D01*
X155917591Y-147737077D01*
X155918621Y-147734842D01*
X155918628Y-147734829D01*
X155991210Y-147577386D01*
X185781759Y-147577386D01*
X185789216Y-147587753D01*
X186028935Y-147781874D01*
X186034272Y-147785751D01*
X186354685Y-147993830D01*
X186360394Y-147997127D01*
X186700811Y-148170578D01*
X186706836Y-148173260D01*
X187063502Y-148310171D01*
X187069784Y-148312212D01*
X187438816Y-148411094D01*
X187445266Y-148412465D01*
X187822629Y-148472234D01*
X187829167Y-148472920D01*
X188210699Y-148492916D01*
X188217301Y-148492916D01*
X188598833Y-148472920D01*
X188605371Y-148472234D01*
X188982734Y-148412465D01*
X188989184Y-148411094D01*
X189358216Y-148312212D01*
X189364498Y-148310171D01*
X189721164Y-148173260D01*
X189727189Y-148170578D01*
X190067606Y-147997127D01*
X190073315Y-147993830D01*
X190393728Y-147785751D01*
X190399065Y-147781874D01*
X190637835Y-147588522D01*
X190646300Y-147576267D01*
X190639966Y-147565176D01*
X188226812Y-145152022D01*
X188212868Y-145144408D01*
X188211035Y-145144539D01*
X188204420Y-145148790D01*
X185788900Y-147564310D01*
X185781759Y-147577386D01*
X155991210Y-147577386D01*
X156130678Y-147274856D01*
X156130680Y-147274852D01*
X156131710Y-147272617D01*
X156308728Y-146792789D01*
X156447553Y-146300552D01*
X156547330Y-145798939D01*
X156577366Y-145545167D01*
X156607153Y-145293499D01*
X156607154Y-145293488D01*
X156607443Y-145291045D01*
X156627392Y-144783301D01*
X184501084Y-144783301D01*
X184521080Y-145164833D01*
X184521766Y-145171371D01*
X184581535Y-145548734D01*
X184582906Y-145555184D01*
X184681788Y-145924216D01*
X184683829Y-145930498D01*
X184820740Y-146287164D01*
X184823422Y-146293189D01*
X184996872Y-146633603D01*
X185000169Y-146639313D01*
X185208253Y-146959735D01*
X185212123Y-146965061D01*
X185405478Y-147203835D01*
X185417733Y-147212300D01*
X185428824Y-147205966D01*
X187841978Y-144792812D01*
X187848356Y-144781132D01*
X188578408Y-144781132D01*
X188578539Y-144782965D01*
X188582790Y-144789580D01*
X190998310Y-147205100D01*
X191011386Y-147212241D01*
X191021753Y-147204784D01*
X191215877Y-146965061D01*
X191219747Y-146959735D01*
X191427831Y-146639313D01*
X191431128Y-146633603D01*
X191604578Y-146293189D01*
X191607260Y-146287164D01*
X191744171Y-145930498D01*
X191746212Y-145924216D01*
X191845094Y-145555184D01*
X191846465Y-145548734D01*
X191906234Y-145171371D01*
X191906920Y-145164833D01*
X191926916Y-144783301D01*
X191926916Y-144776699D01*
X191906920Y-144395167D01*
X191906234Y-144388629D01*
X191846465Y-144011266D01*
X191845094Y-144004816D01*
X191746212Y-143635784D01*
X191744171Y-143629502D01*
X191607260Y-143272836D01*
X191604578Y-143266811D01*
X191431128Y-142926397D01*
X191427831Y-142920687D01*
X191219747Y-142600265D01*
X191215877Y-142594939D01*
X191022522Y-142356165D01*
X191010267Y-142347700D01*
X190999176Y-142354034D01*
X188586022Y-144767188D01*
X188578408Y-144781132D01*
X187848356Y-144781132D01*
X187849592Y-144778868D01*
X187849461Y-144777035D01*
X187845210Y-144770420D01*
X185429690Y-142354900D01*
X185416614Y-142347759D01*
X185406247Y-142355216D01*
X185212123Y-142594939D01*
X185208253Y-142600265D01*
X185000169Y-142920687D01*
X184996872Y-142926397D01*
X184823422Y-143266811D01*
X184820740Y-143272836D01*
X184683829Y-143629502D01*
X184681788Y-143635784D01*
X184582906Y-144004816D01*
X184581535Y-144011266D01*
X184521766Y-144388629D01*
X184521080Y-144395167D01*
X184501084Y-144776699D01*
X184501084Y-144783301D01*
X156627392Y-144783301D01*
X156627522Y-144780000D01*
X156607443Y-144268955D01*
X156600518Y-144210440D01*
X156547620Y-143763513D01*
X156547330Y-143761061D01*
X156447553Y-143259448D01*
X156419442Y-143159772D01*
X156402837Y-143100897D01*
X156308728Y-142767211D01*
X156131710Y-142287383D01*
X156130678Y-142285144D01*
X155991726Y-141983733D01*
X185781700Y-141983733D01*
X185788034Y-141994824D01*
X188201188Y-144407978D01*
X188215132Y-144415592D01*
X188216965Y-144415461D01*
X188223580Y-144411210D01*
X190639100Y-141995690D01*
X190646241Y-141982614D01*
X190638784Y-141972247D01*
X190399065Y-141778126D01*
X190393728Y-141774249D01*
X190073315Y-141566170D01*
X190067606Y-141562873D01*
X189727189Y-141389422D01*
X189721164Y-141386740D01*
X189364498Y-141249829D01*
X189358216Y-141247788D01*
X188989184Y-141148906D01*
X188982734Y-141147535D01*
X188605371Y-141087766D01*
X188598833Y-141087080D01*
X188217301Y-141067084D01*
X188210699Y-141067084D01*
X187829167Y-141087080D01*
X187822629Y-141087766D01*
X187445266Y-141147535D01*
X187438816Y-141148906D01*
X187069784Y-141247788D01*
X187063502Y-141249829D01*
X186706836Y-141386740D01*
X186700811Y-141389422D01*
X186360397Y-141562872D01*
X186354687Y-141566169D01*
X186034265Y-141774253D01*
X186028939Y-141778123D01*
X185790165Y-141971478D01*
X185781700Y-141983733D01*
X155991726Y-141983733D01*
X155918628Y-141825171D01*
X155918621Y-141825158D01*
X155917591Y-141822923D01*
X155667690Y-141376694D01*
X155383550Y-140951448D01*
X155066921Y-140549806D01*
X154933856Y-140405856D01*
X154721419Y-140176043D01*
X154719756Y-140174244D01*
X154344194Y-139827079D01*
X153942552Y-139510450D01*
X153517306Y-139226310D01*
X153071077Y-138976409D01*
X153068842Y-138975379D01*
X153068829Y-138975372D01*
X152608856Y-138763322D01*
X152608852Y-138763320D01*
X152606617Y-138762290D01*
X152126789Y-138585272D01*
X151793103Y-138491163D01*
X151636932Y-138447118D01*
X151636927Y-138447117D01*
X151634552Y-138446447D01*
X151132939Y-138346670D01*
X150969019Y-138327269D01*
X150627499Y-138286847D01*
X150627488Y-138286846D01*
X150625045Y-138286557D01*
X150114000Y-138266478D01*
X149602955Y-138286557D01*
X149600512Y-138286846D01*
X149600501Y-138286847D01*
X149258981Y-138327269D01*
X149095061Y-138346670D01*
X148593448Y-138446447D01*
X148591073Y-138447117D01*
X148591068Y-138447118D01*
X148434897Y-138491163D01*
X148101211Y-138585272D01*
X147621383Y-138762290D01*
X147619148Y-138763320D01*
X147619144Y-138763322D01*
X147159171Y-138975372D01*
X147159158Y-138975379D01*
X147156923Y-138976409D01*
X146710694Y-139226310D01*
X146285448Y-139510450D01*
X145883806Y-139827079D01*
X145508244Y-140174244D01*
X145506581Y-140176043D01*
X145294145Y-140405856D01*
X145161079Y-140549806D01*
X144844450Y-140951448D01*
X144560310Y-141376694D01*
X144310409Y-141822923D01*
X144309379Y-141825158D01*
X144309372Y-141825171D01*
X144097322Y-142285144D01*
X144096290Y-142287383D01*
X143919272Y-142767211D01*
X143825163Y-143100897D01*
X143808559Y-143159772D01*
X143780447Y-143259448D01*
X143680670Y-143761061D01*
X143680380Y-143763513D01*
X143627483Y-144210440D01*
X143620557Y-144268955D01*
X143600478Y-144780000D01*
X136413319Y-144780000D01*
X136413154Y-144777035D01*
X136394424Y-144442044D01*
X136394228Y-144438535D01*
X136337194Y-144101326D01*
X136325254Y-144059685D01*
X136243893Y-143775948D01*
X136243891Y-143775942D01*
X136242926Y-143772577D01*
X136239190Y-143763513D01*
X136113939Y-143459629D01*
X136113935Y-143459621D01*
X136112601Y-143456384D01*
X135947842Y-143156688D01*
X135910410Y-143103624D01*
X135752734Y-142880105D01*
X135752733Y-142880104D01*
X135750703Y-142877226D01*
X135523642Y-142621481D01*
X135269487Y-142392639D01*
X135193568Y-142338286D01*
X134994275Y-142195606D01*
X134994268Y-142195602D01*
X134991408Y-142193554D01*
X134692871Y-142026707D01*
X134377595Y-141894178D01*
X134334282Y-141881430D01*
X134241633Y-141854162D01*
X134049512Y-141797617D01*
X134046056Y-141797008D01*
X134046049Y-141797006D01*
X133716169Y-141738840D01*
X133716167Y-141738840D01*
X133712709Y-141738230D01*
X133709200Y-141738009D01*
X133709198Y-141738009D01*
X133374904Y-141716977D01*
X133374898Y-141716977D01*
X133371386Y-141716756D01*
X133273227Y-141721557D01*
X133033303Y-141733290D01*
X133033294Y-141733291D01*
X133029796Y-141733462D01*
X133026328Y-141734024D01*
X133026325Y-141734024D01*
X132695672Y-141787578D01*
X132695669Y-141787579D01*
X132692197Y-141788141D01*
X132688810Y-141789087D01*
X132688804Y-141789088D01*
X132366192Y-141879163D01*
X132362797Y-141880111D01*
X132359534Y-141881429D01*
X132359532Y-141881430D01*
X132048959Y-142006910D01*
X132045702Y-142008226D01*
X131744864Y-142170889D01*
X131464033Y-142366072D01*
X131461391Y-142368385D01*
X131461387Y-142368388D01*
X131430993Y-142394996D01*
X131206708Y-142591342D01*
X130976098Y-142843893D01*
X130974032Y-142846736D01*
X130974030Y-142846739D01*
X130953792Y-142874594D01*
X130775076Y-143120575D01*
X130606149Y-143417941D01*
X130471422Y-143732283D01*
X130458239Y-143775948D01*
X130387192Y-144011266D01*
X130372573Y-144059685D01*
X130345918Y-144204919D01*
X130312201Y-144388629D01*
X130310836Y-144396064D01*
X130286980Y-144737229D01*
X115724847Y-144737229D01*
X115706920Y-144395167D01*
X115706234Y-144388629D01*
X115646465Y-144011266D01*
X115645094Y-144004816D01*
X115546212Y-143635784D01*
X115544171Y-143629502D01*
X115407260Y-143272836D01*
X115404578Y-143266811D01*
X115231128Y-142926397D01*
X115227831Y-142920687D01*
X115019747Y-142600265D01*
X115015877Y-142594939D01*
X114822522Y-142356165D01*
X114810267Y-142347700D01*
X114799176Y-142354034D01*
X112386022Y-144767188D01*
X112378408Y-144781132D01*
X111648356Y-144781132D01*
X111649592Y-144778868D01*
X111649461Y-144777035D01*
X111645210Y-144770420D01*
X109229690Y-142354900D01*
X109216614Y-142347759D01*
X109206247Y-142355216D01*
X109012123Y-142594939D01*
X109008253Y-142600265D01*
X108800169Y-142920687D01*
X108796872Y-142926397D01*
X108623422Y-143266811D01*
X108620740Y-143272836D01*
X108483829Y-143629502D01*
X108481788Y-143635784D01*
X108382906Y-144004816D01*
X108381535Y-144011266D01*
X108321766Y-144388629D01*
X108321080Y-144395167D01*
X108301084Y-144776699D01*
X108301084Y-144783301D01*
X107442500Y-144783301D01*
X107442500Y-141983733D01*
X109581700Y-141983733D01*
X109588034Y-141994824D01*
X112001188Y-144407978D01*
X112015132Y-144415592D01*
X112016965Y-144415461D01*
X112023580Y-144411210D01*
X114439100Y-141995690D01*
X114446241Y-141982614D01*
X114438784Y-141972247D01*
X114199065Y-141778126D01*
X114193728Y-141774249D01*
X113873315Y-141566170D01*
X113867606Y-141562873D01*
X113527189Y-141389422D01*
X113521164Y-141386740D01*
X113164498Y-141249829D01*
X113158216Y-141247788D01*
X112789184Y-141148906D01*
X112782734Y-141147535D01*
X112405371Y-141087766D01*
X112398833Y-141087080D01*
X112017301Y-141067084D01*
X112010699Y-141067084D01*
X111629167Y-141087080D01*
X111622629Y-141087766D01*
X111245266Y-141147535D01*
X111238816Y-141148906D01*
X110869784Y-141247788D01*
X110863502Y-141249829D01*
X110506836Y-141386740D01*
X110500811Y-141389422D01*
X110160397Y-141562872D01*
X110154687Y-141566169D01*
X109834265Y-141774253D01*
X109828939Y-141778123D01*
X109590165Y-141971478D01*
X109581700Y-141983733D01*
X107442500Y-141983733D01*
X107442500Y-121863266D01*
X125477001Y-121863266D01*
X125477109Y-121866356D01*
X125477499Y-121877534D01*
X125489347Y-122216798D01*
X125490856Y-122260016D01*
X125543361Y-122653521D01*
X125634014Y-123040023D01*
X125761951Y-123415835D01*
X125925950Y-123777369D01*
X126124446Y-124121174D01*
X126126235Y-124123672D01*
X126126237Y-124123676D01*
X126226353Y-124263516D01*
X126355544Y-124443969D01*
X126617038Y-124742671D01*
X126619286Y-124744782D01*
X126904178Y-125012314D01*
X126904185Y-125012320D01*
X126906433Y-125014431D01*
X126908883Y-125016318D01*
X126908888Y-125016322D01*
X127218522Y-125254773D01*
X127220965Y-125256654D01*
X127223564Y-125258278D01*
X127223574Y-125258285D01*
X127404998Y-125371650D01*
X127557634Y-125467027D01*
X127913224Y-125643544D01*
X128284342Y-125784518D01*
X128667446Y-125888605D01*
X128670489Y-125889120D01*
X128670495Y-125889121D01*
X129055837Y-125954297D01*
X129055844Y-125954298D01*
X129058878Y-125954811D01*
X129061949Y-125955026D01*
X129061951Y-125955026D01*
X129451837Y-125982290D01*
X129451845Y-125982290D01*
X129454903Y-125982504D01*
X129711170Y-125975346D01*
X129848666Y-125971505D01*
X129848669Y-125971505D01*
X129851740Y-125971419D01*
X129854793Y-125971033D01*
X129854797Y-125971033D01*
X130043315Y-125947218D01*
X130245601Y-125921663D01*
X130248605Y-125920981D01*
X130248608Y-125920980D01*
X130629731Y-125834391D01*
X130629737Y-125834389D01*
X130632727Y-125833710D01*
X130780604Y-125784518D01*
X131006499Y-125709373D01*
X131006505Y-125709371D01*
X131009423Y-125708400D01*
X131152633Y-125644639D01*
X131369294Y-125548176D01*
X131369300Y-125548173D01*
X131372094Y-125546929D01*
X131512747Y-125467027D01*
X131714603Y-125352357D01*
X131714611Y-125352352D01*
X131717276Y-125350838D01*
X132041676Y-125121999D01*
X132342197Y-124862596D01*
X132344318Y-124860369D01*
X132344324Y-124860363D01*
X132613853Y-124577329D01*
X132615970Y-124575106D01*
X132649237Y-124532527D01*
X132858472Y-124264717D01*
X132858474Y-124264714D01*
X132860382Y-124262272D01*
X132862038Y-124259662D01*
X132862044Y-124259654D01*
X133071447Y-123929688D01*
X133071451Y-123929681D01*
X133073101Y-123927081D01*
X133099390Y-123875039D01*
X133158043Y-123758925D01*
X133252096Y-123572732D01*
X133253203Y-123569878D01*
X133253207Y-123569869D01*
X133394543Y-123205483D01*
X133394546Y-123205474D01*
X133395658Y-123202607D01*
X133502417Y-122820239D01*
X133571354Y-122429278D01*
X133601811Y-122033457D01*
X133603395Y-121920000D01*
X133600772Y-121866356D01*
X133584152Y-121526552D01*
X133584002Y-121523482D01*
X133575220Y-121464012D01*
X133526458Y-121133795D01*
X133526457Y-121133791D01*
X133526008Y-121130749D01*
X133429967Y-120745550D01*
X133411728Y-120694327D01*
X133297828Y-120374460D01*
X133296796Y-120371561D01*
X133127765Y-120012352D01*
X133098015Y-119962445D01*
X132926068Y-119674003D01*
X132924488Y-119671352D01*
X132688906Y-119351815D01*
X132423266Y-119056793D01*
X132130105Y-118789100D01*
X131812222Y-118551293D01*
X131763370Y-118521707D01*
X131475277Y-118347231D01*
X131475268Y-118347226D01*
X131472649Y-118345640D01*
X131114629Y-118174106D01*
X131055229Y-118152486D01*
X130744475Y-118039381D01*
X130744474Y-118039381D01*
X130741579Y-118038327D01*
X130534688Y-117985206D01*
X130360043Y-117940365D01*
X130360040Y-117940364D01*
X130357059Y-117939599D01*
X129964740Y-117878865D01*
X129961683Y-117878694D01*
X129961682Y-117878694D01*
X129932924Y-117877086D01*
X129568368Y-117856704D01*
X129565290Y-117856833D01*
X129565286Y-117856833D01*
X129306983Y-117867659D01*
X129171724Y-117873328D01*
X129168680Y-117873756D01*
X129168678Y-117873756D01*
X129128989Y-117879334D01*
X128778596Y-117928579D01*
X128392735Y-118021928D01*
X128017825Y-118152486D01*
X127971035Y-118174106D01*
X127660242Y-118317712D01*
X127660232Y-118317717D01*
X127657445Y-118319005D01*
X127315034Y-118519896D01*
X127274018Y-118549696D01*
X126996342Y-118751439D01*
X126996336Y-118751444D01*
X126993861Y-118753242D01*
X126991575Y-118755271D01*
X126991572Y-118755274D01*
X126951134Y-118791177D01*
X126696991Y-119016815D01*
X126694901Y-119019072D01*
X126694899Y-119019074D01*
X126429354Y-119305837D01*
X126429349Y-119305843D01*
X126427259Y-119308100D01*
X126425399Y-119310550D01*
X126425396Y-119310554D01*
X126392202Y-119354286D01*
X126187238Y-119624316D01*
X126185627Y-119626934D01*
X126185624Y-119626939D01*
X125980834Y-119959821D01*
X125979220Y-119962445D01*
X125805190Y-120319258D01*
X125804119Y-120322139D01*
X125804116Y-120322145D01*
X125718146Y-120553313D01*
X125666810Y-120691352D01*
X125565400Y-121075173D01*
X125501928Y-121467058D01*
X125501734Y-121470138D01*
X125501734Y-121470140D01*
X125494762Y-121580967D01*
X125477001Y-121863266D01*
X107442500Y-121863266D01*
X107442500Y-99003266D01*
X125477001Y-99003266D01*
X125477109Y-99006356D01*
X125477499Y-99017534D01*
X125489347Y-99356798D01*
X125490856Y-99400016D01*
X125543361Y-99793521D01*
X125634014Y-100180023D01*
X125761951Y-100555835D01*
X125925950Y-100917369D01*
X126124446Y-101261174D01*
X126126235Y-101263672D01*
X126126237Y-101263676D01*
X126226353Y-101403516D01*
X126355544Y-101583969D01*
X126617038Y-101882671D01*
X126619286Y-101884782D01*
X126904178Y-102152314D01*
X126904185Y-102152320D01*
X126906433Y-102154431D01*
X126908883Y-102156318D01*
X126908888Y-102156322D01*
X127218522Y-102394773D01*
X127220965Y-102396654D01*
X127223564Y-102398278D01*
X127223574Y-102398285D01*
X127404998Y-102511650D01*
X127557634Y-102607027D01*
X127913224Y-102783544D01*
X128284342Y-102924518D01*
X128667446Y-103028605D01*
X128670489Y-103029120D01*
X128670495Y-103029121D01*
X129055837Y-103094297D01*
X129055844Y-103094298D01*
X129058878Y-103094811D01*
X129061949Y-103095026D01*
X129061951Y-103095026D01*
X129451837Y-103122290D01*
X129451845Y-103122290D01*
X129454903Y-103122504D01*
X129711170Y-103115346D01*
X129848666Y-103111505D01*
X129848669Y-103111505D01*
X129851740Y-103111419D01*
X129854793Y-103111033D01*
X129854797Y-103111033D01*
X130043315Y-103087218D01*
X130245601Y-103061663D01*
X130248605Y-103060981D01*
X130248608Y-103060980D01*
X130629731Y-102974391D01*
X130629737Y-102974389D01*
X130632727Y-102973710D01*
X130780604Y-102924518D01*
X131006499Y-102849373D01*
X131006505Y-102849371D01*
X131009423Y-102848400D01*
X131152633Y-102784639D01*
X131369294Y-102688176D01*
X131369300Y-102688173D01*
X131372094Y-102686929D01*
X131512747Y-102607027D01*
X131714603Y-102492357D01*
X131714611Y-102492352D01*
X131717276Y-102490838D01*
X132041676Y-102261999D01*
X132342197Y-102002596D01*
X132344318Y-102000369D01*
X132344324Y-102000363D01*
X132613853Y-101717329D01*
X132615970Y-101715106D01*
X132649237Y-101672527D01*
X132858472Y-101404717D01*
X132858474Y-101404714D01*
X132860382Y-101402272D01*
X132862038Y-101399662D01*
X132862044Y-101399654D01*
X133071447Y-101069688D01*
X133071451Y-101069681D01*
X133073101Y-101067081D01*
X133099390Y-101015039D01*
X133158043Y-100898925D01*
X133252096Y-100712732D01*
X133253203Y-100709878D01*
X133253207Y-100709869D01*
X133394543Y-100345483D01*
X133394546Y-100345474D01*
X133395658Y-100342607D01*
X133502417Y-99960239D01*
X133571354Y-99569278D01*
X133601811Y-99173457D01*
X133603395Y-99060000D01*
X133600772Y-99006356D01*
X133584152Y-98666552D01*
X133584002Y-98663482D01*
X133575220Y-98604012D01*
X133526458Y-98273795D01*
X133526457Y-98273791D01*
X133526008Y-98270749D01*
X133429967Y-97885550D01*
X133411728Y-97834327D01*
X133297828Y-97514460D01*
X133296796Y-97511561D01*
X133127765Y-97152352D01*
X133098015Y-97102445D01*
X132926068Y-96814003D01*
X132924488Y-96811352D01*
X132688906Y-96491815D01*
X132423266Y-96196793D01*
X132130105Y-95929100D01*
X131812222Y-95691293D01*
X131763370Y-95661707D01*
X131475277Y-95487231D01*
X131475268Y-95487226D01*
X131472649Y-95485640D01*
X131114629Y-95314106D01*
X131055229Y-95292486D01*
X130744475Y-95179381D01*
X130744474Y-95179381D01*
X130741579Y-95178327D01*
X130534688Y-95125206D01*
X130360043Y-95080365D01*
X130360040Y-95080364D01*
X130357059Y-95079599D01*
X129964740Y-95018865D01*
X129961683Y-95018694D01*
X129961682Y-95018694D01*
X129932924Y-95017086D01*
X129568368Y-94996704D01*
X129565290Y-94996833D01*
X129565286Y-94996833D01*
X129306983Y-95007659D01*
X129171724Y-95013328D01*
X129168680Y-95013756D01*
X129168678Y-95013756D01*
X129128989Y-95019334D01*
X128778596Y-95068579D01*
X128392735Y-95161928D01*
X128017825Y-95292486D01*
X127971035Y-95314106D01*
X127660242Y-95457712D01*
X127660232Y-95457717D01*
X127657445Y-95459005D01*
X127315034Y-95659896D01*
X127274018Y-95689696D01*
X126996342Y-95891439D01*
X126996336Y-95891444D01*
X126993861Y-95893242D01*
X126991575Y-95895271D01*
X126991572Y-95895274D01*
X126951134Y-95931177D01*
X126696991Y-96156815D01*
X126694901Y-96159072D01*
X126694899Y-96159074D01*
X126429354Y-96445837D01*
X126429349Y-96445843D01*
X126427259Y-96448100D01*
X126425399Y-96450550D01*
X126425396Y-96450554D01*
X126392202Y-96494286D01*
X126187238Y-96764316D01*
X126185627Y-96766934D01*
X126185624Y-96766939D01*
X125980834Y-97099821D01*
X125979220Y-97102445D01*
X125805190Y-97459258D01*
X125804119Y-97462139D01*
X125804116Y-97462145D01*
X125718146Y-97693313D01*
X125666810Y-97831352D01*
X125565400Y-98215173D01*
X125501928Y-98607058D01*
X125501734Y-98610138D01*
X125501734Y-98610140D01*
X125494762Y-98720967D01*
X125477001Y-99003266D01*
X107442500Y-99003266D01*
X107442500Y-76143266D01*
X125477001Y-76143266D01*
X125477109Y-76146356D01*
X125477499Y-76157534D01*
X125489347Y-76496798D01*
X125490856Y-76540016D01*
X125543361Y-76933521D01*
X125634014Y-77320023D01*
X125761951Y-77695835D01*
X125925950Y-78057369D01*
X126124446Y-78401174D01*
X126126235Y-78403672D01*
X126126237Y-78403676D01*
X126226353Y-78543516D01*
X126355544Y-78723969D01*
X126617038Y-79022671D01*
X126619286Y-79024782D01*
X126904178Y-79292314D01*
X126904185Y-79292320D01*
X126906433Y-79294431D01*
X126908883Y-79296318D01*
X126908888Y-79296322D01*
X127218522Y-79534773D01*
X127220965Y-79536654D01*
X127223564Y-79538278D01*
X127223574Y-79538285D01*
X127404998Y-79651650D01*
X127557634Y-79747027D01*
X127913224Y-79923544D01*
X128284342Y-80064518D01*
X128667446Y-80168605D01*
X128670489Y-80169120D01*
X128670495Y-80169121D01*
X129055837Y-80234297D01*
X129055844Y-80234298D01*
X129058878Y-80234811D01*
X129061949Y-80235026D01*
X129061951Y-80235026D01*
X129451837Y-80262290D01*
X129451845Y-80262290D01*
X129454903Y-80262504D01*
X129711170Y-80255346D01*
X129848666Y-80251505D01*
X129848669Y-80251505D01*
X129851740Y-80251419D01*
X129854793Y-80251033D01*
X129854797Y-80251033D01*
X130043315Y-80227218D01*
X130245601Y-80201663D01*
X130248605Y-80200981D01*
X130248608Y-80200980D01*
X130629731Y-80114391D01*
X130629737Y-80114389D01*
X130632727Y-80113710D01*
X130780604Y-80064518D01*
X131006499Y-79989373D01*
X131006505Y-79989371D01*
X131009423Y-79988400D01*
X131152633Y-79924639D01*
X131369294Y-79828176D01*
X131369300Y-79828173D01*
X131372094Y-79826929D01*
X131512747Y-79747027D01*
X131714603Y-79632357D01*
X131714611Y-79632352D01*
X131717276Y-79630838D01*
X132041676Y-79401999D01*
X132342197Y-79142596D01*
X132344318Y-79140369D01*
X132344324Y-79140363D01*
X132613853Y-78857329D01*
X132615970Y-78855106D01*
X132649237Y-78812527D01*
X132858472Y-78544717D01*
X132858474Y-78544714D01*
X132860382Y-78542272D01*
X132862038Y-78539662D01*
X132862044Y-78539654D01*
X133071447Y-78209688D01*
X133071451Y-78209681D01*
X133073101Y-78207081D01*
X133099390Y-78155039D01*
X133158043Y-78038925D01*
X133252096Y-77852732D01*
X133253203Y-77849878D01*
X133253207Y-77849869D01*
X133394543Y-77485483D01*
X133394546Y-77485474D01*
X133395658Y-77482607D01*
X133502417Y-77100239D01*
X133571354Y-76709278D01*
X133601811Y-76313457D01*
X133603395Y-76200000D01*
X133600772Y-76146356D01*
X133584152Y-75806552D01*
X133584002Y-75803482D01*
X133575220Y-75744012D01*
X133526458Y-75413795D01*
X133526457Y-75413791D01*
X133526008Y-75410749D01*
X133429967Y-75025550D01*
X133411728Y-74974327D01*
X133297828Y-74654460D01*
X133296796Y-74651561D01*
X133127765Y-74292352D01*
X133098015Y-74242445D01*
X132926068Y-73954003D01*
X132924488Y-73951352D01*
X132688906Y-73631815D01*
X132423266Y-73336793D01*
X132130105Y-73069100D01*
X131812222Y-72831293D01*
X131763370Y-72801707D01*
X131475277Y-72627231D01*
X131475268Y-72627226D01*
X131472649Y-72625640D01*
X131114629Y-72454106D01*
X131055229Y-72432486D01*
X130744475Y-72319381D01*
X130744474Y-72319381D01*
X130741579Y-72318327D01*
X130534688Y-72265206D01*
X130360043Y-72220365D01*
X130360040Y-72220364D01*
X130357059Y-72219599D01*
X129964740Y-72158865D01*
X129961683Y-72158694D01*
X129961682Y-72158694D01*
X129932924Y-72157086D01*
X129568368Y-72136704D01*
X129565290Y-72136833D01*
X129565286Y-72136833D01*
X129306983Y-72147659D01*
X129171724Y-72153328D01*
X129168680Y-72153756D01*
X129168678Y-72153756D01*
X129128989Y-72159334D01*
X128778596Y-72208579D01*
X128392735Y-72301928D01*
X128017825Y-72432486D01*
X127971035Y-72454106D01*
X127660242Y-72597712D01*
X127660232Y-72597717D01*
X127657445Y-72599005D01*
X127315034Y-72799896D01*
X127274018Y-72829696D01*
X126996342Y-73031439D01*
X126996336Y-73031444D01*
X126993861Y-73033242D01*
X126991575Y-73035271D01*
X126991572Y-73035274D01*
X126951134Y-73071177D01*
X126696991Y-73296815D01*
X126694901Y-73299072D01*
X126694899Y-73299074D01*
X126429354Y-73585837D01*
X126429349Y-73585843D01*
X126427259Y-73588100D01*
X126425399Y-73590550D01*
X126425396Y-73590554D01*
X126392202Y-73634286D01*
X126187238Y-73904316D01*
X126185627Y-73906934D01*
X126185624Y-73906939D01*
X125980834Y-74239821D01*
X125979220Y-74242445D01*
X125805190Y-74599258D01*
X125804119Y-74602139D01*
X125804116Y-74602145D01*
X125718146Y-74833313D01*
X125666810Y-74971352D01*
X125565400Y-75355173D01*
X125501928Y-75747058D01*
X125501734Y-75750138D01*
X125501734Y-75750140D01*
X125494762Y-75860967D01*
X125477001Y-76143266D01*
X107442500Y-76143266D01*
X107442500Y-61217386D01*
X109581759Y-61217386D01*
X109589216Y-61227753D01*
X109828935Y-61421874D01*
X109834272Y-61425751D01*
X110154685Y-61633830D01*
X110160394Y-61637127D01*
X110500811Y-61810578D01*
X110506836Y-61813260D01*
X110863502Y-61950171D01*
X110869784Y-61952212D01*
X111238816Y-62051094D01*
X111245266Y-62052465D01*
X111622629Y-62112234D01*
X111629167Y-62112920D01*
X112010699Y-62132916D01*
X112017301Y-62132916D01*
X112398833Y-62112920D01*
X112405371Y-62112234D01*
X112782734Y-62052465D01*
X112789184Y-62051094D01*
X113158216Y-61952212D01*
X113164498Y-61950171D01*
X113521164Y-61813260D01*
X113527189Y-61810578D01*
X113867606Y-61637127D01*
X113873315Y-61633830D01*
X114193728Y-61425751D01*
X114199065Y-61421874D01*
X114437835Y-61228522D01*
X114445527Y-61217386D01*
X185781759Y-61217386D01*
X185789216Y-61227753D01*
X186028935Y-61421874D01*
X186034272Y-61425751D01*
X186354685Y-61633830D01*
X186360394Y-61637127D01*
X186700811Y-61810578D01*
X186706836Y-61813260D01*
X187063502Y-61950171D01*
X187069784Y-61952212D01*
X187438816Y-62051094D01*
X187445266Y-62052465D01*
X187822629Y-62112234D01*
X187829167Y-62112920D01*
X188210699Y-62132916D01*
X188217301Y-62132916D01*
X188598833Y-62112920D01*
X188605371Y-62112234D01*
X188982734Y-62052465D01*
X188989184Y-62051094D01*
X189358216Y-61952212D01*
X189364498Y-61950171D01*
X189721164Y-61813260D01*
X189727189Y-61810578D01*
X190067606Y-61637127D01*
X190073315Y-61633830D01*
X190393728Y-61425751D01*
X190399065Y-61421874D01*
X190637835Y-61228522D01*
X190646300Y-61216267D01*
X190639966Y-61205176D01*
X188226812Y-58792022D01*
X188212868Y-58784408D01*
X188211035Y-58784539D01*
X188204420Y-58788790D01*
X185788900Y-61204310D01*
X185781759Y-61217386D01*
X114445527Y-61217386D01*
X114446300Y-61216267D01*
X114439966Y-61205176D01*
X112026812Y-58792022D01*
X112012868Y-58784408D01*
X112011035Y-58784539D01*
X112004420Y-58788790D01*
X109588900Y-61204310D01*
X109581759Y-61217386D01*
X107442500Y-61217386D01*
X107442500Y-58473250D01*
X107444246Y-58452345D01*
X107446770Y-58437344D01*
X107446770Y-58437341D01*
X107447576Y-58432552D01*
X107447689Y-58423301D01*
X108301084Y-58423301D01*
X108321080Y-58804833D01*
X108321766Y-58811371D01*
X108381535Y-59188734D01*
X108382906Y-59195184D01*
X108481788Y-59564216D01*
X108483829Y-59570498D01*
X108620740Y-59927164D01*
X108623422Y-59933189D01*
X108796872Y-60273603D01*
X108800169Y-60279313D01*
X109008253Y-60599735D01*
X109012123Y-60605061D01*
X109205478Y-60843835D01*
X109217733Y-60852300D01*
X109228824Y-60845966D01*
X111641978Y-58432812D01*
X111648356Y-58421132D01*
X112378408Y-58421132D01*
X112378539Y-58422965D01*
X112382790Y-58429580D01*
X114798310Y-60845100D01*
X114811386Y-60852241D01*
X114821753Y-60844784D01*
X115015877Y-60605061D01*
X115019747Y-60599735D01*
X115227831Y-60279313D01*
X115231128Y-60273603D01*
X115404578Y-59933189D01*
X115407260Y-59927164D01*
X115544171Y-59570498D01*
X115546212Y-59564216D01*
X115645094Y-59195184D01*
X115646465Y-59188734D01*
X115706234Y-58811371D01*
X115706920Y-58804833D01*
X115726916Y-58423301D01*
X184501084Y-58423301D01*
X184521080Y-58804833D01*
X184521766Y-58811371D01*
X184581535Y-59188734D01*
X184582906Y-59195184D01*
X184681788Y-59564216D01*
X184683829Y-59570498D01*
X184820740Y-59927164D01*
X184823422Y-59933189D01*
X184996872Y-60273603D01*
X185000169Y-60279313D01*
X185208253Y-60599735D01*
X185212123Y-60605061D01*
X185405478Y-60843835D01*
X185417733Y-60852300D01*
X185428824Y-60845966D01*
X187841978Y-58432812D01*
X187848356Y-58421132D01*
X188578408Y-58421132D01*
X188578539Y-58422965D01*
X188582790Y-58429580D01*
X190998310Y-60845100D01*
X191011386Y-60852241D01*
X191021753Y-60844784D01*
X191215877Y-60605061D01*
X191219747Y-60599735D01*
X191427831Y-60279313D01*
X191431128Y-60273603D01*
X191604578Y-59933189D01*
X191607260Y-59927164D01*
X191744171Y-59570498D01*
X191746212Y-59564216D01*
X191845094Y-59195184D01*
X191846465Y-59188734D01*
X191906234Y-58811371D01*
X191906920Y-58804833D01*
X191926916Y-58423301D01*
X191926916Y-58416699D01*
X191906920Y-58035167D01*
X191906234Y-58028629D01*
X191846465Y-57651266D01*
X191845094Y-57644816D01*
X191746212Y-57275784D01*
X191744171Y-57269502D01*
X191607260Y-56912836D01*
X191604578Y-56906811D01*
X191431128Y-56566397D01*
X191427831Y-56560687D01*
X191219747Y-56240265D01*
X191215877Y-56234939D01*
X191022522Y-55996165D01*
X191010267Y-55987700D01*
X190999176Y-55994034D01*
X188586022Y-58407188D01*
X188578408Y-58421132D01*
X187848356Y-58421132D01*
X187849592Y-58418868D01*
X187849461Y-58417035D01*
X187845210Y-58410420D01*
X185429690Y-55994900D01*
X185416614Y-55987759D01*
X185406247Y-55995216D01*
X185212123Y-56234939D01*
X185208253Y-56240265D01*
X185000169Y-56560687D01*
X184996872Y-56566397D01*
X184823422Y-56906811D01*
X184820740Y-56912836D01*
X184683829Y-57269502D01*
X184681788Y-57275784D01*
X184582906Y-57644816D01*
X184581535Y-57651266D01*
X184521766Y-58028629D01*
X184521080Y-58035167D01*
X184501084Y-58416699D01*
X184501084Y-58423301D01*
X115726916Y-58423301D01*
X115726916Y-58416699D01*
X115706920Y-58035167D01*
X115706234Y-58028629D01*
X115646465Y-57651266D01*
X115645094Y-57644816D01*
X115546212Y-57275784D01*
X115544171Y-57269502D01*
X115407260Y-56912836D01*
X115404578Y-56906811D01*
X115231128Y-56566397D01*
X115227831Y-56560687D01*
X115019747Y-56240265D01*
X115015877Y-56234939D01*
X114822522Y-55996165D01*
X114810267Y-55987700D01*
X114799176Y-55994034D01*
X112386022Y-58407188D01*
X112378408Y-58421132D01*
X111648356Y-58421132D01*
X111649592Y-58418868D01*
X111649461Y-58417035D01*
X111645210Y-58410420D01*
X109229690Y-55994900D01*
X109216614Y-55987759D01*
X109206247Y-55995216D01*
X109012123Y-56234939D01*
X109008253Y-56240265D01*
X108800169Y-56560687D01*
X108796872Y-56566397D01*
X108623422Y-56906811D01*
X108620740Y-56912836D01*
X108483829Y-57269502D01*
X108481788Y-57275784D01*
X108382906Y-57644816D01*
X108381535Y-57651266D01*
X108321766Y-58028629D01*
X108321080Y-58035167D01*
X108301084Y-58416699D01*
X108301084Y-58423301D01*
X107447689Y-58423301D01*
X107447729Y-58420000D01*
X107447039Y-58415184D01*
X107447039Y-58415178D01*
X107445387Y-58403644D01*
X107444234Y-58380284D01*
X107459656Y-58027064D01*
X107460614Y-58016114D01*
X107511233Y-57631621D01*
X107513142Y-57620795D01*
X107597080Y-57242178D01*
X107599925Y-57231561D01*
X107716539Y-56861706D01*
X107720298Y-56851377D01*
X107868711Y-56493077D01*
X107873357Y-56483115D01*
X108002550Y-56234939D01*
X108052424Y-56139132D01*
X108057919Y-56129613D01*
X108266292Y-55802532D01*
X108272597Y-55793528D01*
X108402886Y-55623733D01*
X109581700Y-55623733D01*
X109588034Y-55634824D01*
X112001188Y-58047978D01*
X112015132Y-58055592D01*
X112016965Y-58055461D01*
X112023580Y-58051210D01*
X114439100Y-55635690D01*
X114445630Y-55623733D01*
X185781700Y-55623733D01*
X185788034Y-55634824D01*
X188201188Y-58047978D01*
X188215132Y-58055592D01*
X188216965Y-58055461D01*
X188223580Y-58051210D01*
X190639100Y-55635690D01*
X190646241Y-55622614D01*
X190638784Y-55612247D01*
X190399065Y-55418126D01*
X190393728Y-55414249D01*
X190073315Y-55206170D01*
X190067606Y-55202873D01*
X189727189Y-55029422D01*
X189721164Y-55026740D01*
X189364498Y-54889829D01*
X189358216Y-54887788D01*
X188989184Y-54788906D01*
X188982734Y-54787535D01*
X188605371Y-54727766D01*
X188598833Y-54727080D01*
X188217301Y-54707084D01*
X188210699Y-54707084D01*
X187829167Y-54727080D01*
X187822629Y-54727766D01*
X187445266Y-54787535D01*
X187438816Y-54788906D01*
X187069784Y-54887788D01*
X187063502Y-54889829D01*
X186706836Y-55026740D01*
X186700811Y-55029422D01*
X186360397Y-55202872D01*
X186354687Y-55206169D01*
X186034265Y-55414253D01*
X186028939Y-55418123D01*
X185790165Y-55611478D01*
X185781700Y-55623733D01*
X114445630Y-55623733D01*
X114446241Y-55622614D01*
X114438784Y-55612247D01*
X114199065Y-55418126D01*
X114193728Y-55414249D01*
X113873315Y-55206170D01*
X113867606Y-55202873D01*
X113527189Y-55029422D01*
X113521164Y-55026740D01*
X113164498Y-54889829D01*
X113158216Y-54887788D01*
X112789184Y-54788906D01*
X112782734Y-54787535D01*
X112405371Y-54727766D01*
X112398833Y-54727080D01*
X112017301Y-54707084D01*
X112010699Y-54707084D01*
X111629167Y-54727080D01*
X111622629Y-54727766D01*
X111245266Y-54787535D01*
X111238816Y-54788906D01*
X110869784Y-54887788D01*
X110863502Y-54889829D01*
X110506836Y-55026740D01*
X110500811Y-55029422D01*
X110160397Y-55202872D01*
X110154687Y-55206169D01*
X109834265Y-55414253D01*
X109828939Y-55418123D01*
X109590165Y-55611478D01*
X109581700Y-55623733D01*
X108402886Y-55623733D01*
X108508678Y-55485862D01*
X108515743Y-55477442D01*
X108764318Y-55206169D01*
X108777748Y-55191513D01*
X108785517Y-55183744D01*
X109071442Y-54921743D01*
X109079862Y-54914678D01*
X109387528Y-54678597D01*
X109396532Y-54672292D01*
X109723613Y-54463919D01*
X109733133Y-54458423D01*
X110077124Y-54279353D01*
X110087068Y-54274715D01*
X110445385Y-54126295D01*
X110455698Y-54122542D01*
X110655298Y-54059608D01*
X110825561Y-54005925D01*
X110836178Y-54003080D01*
X111214795Y-53919142D01*
X111225621Y-53917233D01*
X111610114Y-53866614D01*
X111621063Y-53865656D01*
X111970554Y-53850397D01*
X111995429Y-53851777D01*
X112007724Y-53853691D01*
X112016626Y-53852527D01*
X112016628Y-53852527D01*
X112035399Y-53850072D01*
X112039286Y-53849564D01*
X112055621Y-53848500D01*
X188164633Y-53848500D01*
X188184018Y-53850000D01*
G37*
G04 #@! TD.AperFunction*
M02*
