M48
; DRILL file {KiCad 6.0.5+dfsg-1~bpo11+1} date Sun Oct 16 01:22:10 2022
; FORMAT={-:-/ absolute / metric / decimal}
; #@! TF.CreationDate,2022-10-16T01:22:10+00:00
; #@! TF.GenerationSoftware,Kicad,Pcbnew,6.0.5+dfsg-1~bpo11+1
; #@! TF.FileFunction,Plated,1,2,PTH
FMAT,2
METRIC
; #@! TA.AperFunction,Plated,PTH,ComponentDrill
T1C0.500
; #@! TA.AperFunction,Plated,PTH,ComponentDrill
T2C3.200
%
G90
G05
T1
X109.614Y-58.42
X109.614Y-144.78
X110.317Y-56.723
X110.317Y-60.117
X110.317Y-143.083
X110.317Y-146.477
X112.014Y-56.02
X112.014Y-60.82
X112.014Y-142.38
X112.014Y-147.18
X113.711Y-56.723
X113.711Y-60.117
X113.711Y-143.083
X113.711Y-146.477
X114.414Y-58.42
X114.414Y-144.78
X185.814Y-58.42
X185.814Y-144.78
X186.517Y-56.723
X186.517Y-60.117
X186.517Y-143.083
X186.517Y-146.477
X188.214Y-56.02
X188.214Y-60.82
X188.214Y-142.38
X188.214Y-147.18
X189.911Y-56.723
X189.911Y-60.117
X189.911Y-143.083
X189.911Y-146.477
X190.614Y-58.42
X190.614Y-144.78
T2
X112.014Y-58.42
X112.014Y-144.78
X188.214Y-58.42
X188.214Y-144.78
T0
M30
