G04 #@! TF.GenerationSoftware,KiCad,Pcbnew,6.0.5+dfsg-1~bpo11+1*
G04 #@! TF.CreationDate,2022-10-16T01:22:10+00:00*
G04 #@! TF.ProjectId,phasor_II_front_panel,70686173-6f72-45f4-9949-5f66726f6e74,0*
G04 #@! TF.SameCoordinates,Original*
G04 #@! TF.FileFunction,Legend,Bot*
G04 #@! TF.FilePolarity,Positive*
%FSLAX46Y46*%
G04 Gerber Fmt 4.6, Leading zero omitted, Abs format (unit mm)*
G04 Created by KiCad (PCBNEW 6.0.5+dfsg-1~bpo11+1) date 2022-10-16 01:22:10*
%MOMM*%
%LPD*%
G01*
G04 APERTURE LIST*
%ADD10C,0.200000*%
%ADD11C,0.800000*%
%ADD12C,6.400000*%
G04 APERTURE END LIST*
D10*
X159352095Y-57324761D02*
X159352095Y-58753333D01*
X159447333Y-59039047D01*
X159637809Y-59229523D01*
X159923523Y-59324761D01*
X160114000Y-59324761D01*
X157447333Y-59324761D02*
X158399714Y-59324761D01*
X158399714Y-57324761D01*
X155637809Y-59134285D02*
X155733047Y-59229523D01*
X156018761Y-59324761D01*
X156209238Y-59324761D01*
X156494952Y-59229523D01*
X156685428Y-59039047D01*
X156780666Y-58848571D01*
X156875904Y-58467619D01*
X156875904Y-58181904D01*
X156780666Y-57800952D01*
X156685428Y-57610476D01*
X156494952Y-57420000D01*
X156209238Y-57324761D01*
X156018761Y-57324761D01*
X155733047Y-57420000D01*
X155637809Y-57515238D01*
X154209238Y-57324761D02*
X154209238Y-58753333D01*
X154304476Y-59039047D01*
X154494952Y-59229523D01*
X154780666Y-59324761D01*
X154971142Y-59324761D01*
X152304476Y-59324761D02*
X153256857Y-59324761D01*
X153256857Y-57324761D01*
X150494952Y-59134285D02*
X150590190Y-59229523D01*
X150875904Y-59324761D01*
X151066380Y-59324761D01*
X151352095Y-59229523D01*
X151542571Y-59039047D01*
X151637809Y-58848571D01*
X151733047Y-58467619D01*
X151733047Y-58181904D01*
X151637809Y-57800952D01*
X151542571Y-57610476D01*
X151352095Y-57420000D01*
X151066380Y-57324761D01*
X150875904Y-57324761D01*
X150590190Y-57420000D01*
X150494952Y-57515238D01*
X149066380Y-57324761D02*
X149066380Y-58753333D01*
X149161619Y-59039047D01*
X149352095Y-59229523D01*
X149637809Y-59324761D01*
X149828285Y-59324761D01*
X147161619Y-59324761D02*
X148114000Y-59324761D01*
X148114000Y-57324761D01*
X145352095Y-59134285D02*
X145447333Y-59229523D01*
X145733047Y-59324761D01*
X145923523Y-59324761D01*
X146209238Y-59229523D01*
X146399714Y-59039047D01*
X146494952Y-58848571D01*
X146590190Y-58467619D01*
X146590190Y-58181904D01*
X146494952Y-57800952D01*
X146399714Y-57610476D01*
X146209238Y-57420000D01*
X145923523Y-57324761D01*
X145733047Y-57324761D01*
X145447333Y-57420000D01*
X145352095Y-57515238D01*
X143923523Y-57324761D02*
X143923523Y-58753333D01*
X144018761Y-59039047D01*
X144209238Y-59229523D01*
X144494952Y-59324761D01*
X144685428Y-59324761D01*
X142018761Y-59324761D02*
X142971142Y-59324761D01*
X142971142Y-57324761D01*
X140209238Y-59134285D02*
X140304476Y-59229523D01*
X140590190Y-59324761D01*
X140780666Y-59324761D01*
X141066380Y-59229523D01*
X141256857Y-59039047D01*
X141352095Y-58848571D01*
X141447333Y-58467619D01*
X141447333Y-58181904D01*
X141352095Y-57800952D01*
X141256857Y-57610476D01*
X141066380Y-57420000D01*
X140780666Y-57324761D01*
X140590190Y-57324761D01*
X140304476Y-57420000D01*
X140209238Y-57515238D01*
%LPC*%
D11*
X189911056Y-56722944D03*
X186516944Y-60117056D03*
X188214000Y-56020000D03*
X190614000Y-58420000D03*
D12*
X188214000Y-58420000D03*
D11*
X186516944Y-56722944D03*
X185814000Y-58420000D03*
X189911056Y-60117056D03*
X188214000Y-60820000D03*
X188214000Y-142380000D03*
X186516944Y-146477056D03*
X185814000Y-144780000D03*
X190614000Y-144780000D03*
X189911056Y-143082944D03*
X189911056Y-146477056D03*
X186516944Y-143082944D03*
D12*
X188214000Y-144780000D03*
D11*
X188214000Y-147180000D03*
X109614000Y-144780000D03*
X112014000Y-142380000D03*
X113711056Y-146477056D03*
X110316944Y-143082944D03*
X113711056Y-143082944D03*
X110316944Y-146477056D03*
D12*
X112014000Y-144780000D03*
D11*
X112014000Y-147180000D03*
X114414000Y-144780000D03*
X110316944Y-56722944D03*
X112014000Y-60820000D03*
X109614000Y-58420000D03*
X113711056Y-56722944D03*
D12*
X112014000Y-58420000D03*
D11*
X112014000Y-56020000D03*
X114414000Y-58420000D03*
X110316944Y-60117056D03*
X113711056Y-60117056D03*
M02*
