  0
SECTION
  2
HEADER
  9
$ANGBASE
  50
0.0
  9
$ANGDIR
  70
1
  9
$MEASUREMENT
  70
1
  0
ENDSEC
  0
SECTION
  2
TABLES
  0
TABLE
  2
LTYPE
  70
4
  0
LTYPE
  5
40F
  2
CONTINUOUS
  70
0
  3
Solid line
  72
65
  73
0
  40
0.0
  0
LTYPE
  5
410
  2
DASHDOT
 70
0
  3
Dash Dot ____ _ ____ _
 72
65
 73
4
 40
2.0
 49
1.25
 49
-0.25
 49
0.25
 49
-0.25
  0
LTYPE
  5
411
  2
DASHED
 70
0
  3
Dashed __ __ __ __ __
 72
65
 73
2
 40
0.75
 49
0.5
 49
-0.25
  0
LTYPE
  5
43B
  2
DOTTED
 70
0
  3
Dotted .  .  .  .
 72
65
 73
2
 40
0.2
 49
0.0
 49
-0.2
  0
ENDTAB
  0
TABLE
  2
STYLE
  70
4
  0
STYLE
  2
KICAD
  70
0
  40
0
  41
1
  42
1
  50
0
  71
0
  3
isocp.shx
  0
STYLE
  2
KICADB
  70
0
  40
0
  41
1
  42
1
  50
0
  71
0
  3
isocp.shx
  0
STYLE
  2
KICADI
  70
0
  40
0
  41
1
  42
1
  50
15
  71
0
  3
isocp.shx
  0
STYLE
  2
KICADBI
  70
0
  40
0
  41
1
  42
1
  50
15
  71
0
  3
isocp.shx
  0
ENDTAB
  0
TABLE
  2
LAYER
  70
1
  0
LAYER
  2
BLACK
  70
0
  62
7
  6
CONTINUOUS
  0
ENDTAB
  0
ENDSEC
  0
SECTION
  2
ENTITIES
0
LINE
8
BLACK
6
CONTINUOUS
10
191.006
20
-54.6266
11
191.248
21
-54.7088
0
LINE
8
BLACK
6
CONTINUOUS
10
191.248
20
-54.7088
11
191.477
21
-54.8219
0
LINE
8
BLACK
6
CONTINUOUS
10
191.477
20
-54.8219
11
191.69
21
-54.964
0
LINE
8
BLACK
6
CONTINUOUS
10
191.69
20
-54.964
11
191.882
21
-55.1326
0
LINE
8
BLACK
6
CONTINUOUS
10
191.882
20
-55.1326
11
192.051
21
-55.3249
0
LINE
8
BLACK
6
CONTINUOUS
10
192.051
20
-55.3249
11
192.193
21
-55.5375
0
LINE
8
BLACK
6
CONTINUOUS
10
192.193
20
-55.5375
11
192.306
21
-55.7669
0
LINE
8
BLACK
6
CONTINUOUS
10
192.306
20
-55.7669
11
192.388
21
-56.009
0
LINE
8
BLACK
6
CONTINUOUS
10
192.388
20
-56.009
11
192.438
21
-56.2598
0
LINE
8
BLACK
6
CONTINUOUS
10
192.438
20
-56.2598
11
192.455
21
-56.515
0
LINE
8
BLACK
6
CONTINUOUS
10
192.455
20
-56.515
11
192.455
21
-130.81
0
LINE
8
BLACK
6
CONTINUOUS
10
192.455
20
-130.81
11
192.437
21
-131.147
0
LINE
8
BLACK
6
CONTINUOUS
10
192.437
20
-131.147
11
192.385
21
-131.481
0
LINE
8
BLACK
6
CONTINUOUS
10
192.385
20
-131.481
11
192.297
21
-131.807
0
LINE
8
BLACK
6
CONTINUOUS
10
192.297
20
-131.807
11
192.176
21
-132.122
0
LINE
8
BLACK
6
CONTINUOUS
10
192.176
20
-132.122
11
192.023
21
-132.422
0
LINE
8
BLACK
6
CONTINUOUS
10
192.023
20
-132.422
11
191.839
21
-132.706
0
LINE
8
BLACK
6
CONTINUOUS
10
191.839
20
-132.706
11
191.627
21
-132.968
0
LINE
8
BLACK
6
CONTINUOUS
10
191.627
20
-132.968
11
191.388
21
-133.207
0
LINE
8
BLACK
6
CONTINUOUS
10
191.388
20
-133.207
11
191.126
21
-133.419
0
LINE
8
BLACK
6
CONTINUOUS
10
191.126
20
-133.419
11
190.843
21
-133.603
0
LINE
8
BLACK
6
CONTINUOUS
10
190.843
20
-133.603
11
190.542
21
-133.756
0
LINE
8
BLACK
6
CONTINUOUS
10
190.542
20
-133.756
11
190.227
21
-133.877
0
LINE
8
BLACK
6
CONTINUOUS
10
190.227
20
-133.877
11
189.901
21
-133.965
0
LINE
8
BLACK
6
CONTINUOUS
10
189.901
20
-133.965
11
189.567
21
-134.017
0
LINE
8
BLACK
6
CONTINUOUS
10
189.567
20
-134.017
11
189.23
21
-134.035
0
LINE
8
BLACK
6
CONTINUOUS
10
189.23
20
-134.035
11
140.335
21
-134.035
0
LINE
8
BLACK
6
CONTINUOUS
10
140.335
20
-134.035
11
140.326
21
-134.031
0
LINE
8
BLACK
6
CONTINUOUS
10
140.326
20
-134.031
11
140.008
21
-134.048
0
LINE
8
BLACK
6
CONTINUOUS
10
140.008
20
-134.048
11
139.684
21
-134.099
0
LINE
8
BLACK
6
CONTINUOUS
10
139.684
20
-134.099
11
139.368
21
-134.184
0
LINE
8
BLACK
6
CONTINUOUS
10
139.368
20
-134.184
11
139.062
21
-134.301
0
LINE
8
BLACK
6
CONTINUOUS
10
139.062
20
-134.301
11
138.77
21
-134.45
0
LINE
8
BLACK
6
CONTINUOUS
10
138.77
20
-134.45
11
138.496
21
-134.628
0
LINE
8
BLACK
6
CONTINUOUS
10
138.496
20
-134.628
11
138.241
21
-134.834
0
LINE
8
BLACK
6
CONTINUOUS
10
138.241
20
-134.834
11
138.009
21
-135.066
0
LINE
8
BLACK
6
CONTINUOUS
10
138.009
20
-135.066
11
137.803
21
-135.321
0
LINE
8
BLACK
6
CONTINUOUS
10
137.803
20
-135.321
11
137.625
21
-135.595
0
LINE
8
BLACK
6
CONTINUOUS
10
137.625
20
-135.595
11
137.476
21
-135.887
0
LINE
8
BLACK
6
CONTINUOUS
10
137.476
20
-135.887
11
137.359
21
-136.193
0
LINE
8
BLACK
6
CONTINUOUS
10
137.359
20
-136.193
11
137.274
21
-136.509
0
LINE
8
BLACK
6
CONTINUOUS
10
137.274
20
-136.509
11
137.223
21
-136.833
0
LINE
8
BLACK
6
CONTINUOUS
10
137.223
20
-136.833
11
137.206
21
-137.151
0
LINE
8
BLACK
6
CONTINUOUS
10
137.206
20
-137.151
11
137.21
21
-137.16
0
LINE
8
BLACK
6
CONTINUOUS
10
137.21
20
-137.16
11
137.22
21
-150.876
0
LINE
8
BLACK
6
CONTINUOUS
10
137.22
20
-150.876
11
137.22
21
-150.876
0
LINE
8
BLACK
6
CONTINUOUS
10
137.22
20
-150.876
11
137.22
21
-150.876
0
LINE
8
BLACK
6
CONTINUOUS
10
137.22
20
-150.876
11
137.202
21
-151.214
0
LINE
8
BLACK
6
CONTINUOUS
10
137.202
20
-151.214
11
137.149
21
-151.549
0
LINE
8
BLACK
6
CONTINUOUS
10
137.149
20
-151.549
11
137.062
21
-151.876
0
LINE
8
BLACK
6
CONTINUOUS
10
137.062
20
-151.876
11
136.94
21
-152.192
0
LINE
8
BLACK
6
CONTINUOUS
10
136.94
20
-152.192
11
136.787
21
-152.494
0
LINE
8
BLACK
6
CONTINUOUS
10
136.787
20
-152.494
11
136.602
21
-152.778
0
LINE
8
BLACK
6
CONTINUOUS
10
136.602
20
-152.778
11
136.389
21
-153.041
0
LINE
8
BLACK
6
CONTINUOUS
10
136.389
20
-153.041
11
136.15
21
-153.28
0
LINE
8
BLACK
6
CONTINUOUS
10
136.15
20
-153.28
11
135.887
21
-153.493
0
LINE
8
BLACK
6
CONTINUOUS
10
135.887
20
-153.493
11
135.603
21
-153.678
0
LINE
8
BLACK
6
CONTINUOUS
10
135.603
20
-153.678
11
135.301
21
-153.831
0
LINE
8
BLACK
6
CONTINUOUS
10
135.301
20
-153.831
11
134.985
21
-153.953
0
LINE
8
BLACK
6
CONTINUOUS
10
134.985
20
-153.953
11
134.658
21
-154.04
0
LINE
8
BLACK
6
CONTINUOUS
10
134.658
20
-154.04
11
134.323
21
-154.093
0
LINE
8
BLACK
6
CONTINUOUS
10
134.323
20
-154.093
11
133.985
21
-154.111
0
LINE
8
BLACK
6
CONTINUOUS
10
133.985
20
-154.111
11
133.985
21
-154.111
0
LINE
8
BLACK
6
CONTINUOUS
10
133.985
20
-154.111
11
133.985
21
-154.111
0
LINE
8
BLACK
6
CONTINUOUS
10
133.985
20
-154.111
11
111.252
21
-154.101
0
LINE
8
BLACK
6
CONTINUOUS
10
111.252
20
-154.101
11
111.252
21
-154.101
0
LINE
8
BLACK
6
CONTINUOUS
10
111.252
20
-154.101
11
110.915
21
-154.083
0
LINE
8
BLACK
6
CONTINUOUS
10
110.915
20
-154.083
11
110.581
21
-154.031
0
LINE
8
BLACK
6
CONTINUOUS
10
110.581
20
-154.031
11
110.255
21
-153.943
0
LINE
8
BLACK
6
CONTINUOUS
10
110.255
20
-153.943
11
109.94
21
-153.822
0
LINE
8
BLACK
6
CONTINUOUS
10
109.94
20
-153.822
11
109.639
21
-153.669
0
LINE
8
BLACK
6
CONTINUOUS
10
109.639
20
-153.669
11
109.356
21
-153.485
0
LINE
8
BLACK
6
CONTINUOUS
10
109.356
20
-153.485
11
109.094
21
-153.273
0
LINE
8
BLACK
6
CONTINUOUS
10
109.094
20
-153.273
11
108.855
21
-153.034
0
LINE
8
BLACK
6
CONTINUOUS
10
108.855
20
-153.034
11
108.643
21
-152.772
0
LINE
8
BLACK
6
CONTINUOUS
10
108.643
20
-152.772
11
108.459
21
-152.488
0
LINE
8
BLACK
6
CONTINUOUS
10
108.459
20
-152.488
11
108.306
21
-152.188
0
LINE
8
BLACK
6
CONTINUOUS
10
108.306
20
-152.188
11
108.185
21
-151.873
0
LINE
8
BLACK
6
CONTINUOUS
10
108.185
20
-151.873
11
108.097
21
-151.547
0
LINE
8
BLACK
6
CONTINUOUS
10
108.097
20
-151.547
11
108.045
21
-151.213
0
LINE
8
BLACK
6
CONTINUOUS
10
108.045
20
-151.213
11
108.027
21
-150.876
0
LINE
8
BLACK
6
CONTINUOUS
10
108.027
20
-150.876
11
108.027
21
-150.876
0
LINE
8
BLACK
6
CONTINUOUS
10
108.027
20
-150.876
11
107.9
21
-56.5151
0
LINE
8
BLACK
6
CONTINUOUS
10
107.9
20
-56.5151
11
107.9
21
-56.515
0
LINE
8
BLACK
6
CONTINUOUS
10
107.9
20
-56.515
11
107.9
21
-56.515
0
LINE
8
BLACK
6
CONTINUOUS
10
107.9
20
-56.515
11
107.917
21
-56.2598
0
LINE
8
BLACK
6
CONTINUOUS
10
107.917
20
-56.2598
11
107.967
21
-56.009
0
LINE
8
BLACK
6
CONTINUOUS
10
107.967
20
-56.009
11
108.049
21
-55.7669
0
LINE
8
BLACK
6
CONTINUOUS
10
108.049
20
-55.7669
11
108.162
21
-55.5375
0
LINE
8
BLACK
6
CONTINUOUS
10
108.162
20
-55.5375
11
108.304
21
-55.3249
0
LINE
8
BLACK
6
CONTINUOUS
10
108.304
20
-55.3249
11
108.473
21
-55.1326
0
LINE
8
BLACK
6
CONTINUOUS
10
108.473
20
-55.1326
11
108.665
21
-54.964
0
LINE
8
BLACK
6
CONTINUOUS
10
108.665
20
-54.964
11
108.877
21
-54.8219
0
LINE
8
BLACK
6
CONTINUOUS
10
108.877
20
-54.8219
11
109.107
21
-54.7088
0
LINE
8
BLACK
6
CONTINUOUS
10
109.107
20
-54.7088
11
109.349
21
-54.6266
0
LINE
8
BLACK
6
CONTINUOUS
10
109.349
20
-54.6266
11
109.6
21
-54.5767
0
LINE
8
BLACK
6
CONTINUOUS
10
109.6
20
-54.5767
11
109.855
21
-54.56
0
LINE
8
BLACK
6
CONTINUOUS
10
109.855
20
-54.56
11
109.865
21
-54.564
0
LINE
8
BLACK
6
CONTINUOUS
10
109.865
20
-54.564
11
110.156
21
-54.5464
0
LINE
8
BLACK
6
CONTINUOUS
10
110.156
20
-54.5464
11
110.452
21
-54.4921
0
LINE
8
BLACK
6
CONTINUOUS
10
110.452
20
-54.4921
11
110.74
21
-54.4024
0
LINE
8
BLACK
6
CONTINUOUS
10
110.74
20
-54.4024
11
111.014
21
-54.2788
0
LINE
8
BLACK
6
CONTINUOUS
10
111.014
20
-54.2788
11
111.272
21
-54.123
0
LINE
8
BLACK
6
CONTINUOUS
10
111.272
20
-54.123
11
111.509
21
-53.9372
0
LINE
8
BLACK
6
CONTINUOUS
10
111.509
20
-53.9372
11
111.722
21
-53.7242
0
LINE
8
BLACK
6
CONTINUOUS
10
111.722
20
-53.7242
11
111.908
21
-53.4871
0
LINE
8
BLACK
6
CONTINUOUS
10
111.908
20
-53.4871
11
112.064
21
-53.2293
0
LINE
8
BLACK
6
CONTINUOUS
10
112.064
20
-53.2293
11
112.187
21
-52.9546
0
LINE
8
BLACK
6
CONTINUOUS
10
112.187
20
-52.9546
11
112.277
21
-52.667
0
LINE
8
BLACK
6
CONTINUOUS
10
112.277
20
-52.667
11
112.331
21
-52.3707
0
LINE
8
BLACK
6
CONTINUOUS
10
112.331
20
-52.3707
11
112.349
21
-52.0796
0
LINE
8
BLACK
6
CONTINUOUS
10
112.349
20
-52.0796
11
112.345
21
-52.07
0
LINE
8
BLACK
6
CONTINUOUS
10
112.345
20
-52.07
11
112.345
21
-45.72
0
LINE
8
BLACK
6
CONTINUOUS
10
112.345
20
-45.72
11
112.36
21
-45.6846
0
LINE
8
BLACK
6
CONTINUOUS
10
112.36
20
-45.6846
11
112.395
21
-45.67
0
LINE
8
BLACK
6
CONTINUOUS
10
112.395
20
-45.67
11
187.96
21
-45.67
0
LINE
8
BLACK
6
CONTINUOUS
10
187.96
20
-45.67
11
187.995
21
-45.6846
0
LINE
8
BLACK
6
CONTINUOUS
10
187.995
20
-45.6846
11
188.01
21
-45.72
0
LINE
8
BLACK
6
CONTINUOUS
10
188.01
20
-45.72
11
188.01
21
-52.07
0
LINE
8
BLACK
6
CONTINUOUS
10
188.01
20
-52.07
11
188.006
21
-52.0796
0
LINE
8
BLACK
6
CONTINUOUS
10
188.006
20
-52.0796
11
188.024
21
-52.3707
0
LINE
8
BLACK
6
CONTINUOUS
10
188.024
20
-52.3707
11
188.078
21
-52.667
0
LINE
8
BLACK
6
CONTINUOUS
10
188.078
20
-52.667
11
188.168
21
-52.9546
0
LINE
8
BLACK
6
CONTINUOUS
10
188.168
20
-52.9546
11
188.291
21
-53.2293
0
LINE
8
BLACK
6
CONTINUOUS
10
188.291
20
-53.2293
11
188.447
21
-53.4871
0
LINE
8
BLACK
6
CONTINUOUS
10
188.447
20
-53.4871
11
188.633
21
-53.7242
0
LINE
8
BLACK
6
CONTINUOUS
10
188.633
20
-53.7242
11
188.846
21
-53.9372
0
LINE
8
BLACK
6
CONTINUOUS
10
188.846
20
-53.9372
11
189.083
21
-54.123
0
LINE
8
BLACK
6
CONTINUOUS
10
189.083
20
-54.123
11
189.341
21
-54.2788
0
LINE
8
BLACK
6
CONTINUOUS
10
189.341
20
-54.2788
11
189.615
21
-54.4024
0
LINE
8
BLACK
6
CONTINUOUS
10
189.615
20
-54.4024
11
189.903
21
-54.4921
0
LINE
8
BLACK
6
CONTINUOUS
10
189.903
20
-54.4921
11
190.199
21
-54.5464
0
LINE
8
BLACK
6
CONTINUOUS
10
190.199
20
-54.5464
11
190.49
21
-54.564
0
LINE
8
BLACK
6
CONTINUOUS
10
190.49
20
-54.564
11
190.5
21
-54.56
0
LINE
8
BLACK
6
CONTINUOUS
10
190.5
20
-54.56
11
190.755
21
-54.5767
0
LINE
8
BLACK
6
CONTINUOUS
10
190.755
20
-54.5767
11
191.006
21
-54.6266
0
LINE
8
BLACK
6
CONTINUOUS
10
109.612
20
-54.6719
11
109.374
21
-54.7194
0
LINE
8
BLACK
6
CONTINUOUS
10
109.374
20
-54.7194
11
109.144
21
-54.7975
0
LINE
8
BLACK
6
CONTINUOUS
10
109.144
20
-54.7975
11
108.926
21
-54.9051
0
LINE
8
BLACK
6
CONTINUOUS
10
108.926
20
-54.9051
11
108.723
21
-55.0402
0
LINE
8
BLACK
6
CONTINUOUS
10
108.723
20
-55.0402
11
108.541
21
-55.2005
0
LINE
8
BLACK
6
CONTINUOUS
10
108.541
20
-55.2005
11
108.38
21
-55.3833
0
LINE
8
BLACK
6
CONTINUOUS
10
108.38
20
-55.3833
11
108.245
21
-55.5855
0
LINE
8
BLACK
6
CONTINUOUS
10
108.245
20
-55.5855
11
108.138
21
-55.8036
0
LINE
8
BLACK
6
CONTINUOUS
10
108.138
20
-55.8036
11
108.059
21
-56.0339
0
LINE
8
BLACK
6
CONTINUOUS
10
108.059
20
-56.0339
11
108.012
21
-56.2724
0
LINE
8
BLACK
6
CONTINUOUS
10
108.012
20
-56.2724
11
107.997
21
-56.5067
0
LINE
8
BLACK
6
CONTINUOUS
10
107.997
20
-56.5067
11
108
21
-56.5149
0
LINE
8
BLACK
6
CONTINUOUS
10
108
20
-56.5149
11
108.127
21
-150.876
0
LINE
8
BLACK
6
CONTINUOUS
10
108.127
20
-150.876
11
108.127
21
-150.876
0
LINE
8
BLACK
6
CONTINUOUS
10
108.127
20
-150.876
11
108.127
21
-150.876
0
LINE
8
BLACK
6
CONTINUOUS
10
108.127
20
-150.876
11
108.123
21
-150.885
0
LINE
8
BLACK
6
CONTINUOUS
10
108.123
20
-150.885
11
108.14
21
-151.203
0
LINE
8
BLACK
6
CONTINUOUS
10
108.14
20
-151.203
11
108.191
21
-151.527
0
LINE
8
BLACK
6
CONTINUOUS
10
108.191
20
-151.527
11
108.276
21
-151.843
0
LINE
8
BLACK
6
CONTINUOUS
10
108.276
20
-151.843
11
108.393
21
-152.149
0
LINE
8
BLACK
6
CONTINUOUS
10
108.393
20
-152.149
11
108.542
21
-152.441
0
LINE
8
BLACK
6
CONTINUOUS
10
108.542
20
-152.441
11
108.72
21
-152.715
0
LINE
8
BLACK
6
CONTINUOUS
10
108.72
20
-152.715
11
108.926
21
-152.97
0
LINE
8
BLACK
6
CONTINUOUS
10
108.926
20
-152.97
11
109.158
21
-153.202
0
LINE
8
BLACK
6
CONTINUOUS
10
109.158
20
-153.202
11
109.413
21
-153.408
0
LINE
8
BLACK
6
CONTINUOUS
10
109.413
20
-153.408
11
109.687
21
-153.586
0
LINE
8
BLACK
6
CONTINUOUS
10
109.687
20
-153.586
11
109.979
21
-153.735
0
LINE
8
BLACK
6
CONTINUOUS
10
109.979
20
-153.735
11
110.285
21
-153.852
0
LINE
8
BLACK
6
CONTINUOUS
10
110.285
20
-153.852
11
110.601
21
-153.937
0
LINE
8
BLACK
6
CONTINUOUS
10
110.601
20
-153.937
11
110.925
21
-153.988
0
LINE
8
BLACK
6
CONTINUOUS
10
110.925
20
-153.988
11
111.243
21
-154.005
0
LINE
8
BLACK
6
CONTINUOUS
10
111.243
20
-154.005
11
111.252
21
-154.001
0
LINE
8
BLACK
6
CONTINUOUS
10
111.252
20
-154.001
11
111.252
21
-154.001
0
LINE
8
BLACK
6
CONTINUOUS
10
111.252
20
-154.001
11
111.252
21
-154.001
0
LINE
8
BLACK
6
CONTINUOUS
10
111.252
20
-154.001
11
133.985
21
-154.011
0
LINE
8
BLACK
6
CONTINUOUS
10
133.985
20
-154.011
11
133.994
21
-154.015
0
LINE
8
BLACK
6
CONTINUOUS
10
133.994
20
-154.015
11
134.313
21
-153.998
0
LINE
8
BLACK
6
CONTINUOUS
10
134.313
20
-153.998
11
134.638
21
-153.947
0
LINE
8
BLACK
6
CONTINUOUS
10
134.638
20
-153.947
11
134.955
21
-153.862
0
LINE
8
BLACK
6
CONTINUOUS
10
134.955
20
-153.862
11
135.262
21
-153.744
0
LINE
8
BLACK
6
CONTINUOUS
10
135.262
20
-153.744
11
135.555
21
-153.595
0
LINE
8
BLACK
6
CONTINUOUS
10
135.555
20
-153.595
11
135.83
21
-153.416
0
LINE
8
BLACK
6
CONTINUOUS
10
135.83
20
-153.416
11
136.086
21
-153.209
0
LINE
8
BLACK
6
CONTINUOUS
10
136.086
20
-153.209
11
136.318
21
-152.977
0
LINE
8
BLACK
6
CONTINUOUS
10
136.318
20
-152.977
11
136.525
21
-152.721
0
LINE
8
BLACK
6
CONTINUOUS
10
136.525
20
-152.721
11
136.704
21
-152.446
0
LINE
8
BLACK
6
CONTINUOUS
10
136.704
20
-152.446
11
136.853
21
-152.153
0
LINE
8
BLACK
6
CONTINUOUS
10
136.853
20
-152.153
11
136.971
21
-151.846
0
LINE
8
BLACK
6
CONTINUOUS
10
136.971
20
-151.846
11
137.056
21
-151.529
0
LINE
8
BLACK
6
CONTINUOUS
10
137.056
20
-151.529
11
137.107
21
-151.204
0
LINE
8
BLACK
6
CONTINUOUS
10
137.107
20
-151.204
11
137.124
21
-150.885
0
LINE
8
BLACK
6
CONTINUOUS
10
137.124
20
-150.885
11
137.12
21
-150.876
0
LINE
8
BLACK
6
CONTINUOUS
10
137.12
20
-150.876
11
137.11
21
-137.16
0
LINE
8
BLACK
6
CONTINUOUS
10
137.11
20
-137.16
11
137.11
21
-137.16
0
LINE
8
BLACK
6
CONTINUOUS
10
137.11
20
-137.16
11
137.11
21
-137.16
0
LINE
8
BLACK
6
CONTINUOUS
10
137.11
20
-137.16
11
137.128
21
-136.823
0
LINE
8
BLACK
6
CONTINUOUS
10
137.128
20
-136.823
11
137.18
21
-136.489
0
LINE
8
BLACK
6
CONTINUOUS
10
137.18
20
-136.489
11
137.268
21
-136.163
0
LINE
8
BLACK
6
CONTINUOUS
10
137.268
20
-136.163
11
137.389
21
-135.848
0
LINE
8
BLACK
6
CONTINUOUS
10
137.389
20
-135.848
11
137.542
21
-135.547
0
LINE
8
BLACK
6
CONTINUOUS
10
137.542
20
-135.547
11
137.726
21
-135.264
0
LINE
8
BLACK
6
CONTINUOUS
10
137.726
20
-135.264
11
137.938
21
-135.002
0
LINE
8
BLACK
6
CONTINUOUS
10
137.938
20
-135.002
11
138.177
21
-134.763
0
LINE
8
BLACK
6
CONTINUOUS
10
138.177
20
-134.763
11
138.439
21
-134.551
0
LINE
8
BLACK
6
CONTINUOUS
10
138.439
20
-134.551
11
138.722
21
-134.367
0
LINE
8
BLACK
6
CONTINUOUS
10
138.722
20
-134.367
11
139.023
21
-134.214
0
LINE
8
BLACK
6
CONTINUOUS
10
139.023
20
-134.214
11
139.338
21
-134.093
0
LINE
8
BLACK
6
CONTINUOUS
10
139.338
20
-134.093
11
139.664
21
-134.005
0
LINE
8
BLACK
6
CONTINUOUS
10
139.664
20
-134.005
11
139.998
21
-133.953
0
LINE
8
BLACK
6
CONTINUOUS
10
139.998
20
-133.953
11
140.335
21
-133.935
0
LINE
8
BLACK
6
CONTINUOUS
10
140.335
20
-133.935
11
189.23
21
-133.935
0
LINE
8
BLACK
6
CONTINUOUS
10
189.23
20
-133.935
11
189.239
21
-133.939
0
LINE
8
BLACK
6
CONTINUOUS
10
189.239
20
-133.939
11
189.557
21
-133.922
0
LINE
8
BLACK
6
CONTINUOUS
10
189.557
20
-133.922
11
189.881
21
-133.871
0
LINE
8
BLACK
6
CONTINUOUS
10
189.881
20
-133.871
11
190.197
21
-133.786
0
LINE
8
BLACK
6
CONTINUOUS
10
190.197
20
-133.786
11
190.503
21
-133.669
0
LINE
8
BLACK
6
CONTINUOUS
10
190.503
20
-133.669
11
190.795
21
-133.52
0
LINE
8
BLACK
6
CONTINUOUS
10
190.795
20
-133.52
11
191.069
21
-133.342
0
LINE
8
BLACK
6
CONTINUOUS
10
191.069
20
-133.342
11
191.324
21
-133.136
0
LINE
8
BLACK
6
CONTINUOUS
10
191.324
20
-133.136
11
191.556
21
-132.904
0
LINE
8
BLACK
6
CONTINUOUS
10
191.556
20
-132.904
11
191.762
21
-132.649
0
LINE
8
BLACK
6
CONTINUOUS
10
191.762
20
-132.649
11
191.94
21
-132.375
0
LINE
8
BLACK
6
CONTINUOUS
10
191.94
20
-132.375
11
192.089
21
-132.083
0
LINE
8
BLACK
6
CONTINUOUS
10
192.089
20
-132.083
11
192.206
21
-131.777
0
LINE
8
BLACK
6
CONTINUOUS
10
192.206
20
-131.777
11
192.291
21
-131.461
0
LINE
8
BLACK
6
CONTINUOUS
10
192.291
20
-131.461
11
192.342
21
-131.137
0
LINE
8
BLACK
6
CONTINUOUS
10
192.342
20
-131.137
11
192.359
21
-130.819
0
LINE
8
BLACK
6
CONTINUOUS
10
192.359
20
-130.819
11
192.355
21
-130.81
0
LINE
8
BLACK
6
CONTINUOUS
10
192.355
20
-130.81
11
192.355
21
-56.515
0
LINE
8
BLACK
6
CONTINUOUS
10
192.355
20
-56.515
11
192.358
21
-56.5067
0
LINE
8
BLACK
6
CONTINUOUS
10
192.358
20
-56.5067
11
192.343
21
-56.2724
0
LINE
8
BLACK
6
CONTINUOUS
10
192.343
20
-56.2724
11
192.296
21
-56.0339
0
LINE
8
BLACK
6
CONTINUOUS
10
192.296
20
-56.0339
11
192.217
21
-55.8036
0
LINE
8
BLACK
6
CONTINUOUS
10
192.217
20
-55.8036
11
192.11
21
-55.5855
0
LINE
8
BLACK
6
CONTINUOUS
10
192.11
20
-55.5855
11
191.975
21
-55.3833
0
LINE
8
BLACK
6
CONTINUOUS
10
191.975
20
-55.3833
11
191.814
21
-55.2005
0
LINE
8
BLACK
6
CONTINUOUS
10
191.814
20
-55.2005
11
191.632
21
-55.0402
0
LINE
8
BLACK
6
CONTINUOUS
10
191.632
20
-55.0402
11
191.429
21
-54.9051
0
LINE
8
BLACK
6
CONTINUOUS
10
191.429
20
-54.9051
11
191.211
21
-54.7975
0
LINE
8
BLACK
6
CONTINUOUS
10
191.211
20
-54.7975
11
190.981
21
-54.7194
0
LINE
8
BLACK
6
CONTINUOUS
10
190.981
20
-54.7194
11
190.743
21
-54.6719
0
LINE
8
BLACK
6
CONTINUOUS
10
190.743
20
-54.6719
11
190.508
21
-54.6566
0
LINE
8
BLACK
6
CONTINUOUS
10
190.508
20
-54.6566
11
190.5
21
-54.66
0
LINE
8
BLACK
6
CONTINUOUS
10
190.5
20
-54.66
11
190.21
21
-54.6437
0
LINE
8
BLACK
6
CONTINUOUS
10
190.21
20
-54.6437
11
189.924
21
-54.5951
0
LINE
8
BLACK
6
CONTINUOUS
10
189.924
20
-54.5951
11
189.645
21
-54.5147
0
LINE
8
BLACK
6
CONTINUOUS
10
189.645
20
-54.5147
11
189.376
21
-54.4035
0
LINE
8
BLACK
6
CONTINUOUS
10
189.376
20
-54.4035
11
189.122
21
-54.263
0
LINE
8
BLACK
6
CONTINUOUS
10
189.122
20
-54.263
11
188.885
21
-54.0949
0
LINE
8
BLACK
6
CONTINUOUS
10
188.885
20
-54.0949
11
188.669
21
-53.9014
0
LINE
8
BLACK
6
CONTINUOUS
10
188.669
20
-53.9014
11
188.475
21
-53.6848
0
LINE
8
BLACK
6
CONTINUOUS
10
188.475
20
-53.6848
11
188.307
21
-53.448
0
LINE
8
BLACK
6
CONTINUOUS
10
188.307
20
-53.448
11
188.166
21
-53.1938
0
LINE
8
BLACK
6
CONTINUOUS
10
188.166
20
-53.1938
11
188.055
21
-52.9254
0
LINE
8
BLACK
6
CONTINUOUS
10
188.055
20
-52.9254
11
187.975
21
-52.6463
0
LINE
8
BLACK
6
CONTINUOUS
10
187.975
20
-52.6463
11
187.926
21
-52.36
0
LINE
8
BLACK
6
CONTINUOUS
10
187.926
20
-52.36
11
187.91
21
-52.07
0
LINE
8
BLACK
6
CONTINUOUS
10
187.91
20
-52.07
11
187.91
21
-45.77
0
LINE
8
BLACK
6
CONTINUOUS
10
187.91
20
-45.77
11
112.445
21
-45.77
0
LINE
8
BLACK
6
CONTINUOUS
10
112.445
20
-45.77
11
112.445
21
-52.07
0
LINE
8
BLACK
6
CONTINUOUS
10
112.445
20
-52.07
11
112.429
21
-52.36
0
LINE
8
BLACK
6
CONTINUOUS
10
112.429
20
-52.36
11
112.38
21
-52.6463
0
LINE
8
BLACK
6
CONTINUOUS
10
112.38
20
-52.6463
11
112.3
21
-52.9254
0
LINE
8
BLACK
6
CONTINUOUS
10
112.3
20
-52.9254
11
112.189
21
-53.1938
0
LINE
8
BLACK
6
CONTINUOUS
10
112.189
20
-53.1938
11
112.048
21
-53.448
0
LINE
8
BLACK
6
CONTINUOUS
10
112.048
20
-53.448
11
111.88
21
-53.6848
0
LINE
8
BLACK
6
CONTINUOUS
10
111.88
20
-53.6848
11
111.686
21
-53.9014
0
LINE
8
BLACK
6
CONTINUOUS
10
111.686
20
-53.9014
11
111.47
21
-54.0949
0
LINE
8
BLACK
6
CONTINUOUS
10
111.47
20
-54.0949
11
111.233
21
-54.263
0
LINE
8
BLACK
6
CONTINUOUS
10
111.233
20
-54.263
11
110.979
21
-54.4035
0
LINE
8
BLACK
6
CONTINUOUS
10
110.979
20
-54.4035
11
110.71
21
-54.5147
0
LINE
8
BLACK
6
CONTINUOUS
10
110.71
20
-54.5147
11
110.431
21
-54.5951
0
LINE
8
BLACK
6
CONTINUOUS
10
110.431
20
-54.5951
11
110.145
21
-54.6437
0
LINE
8
BLACK
6
CONTINUOUS
10
110.145
20
-54.6437
11
109.855
21
-54.66
0
LINE
8
BLACK
6
CONTINUOUS
10
109.855
20
-54.66
11
109.847
21
-54.6566
0
LINE
8
BLACK
6
CONTINUOUS
10
109.847
20
-54.6566
11
109.612
21
-54.6719
  0
ENDSEC
  0
EOF
