  0
SECTION
  2
HEADER
  9
$ANGBASE
  50
0.0
  9
$ANGDIR
  70
1
  9
$MEASUREMENT
  70
1
  0
ENDSEC
  0
SECTION
  2
TABLES
  0
TABLE
  2
LTYPE
  70
4
  0
LTYPE
  5
40F
  2
CONTINUOUS
  70
0
  3
Solid line
  72
65
  73
0
  40
0.0
  0
LTYPE
  5
410
  2
DASHDOT
 70
0
  3
Dash Dot ____ _ ____ _
 72
65
 73
4
 40
2.0
 49
1.25
 49
-0.25
 49
0.25
 49
-0.25
  0
LTYPE
  5
411
  2
DASHED
 70
0
  3
Dashed __ __ __ __ __
 72
65
 73
2
 40
0.75
 49
0.5
 49
-0.25
  0
LTYPE
  5
43B
  2
DOTTED
 70
0
  3
Dotted .  .  .  .
 72
65
 73
2
 40
0.2
 49
0.0
 49
-0.2
  0
ENDTAB
  0
TABLE
  2
STYLE
  70
4
  0
STYLE
  2
KICAD
  70
0
  40
0
  41
1
  42
1
  50
0
  71
0
  3
isocp.shx
  0
STYLE
  2
KICADB
  70
0
  40
0
  41
1
  42
1
  50
0
  71
0
  3
isocp.shx
  0
STYLE
  2
KICADI
  70
0
  40
0
  41
1
  42
1
  50
15
  71
0
  3
isocp.shx
  0
STYLE
  2
KICADBI
  70
0
  40
0
  41
1
  42
1
  50
15
  71
0
  3
isocp.shx
  0
ENDTAB
  0
TABLE
  2
LAYER
  70
1
  0
LAYER
  2
BLACK
  70
0
  62
7
  6
CONTINUOUS
  0
ENDTAB
  0
ENDSEC
  0
SECTION
  2
ENTITIES
0
LINE
8
BLACK
6
CONTINUOUS
10
133.513
20
-141.735
11
133.841
21
-141.771
0
LINE
8
BLACK
6
CONTINUOUS
10
133.841
20
-141.771
11
134.163
21
-141.842
0
LINE
8
BLACK
6
CONTINUOUS
10
134.163
20
-141.842
11
134.476
21
-141.947
0
LINE
8
BLACK
6
CONTINUOUS
10
134.476
20
-141.947
11
134.775
21
-142.086
0
LINE
8
BLACK
6
CONTINUOUS
10
134.775
20
-142.086
11
135.058
21
-142.257
0
LINE
8
BLACK
6
CONTINUOUS
10
135.058
20
-142.257
11
135.321
21
-142.456
0
LINE
8
BLACK
6
CONTINUOUS
10
135.321
20
-142.456
11
135.56
21
-142.684
0
LINE
8
BLACK
6
CONTINUOUS
10
135.56
20
-142.684
11
135.774
21
-142.935
0
LINE
8
BLACK
6
CONTINUOUS
10
135.774
20
-142.935
11
135.959
21
-143.209
0
LINE
8
BLACK
6
CONTINUOUS
10
135.959
20
-143.209
11
136.114
21
-143.5
0
LINE
8
BLACK
6
CONTINUOUS
10
136.114
20
-143.5
11
136.236
21
-143.807
0
LINE
8
BLACK
6
CONTINUOUS
10
136.236
20
-143.807
11
136.324
21
-144.125
0
LINE
8
BLACK
6
CONTINUOUS
10
136.324
20
-144.125
11
136.377
21
-144.451
0
LINE
8
BLACK
6
CONTINUOUS
10
136.377
20
-144.451
11
136.395
21
-144.779
0
LINE
8
BLACK
6
CONTINUOUS
10
136.395
20
-144.779
11
136.395
21
-144.78
0
LINE
8
BLACK
6
CONTINUOUS
10
136.395
20
-144.78
11
136.395
21
-144.78
0
LINE
8
BLACK
6
CONTINUOUS
10
136.395
20
-144.78
11
136.395
21
-144.78
0
LINE
8
BLACK
6
CONTINUOUS
10
136.395
20
-144.78
11
136.395
21
-144.78
0
LINE
8
BLACK
6
CONTINUOUS
10
136.395
20
-144.78
11
136.395
21
-144.781
0
LINE
8
BLACK
6
CONTINUOUS
10
136.395
20
-144.781
11
136.377
21
-145.109
0
LINE
8
BLACK
6
CONTINUOUS
10
136.377
20
-145.109
11
136.324
21
-145.435
0
LINE
8
BLACK
6
CONTINUOUS
10
136.324
20
-145.435
11
136.236
21
-145.753
0
LINE
8
BLACK
6
CONTINUOUS
10
136.236
20
-145.753
11
136.114
21
-146.06
0
LINE
8
BLACK
6
CONTINUOUS
10
136.114
20
-146.06
11
135.959
21
-146.351
0
LINE
8
BLACK
6
CONTINUOUS
10
135.959
20
-146.351
11
135.774
21
-146.625
0
LINE
8
BLACK
6
CONTINUOUS
10
135.774
20
-146.625
11
135.56
21
-146.876
0
LINE
8
BLACK
6
CONTINUOUS
10
135.56
20
-146.876
11
135.321
21
-147.104
0
LINE
8
BLACK
6
CONTINUOUS
10
135.321
20
-147.104
11
135.058
21
-147.303
0
LINE
8
BLACK
6
CONTINUOUS
10
135.058
20
-147.303
11
134.775
21
-147.474
0
LINE
8
BLACK
6
CONTINUOUS
10
134.775
20
-147.474
11
134.476
21
-147.613
0
LINE
8
BLACK
6
CONTINUOUS
10
134.476
20
-147.613
11
134.163
21
-147.718
0
LINE
8
BLACK
6
CONTINUOUS
10
134.163
20
-147.718
11
133.841
21
-147.789
0
LINE
8
BLACK
6
CONTINUOUS
10
133.841
20
-147.789
11
133.513
21
-147.825
0
LINE
8
BLACK
6
CONTINUOUS
10
133.513
20
-147.825
11
133.183
21
-147.826
0
LINE
8
BLACK
6
CONTINUOUS
10
133.183
20
-147.826
11
132.854
21
-147.79
0
LINE
8
BLACK
6
CONTINUOUS
10
132.854
20
-147.79
11
132.532
21
-147.72
0
LINE
8
BLACK
6
CONTINUOUS
10
132.532
20
-147.72
11
132.219
21
-147.615
0
LINE
8
BLACK
6
CONTINUOUS
10
132.219
20
-147.615
11
131.919
21
-147.476
0
LINE
8
BLACK
6
CONTINUOUS
10
131.919
20
-147.476
11
131.636
21
-147.306
0
LINE
8
BLACK
6
CONTINUOUS
10
131.636
20
-147.306
11
131.373
21
-147.107
0
LINE
8
BLACK
6
CONTINUOUS
10
131.373
20
-147.107
11
131.133
21
-146.88
0
LINE
8
BLACK
6
CONTINUOUS
10
131.133
20
-146.88
11
130.919
21
-146.629
0
LINE
8
BLACK
6
CONTINUOUS
10
130.919
20
-146.629
11
130.734
21
-146.356
0
LINE
8
BLACK
6
CONTINUOUS
10
130.734
20
-146.356
11
130.731
21
-146.34
0
LINE
8
BLACK
6
CONTINUOUS
10
130.731
20
-146.34
11
130.725
21
-146.325
0
LINE
8
BLACK
6
CONTINUOUS
10
130.725
20
-146.325
11
130.725
21
-143.235
0
LINE
8
BLACK
6
CONTINUOUS
10
130.725
20
-143.235
11
130.731
21
-143.22
0
LINE
8
BLACK
6
CONTINUOUS
10
130.731
20
-143.22
11
130.734
21
-143.204
0
LINE
8
BLACK
6
CONTINUOUS
10
130.734
20
-143.204
11
130.734
21
-143.204
0
LINE
8
BLACK
6
CONTINUOUS
10
130.734
20
-143.204
11
130.919
21
-142.931
0
LINE
8
BLACK
6
CONTINUOUS
10
130.919
20
-142.931
11
131.133
21
-142.68
0
LINE
8
BLACK
6
CONTINUOUS
10
131.133
20
-142.68
11
131.373
21
-142.453
0
LINE
8
BLACK
6
CONTINUOUS
10
131.373
20
-142.453
11
131.636
21
-142.254
0
LINE
8
BLACK
6
CONTINUOUS
10
131.636
20
-142.254
11
131.919
21
-142.084
0
LINE
8
BLACK
6
CONTINUOUS
10
131.919
20
-142.084
11
132.219
21
-141.945
0
LINE
8
BLACK
6
CONTINUOUS
10
132.219
20
-141.945
11
132.532
21
-141.84
0
LINE
8
BLACK
6
CONTINUOUS
10
132.532
20
-141.84
11
132.854
21
-141.77
0
LINE
8
BLACK
6
CONTINUOUS
10
132.854
20
-141.77
11
133.183
21
-141.734
0
LINE
8
BLACK
6
CONTINUOUS
10
133.183
20
-141.734
11
133.513
21
-141.735
0
LINE
8
BLACK
6
CONTINUOUS
10
132.982
20
-141.868
11
132.656
21
-141.927
0
LINE
8
BLACK
6
CONTINUOUS
10
132.656
20
-141.927
11
132.339
21
-142.023
0
LINE
8
BLACK
6
CONTINUOUS
10
132.339
20
-142.023
11
132.035
21
-142.154
0
LINE
8
BLACK
6
CONTINUOUS
10
132.035
20
-142.154
11
131.747
21
-142.319
0
LINE
8
BLACK
6
CONTINUOUS
10
131.747
20
-142.319
11
131.48
21
-142.515
0
LINE
8
BLACK
6
CONTINUOUS
10
131.48
20
-142.515
11
131.236
21
-142.739
0
LINE
8
BLACK
6
CONTINUOUS
10
131.236
20
-142.739
11
131.019
21
-142.99
0
LINE
8
BLACK
6
CONTINUOUS
10
131.019
20
-142.99
11
130.845
21
-143.245
0
LINE
8
BLACK
6
CONTINUOUS
10
130.845
20
-143.245
11
130.845
21
-144.25
0
LINE
8
BLACK
6
CONTINUOUS
10
130.845
20
-144.25
11
130.865
21
-144.143
0
LINE
8
BLACK
6
CONTINUOUS
10
130.865
20
-144.143
11
130.965
21
-143.838
0
LINE
8
BLACK
6
CONTINUOUS
10
130.965
20
-143.838
11
131.102
21
-143.547
0
LINE
8
BLACK
6
CONTINUOUS
10
131.102
20
-143.547
11
131.274
21
-143.275
0
LINE
8
BLACK
6
CONTINUOUS
10
131.274
20
-143.275
11
131.479
21
-143.028
0
LINE
8
BLACK
6
CONTINUOUS
10
131.479
20
-143.028
11
131.713
21
-142.807
0
LINE
8
BLACK
6
CONTINUOUS
10
131.713
20
-142.807
11
131.973
21
-142.619
0
LINE
8
BLACK
6
CONTINUOUS
10
131.973
20
-142.619
11
132.255
21
-142.464
0
LINE
8
BLACK
6
CONTINUOUS
10
132.255
20
-142.464
11
132.554
21
-142.345
0
LINE
8
BLACK
6
CONTINUOUS
10
132.554
20
-142.345
11
132.865
21
-142.265
0
LINE
8
BLACK
6
CONTINUOUS
10
132.865
20
-142.265
11
133.184
21
-142.225
0
LINE
8
BLACK
6
CONTINUOUS
10
133.184
20
-142.225
11
133.506
21
-142.225
0
LINE
8
BLACK
6
CONTINUOUS
10
133.506
20
-142.225
11
133.825
21
-142.265
0
LINE
8
BLACK
6
CONTINUOUS
10
133.825
20
-142.265
11
134.136
21
-142.345
0
LINE
8
BLACK
6
CONTINUOUS
10
134.136
20
-142.345
11
134.435
21
-142.464
0
LINE
8
BLACK
6
CONTINUOUS
10
134.435
20
-142.464
11
134.717
21
-142.619
0
LINE
8
BLACK
6
CONTINUOUS
10
134.717
20
-142.619
11
134.977
21
-142.807
0
LINE
8
BLACK
6
CONTINUOUS
10
134.977
20
-142.807
11
135.211
21
-143.028
0
LINE
8
BLACK
6
CONTINUOUS
10
135.211
20
-143.028
11
135.416
21
-143.275
0
LINE
8
BLACK
6
CONTINUOUS
10
135.416
20
-143.275
11
135.588
21
-143.547
0
LINE
8
BLACK
6
CONTINUOUS
10
135.588
20
-143.547
11
135.725
21
-143.838
0
LINE
8
BLACK
6
CONTINUOUS
10
135.725
20
-143.838
11
135.825
21
-144.143
0
LINE
8
BLACK
6
CONTINUOUS
10
135.825
20
-144.143
11
135.885
21
-144.459
0
LINE
8
BLACK
6
CONTINUOUS
10
135.885
20
-144.459
11
135.905
21
-144.78
0
LINE
8
BLACK
6
CONTINUOUS
10
135.905
20
-144.78
11
135.885
21
-145.101
0
LINE
8
BLACK
6
CONTINUOUS
10
135.885
20
-145.101
11
135.825
21
-145.417
0
LINE
8
BLACK
6
CONTINUOUS
10
135.825
20
-145.417
11
135.725
21
-145.722
0
LINE
8
BLACK
6
CONTINUOUS
10
135.725
20
-145.722
11
135.588
21
-146.013
0
LINE
8
BLACK
6
CONTINUOUS
10
135.588
20
-146.013
11
135.416
21
-146.285
0
LINE
8
BLACK
6
CONTINUOUS
10
135.416
20
-146.285
11
135.211
21
-146.532
0
LINE
8
BLACK
6
CONTINUOUS
10
135.211
20
-146.532
11
134.977
21
-146.753
0
LINE
8
BLACK
6
CONTINUOUS
10
134.977
20
-146.753
11
134.717
21
-146.941
0
LINE
8
BLACK
6
CONTINUOUS
10
134.717
20
-146.941
11
134.435
21
-147.096
0
LINE
8
BLACK
6
CONTINUOUS
10
134.435
20
-147.096
11
134.136
21
-147.215
0
LINE
8
BLACK
6
CONTINUOUS
10
134.136
20
-147.215
11
133.825
21
-147.295
0
LINE
8
BLACK
6
CONTINUOUS
10
133.825
20
-147.295
11
133.506
21
-147.335
0
LINE
8
BLACK
6
CONTINUOUS
10
133.506
20
-147.335
11
133.184
21
-147.335
0
LINE
8
BLACK
6
CONTINUOUS
10
133.184
20
-147.335
11
132.865
21
-147.295
0
LINE
8
BLACK
6
CONTINUOUS
10
132.865
20
-147.295
11
132.554
21
-147.215
0
LINE
8
BLACK
6
CONTINUOUS
10
132.554
20
-147.215
11
132.255
21
-147.096
0
LINE
8
BLACK
6
CONTINUOUS
10
132.255
20
-147.096
11
131.973
21
-146.941
0
LINE
8
BLACK
6
CONTINUOUS
10
131.973
20
-146.941
11
131.713
21
-146.753
0
LINE
8
BLACK
6
CONTINUOUS
10
131.713
20
-146.753
11
131.479
21
-146.532
0
LINE
8
BLACK
6
CONTINUOUS
10
131.479
20
-146.532
11
131.274
21
-146.285
0
LINE
8
BLACK
6
CONTINUOUS
10
131.274
20
-146.285
11
131.102
21
-146.013
0
LINE
8
BLACK
6
CONTINUOUS
10
131.102
20
-146.013
11
130.965
21
-145.722
0
LINE
8
BLACK
6
CONTINUOUS
10
130.965
20
-145.722
11
130.865
21
-145.417
0
LINE
8
BLACK
6
CONTINUOUS
10
130.865
20
-145.417
11
130.845
21
-145.31
0
LINE
8
BLACK
6
CONTINUOUS
10
130.845
20
-145.31
11
130.845
21
-146.315
0
LINE
8
BLACK
6
CONTINUOUS
10
130.845
20
-146.315
11
131.019
21
-146.57
0
LINE
8
BLACK
6
CONTINUOUS
10
131.019
20
-146.57
11
131.236
21
-146.821
0
LINE
8
BLACK
6
CONTINUOUS
10
131.236
20
-146.821
11
131.48
21
-147.045
0
LINE
8
BLACK
6
CONTINUOUS
10
131.48
20
-147.045
11
131.747
21
-147.241
0
LINE
8
BLACK
6
CONTINUOUS
10
131.747
20
-147.241
11
132.035
21
-147.406
0
LINE
8
BLACK
6
CONTINUOUS
10
132.035
20
-147.406
11
132.339
21
-147.537
0
LINE
8
BLACK
6
CONTINUOUS
10
132.339
20
-147.537
11
132.656
21
-147.633
0
LINE
8
BLACK
6
CONTINUOUS
10
132.656
20
-147.633
11
132.982
21
-147.692
0
LINE
8
BLACK
6
CONTINUOUS
10
132.982
20
-147.692
11
133.313
21
-147.714
0
LINE
8
BLACK
6
CONTINUOUS
10
133.313
20
-147.714
11
133.644
21
-147.699
0
LINE
8
BLACK
6
CONTINUOUS
10
133.644
20
-147.699
11
133.971
21
-147.647
0
LINE
8
BLACK
6
CONTINUOUS
10
133.971
20
-147.647
11
134.291
21
-147.558
0
LINE
8
BLACK
6
CONTINUOUS
10
134.291
20
-147.558
11
134.598
21
-147.434
0
LINE
8
BLACK
6
CONTINUOUS
10
134.598
20
-147.434
11
134.889
21
-147.276
0
LINE
8
BLACK
6
CONTINUOUS
10
134.889
20
-147.276
11
135.16
21
-147.086
0
LINE
8
BLACK
6
CONTINUOUS
10
135.16
20
-147.086
11
135.409
21
-146.866
0
LINE
8
BLACK
6
CONTINUOUS
10
135.409
20
-146.866
11
135.631
21
-146.62
0
LINE
8
BLACK
6
CONTINUOUS
10
135.631
20
-146.62
11
135.824
21
-146.351
0
LINE
8
BLACK
6
CONTINUOUS
10
135.824
20
-146.351
11
135.985
21
-146.061
0
LINE
8
BLACK
6
CONTINUOUS
10
135.985
20
-146.061
11
136.113
21
-145.755
0
LINE
8
BLACK
6
CONTINUOUS
10
136.113
20
-145.755
11
136.205
21
-145.437
0
LINE
8
BLACK
6
CONTINUOUS
10
136.205
20
-145.437
11
136.261
21
-145.11
0
LINE
8
BLACK
6
CONTINUOUS
10
136.261
20
-145.11
11
136.279
21
-144.79
0
LINE
8
BLACK
6
CONTINUOUS
10
136.279
20
-144.79
11
136.275
21
-144.78
0
LINE
8
BLACK
6
CONTINUOUS
10
136.275
20
-144.78
11
136.275
21
-144.78
0
LINE
8
BLACK
6
CONTINUOUS
10
136.275
20
-144.78
11
136.275
21
-144.78
0
LINE
8
BLACK
6
CONTINUOUS
10
136.275
20
-144.78
11
136.279
21
-144.77
0
LINE
8
BLACK
6
CONTINUOUS
10
136.279
20
-144.77
11
136.261
21
-144.45
0
LINE
8
BLACK
6
CONTINUOUS
10
136.261
20
-144.45
11
136.205
21
-144.123
0
LINE
8
BLACK
6
CONTINUOUS
10
136.205
20
-144.123
11
136.113
21
-143.805
0
LINE
8
BLACK
6
CONTINUOUS
10
136.113
20
-143.805
11
135.985
21
-143.499
0
LINE
8
BLACK
6
CONTINUOUS
10
135.985
20
-143.499
11
135.824
21
-143.209
0
LINE
8
BLACK
6
CONTINUOUS
10
135.824
20
-143.209
11
135.631
21
-142.94
0
LINE
8
BLACK
6
CONTINUOUS
10
135.631
20
-142.94
11
135.409
21
-142.694
0
LINE
8
BLACK
6
CONTINUOUS
10
135.409
20
-142.694
11
135.16
21
-142.474
0
LINE
8
BLACK
6
CONTINUOUS
10
135.16
20
-142.474
11
134.889
21
-142.284
0
LINE
8
BLACK
6
CONTINUOUS
10
134.889
20
-142.284
11
134.598
21
-142.126
0
LINE
8
BLACK
6
CONTINUOUS
10
134.598
20
-142.126
11
134.291
21
-142.002
0
LINE
8
BLACK
6
CONTINUOUS
10
134.291
20
-142.002
11
133.971
21
-141.913
0
LINE
8
BLACK
6
CONTINUOUS
10
133.971
20
-141.913
11
133.644
21
-141.861
0
LINE
8
BLACK
6
CONTINUOUS
10
133.644
20
-141.861
11
133.313
21
-141.846
0
LINE
8
BLACK
6
CONTINUOUS
10
133.313
20
-141.846
11
132.982
21
-141.868
0
LINE
8
BLACK
6
CONTINUOUS
10
130.977
20
-145.388
11
131.072
21
-145.68
0
LINE
8
BLACK
6
CONTINUOUS
10
131.072
20
-145.68
11
131.203
21
-145.958
0
LINE
8
BLACK
6
CONTINUOUS
10
131.203
20
-145.958
11
131.367
21
-146.217
0
LINE
8
BLACK
6
CONTINUOUS
10
131.367
20
-146.217
11
131.563
21
-146.454
0
LINE
8
BLACK
6
CONTINUOUS
10
131.563
20
-146.454
11
131.787
21
-146.664
0
LINE
8
BLACK
6
CONTINUOUS
10
131.787
20
-146.664
11
132.035
21
-146.844
0
LINE
8
BLACK
6
CONTINUOUS
10
132.035
20
-146.844
11
132.304
21
-146.992
0
LINE
8
BLACK
6
CONTINUOUS
10
132.304
20
-146.992
11
132.59
21
-147.105
0
LINE
8
BLACK
6
CONTINUOUS
10
132.59
20
-147.105
11
132.887
21
-147.182
0
LINE
8
BLACK
6
CONTINUOUS
10
132.887
20
-147.182
11
133.191
21
-147.22
0
LINE
8
BLACK
6
CONTINUOUS
10
133.191
20
-147.22
11
133.499
21
-147.22
0
LINE
8
BLACK
6
CONTINUOUS
10
133.499
20
-147.22
11
133.803
21
-147.182
0
LINE
8
BLACK
6
CONTINUOUS
10
133.803
20
-147.182
11
134.1
21
-147.105
0
LINE
8
BLACK
6
CONTINUOUS
10
134.1
20
-147.105
11
134.386
21
-146.992
0
LINE
8
BLACK
6
CONTINUOUS
10
134.386
20
-146.992
11
134.655
21
-146.844
0
LINE
8
BLACK
6
CONTINUOUS
10
134.655
20
-146.844
11
134.903
21
-146.664
0
LINE
8
BLACK
6
CONTINUOUS
10
134.903
20
-146.664
11
135.127
21
-146.454
0
LINE
8
BLACK
6
CONTINUOUS
10
135.127
20
-146.454
11
135.323
21
-146.217
0
LINE
8
BLACK
6
CONTINUOUS
10
135.323
20
-146.217
11
135.487
21
-145.958
0
LINE
8
BLACK
6
CONTINUOUS
10
135.487
20
-145.958
11
135.618
21
-145.68
0
LINE
8
BLACK
6
CONTINUOUS
10
135.618
20
-145.68
11
135.713
21
-145.388
0
LINE
8
BLACK
6
CONTINUOUS
10
135.713
20
-145.388
11
135.771
21
-145.086
0
LINE
8
BLACK
6
CONTINUOUS
10
135.771
20
-145.086
11
135.79
21
-144.78
0
LINE
8
BLACK
6
CONTINUOUS
10
135.79
20
-144.78
11
135.771
21
-144.474
0
LINE
8
BLACK
6
CONTINUOUS
10
135.771
20
-144.474
11
135.713
21
-144.172
0
LINE
8
BLACK
6
CONTINUOUS
10
135.713
20
-144.172
11
135.618
21
-143.88
0
LINE
8
BLACK
6
CONTINUOUS
10
135.618
20
-143.88
11
135.487
21
-143.602
0
LINE
8
BLACK
6
CONTINUOUS
10
135.487
20
-143.602
11
135.323
21
-143.343
0
LINE
8
BLACK
6
CONTINUOUS
10
135.323
20
-143.343
11
135.127
21
-143.106
0
LINE
8
BLACK
6
CONTINUOUS
10
135.127
20
-143.106
11
134.903
21
-142.896
0
LINE
8
BLACK
6
CONTINUOUS
10
134.903
20
-142.896
11
134.655
21
-142.716
0
LINE
8
BLACK
6
CONTINUOUS
10
134.655
20
-142.716
11
134.386
21
-142.568
0
LINE
8
BLACK
6
CONTINUOUS
10
134.386
20
-142.568
11
134.1
21
-142.455
0
LINE
8
BLACK
6
CONTINUOUS
10
134.1
20
-142.455
11
133.803
21
-142.378
0
LINE
8
BLACK
6
CONTINUOUS
10
133.803
20
-142.378
11
133.499
21
-142.34
0
LINE
8
BLACK
6
CONTINUOUS
10
133.499
20
-142.34
11
133.191
21
-142.34
0
LINE
8
BLACK
6
CONTINUOUS
10
133.191
20
-142.34
11
132.887
21
-142.378
0
LINE
8
BLACK
6
CONTINUOUS
10
132.887
20
-142.378
11
132.59
21
-142.455
0
LINE
8
BLACK
6
CONTINUOUS
10
132.59
20
-142.455
11
132.304
21
-142.568
0
LINE
8
BLACK
6
CONTINUOUS
10
132.304
20
-142.568
11
132.035
21
-142.716
0
LINE
8
BLACK
6
CONTINUOUS
10
132.035
20
-142.716
11
131.787
21
-142.896
0
LINE
8
BLACK
6
CONTINUOUS
10
131.787
20
-142.896
11
131.563
21
-143.106
0
LINE
8
BLACK
6
CONTINUOUS
10
131.563
20
-143.106
11
131.367
21
-143.343
0
LINE
8
BLACK
6
CONTINUOUS
10
131.367
20
-143.343
11
131.203
21
-143.602
0
LINE
8
BLACK
6
CONTINUOUS
10
131.203
20
-143.602
11
131.072
21
-143.88
0
LINE
8
BLACK
6
CONTINUOUS
10
131.072
20
-143.88
11
130.977
21
-144.172
0
LINE
8
BLACK
6
CONTINUOUS
10
130.977
20
-144.172
11
130.919
21
-144.474
0
LINE
8
BLACK
6
CONTINUOUS
10
130.919
20
-144.474
11
130.9
21
-144.78
0
LINE
8
BLACK
6
CONTINUOUS
10
130.9
20
-144.78
11
130.919
21
-145.086
0
LINE
8
BLACK
6
CONTINUOUS
10
130.919
20
-145.086
11
130.977
21
-145.388
0
LINE
8
BLACK
6
CONTINUOUS
10
134.806
20
-140.199
11
134.81
21
-140.199
0
LINE
8
BLACK
6
CONTINUOUS
10
134.81
20
-140.199
11
134.829
21
-140.209
0
LINE
8
BLACK
6
CONTINUOUS
10
134.829
20
-140.209
11
134.849
21
-140.218
0
LINE
8
BLACK
6
CONTINUOUS
10
134.849
20
-140.218
11
134.851
21
-140.222
0
LINE
8
BLACK
6
CONTINUOUS
10
134.851
20
-140.222
11
134.855
21
-140.224
0
LINE
8
BLACK
6
CONTINUOUS
10
134.855
20
-140.224
11
134.862
21
-140.245
0
LINE
8
BLACK
6
CONTINUOUS
10
134.862
20
-140.245
11
134.872
21
-140.264
0
LINE
8
BLACK
6
CONTINUOUS
10
134.872
20
-140.264
11
134.871
21
-140.268
0
LINE
8
BLACK
6
CONTINUOUS
10
134.871
20
-140.268
11
134.872
21
-140.272
0
LINE
8
BLACK
6
CONTINUOUS
10
134.872
20
-140.272
11
134.872
21
-141.197
0
LINE
8
BLACK
6
CONTINUOUS
10
134.872
20
-141.197
11
135.083
21
-141.197
0
LINE
8
BLACK
6
CONTINUOUS
10
135.083
20
-141.197
11
135.109
21
-141.202
0
LINE
8
BLACK
6
CONTINUOUS
10
135.109
20
-141.202
11
135.148
21
-141.235
0
LINE
8
BLACK
6
CONTINUOUS
10
135.148
20
-141.235
11
135.157
21
-141.285
0
LINE
8
BLACK
6
CONTINUOUS
10
135.157
20
-141.285
11
135.131
21
-141.33
0
LINE
8
BLACK
6
CONTINUOUS
10
135.131
20
-141.33
11
135.083
21
-141.347
0
LINE
8
BLACK
6
CONTINUOUS
10
135.083
20
-141.347
11
134.512
21
-141.347
0
LINE
8
BLACK
6
CONTINUOUS
10
134.512
20
-141.347
11
134.486
21
-141.343
0
LINE
8
BLACK
6
CONTINUOUS
10
134.486
20
-141.343
11
134.447
21
-141.31
0
LINE
8
BLACK
6
CONTINUOUS
10
134.447
20
-141.31
11
134.438
21
-141.259
0
LINE
8
BLACK
6
CONTINUOUS
10
134.438
20
-141.259
11
134.463
21
-141.215
0
LINE
8
BLACK
6
CONTINUOUS
10
134.463
20
-141.215
11
134.512
21
-141.197
0
LINE
8
BLACK
6
CONTINUOUS
10
134.512
20
-141.197
11
134.722
21
-141.197
0
LINE
8
BLACK
6
CONTINUOUS
10
134.722
20
-141.197
11
134.722
21
-140.501
0
LINE
8
BLACK
6
CONTINUOUS
10
134.722
20
-140.501
11
134.66
21
-140.564
0
LINE
8
BLACK
6
CONTINUOUS
10
134.66
20
-140.564
11
134.642
21
-140.576
0
LINE
8
BLACK
6
CONTINUOUS
10
134.642
20
-140.576
11
134.64
21
-140.578
0
LINE
8
BLACK
6
CONTINUOUS
10
134.64
20
-140.578
11
134.545
21
-140.625
0
LINE
8
BLACK
6
CONTINUOUS
10
134.545
20
-140.625
11
134.52
21
-140.633
0
LINE
8
BLACK
6
CONTINUOUS
10
134.52
20
-140.633
11
134.47
21
-140.621
0
LINE
8
BLACK
6
CONTINUOUS
10
134.47
20
-140.621
11
134.44
21
-140.579
0
LINE
8
BLACK
6
CONTINUOUS
10
134.44
20
-140.579
11
134.443
21
-140.528
0
LINE
8
BLACK
6
CONTINUOUS
10
134.443
20
-140.528
11
134.478
21
-140.491
0
LINE
8
BLACK
6
CONTINUOUS
10
134.478
20
-140.491
11
134.562
21
-140.449
0
LINE
8
BLACK
6
CONTINUOUS
10
134.562
20
-140.449
11
134.644
21
-140.367
0
LINE
8
BLACK
6
CONTINUOUS
10
134.644
20
-140.367
11
134.735
21
-140.231
0
LINE
8
BLACK
6
CONTINUOUS
10
134.735
20
-140.231
11
134.753
21
-140.212
0
LINE
8
BLACK
6
CONTINUOUS
10
134.753
20
-140.212
11
134.757
21
-140.211
0
LINE
8
BLACK
6
CONTINUOUS
10
134.757
20
-140.211
11
134.76
21
-140.207
0
LINE
8
BLACK
6
CONTINUOUS
10
134.76
20
-140.207
11
134.781
21
-140.204
0
LINE
8
BLACK
6
CONTINUOUS
10
134.781
20
-140.204
11
134.802
21
-140.198
0
LINE
8
BLACK
6
CONTINUOUS
10
134.802
20
-140.198
11
134.806
21
-140.199
0
LINE
8
BLACK
6
CONTINUOUS
10
133.109
20
-140.202
11
133.148
21
-140.235
0
LINE
8
BLACK
6
CONTINUOUS
10
133.148
20
-140.235
11
133.157
21
-140.285
0
LINE
8
BLACK
6
CONTINUOUS
10
133.157
20
-140.285
11
133.131
21
-140.33
0
LINE
8
BLACK
6
CONTINUOUS
10
133.131
20
-140.33
11
133.083
21
-140.347
0
LINE
8
BLACK
6
CONTINUOUS
10
133.083
20
-140.347
11
132.91
21
-140.347
0
LINE
8
BLACK
6
CONTINUOUS
10
132.91
20
-140.347
11
132.842
21
-140.382
0
LINE
8
BLACK
6
CONTINUOUS
10
132.842
20
-140.382
11
132.808
21
-140.415
0
LINE
8
BLACK
6
CONTINUOUS
10
132.808
20
-140.415
11
132.724
21
-140.541
0
LINE
8
BLACK
6
CONTINUOUS
10
132.724
20
-140.541
11
132.706
21
-140.615
0
LINE
8
BLACK
6
CONTINUOUS
10
132.706
20
-140.615
11
132.764
21
-140.586
0
LINE
8
BLACK
6
CONTINUOUS
10
132.764
20
-140.586
11
132.789
21
-140.579
0
LINE
8
BLACK
6
CONTINUOUS
10
132.789
20
-140.579
11
132.793
21
-140.58
0
LINE
8
BLACK
6
CONTINUOUS
10
132.793
20
-140.58
11
132.797
21
-140.578
0
LINE
8
BLACK
6
CONTINUOUS
10
132.797
20
-140.578
11
132.988
21
-140.578
0
LINE
8
BLACK
6
CONTINUOUS
10
132.988
20
-140.578
11
133.014
21
-140.583
0
LINE
8
BLACK
6
CONTINUOUS
10
133.014
20
-140.583
11
133.017
21
-140.586
0
LINE
8
BLACK
6
CONTINUOUS
10
133.017
20
-140.586
11
133.021
21
-140.586
0
LINE
8
BLACK
6
CONTINUOUS
10
133.021
20
-140.586
11
133.117
21
-140.634
0
LINE
8
BLACK
6
CONTINUOUS
10
133.117
20
-140.634
11
133.135
21
-140.647
0
LINE
8
BLACK
6
CONTINUOUS
10
133.135
20
-140.647
11
133.136
21
-140.648
0
LINE
8
BLACK
6
CONTINUOUS
10
133.136
20
-140.648
11
133.184
21
-140.696
0
LINE
8
BLACK
6
CONTINUOUS
10
133.184
20
-140.696
11
133.197
21
-140.714
0
LINE
8
BLACK
6
CONTINUOUS
10
133.197
20
-140.714
11
133.198
21
-140.715
0
LINE
8
BLACK
6
CONTINUOUS
10
133.198
20
-140.715
11
133.245
21
-140.81
0
LINE
8
BLACK
6
CONTINUOUS
10
133.245
20
-140.81
11
133.253
21
-140.835
0
LINE
8
BLACK
6
CONTINUOUS
10
133.253
20
-140.835
11
133.252
21
-140.84
0
LINE
8
BLACK
6
CONTINUOUS
10
133.252
20
-140.84
11
133.253
21
-140.844
0
LINE
8
BLACK
6
CONTINUOUS
10
133.253
20
-140.844
11
133.253
21
-141.082
0
LINE
8
BLACK
6
CONTINUOUS
10
133.253
20
-141.082
11
133.249
21
-141.108
0
LINE
8
BLACK
6
CONTINUOUS
10
133.249
20
-141.108
11
133.246
21
-141.111
0
LINE
8
BLACK
6
CONTINUOUS
10
133.246
20
-141.111
11
133.245
21
-141.115
0
LINE
8
BLACK
6
CONTINUOUS
10
133.245
20
-141.115
11
133.198
21
-141.211
0
LINE
8
BLACK
6
CONTINUOUS
10
133.198
20
-141.211
11
133.184
21
-141.229
0
LINE
8
BLACK
6
CONTINUOUS
10
133.184
20
-141.229
11
133.184
21
-141.23
0
LINE
8
BLACK
6
CONTINUOUS
10
133.184
20
-141.23
11
133.136
21
-141.278
0
LINE
8
BLACK
6
CONTINUOUS
10
133.136
20
-141.278
11
133.118
21
-141.291
0
LINE
8
BLACK
6
CONTINUOUS
10
133.118
20
-141.291
11
133.117
21
-141.292
0
LINE
8
BLACK
6
CONTINUOUS
10
133.117
20
-141.292
11
133.021
21
-141.339
0
LINE
8
BLACK
6
CONTINUOUS
10
133.021
20
-141.339
11
132.996
21
-141.347
0
LINE
8
BLACK
6
CONTINUOUS
10
132.996
20
-141.347
11
132.992
21
-141.346
0
LINE
8
BLACK
6
CONTINUOUS
10
132.992
20
-141.346
11
132.988
21
-141.347
0
LINE
8
BLACK
6
CONTINUOUS
10
132.988
20
-141.347
11
132.797
21
-141.347
0
LINE
8
BLACK
6
CONTINUOUS
10
132.797
20
-141.347
11
132.772
21
-141.343
0
LINE
8
BLACK
6
CONTINUOUS
10
132.772
20
-141.343
11
132.768
21
-141.34
0
LINE
8
BLACK
6
CONTINUOUS
10
132.768
20
-141.34
11
132.764
21
-141.339
0
LINE
8
BLACK
6
CONTINUOUS
10
132.764
20
-141.339
11
132.669
21
-141.292
0
LINE
8
BLACK
6
CONTINUOUS
10
132.669
20
-141.292
11
132.651
21
-141.278
0
LINE
8
BLACK
6
CONTINUOUS
10
132.651
20
-141.278
11
132.649
21
-141.278
0
LINE
8
BLACK
6
CONTINUOUS
10
132.649
20
-141.278
11
132.601
21
-141.23
0
LINE
8
BLACK
6
CONTINUOUS
10
132.601
20
-141.23
11
132.589
21
-141.212
0
LINE
8
BLACK
6
CONTINUOUS
10
132.589
20
-141.212
11
132.587
21
-141.211
0
LINE
8
BLACK
6
CONTINUOUS
10
132.587
20
-141.211
11
132.54
21
-141.115
0
LINE
8
BLACK
6
CONTINUOUS
10
132.54
20
-141.115
11
132.532
21
-141.09
0
LINE
8
BLACK
6
CONTINUOUS
10
132.532
20
-141.09
11
132.533
21
-141.086
0
LINE
8
BLACK
6
CONTINUOUS
10
132.533
20
-141.086
11
132.532
21
-141.082
0
LINE
8
BLACK
6
CONTINUOUS
10
132.532
20
-141.082
11
132.532
21
-140.701
0
LINE
8
BLACK
6
CONTINUOUS
10
132.532
20
-140.701
11
132.535
21
-140.686
0
LINE
8
BLACK
6
CONTINUOUS
10
132.535
20
-140.686
11
132.534
21
-140.683
0
LINE
8
BLACK
6
CONTINUOUS
10
132.534
20
-140.683
11
132.582
21
-140.492
0
LINE
8
BLACK
6
CONTINUOUS
10
132.582
20
-140.492
11
132.592
21
-140.469
0
LINE
8
BLACK
6
CONTINUOUS
10
132.592
20
-140.469
11
132.592
21
-140.469
0
LINE
8
BLACK
6
CONTINUOUS
10
132.592
20
-140.469
11
132.687
21
-140.326
0
LINE
8
BLACK
6
CONTINUOUS
10
132.687
20
-140.326
11
132.695
21
-140.318
0
LINE
8
BLACK
6
CONTINUOUS
10
132.695
20
-140.318
11
132.697
21
-140.315
0
LINE
8
BLACK
6
CONTINUOUS
10
132.697
20
-140.315
11
132.744
21
-140.267
0
LINE
8
BLACK
6
CONTINUOUS
10
132.744
20
-140.267
11
132.763
21
-140.254
0
LINE
8
BLACK
6
CONTINUOUS
10
132.763
20
-140.254
11
132.764
21
-140.253
0
LINE
8
BLACK
6
CONTINUOUS
10
132.764
20
-140.253
11
132.859
21
-140.205
0
LINE
8
BLACK
6
CONTINUOUS
10
132.859
20
-140.205
11
132.884
21
-140.198
0
LINE
8
BLACK
6
CONTINUOUS
10
132.884
20
-140.198
11
132.888
21
-140.199
0
LINE
8
BLACK
6
CONTINUOUS
10
132.888
20
-140.199
11
132.893
21
-140.197
0
LINE
8
BLACK
6
CONTINUOUS
10
132.893
20
-140.197
11
133.083
21
-140.197
0
LINE
8
BLACK
6
CONTINUOUS
10
133.083
20
-140.197
11
133.109
21
-140.202
0
LINE
8
BLACK
6
CONTINUOUS
10
132.815
20
-140.728
11
132.747
21
-140.763
0
LINE
8
BLACK
6
CONTINUOUS
10
132.747
20
-140.763
11
132.716
21
-140.793
0
LINE
8
BLACK
6
CONTINUOUS
10
132.716
20
-140.793
11
132.682
21
-140.862
0
LINE
8
BLACK
6
CONTINUOUS
10
132.682
20
-140.862
11
132.682
21
-141.064
0
LINE
8
BLACK
6
CONTINUOUS
10
132.682
20
-141.064
11
132.716
21
-141.133
0
LINE
8
BLACK
6
CONTINUOUS
10
132.716
20
-141.133
11
132.747
21
-141.163
0
LINE
8
BLACK
6
CONTINUOUS
10
132.747
20
-141.163
11
132.815
21
-141.197
0
LINE
8
BLACK
6
CONTINUOUS
10
132.815
20
-141.197
11
132.97
21
-141.197
0
LINE
8
BLACK
6
CONTINUOUS
10
132.97
20
-141.197
11
133.039
21
-141.163
0
LINE
8
BLACK
6
CONTINUOUS
10
133.039
20
-141.163
11
133.069
21
-141.133
0
LINE
8
BLACK
6
CONTINUOUS
10
133.069
20
-141.133
11
133.103
21
-141.064
0
LINE
8
BLACK
6
CONTINUOUS
10
133.103
20
-141.064
11
133.103
21
-140.862
0
LINE
8
BLACK
6
CONTINUOUS
10
133.103
20
-140.862
11
133.069
21
-140.793
0
LINE
8
BLACK
6
CONTINUOUS
10
133.069
20
-140.793
11
133.039
21
-140.763
0
LINE
8
BLACK
6
CONTINUOUS
10
133.039
20
-140.763
11
132.97
21
-140.728
0
LINE
8
BLACK
6
CONTINUOUS
10
132.97
20
-140.728
11
132.815
21
-140.728
0
LINE
8
BLACK
6
CONTINUOUS
10
131.915
20
-140.201
11
131.916
21
-140.201
0
LINE
8
BLACK
6
CONTINUOUS
10
131.916
20
-140.201
11
132.059
21
-140.249
0
LINE
8
BLACK
6
CONTINUOUS
10
132.059
20
-140.249
11
132.082
21
-140.261
0
LINE
8
BLACK
6
CONTINUOUS
10
132.082
20
-140.261
11
132.084
21
-140.265
0
LINE
8
BLACK
6
CONTINUOUS
10
132.084
20
-140.265
11
132.089
21
-140.267
0
LINE
8
BLACK
6
CONTINUOUS
10
132.089
20
-140.267
11
132.184
21
-140.362
0
LINE
8
BLACK
6
CONTINUOUS
10
132.184
20
-140.362
11
132.197
21
-140.381
0
LINE
8
BLACK
6
CONTINUOUS
10
132.197
20
-140.381
11
132.198
21
-140.382
0
LINE
8
BLACK
6
CONTINUOUS
10
132.198
20
-140.382
11
132.245
21
-140.477
0
LINE
8
BLACK
6
CONTINUOUS
10
132.245
20
-140.477
11
132.249
21
-140.489
0
LINE
8
BLACK
6
CONTINUOUS
10
132.249
20
-140.489
11
132.251
21
-140.492
0
LINE
8
BLACK
6
CONTINUOUS
10
132.251
20
-140.492
11
132.299
21
-140.683
0
LINE
8
BLACK
6
CONTINUOUS
10
132.299
20
-140.683
11
132.3
21
-140.698
0
LINE
8
BLACK
6
CONTINUOUS
10
132.3
20
-140.698
11
132.301
21
-140.701
0
LINE
8
BLACK
6
CONTINUOUS
10
132.301
20
-140.701
11
132.301
21
-140.844
0
LINE
8
BLACK
6
CONTINUOUS
10
132.301
20
-140.844
11
132.298
21
-140.859
0
LINE
8
BLACK
6
CONTINUOUS
10
132.298
20
-140.859
11
132.299
21
-140.862
0
LINE
8
BLACK
6
CONTINUOUS
10
132.299
20
-140.862
11
132.251
21
-141.052
0
LINE
8
BLACK
6
CONTINUOUS
10
132.251
20
-141.052
11
132.246
21
-141.064
0
LINE
8
BLACK
6
CONTINUOUS
10
132.246
20
-141.064
11
132.245
21
-141.068
0
LINE
8
BLACK
6
CONTINUOUS
10
132.245
20
-141.068
11
132.198
21
-141.163
0
LINE
8
BLACK
6
CONTINUOUS
10
132.198
20
-141.163
11
132.184
21
-141.181
0
LINE
8
BLACK
6
CONTINUOUS
10
132.184
20
-141.181
11
132.184
21
-141.183
0
LINE
8
BLACK
6
CONTINUOUS
10
132.184
20
-141.183
11
132.089
21
-141.278
0
LINE
8
BLACK
6
CONTINUOUS
10
132.089
20
-141.278
11
132.067
21
-141.293
0
LINE
8
BLACK
6
CONTINUOUS
10
132.067
20
-141.293
11
132.063
21
-141.293
0
LINE
8
BLACK
6
CONTINUOUS
10
132.063
20
-141.293
11
132.059
21
-141.296
0
LINE
8
BLACK
6
CONTINUOUS
10
132.059
20
-141.296
11
131.916
21
-141.344
0
LINE
8
BLACK
6
CONTINUOUS
10
131.916
20
-141.344
11
131.894
21
-141.347
0
LINE
8
BLACK
6
CONTINUOUS
10
131.894
20
-141.347
11
131.893
21
-141.347
0
LINE
8
BLACK
6
CONTINUOUS
10
131.893
20
-141.347
11
131.655
21
-141.347
0
LINE
8
BLACK
6
CONTINUOUS
10
131.655
20
-141.347
11
131.645
21
-141.346
0
LINE
8
BLACK
6
CONTINUOUS
10
131.645
20
-141.346
11
131.641
21
-141.346
0
LINE
8
BLACK
6
CONTINUOUS
10
131.641
20
-141.346
11
131.639
21
-141.345
0
LINE
8
BLACK
6
CONTINUOUS
10
131.639
20
-141.345
11
131.629
21
-141.343
0
LINE
8
BLACK
6
CONTINUOUS
10
131.629
20
-141.343
11
131.614
21
-141.33
0
LINE
8
BLACK
6
CONTINUOUS
10
131.614
20
-141.33
11
131.597
21
-141.321
0
LINE
8
BLACK
6
CONTINUOUS
10
131.597
20
-141.321
11
131.595
21
-141.314
0
LINE
8
BLACK
6
CONTINUOUS
10
131.595
20
-141.314
11
131.59
21
-141.31
0
LINE
8
BLACK
6
CONTINUOUS
10
131.59
20
-141.31
11
131.586
21
-141.291
0
LINE
8
BLACK
6
CONTINUOUS
10
131.586
20
-141.291
11
131.58
21
-141.272
0
LINE
8
BLACK
6
CONTINUOUS
10
131.58
20
-141.272
11
131.58
21
-140.272
0
LINE
8
BLACK
6
CONTINUOUS
10
131.58
20
-140.272
11
131.581
21
-140.263
0
LINE
8
BLACK
6
CONTINUOUS
10
131.581
20
-140.263
11
131.581
21
-140.259
0
LINE
8
BLACK
6
CONTINUOUS
10
131.581
20
-140.259
11
131.582
21
-140.256
0
LINE
8
BLACK
6
CONTINUOUS
10
131.582
20
-140.256
11
131.584
21
-140.247
0
LINE
8
BLACK
6
CONTINUOUS
10
131.584
20
-140.247
11
131.597
21
-140.232
0
LINE
8
BLACK
6
CONTINUOUS
10
131.597
20
-140.232
11
131.606
21
-140.215
0
LINE
8
BLACK
6
CONTINUOUS
10
131.606
20
-140.215
11
131.613
21
-140.213
0
LINE
8
BLACK
6
CONTINUOUS
10
131.613
20
-140.213
11
131.617
21
-140.207
0
LINE
8
BLACK
6
CONTINUOUS
10
131.617
20
-140.207
11
131.636
21
-140.204
0
LINE
8
BLACK
6
CONTINUOUS
10
131.636
20
-140.204
11
131.655
21
-140.197
0
LINE
8
BLACK
6
CONTINUOUS
10
131.655
20
-140.197
11
131.893
21
-140.197
0
LINE
8
BLACK
6
CONTINUOUS
10
131.893
20
-140.197
11
131.915
21
-140.201
0
LINE
8
BLACK
6
CONTINUOUS
10
131.73
20
-140.347
11
131.73
21
-141.197
0
LINE
8
BLACK
6
CONTINUOUS
10
131.73
20
-141.197
11
131.88
21
-141.197
0
LINE
8
BLACK
6
CONTINUOUS
10
131.88
20
-141.197
11
131.995
21
-141.159
0
LINE
8
BLACK
6
CONTINUOUS
10
131.995
20
-141.159
11
132.069
21
-141.085
0
LINE
8
BLACK
6
CONTINUOUS
10
132.069
20
-141.085
11
132.108
21
-141.008
0
LINE
8
BLACK
6
CONTINUOUS
10
132.108
20
-141.008
11
132.151
21
-140.835
0
LINE
8
BLACK
6
CONTINUOUS
10
132.151
20
-140.835
11
132.151
21
-140.71
0
LINE
8
BLACK
6
CONTINUOUS
10
132.151
20
-140.71
11
132.108
21
-140.537
0
LINE
8
BLACK
6
CONTINUOUS
10
132.108
20
-140.537
11
132.069
21
-140.46
0
LINE
8
BLACK
6
CONTINUOUS
10
132.069
20
-140.46
11
131.995
21
-140.386
0
LINE
8
BLACK
6
CONTINUOUS
10
131.995
20
-140.386
11
131.88
21
-140.347
0
LINE
8
BLACK
6
CONTINUOUS
10
131.88
20
-140.347
11
131.73
21
-140.347
0
LINE
8
BLACK
6
CONTINUOUS
10
133.918
20
-140.202
11
133.922
21
-140.205
0
LINE
8
BLACK
6
CONTINUOUS
10
133.922
20
-140.205
11
133.926
21
-140.205
0
LINE
8
BLACK
6
CONTINUOUS
10
133.926
20
-140.205
11
134.021
21
-140.253
0
LINE
8
BLACK
6
CONTINUOUS
10
134.021
20
-140.253
11
134.039
21
-140.266
0
LINE
8
BLACK
6
CONTINUOUS
10
134.039
20
-140.266
11
134.041
21
-140.267
0
LINE
8
BLACK
6
CONTINUOUS
10
134.041
20
-140.267
11
134.089
21
-140.315
0
LINE
8
BLACK
6
CONTINUOUS
10
134.089
20
-140.315
11
134.101
21
-140.333
0
LINE
8
BLACK
6
CONTINUOUS
10
134.101
20
-140.333
11
134.103
21
-140.334
0
LINE
8
BLACK
6
CONTINUOUS
10
134.103
20
-140.334
11
134.15
21
-140.429
0
LINE
8
BLACK
6
CONTINUOUS
10
134.15
20
-140.429
11
134.154
21
-140.442
0
LINE
8
BLACK
6
CONTINUOUS
10
134.154
20
-140.442
11
134.156
21
-140.445
0
LINE
8
BLACK
6
CONTINUOUS
10
134.156
20
-140.445
11
134.203
21
-140.635
0
LINE
8
BLACK
6
CONTINUOUS
10
134.203
20
-140.635
11
134.205
21
-140.65
0
LINE
8
BLACK
6
CONTINUOUS
10
134.205
20
-140.65
11
134.206
21
-140.653
0
LINE
8
BLACK
6
CONTINUOUS
10
134.206
20
-140.653
11
134.206
21
-140.891
0
LINE
8
BLACK
6
CONTINUOUS
10
134.206
20
-140.891
11
134.203
21
-140.906
0
LINE
8
BLACK
6
CONTINUOUS
10
134.203
20
-140.906
11
134.203
21
-140.91
0
LINE
8
BLACK
6
CONTINUOUS
10
134.203
20
-140.91
11
134.156
21
-141.1
0
LINE
8
BLACK
6
CONTINUOUS
10
134.156
20
-141.1
11
134.151
21
-141.112
0
LINE
8
BLACK
6
CONTINUOUS
10
134.151
20
-141.112
11
134.15
21
-141.115
0
LINE
8
BLACK
6
CONTINUOUS
10
134.15
20
-141.115
11
134.103
21
-141.211
0
LINE
8
BLACK
6
CONTINUOUS
10
134.103
20
-141.211
11
134.089
21
-141.229
0
LINE
8
BLACK
6
CONTINUOUS
10
134.089
20
-141.229
11
134.089
21
-141.23
0
LINE
8
BLACK
6
CONTINUOUS
10
134.089
20
-141.23
11
134.041
21
-141.278
0
LINE
8
BLACK
6
CONTINUOUS
10
134.041
20
-141.278
11
134.023
21
-141.291
0
LINE
8
BLACK
6
CONTINUOUS
10
134.023
20
-141.291
11
134.021
21
-141.292
0
LINE
8
BLACK
6
CONTINUOUS
10
134.021
20
-141.292
11
133.926
21
-141.339
0
LINE
8
BLACK
6
CONTINUOUS
10
133.926
20
-141.339
11
133.901
21
-141.347
0
LINE
8
BLACK
6
CONTINUOUS
10
133.901
20
-141.347
11
133.897
21
-141.346
0
LINE
8
BLACK
6
CONTINUOUS
10
133.897
20
-141.346
11
133.893
21
-141.347
0
LINE
8
BLACK
6
CONTINUOUS
10
133.893
20
-141.347
11
133.797
21
-141.347
0
LINE
8
BLACK
6
CONTINUOUS
10
133.797
20
-141.347
11
133.772
21
-141.343
0
LINE
8
BLACK
6
CONTINUOUS
10
133.772
20
-141.343
11
133.768
21
-141.34
0
LINE
8
BLACK
6
CONTINUOUS
10
133.768
20
-141.34
11
133.764
21
-141.339
0
LINE
8
BLACK
6
CONTINUOUS
10
133.764
20
-141.339
11
133.669
21
-141.292
0
LINE
8
BLACK
6
CONTINUOUS
10
133.669
20
-141.292
11
133.651
21
-141.278
0
LINE
8
BLACK
6
CONTINUOUS
10
133.651
20
-141.278
11
133.649
21
-141.278
0
LINE
8
BLACK
6
CONTINUOUS
10
133.649
20
-141.278
11
133.601
21
-141.23
0
LINE
8
BLACK
6
CONTINUOUS
10
133.601
20
-141.23
11
133.589
21
-141.212
0
LINE
8
BLACK
6
CONTINUOUS
10
133.589
20
-141.212
11
133.587
21
-141.211
0
LINE
8
BLACK
6
CONTINUOUS
10
133.587
20
-141.211
11
133.54
21
-141.115
0
LINE
8
BLACK
6
CONTINUOUS
10
133.54
20
-141.115
11
133.536
21
-141.103
0
LINE
8
BLACK
6
CONTINUOUS
10
133.536
20
-141.103
11
133.534
21
-141.1
0
LINE
8
BLACK
6
CONTINUOUS
10
133.534
20
-141.1
11
133.487
21
-140.91
0
LINE
8
BLACK
6
CONTINUOUS
10
133.487
20
-140.91
11
133.485
21
-140.895
0
LINE
8
BLACK
6
CONTINUOUS
10
133.485
20
-140.895
11
133.484
21
-140.891
0
LINE
8
BLACK
6
CONTINUOUS
10
133.484
20
-140.891
11
133.484
21
-140.653
0
LINE
8
BLACK
6
CONTINUOUS
10
133.484
20
-140.653
11
133.487
21
-140.639
0
LINE
8
BLACK
6
CONTINUOUS
10
133.487
20
-140.639
11
133.487
21
-140.635
0
LINE
8
BLACK
6
CONTINUOUS
10
133.487
20
-140.635
11
133.534
21
-140.445
0
LINE
8
BLACK
6
CONTINUOUS
10
133.534
20
-140.445
11
133.539
21
-140.433
0
LINE
8
BLACK
6
CONTINUOUS
10
133.539
20
-140.433
11
133.54
21
-140.429
0
LINE
8
BLACK
6
CONTINUOUS
10
133.54
20
-140.429
11
133.587
21
-140.334
0
LINE
8
BLACK
6
CONTINUOUS
10
133.587
20
-140.334
11
133.601
21
-140.316
0
LINE
8
BLACK
6
CONTINUOUS
10
133.601
20
-140.316
11
133.601
21
-140.315
0
LINE
8
BLACK
6
CONTINUOUS
10
133.601
20
-140.315
11
133.649
21
-140.267
0
LINE
8
BLACK
6
CONTINUOUS
10
133.649
20
-140.267
11
133.667
21
-140.254
0
LINE
8
BLACK
6
CONTINUOUS
10
133.667
20
-140.254
11
133.669
21
-140.253
0
LINE
8
BLACK
6
CONTINUOUS
10
133.669
20
-140.253
11
133.764
21
-140.205
0
LINE
8
BLACK
6
CONTINUOUS
10
133.764
20
-140.205
11
133.789
21
-140.198
0
LINE
8
BLACK
6
CONTINUOUS
10
133.789
20
-140.198
11
133.793
21
-140.199
0
LINE
8
BLACK
6
CONTINUOUS
10
133.793
20
-140.199
11
133.797
21
-140.197
0
LINE
8
BLACK
6
CONTINUOUS
10
133.797
20
-140.197
11
133.893
21
-140.197
0
LINE
8
BLACK
6
CONTINUOUS
10
133.893
20
-140.197
11
133.918
21
-140.202
0
LINE
8
BLACK
6
CONTINUOUS
10
133.815
20
-140.347
11
133.747
21
-140.382
0
LINE
8
BLACK
6
CONTINUOUS
10
133.747
20
-140.382
11
133.716
21
-140.412
0
LINE
8
BLACK
6
CONTINUOUS
10
133.716
20
-140.412
11
133.678
21
-140.489
0
LINE
8
BLACK
6
CONTINUOUS
10
133.678
20
-140.489
11
133.634
21
-140.663
0
LINE
8
BLACK
6
CONTINUOUS
10
133.634
20
-140.663
11
133.634
21
-140.882
0
LINE
8
BLACK
6
CONTINUOUS
10
133.634
20
-140.882
11
133.678
21
-141.056
0
LINE
8
BLACK
6
CONTINUOUS
10
133.678
20
-141.056
11
133.716
21
-141.133
0
LINE
8
BLACK
6
CONTINUOUS
10
133.716
20
-141.133
11
133.747
21
-141.163
0
LINE
8
BLACK
6
CONTINUOUS
10
133.747
20
-141.163
11
133.815
21
-141.197
0
LINE
8
BLACK
6
CONTINUOUS
10
133.815
20
-141.197
11
133.875
21
-141.197
0
LINE
8
BLACK
6
CONTINUOUS
10
133.875
20
-141.197
11
133.943
21
-141.163
0
LINE
8
BLACK
6
CONTINUOUS
10
133.943
20
-141.163
11
133.974
21
-141.133
0
LINE
8
BLACK
6
CONTINUOUS
10
133.974
20
-141.133
11
134.012
21
-141.056
0
LINE
8
BLACK
6
CONTINUOUS
10
134.012
20
-141.056
11
134.056
21
-140.882
0
LINE
8
BLACK
6
CONTINUOUS
10
134.056
20
-140.882
11
134.056
21
-140.663
0
LINE
8
BLACK
6
CONTINUOUS
10
134.056
20
-140.663
11
134.012
21
-140.489
0
LINE
8
BLACK
6
CONTINUOUS
10
134.012
20
-140.489
11
133.974
21
-140.412
0
LINE
8
BLACK
6
CONTINUOUS
10
133.974
20
-140.412
11
133.943
21
-140.382
0
LINE
8
BLACK
6
CONTINUOUS
10
133.943
20
-140.382
11
133.875
21
-140.347
0
LINE
8
BLACK
6
CONTINUOUS
10
133.875
20
-140.347
11
133.815
21
-140.347
0
LINE
8
BLACK
6
CONTINUOUS
10
132.878
20
-128.702
11
132.86
21
-128.66
0
LINE
8
BLACK
6
CONTINUOUS
10
132.86
20
-128.66
11
132.878
21
-128.618
0
LINE
8
BLACK
6
CONTINUOUS
10
132.878
20
-128.618
11
132.92
21
-128.6
0
LINE
8
BLACK
6
CONTINUOUS
10
132.92
20
-128.6
11
134.35
21
-128.6
0
LINE
8
BLACK
6
CONTINUOUS
10
134.35
20
-128.6
11
134.35
21
-123.94
0
LINE
8
BLACK
6
CONTINUOUS
10
134.35
20
-123.94
11
134.368
21
-123.898
0
LINE
8
BLACK
6
CONTINUOUS
10
134.368
20
-123.898
11
134.41
21
-123.88
0
LINE
8
BLACK
6
CONTINUOUS
10
134.41
20
-123.88
11
134.452
21
-123.898
0
LINE
8
BLACK
6
CONTINUOUS
10
134.452
20
-123.898
11
134.47
21
-123.94
0
LINE
8
BLACK
6
CONTINUOUS
10
134.47
20
-123.94
11
134.47
21
-128.66
0
LINE
8
BLACK
6
CONTINUOUS
10
134.47
20
-128.66
11
134.452
21
-128.702
0
LINE
8
BLACK
6
CONTINUOUS
10
134.452
20
-128.702
11
134.41
21
-128.72
0
LINE
8
BLACK
6
CONTINUOUS
10
134.41
20
-128.72
11
132.92
21
-128.72
0
LINE
8
BLACK
6
CONTINUOUS
10
132.92
20
-128.72
11
132.878
21
-128.702
0
LINE
8
BLACK
6
CONTINUOUS
10
124.702
20
-123.898
11
124.72
21
-123.94
0
LINE
8
BLACK
6
CONTINUOUS
10
124.72
20
-123.94
11
124.72
21
-128.6
0
LINE
8
BLACK
6
CONTINUOUS
10
124.72
20
-128.6
11
125.85
21
-128.6
0
LINE
8
BLACK
6
CONTINUOUS
10
125.85
20
-128.6
11
125.892
21
-128.618
0
LINE
8
BLACK
6
CONTINUOUS
10
125.892
20
-128.618
11
125.91
21
-128.66
0
LINE
8
BLACK
6
CONTINUOUS
10
125.91
20
-128.66
11
125.892
21
-128.702
0
LINE
8
BLACK
6
CONTINUOUS
10
125.892
20
-128.702
11
125.85
21
-128.72
0
LINE
8
BLACK
6
CONTINUOUS
10
125.85
20
-128.72
11
124.67
21
-128.72
0
LINE
8
BLACK
6
CONTINUOUS
10
124.67
20
-128.72
11
124.665
21
-128.718
0
LINE
8
BLACK
6
CONTINUOUS
10
124.665
20
-128.718
11
124.66
21
-128.72
0
LINE
8
BLACK
6
CONTINUOUS
10
124.66
20
-128.72
11
124.618
21
-128.702
0
LINE
8
BLACK
6
CONTINUOUS
10
124.618
20
-128.702
11
124.6
21
-128.66
0
LINE
8
BLACK
6
CONTINUOUS
10
124.6
20
-128.66
11
124.6
21
-123.94
0
LINE
8
BLACK
6
CONTINUOUS
10
124.6
20
-123.94
11
124.618
21
-123.898
0
LINE
8
BLACK
6
CONTINUOUS
10
124.618
20
-123.898
11
124.66
21
-123.88
0
LINE
8
BLACK
6
CONTINUOUS
10
124.66
20
-123.88
11
124.702
21
-123.898
0
LINE
8
BLACK
6
CONTINUOUS
10
128.792
20
-128.618
11
128.81
21
-128.66
0
LINE
8
BLACK
6
CONTINUOUS
10
128.81
20
-128.66
11
128.792
21
-128.702
0
LINE
8
BLACK
6
CONTINUOUS
10
128.792
20
-128.702
11
128.75
21
-128.72
0
LINE
8
BLACK
6
CONTINUOUS
10
128.75
20
-128.72
11
128.22
21
-128.72
0
LINE
8
BLACK
6
CONTINUOUS
10
128.22
20
-128.72
11
128.178
21
-128.702
0
LINE
8
BLACK
6
CONTINUOUS
10
128.178
20
-128.702
11
128.16
21
-128.66
0
LINE
8
BLACK
6
CONTINUOUS
10
128.16
20
-128.66
11
128.178
21
-128.618
0
LINE
8
BLACK
6
CONTINUOUS
10
128.178
20
-128.618
11
128.22
21
-128.6
0
LINE
8
BLACK
6
CONTINUOUS
10
128.22
20
-128.6
11
128.75
21
-128.6
0
LINE
8
BLACK
6
CONTINUOUS
10
128.75
20
-128.6
11
128.792
21
-128.618
0
LINE
8
BLACK
6
CONTINUOUS
10
131.242
20
-128.618
11
131.26
21
-128.66
0
LINE
8
BLACK
6
CONTINUOUS
10
131.26
20
-128.66
11
131.242
21
-128.702
0
LINE
8
BLACK
6
CONTINUOUS
10
131.242
20
-128.702
11
131.2
21
-128.72
0
LINE
8
BLACK
6
CONTINUOUS
10
131.2
20
-128.72
11
130.37
21
-128.72
0
LINE
8
BLACK
6
CONTINUOUS
10
130.37
20
-128.72
11
130.328
21
-128.702
0
LINE
8
BLACK
6
CONTINUOUS
10
130.328
20
-128.702
11
130.31
21
-128.66
0
LINE
8
BLACK
6
CONTINUOUS
10
130.31
20
-128.66
11
130.328
21
-128.618
0
LINE
8
BLACK
6
CONTINUOUS
10
130.328
20
-128.618
11
130.37
21
-128.6
0
LINE
8
BLACK
6
CONTINUOUS
10
130.37
20
-128.6
11
131.2
21
-128.6
0
LINE
8
BLACK
6
CONTINUOUS
10
131.2
20
-128.6
11
131.242
21
-128.618
0
LINE
8
BLACK
6
CONTINUOUS
10
122.211
20
-124.307
11
122.215
21
-124.31
0
LINE
8
BLACK
6
CONTINUOUS
10
122.215
20
-124.31
11
122.219
21
-124.311
0
LINE
8
BLACK
6
CONTINUOUS
10
122.219
20
-124.311
11
122.314
21
-124.358
0
LINE
8
BLACK
6
CONTINUOUS
10
122.314
20
-124.358
11
122.333
21
-124.372
0
LINE
8
BLACK
6
CONTINUOUS
10
122.333
20
-124.372
11
122.334
21
-124.372
0
LINE
8
BLACK
6
CONTINUOUS
10
122.334
20
-124.372
11
122.382
21
-124.42
0
LINE
8
BLACK
6
CONTINUOUS
10
122.382
20
-124.42
11
122.394
21
-124.438
0
LINE
8
BLACK
6
CONTINUOUS
10
122.394
20
-124.438
11
122.396
21
-124.439
0
LINE
8
BLACK
6
CONTINUOUS
10
122.396
20
-124.439
11
122.443
21
-124.535
0
LINE
8
BLACK
6
CONTINUOUS
10
122.443
20
-124.535
11
122.451
21
-124.56
0
LINE
8
BLACK
6
CONTINUOUS
10
122.451
20
-124.56
11
122.45
21
-124.564
0
LINE
8
BLACK
6
CONTINUOUS
10
122.45
20
-124.564
11
122.451
21
-124.567
0
LINE
8
BLACK
6
CONTINUOUS
10
122.451
20
-124.567
11
122.809
21
-124.316
0
LINE
8
BLACK
6
CONTINUOUS
10
122.809
20
-124.316
11
122.833
21
-124.305
0
LINE
8
BLACK
6
CONTINUOUS
10
122.833
20
-124.305
11
122.884
21
-124.31
0
LINE
8
BLACK
6
CONTINUOUS
10
122.884
20
-124.31
11
122.92
21
-124.346
0
LINE
8
BLACK
6
CONTINUOUS
10
122.92
20
-124.346
11
122.925
21
-124.397
0
LINE
8
BLACK
6
CONTINUOUS
10
122.925
20
-124.397
11
122.895
21
-124.439
0
LINE
8
BLACK
6
CONTINUOUS
10
122.895
20
-124.439
11
122.451
21
-124.75
0
LINE
8
BLACK
6
CONTINUOUS
10
122.451
20
-124.75
11
122.451
21
-124.874
0
LINE
8
BLACK
6
CONTINUOUS
10
122.451
20
-124.874
11
122.852
21
-124.874
0
LINE
8
BLACK
6
CONTINUOUS
10
122.852
20
-124.874
11
122.878
21
-124.879
0
LINE
8
BLACK
6
CONTINUOUS
10
122.878
20
-124.879
11
122.917
21
-124.912
0
LINE
8
BLACK
6
CONTINUOUS
10
122.917
20
-124.912
11
122.926
21
-124.962
0
LINE
8
BLACK
6
CONTINUOUS
10
122.926
20
-124.962
11
122.901
21
-125.006
0
LINE
8
BLACK
6
CONTINUOUS
10
122.901
20
-125.006
11
122.852
21
-125.024
0
LINE
8
BLACK
6
CONTINUOUS
10
122.852
20
-125.024
11
121.852
21
-125.024
0
LINE
8
BLACK
6
CONTINUOUS
10
121.852
20
-125.024
11
121.843
21
-125.022
0
LINE
8
BLACK
6
CONTINUOUS
10
121.843
20
-125.022
11
121.839
21
-125.023
0
LINE
8
BLACK
6
CONTINUOUS
10
121.839
20
-125.023
11
121.836
21
-125.021
0
LINE
8
BLACK
6
CONTINUOUS
10
121.836
20
-125.021
11
121.827
21
-125.02
0
LINE
8
BLACK
6
CONTINUOUS
10
121.827
20
-125.02
11
121.812
21
-125.007
0
LINE
8
BLACK
6
CONTINUOUS
10
121.812
20
-125.007
11
121.795
21
-124.997
0
LINE
8
BLACK
6
CONTINUOUS
10
121.795
20
-124.997
11
121.793
21
-124.991
0
LINE
8
BLACK
6
CONTINUOUS
10
121.793
20
-124.991
11
121.787
21
-124.987
0
LINE
8
BLACK
6
CONTINUOUS
10
121.787
20
-124.987
11
121.784
21
-124.967
0
LINE
8
BLACK
6
CONTINUOUS
10
121.784
20
-124.967
11
121.777
21
-124.949
0
LINE
8
BLACK
6
CONTINUOUS
10
121.777
20
-124.949
11
121.777
21
-124.568
0
LINE
8
BLACK
6
CONTINUOUS
10
121.777
20
-124.568
11
121.782
21
-124.542
0
LINE
8
BLACK
6
CONTINUOUS
10
121.782
20
-124.542
11
121.785
21
-124.539
0
LINE
8
BLACK
6
CONTINUOUS
10
121.785
20
-124.539
11
121.785
21
-124.535
0
LINE
8
BLACK
6
CONTINUOUS
10
121.785
20
-124.535
11
121.833
21
-124.439
0
LINE
8
BLACK
6
CONTINUOUS
10
121.833
20
-124.439
11
121.846
21
-124.421
0
LINE
8
BLACK
6
CONTINUOUS
10
121.846
20
-124.421
11
121.847
21
-124.42
0
LINE
8
BLACK
6
CONTINUOUS
10
121.847
20
-124.42
11
121.895
21
-124.372
0
LINE
8
BLACK
6
CONTINUOUS
10
121.895
20
-124.372
11
121.913
21
-124.359
0
LINE
8
BLACK
6
CONTINUOUS
10
121.913
20
-124.359
11
121.914
21
-124.358
0
LINE
8
BLACK
6
CONTINUOUS
10
121.914
20
-124.358
11
122.009
21
-124.311
0
LINE
8
BLACK
6
CONTINUOUS
10
122.009
20
-124.311
11
122.034
21
-124.303
0
LINE
8
BLACK
6
CONTINUOUS
10
122.034
20
-124.303
11
122.039
21
-124.304
0
LINE
8
BLACK
6
CONTINUOUS
10
122.039
20
-124.304
11
122.043
21
-124.303
0
LINE
8
BLACK
6
CONTINUOUS
10
122.043
20
-124.303
11
122.186
21
-124.303
0
LINE
8
BLACK
6
CONTINUOUS
10
122.186
20
-124.303
11
122.211
21
-124.307
0
LINE
8
BLACK
6
CONTINUOUS
10
122.061
20
-124.453
11
121.992
21
-124.487
0
LINE
8
BLACK
6
CONTINUOUS
10
121.992
20
-124.487
11
121.962
21
-124.517
0
LINE
8
BLACK
6
CONTINUOUS
10
121.962
20
-124.517
11
121.927
21
-124.586
0
LINE
8
BLACK
6
CONTINUOUS
10
121.927
20
-124.586
11
121.927
21
-124.874
0
LINE
8
BLACK
6
CONTINUOUS
10
121.927
20
-124.874
11
122.301
21
-124.874
0
LINE
8
BLACK
6
CONTINUOUS
10
122.301
20
-124.874
11
122.301
21
-124.586
0
LINE
8
BLACK
6
CONTINUOUS
10
122.301
20
-124.586
11
122.267
21
-124.517
0
LINE
8
BLACK
6
CONTINUOUS
10
122.267
20
-124.517
11
122.237
21
-124.487
0
LINE
8
BLACK
6
CONTINUOUS
10
122.237
20
-124.487
11
122.168
21
-124.453
0
LINE
8
BLACK
6
CONTINUOUS
10
122.168
20
-124.453
11
122.061
21
-124.453
0
LINE
8
BLACK
6
CONTINUOUS
10
122.876
20
-123.687
11
122.899
21
-123.7
0
LINE
8
BLACK
6
CONTINUOUS
10
122.899
20
-123.7
11
122.9
21
-123.702
0
LINE
8
BLACK
6
CONTINUOUS
10
122.9
20
-123.702
11
122.902
21
-123.702
0
LINE
8
BLACK
6
CONTINUOUS
10
122.902
20
-123.702
11
122.913
21
-123.723
0
LINE
8
BLACK
6
CONTINUOUS
10
122.913
20
-123.723
11
122.926
21
-123.744
0
LINE
8
BLACK
6
CONTINUOUS
10
122.926
20
-123.744
11
122.926
21
-123.746
0
LINE
8
BLACK
6
CONTINUOUS
10
122.926
20
-123.746
11
122.927
21
-123.748
0
LINE
8
BLACK
6
CONTINUOUS
10
122.927
20
-123.748
11
122.922
21
-123.771
0
LINE
8
BLACK
6
CONTINUOUS
10
122.922
20
-123.771
11
122.918
21
-123.794
0
LINE
8
BLACK
6
CONTINUOUS
10
122.918
20
-123.794
11
122.917
21
-123.796
0
LINE
8
BLACK
6
CONTINUOUS
10
122.917
20
-123.796
11
122.916
21
-123.798
0
LINE
8
BLACK
6
CONTINUOUS
10
122.916
20
-123.798
11
122.898
21
-123.813
0
LINE
8
BLACK
6
CONTINUOUS
10
122.898
20
-123.813
11
122.88
21
-123.828
0
LINE
8
BLACK
6
CONTINUOUS
10
122.88
20
-123.828
11
122.878
21
-123.828
0
LINE
8
BLACK
6
CONTINUOUS
10
122.878
20
-123.828
11
122.876
21
-123.83
0
LINE
8
BLACK
6
CONTINUOUS
10
122.876
20
-123.83
11
121.876
21
-124.163
0
LINE
8
BLACK
6
CONTINUOUS
10
121.876
20
-124.163
11
121.85
21
-124.167
0
LINE
8
BLACK
6
CONTINUOUS
10
121.85
20
-124.167
11
121.803
21
-124.148
0
LINE
8
BLACK
6
CONTINUOUS
10
121.803
20
-124.148
11
121.778
21
-124.103
0
LINE
8
BLACK
6
CONTINUOUS
10
121.778
20
-124.103
11
121.788
21
-124.053
0
LINE
8
BLACK
6
CONTINUOUS
10
121.788
20
-124.053
11
121.829
21
-124.021
0
LINE
8
BLACK
6
CONTINUOUS
10
121.829
20
-124.021
11
122.615
21
-123.759
0
LINE
8
BLACK
6
CONTINUOUS
10
122.615
20
-123.759
11
121.829
21
-123.496
0
LINE
8
BLACK
6
CONTINUOUS
10
121.829
20
-123.496
11
121.806
21
-123.484
0
LINE
8
BLACK
6
CONTINUOUS
10
121.806
20
-123.484
11
121.779
21
-123.44
0
LINE
8
BLACK
6
CONTINUOUS
10
121.779
20
-123.44
11
121.786
21
-123.39
0
LINE
8
BLACK
6
CONTINUOUS
10
121.786
20
-123.39
11
121.825
21
-123.355
0
LINE
8
BLACK
6
CONTINUOUS
10
121.825
20
-123.355
11
121.876
21
-123.354
0
LINE
8
BLACK
6
CONTINUOUS
10
121.876
20
-123.354
11
122.876
21
-123.687
0
LINE
8
BLACK
6
CONTINUOUS
10
122.16
20
-122.497
11
122.162
21
-122.497
0
LINE
8
BLACK
6
CONTINUOUS
10
122.162
20
-122.497
11
122.305
21
-122.545
0
LINE
8
BLACK
6
CONTINUOUS
10
122.305
20
-122.545
11
122.328
21
-122.557
0
LINE
8
BLACK
6
CONTINUOUS
10
122.328
20
-122.557
11
122.33
21
-122.561
0
LINE
8
BLACK
6
CONTINUOUS
10
122.33
20
-122.561
11
122.334
21
-122.563
0
LINE
8
BLACK
6
CONTINUOUS
10
122.334
20
-122.563
11
122.777
21
-123.006
0
LINE
8
BLACK
6
CONTINUOUS
10
122.777
20
-123.006
11
122.777
21
-122.568
0
LINE
8
BLACK
6
CONTINUOUS
10
122.777
20
-122.568
11
122.782
21
-122.542
0
LINE
8
BLACK
6
CONTINUOUS
10
122.782
20
-122.542
11
122.815
21
-122.503
0
LINE
8
BLACK
6
CONTINUOUS
10
122.815
20
-122.503
11
122.865
21
-122.494
0
LINE
8
BLACK
6
CONTINUOUS
10
122.865
20
-122.494
11
122.91
21
-122.52
0
LINE
8
BLACK
6
CONTINUOUS
10
122.91
20
-122.52
11
122.927
21
-122.568
0
LINE
8
BLACK
6
CONTINUOUS
10
122.927
20
-122.568
11
122.927
21
-123.187
0
LINE
8
BLACK
6
CONTINUOUS
10
122.927
20
-123.187
11
122.925
21
-123.203
0
LINE
8
BLACK
6
CONTINUOUS
10
122.925
20
-123.203
11
122.925
21
-123.207
0
LINE
8
BLACK
6
CONTINUOUS
10
122.925
20
-123.207
11
122.924
21
-123.208
0
LINE
8
BLACK
6
CONTINUOUS
10
122.924
20
-123.208
11
122.923
21
-123.213
0
LINE
8
BLACK
6
CONTINUOUS
10
122.923
20
-123.213
11
122.908
21
-123.23
0
LINE
8
BLACK
6
CONTINUOUS
10
122.908
20
-123.23
11
122.895
21
-123.249
0
LINE
8
BLACK
6
CONTINUOUS
10
122.895
20
-123.249
11
122.892
21
-123.249
0
LINE
8
BLACK
6
CONTINUOUS
10
122.892
20
-123.249
11
122.89
21
-123.252
0
LINE
8
BLACK
6
CONTINUOUS
10
122.89
20
-123.252
11
122.868
21
-123.256
0
LINE
8
BLACK
6
CONTINUOUS
10
122.868
20
-123.256
11
122.846
21
-123.262
0
LINE
8
BLACK
6
CONTINUOUS
10
122.846
20
-123.262
11
122.843
21
-123.26
0
LINE
8
BLACK
6
CONTINUOUS
10
122.843
20
-123.26
11
122.839
21
-123.261
0
LINE
8
BLACK
6
CONTINUOUS
10
122.839
20
-123.261
11
122.82
21
-123.25
0
LINE
8
BLACK
6
CONTINUOUS
10
122.82
20
-123.25
11
122.799
21
-123.24
0
LINE
8
BLACK
6
CONTINUOUS
10
122.799
20
-123.24
11
122.24
21
-122.681
0
LINE
8
BLACK
6
CONTINUOUS
10
122.24
20
-122.681
11
122.126
21
-122.643
0
LINE
8
BLACK
6
CONTINUOUS
10
122.126
20
-122.643
11
122.061
21
-122.643
0
LINE
8
BLACK
6
CONTINUOUS
10
122.061
20
-122.643
11
121.992
21
-122.677
0
LINE
8
BLACK
6
CONTINUOUS
10
121.992
20
-122.677
11
121.962
21
-122.708
0
LINE
8
BLACK
6
CONTINUOUS
10
121.962
20
-122.708
11
121.927
21
-122.776
0
LINE
8
BLACK
6
CONTINUOUS
10
121.927
20
-122.776
11
121.927
21
-122.979
0
LINE
8
BLACK
6
CONTINUOUS
10
121.927
20
-122.979
11
121.962
21
-123.047
0
LINE
8
BLACK
6
CONTINUOUS
10
121.962
20
-123.047
11
122.001
21
-123.086
0
LINE
8
BLACK
6
CONTINUOUS
10
122.001
20
-123.086
11
122.016
21
-123.108
0
LINE
8
BLACK
6
CONTINUOUS
10
122.016
20
-123.108
11
122.02
21
-123.159
0
LINE
8
BLACK
6
CONTINUOUS
10
122.02
20
-123.159
11
121.991
21
-123.201
0
LINE
8
BLACK
6
CONTINUOUS
10
121.991
20
-123.201
11
121.941
21
-123.214
0
LINE
8
BLACK
6
CONTINUOUS
10
121.941
20
-123.214
11
121.895
21
-123.193
0
LINE
8
BLACK
6
CONTINUOUS
10
121.895
20
-123.193
11
121.847
21
-123.145
0
LINE
8
BLACK
6
CONTINUOUS
10
121.847
20
-123.145
11
121.834
21
-123.127
0
LINE
8
BLACK
6
CONTINUOUS
10
121.834
20
-123.127
11
121.833
21
-123.125
0
LINE
8
BLACK
6
CONTINUOUS
10
121.833
20
-123.125
11
121.785
21
-123.03
0
LINE
8
BLACK
6
CONTINUOUS
10
121.785
20
-123.03
11
121.778
21
-123.005
0
LINE
8
BLACK
6
CONTINUOUS
10
121.778
20
-123.005
11
121.779
21
-123.001
0
LINE
8
BLACK
6
CONTINUOUS
10
121.779
20
-123.001
11
121.777
21
-122.997
0
LINE
8
BLACK
6
CONTINUOUS
10
121.777
20
-122.997
11
121.777
21
-122.759
0
LINE
8
BLACK
6
CONTINUOUS
10
121.777
20
-122.759
11
121.782
21
-122.733
0
LINE
8
BLACK
6
CONTINUOUS
10
121.782
20
-122.733
11
121.785
21
-122.729
0
LINE
8
BLACK
6
CONTINUOUS
10
121.785
20
-122.729
11
121.785
21
-122.725
0
LINE
8
BLACK
6
CONTINUOUS
10
121.785
20
-122.725
11
121.833
21
-122.63
0
LINE
8
BLACK
6
CONTINUOUS
10
121.833
20
-122.63
11
121.846
21
-122.612
0
LINE
8
BLACK
6
CONTINUOUS
10
121.846
20
-122.612
11
121.847
21
-122.61
0
LINE
8
BLACK
6
CONTINUOUS
10
121.847
20
-122.61
11
121.895
21
-122.563
0
LINE
8
BLACK
6
CONTINUOUS
10
121.895
20
-122.563
11
121.913
21
-122.55
0
LINE
8
BLACK
6
CONTINUOUS
10
121.913
20
-122.55
11
121.914
21
-122.549
0
LINE
8
BLACK
6
CONTINUOUS
10
121.914
20
-122.549
11
122.009
21
-122.501
0
LINE
8
BLACK
6
CONTINUOUS
10
122.009
20
-122.501
11
122.034
21
-122.494
0
LINE
8
BLACK
6
CONTINUOUS
10
122.034
20
-122.494
11
122.039
21
-122.495
0
LINE
8
BLACK
6
CONTINUOUS
10
122.039
20
-122.495
11
122.043
21
-122.493
0
LINE
8
BLACK
6
CONTINUOUS
10
122.043
20
-122.493
11
122.138
21
-122.493
0
LINE
8
BLACK
6
CONTINUOUS
10
122.138
20
-122.493
11
122.16
21
-122.497
0
LINE
8
BLACK
6
CONTINUOUS
10
122.486
20
-121.543
11
122.49
21
-121.543
0
LINE
8
BLACK
6
CONTINUOUS
10
122.49
20
-121.543
11
122.68
21
-121.591
0
LINE
8
BLACK
6
CONTINUOUS
10
122.68
20
-121.591
11
122.692
21
-121.596
0
LINE
8
BLACK
6
CONTINUOUS
10
122.692
20
-121.596
11
122.695
21
-121.596
0
LINE
8
BLACK
6
CONTINUOUS
10
122.695
20
-121.596
11
122.791
21
-121.644
0
LINE
8
BLACK
6
CONTINUOUS
10
122.791
20
-121.644
11
122.809
21
-121.657
0
LINE
8
BLACK
6
CONTINUOUS
10
122.809
20
-121.657
11
122.81
21
-121.658
0
LINE
8
BLACK
6
CONTINUOUS
10
122.81
20
-121.658
11
122.858
21
-121.706
0
LINE
8
BLACK
6
CONTINUOUS
10
122.858
20
-121.706
11
122.871
21
-121.724
0
LINE
8
BLACK
6
CONTINUOUS
10
122.871
20
-121.724
11
122.872
21
-121.725
0
LINE
8
BLACK
6
CONTINUOUS
10
122.872
20
-121.725
11
122.919
21
-121.82
0
LINE
8
BLACK
6
CONTINUOUS
10
122.919
20
-121.82
11
122.927
21
-121.845
0
LINE
8
BLACK
6
CONTINUOUS
10
122.927
20
-121.845
11
122.926
21
-121.85
0
LINE
8
BLACK
6
CONTINUOUS
10
122.926
20
-121.85
11
122.927
21
-121.854
0
LINE
8
BLACK
6
CONTINUOUS
10
122.927
20
-121.854
11
122.927
21
-121.949
0
LINE
8
BLACK
6
CONTINUOUS
10
122.927
20
-121.949
11
122.923
21
-121.975
0
LINE
8
BLACK
6
CONTINUOUS
10
122.923
20
-121.975
11
122.92
21
-121.978
0
LINE
8
BLACK
6
CONTINUOUS
10
122.92
20
-121.978
11
122.919
21
-121.983
0
LINE
8
BLACK
6
CONTINUOUS
10
122.919
20
-121.983
11
122.872
21
-122.078
0
LINE
8
BLACK
6
CONTINUOUS
10
122.872
20
-122.078
11
122.858
21
-122.096
0
LINE
8
BLACK
6
CONTINUOUS
10
122.858
20
-122.096
11
122.858
21
-122.097
0
LINE
8
BLACK
6
CONTINUOUS
10
122.858
20
-122.097
11
122.81
21
-122.145
0
LINE
8
BLACK
6
CONTINUOUS
10
122.81
20
-122.145
11
122.792
21
-122.158
0
LINE
8
BLACK
6
CONTINUOUS
10
122.792
20
-122.158
11
122.791
21
-122.159
0
LINE
8
BLACK
6
CONTINUOUS
10
122.791
20
-122.159
11
122.695
21
-122.207
0
LINE
8
BLACK
6
CONTINUOUS
10
122.695
20
-122.207
11
122.683
21
-122.21
0
LINE
8
BLACK
6
CONTINUOUS
10
122.683
20
-122.21
11
122.68
21
-122.212
0
LINE
8
BLACK
6
CONTINUOUS
10
122.68
20
-122.212
11
122.49
21
-122.26
0
LINE
8
BLACK
6
CONTINUOUS
10
122.49
20
-122.26
11
122.475
21
-122.261
0
LINE
8
BLACK
6
CONTINUOUS
10
122.475
20
-122.261
11
122.471
21
-122.262
0
LINE
8
BLACK
6
CONTINUOUS
10
122.471
20
-122.262
11
122.233
21
-122.262
0
LINE
8
BLACK
6
CONTINUOUS
10
122.233
20
-122.262
11
122.219
21
-122.26
0
LINE
8
BLACK
6
CONTINUOUS
10
122.219
20
-122.26
11
122.215
21
-122.26
0
LINE
8
BLACK
6
CONTINUOUS
10
122.215
20
-122.26
11
122.025
21
-122.212
0
LINE
8
BLACK
6
CONTINUOUS
10
122.025
20
-122.212
11
122.013
21
-122.207
0
LINE
8
BLACK
6
CONTINUOUS
10
122.013
20
-122.207
11
122.009
21
-122.207
0
LINE
8
BLACK
6
CONTINUOUS
10
122.009
20
-122.207
11
121.914
21
-122.159
0
LINE
8
BLACK
6
CONTINUOUS
10
121.914
20
-122.159
11
121.896
21
-122.146
0
LINE
8
BLACK
6
CONTINUOUS
10
121.896
20
-122.146
11
121.895
21
-122.145
0
LINE
8
BLACK
6
CONTINUOUS
10
121.895
20
-122.145
11
121.847
21
-122.097
0
LINE
8
BLACK
6
CONTINUOUS
10
121.847
20
-122.097
11
121.834
21
-122.079
0
LINE
8
BLACK
6
CONTINUOUS
10
121.834
20
-122.079
11
121.833
21
-122.078
0
LINE
8
BLACK
6
CONTINUOUS
10
121.833
20
-122.078
11
121.785
21
-121.983
0
LINE
8
BLACK
6
CONTINUOUS
10
121.785
20
-121.983
11
121.778
21
-121.958
0
LINE
8
BLACK
6
CONTINUOUS
10
121.778
20
-121.958
11
121.779
21
-121.953
0
LINE
8
BLACK
6
CONTINUOUS
10
121.779
20
-121.953
11
121.777
21
-121.949
0
LINE
8
BLACK
6
CONTINUOUS
10
121.777
20
-121.949
11
121.777
21
-121.854
0
LINE
8
BLACK
6
CONTINUOUS
10
121.777
20
-121.854
11
121.782
21
-121.828
0
LINE
8
BLACK
6
CONTINUOUS
10
121.782
20
-121.828
11
121.785
21
-121.825
0
LINE
8
BLACK
6
CONTINUOUS
10
121.785
20
-121.825
11
121.785
21
-121.82
0
LINE
8
BLACK
6
CONTINUOUS
10
121.785
20
-121.82
11
121.833
21
-121.725
0
LINE
8
BLACK
6
CONTINUOUS
10
121.833
20
-121.725
11
121.846
21
-121.707
0
LINE
8
BLACK
6
CONTINUOUS
10
121.846
20
-121.707
11
121.847
21
-121.706
0
LINE
8
BLACK
6
CONTINUOUS
10
121.847
20
-121.706
11
121.895
21
-121.658
0
LINE
8
BLACK
6
CONTINUOUS
10
121.895
20
-121.658
11
121.913
21
-121.645
0
LINE
8
BLACK
6
CONTINUOUS
10
121.913
20
-121.645
11
121.914
21
-121.644
0
LINE
8
BLACK
6
CONTINUOUS
10
121.914
20
-121.644
11
122.009
21
-121.596
0
LINE
8
BLACK
6
CONTINUOUS
10
122.009
20
-121.596
11
122.022
21
-121.593
0
LINE
8
BLACK
6
CONTINUOUS
10
122.022
20
-121.593
11
122.025
21
-121.591
0
LINE
8
BLACK
6
CONTINUOUS
10
122.025
20
-121.591
11
122.215
21
-121.543
0
LINE
8
BLACK
6
CONTINUOUS
10
122.215
20
-121.543
11
122.23
21
-121.542
0
LINE
8
BLACK
6
CONTINUOUS
10
122.23
20
-121.542
11
122.233
21
-121.541
0
LINE
8
BLACK
6
CONTINUOUS
10
122.233
20
-121.541
11
122.471
21
-121.541
0
LINE
8
BLACK
6
CONTINUOUS
10
122.471
20
-121.541
11
122.486
21
-121.543
0
LINE
8
BLACK
6
CONTINUOUS
10
122.243
20
-121.691
11
122.069
21
-121.734
0
LINE
8
BLACK
6
CONTINUOUS
10
122.069
20
-121.734
11
121.992
21
-121.773
0
LINE
8
BLACK
6
CONTINUOUS
10
121.992
20
-121.773
11
121.962
21
-121.803
0
LINE
8
BLACK
6
CONTINUOUS
10
121.962
20
-121.803
11
121.927
21
-121.872
0
LINE
8
BLACK
6
CONTINUOUS
10
121.927
20
-121.872
11
121.927
21
-121.931
0
LINE
8
BLACK
6
CONTINUOUS
10
121.927
20
-121.931
11
121.962
21
-122
0
LINE
8
BLACK
6
CONTINUOUS
10
121.962
20
-122
11
121.992
21
-122.03
0
LINE
8
BLACK
6
CONTINUOUS
10
121.992
20
-122.03
11
122.069
21
-122.069
0
LINE
8
BLACK
6
CONTINUOUS
10
122.069
20
-122.069
11
122.243
21
-122.112
0
LINE
8
BLACK
6
CONTINUOUS
10
122.243
20
-122.112
11
122.462
21
-122.112
0
LINE
8
BLACK
6
CONTINUOUS
10
122.462
20
-122.112
11
122.636
21
-122.069
0
LINE
8
BLACK
6
CONTINUOUS
10
122.636
20
-122.069
11
122.713
21
-122.03
0
LINE
8
BLACK
6
CONTINUOUS
10
122.713
20
-122.03
11
122.743
21
-122
0
LINE
8
BLACK
6
CONTINUOUS
10
122.743
20
-122
11
122.777
21
-121.931
0
LINE
8
BLACK
6
CONTINUOUS
10
122.777
20
-121.931
11
122.777
21
-121.872
0
LINE
8
BLACK
6
CONTINUOUS
10
122.777
20
-121.872
11
122.743
21
-121.803
0
LINE
8
BLACK
6
CONTINUOUS
10
122.743
20
-121.803
11
122.713
21
-121.773
0
LINE
8
BLACK
6
CONTINUOUS
10
122.713
20
-121.773
11
122.636
21
-121.734
0
LINE
8
BLACK
6
CONTINUOUS
10
122.636
20
-121.734
11
122.462
21
-121.691
0
LINE
8
BLACK
6
CONTINUOUS
10
122.462
20
-121.691
11
122.243
21
-121.691
0
LINE
8
BLACK
6
CONTINUOUS
10
122.91
20
-120.615
11
122.927
21
-120.663
0
LINE
8
BLACK
6
CONTINUOUS
10
122.927
20
-120.663
11
122.927
21
-121.235
0
LINE
8
BLACK
6
CONTINUOUS
10
122.927
20
-121.235
11
122.923
21
-121.26
0
LINE
8
BLACK
6
CONTINUOUS
10
122.923
20
-121.26
11
122.89
21
-121.3
0
LINE
8
BLACK
6
CONTINUOUS
10
122.89
20
-121.3
11
122.839
21
-121.309
0
LINE
8
BLACK
6
CONTINUOUS
10
122.839
20
-121.309
11
122.795
21
-121.283
0
LINE
8
BLACK
6
CONTINUOUS
10
122.795
20
-121.283
11
122.777
21
-121.235
0
LINE
8
BLACK
6
CONTINUOUS
10
122.777
20
-121.235
11
122.777
21
-121.024
0
LINE
8
BLACK
6
CONTINUOUS
10
122.777
20
-121.024
11
122.081
21
-121.024
0
LINE
8
BLACK
6
CONTINUOUS
10
122.081
20
-121.024
11
122.144
21
-121.086
0
LINE
8
BLACK
6
CONTINUOUS
10
122.144
20
-121.086
11
122.156
21
-121.105
0
LINE
8
BLACK
6
CONTINUOUS
10
122.156
20
-121.105
11
122.158
21
-121.106
0
LINE
8
BLACK
6
CONTINUOUS
10
122.158
20
-121.106
11
122.205
21
-121.201
0
LINE
8
BLACK
6
CONTINUOUS
10
122.205
20
-121.201
11
122.213
21
-121.226
0
LINE
8
BLACK
6
CONTINUOUS
10
122.213
20
-121.226
11
122.201
21
-121.276
0
LINE
8
BLACK
6
CONTINUOUS
10
122.201
20
-121.276
11
122.159
21
-121.307
0
LINE
8
BLACK
6
CONTINUOUS
10
122.159
20
-121.307
11
122.108
21
-121.304
0
LINE
8
BLACK
6
CONTINUOUS
10
122.108
20
-121.304
11
122.071
21
-121.268
0
LINE
8
BLACK
6
CONTINUOUS
10
122.071
20
-121.268
11
122.029
21
-121.184
0
LINE
8
BLACK
6
CONTINUOUS
10
122.029
20
-121.184
11
121.947
21
-121.103
0
LINE
8
BLACK
6
CONTINUOUS
10
121.947
20
-121.103
11
121.811
21
-121.011
0
LINE
8
BLACK
6
CONTINUOUS
10
121.811
20
-121.011
11
121.792
21
-120.993
0
LINE
8
BLACK
6
CONTINUOUS
10
121.792
20
-120.993
11
121.791
21
-120.989
0
LINE
8
BLACK
6
CONTINUOUS
10
121.791
20
-120.989
11
121.787
21
-120.987
0
LINE
8
BLACK
6
CONTINUOUS
10
121.787
20
-120.987
11
121.784
21
-120.965
0
LINE
8
BLACK
6
CONTINUOUS
10
121.784
20
-120.965
11
121.778
21
-120.944
0
LINE
8
BLACK
6
CONTINUOUS
10
121.778
20
-120.944
11
121.779
21
-120.94
0
LINE
8
BLACK
6
CONTINUOUS
10
121.779
20
-120.94
11
121.779
21
-120.936
0
LINE
8
BLACK
6
CONTINUOUS
10
121.779
20
-120.936
11
121.789
21
-120.917
0
LINE
8
BLACK
6
CONTINUOUS
10
121.789
20
-120.917
11
121.798
21
-120.897
0
LINE
8
BLACK
6
CONTINUOUS
10
121.798
20
-120.897
11
121.802
21
-120.895
0
LINE
8
BLACK
6
CONTINUOUS
10
121.802
20
-120.895
11
121.804
21
-120.892
0
LINE
8
BLACK
6
CONTINUOUS
10
121.804
20
-120.892
11
121.825
21
-120.884
0
LINE
8
BLACK
6
CONTINUOUS
10
121.825
20
-120.884
11
121.844
21
-120.875
0
LINE
8
BLACK
6
CONTINUOUS
10
121.844
20
-120.875
11
121.848
21
-120.876
0
LINE
8
BLACK
6
CONTINUOUS
10
121.848
20
-120.876
11
121.852
21
-120.874
0
LINE
8
BLACK
6
CONTINUOUS
10
121.852
20
-120.874
11
122.777
21
-120.874
0
LINE
8
BLACK
6
CONTINUOUS
10
122.777
20
-120.874
11
122.777
21
-120.663
0
LINE
8
BLACK
6
CONTINUOUS
10
122.777
20
-120.663
11
122.782
21
-120.638
0
LINE
8
BLACK
6
CONTINUOUS
10
122.782
20
-120.638
11
122.815
21
-120.598
0
LINE
8
BLACK
6
CONTINUOUS
10
122.815
20
-120.598
11
122.865
21
-120.589
0
LINE
8
BLACK
6
CONTINUOUS
10
122.865
20
-120.589
11
122.91
21
-120.615
0
LINE
8
BLACK
6
CONTINUOUS
10
134.452
20
-117.028
11
134.47
21
-117.07
0
LINE
8
BLACK
6
CONTINUOUS
10
134.47
20
-117.07
11
134.47
21
-120.13
0
LINE
8
BLACK
6
CONTINUOUS
10
134.47
20
-120.13
11
134.452
21
-120.172
0
LINE
8
BLACK
6
CONTINUOUS
10
134.452
20
-120.172
11
134.41
21
-120.19
0
LINE
8
BLACK
6
CONTINUOUS
10
134.41
20
-120.19
11
134.368
21
-120.172
0
LINE
8
BLACK
6
CONTINUOUS
10
134.368
20
-120.172
11
134.35
21
-120.13
0
LINE
8
BLACK
6
CONTINUOUS
10
134.35
20
-120.13
11
134.35
21
-117.13
0
LINE
8
BLACK
6
CONTINUOUS
10
134.35
20
-117.13
11
124.73
21
-117.13
0
LINE
8
BLACK
6
CONTINUOUS
10
124.73
20
-117.13
11
124.73
21
-120.13
0
LINE
8
BLACK
6
CONTINUOUS
10
124.73
20
-120.13
11
124.712
21
-120.172
0
LINE
8
BLACK
6
CONTINUOUS
10
124.712
20
-120.172
11
124.67
21
-120.19
0
LINE
8
BLACK
6
CONTINUOUS
10
124.67
20
-120.19
11
124.628
21
-120.172
0
LINE
8
BLACK
6
CONTINUOUS
10
124.628
20
-120.172
11
124.61
21
-120.13
0
LINE
8
BLACK
6
CONTINUOUS
10
124.61
20
-120.13
11
124.61
21
-117.07
0
LINE
8
BLACK
6
CONTINUOUS
10
124.61
20
-117.07
11
124.628
21
-117.028
0
LINE
8
BLACK
6
CONTINUOUS
10
124.628
20
-117.028
11
124.67
21
-117.01
0
LINE
8
BLACK
6
CONTINUOUS
10
124.67
20
-117.01
11
134.41
21
-117.01
0
LINE
8
BLACK
6
CONTINUOUS
10
134.41
20
-117.01
11
134.452
21
-117.028
0
LINE
8
BLACK
6
CONTINUOUS
10
131.242
20
-105.758
11
131.26
21
-105.8
0
LINE
8
BLACK
6
CONTINUOUS
10
131.26
20
-105.8
11
131.242
21
-105.842
0
LINE
8
BLACK
6
CONTINUOUS
10
131.242
20
-105.842
11
131.2
21
-105.86
0
LINE
8
BLACK
6
CONTINUOUS
10
131.2
20
-105.86
11
130.37
21
-105.86
0
LINE
8
BLACK
6
CONTINUOUS
10
130.37
20
-105.86
11
130.328
21
-105.842
0
LINE
8
BLACK
6
CONTINUOUS
10
130.328
20
-105.842
11
130.31
21
-105.8
0
LINE
8
BLACK
6
CONTINUOUS
10
130.31
20
-105.8
11
130.328
21
-105.758
0
LINE
8
BLACK
6
CONTINUOUS
10
130.328
20
-105.758
11
130.37
21
-105.74
0
LINE
8
BLACK
6
CONTINUOUS
10
130.37
20
-105.74
11
131.2
21
-105.74
0
LINE
8
BLACK
6
CONTINUOUS
10
131.2
20
-105.74
11
131.242
21
-105.758
0
LINE
8
BLACK
6
CONTINUOUS
10
124.702
20
-101.038
11
124.72
21
-101.08
0
LINE
8
BLACK
6
CONTINUOUS
10
124.72
20
-101.08
11
124.72
21
-105.74
0
LINE
8
BLACK
6
CONTINUOUS
10
124.72
20
-105.74
11
125.85
21
-105.74
0
LINE
8
BLACK
6
CONTINUOUS
10
125.85
20
-105.74
11
125.892
21
-105.758
0
LINE
8
BLACK
6
CONTINUOUS
10
125.892
20
-105.758
11
125.91
21
-105.8
0
LINE
8
BLACK
6
CONTINUOUS
10
125.91
20
-105.8
11
125.892
21
-105.842
0
LINE
8
BLACK
6
CONTINUOUS
10
125.892
20
-105.842
11
125.85
21
-105.86
0
LINE
8
BLACK
6
CONTINUOUS
10
125.85
20
-105.86
11
124.67
21
-105.86
0
LINE
8
BLACK
6
CONTINUOUS
10
124.67
20
-105.86
11
124.665
21
-105.858
0
LINE
8
BLACK
6
CONTINUOUS
10
124.665
20
-105.858
11
124.66
21
-105.86
0
LINE
8
BLACK
6
CONTINUOUS
10
124.66
20
-105.86
11
124.618
21
-105.842
0
LINE
8
BLACK
6
CONTINUOUS
10
124.618
20
-105.842
11
124.6
21
-105.8
0
LINE
8
BLACK
6
CONTINUOUS
10
124.6
20
-105.8
11
124.6
21
-101.08
0
LINE
8
BLACK
6
CONTINUOUS
10
124.6
20
-101.08
11
124.618
21
-101.038
0
LINE
8
BLACK
6
CONTINUOUS
10
124.618
20
-101.038
11
124.66
21
-101.02
0
LINE
8
BLACK
6
CONTINUOUS
10
124.66
20
-101.02
11
124.702
21
-101.038
0
LINE
8
BLACK
6
CONTINUOUS
10
128.792
20
-105.758
11
128.81
21
-105.8
0
LINE
8
BLACK
6
CONTINUOUS
10
128.81
20
-105.8
11
128.792
21
-105.842
0
LINE
8
BLACK
6
CONTINUOUS
10
128.792
20
-105.842
11
128.75
21
-105.86
0
LINE
8
BLACK
6
CONTINUOUS
10
128.75
20
-105.86
11
128.22
21
-105.86
0
LINE
8
BLACK
6
CONTINUOUS
10
128.22
20
-105.86
11
128.178
21
-105.842
0
LINE
8
BLACK
6
CONTINUOUS
10
128.178
20
-105.842
11
128.16
21
-105.8
0
LINE
8
BLACK
6
CONTINUOUS
10
128.16
20
-105.8
11
128.178
21
-105.758
0
LINE
8
BLACK
6
CONTINUOUS
10
128.178
20
-105.758
11
128.22
21
-105.74
0
LINE
8
BLACK
6
CONTINUOUS
10
128.22
20
-105.74
11
128.75
21
-105.74
0
LINE
8
BLACK
6
CONTINUOUS
10
128.75
20
-105.74
11
128.792
21
-105.758
0
LINE
8
BLACK
6
CONTINUOUS
10
132.878
20
-105.842
11
132.86
21
-105.8
0
LINE
8
BLACK
6
CONTINUOUS
10
132.86
20
-105.8
11
132.878
21
-105.758
0
LINE
8
BLACK
6
CONTINUOUS
10
132.878
20
-105.758
11
132.92
21
-105.74
0
LINE
8
BLACK
6
CONTINUOUS
10
132.92
20
-105.74
11
134.35
21
-105.74
0
LINE
8
BLACK
6
CONTINUOUS
10
134.35
20
-105.74
11
134.35
21
-101.08
0
LINE
8
BLACK
6
CONTINUOUS
10
134.35
20
-101.08
11
134.368
21
-101.038
0
LINE
8
BLACK
6
CONTINUOUS
10
134.368
20
-101.038
11
134.41
21
-101.02
0
LINE
8
BLACK
6
CONTINUOUS
10
134.41
20
-101.02
11
134.452
21
-101.038
0
LINE
8
BLACK
6
CONTINUOUS
10
134.452
20
-101.038
11
134.47
21
-101.08
0
LINE
8
BLACK
6
CONTINUOUS
10
134.47
20
-101.08
11
134.47
21
-105.8
0
LINE
8
BLACK
6
CONTINUOUS
10
134.47
20
-105.8
11
134.452
21
-105.842
0
LINE
8
BLACK
6
CONTINUOUS
10
134.452
20
-105.842
11
134.41
21
-105.86
0
LINE
8
BLACK
6
CONTINUOUS
10
134.41
20
-105.86
11
132.92
21
-105.86
0
LINE
8
BLACK
6
CONTINUOUS
10
132.92
20
-105.86
11
132.878
21
-105.842
0
LINE
8
BLACK
6
CONTINUOUS
10
122.211
20
-101.447
11
122.215
21
-101.45
0
LINE
8
BLACK
6
CONTINUOUS
10
122.215
20
-101.45
11
122.219
21
-101.451
0
LINE
8
BLACK
6
CONTINUOUS
10
122.219
20
-101.451
11
122.314
21
-101.498
0
LINE
8
BLACK
6
CONTINUOUS
10
122.314
20
-101.498
11
122.333
21
-101.512
0
LINE
8
BLACK
6
CONTINUOUS
10
122.333
20
-101.512
11
122.334
21
-101.512
0
LINE
8
BLACK
6
CONTINUOUS
10
122.334
20
-101.512
11
122.382
21
-101.56
0
LINE
8
BLACK
6
CONTINUOUS
10
122.382
20
-101.56
11
122.394
21
-101.578
0
LINE
8
BLACK
6
CONTINUOUS
10
122.394
20
-101.578
11
122.396
21
-101.579
0
LINE
8
BLACK
6
CONTINUOUS
10
122.396
20
-101.579
11
122.443
21
-101.675
0
LINE
8
BLACK
6
CONTINUOUS
10
122.443
20
-101.675
11
122.451
21
-101.7
0
LINE
8
BLACK
6
CONTINUOUS
10
122.451
20
-101.7
11
122.45
21
-101.704
0
LINE
8
BLACK
6
CONTINUOUS
10
122.45
20
-101.704
11
122.451
21
-101.707
0
LINE
8
BLACK
6
CONTINUOUS
10
122.451
20
-101.707
11
122.809
21
-101.456
0
LINE
8
BLACK
6
CONTINUOUS
10
122.809
20
-101.456
11
122.833
21
-101.445
0
LINE
8
BLACK
6
CONTINUOUS
10
122.833
20
-101.445
11
122.884
21
-101.45
0
LINE
8
BLACK
6
CONTINUOUS
10
122.884
20
-101.45
11
122.92
21
-101.486
0
LINE
8
BLACK
6
CONTINUOUS
10
122.92
20
-101.486
11
122.925
21
-101.537
0
LINE
8
BLACK
6
CONTINUOUS
10
122.925
20
-101.537
11
122.895
21
-101.579
0
LINE
8
BLACK
6
CONTINUOUS
10
122.895
20
-101.579
11
122.451
21
-101.89
0
LINE
8
BLACK
6
CONTINUOUS
10
122.451
20
-101.89
11
122.451
21
-102.014
0
LINE
8
BLACK
6
CONTINUOUS
10
122.451
20
-102.014
11
122.852
21
-102.014
0
LINE
8
BLACK
6
CONTINUOUS
10
122.852
20
-102.014
11
122.878
21
-102.019
0
LINE
8
BLACK
6
CONTINUOUS
10
122.878
20
-102.019
11
122.917
21
-102.052
0
LINE
8
BLACK
6
CONTINUOUS
10
122.917
20
-102.052
11
122.926
21
-102.102
0
LINE
8
BLACK
6
CONTINUOUS
10
122.926
20
-102.102
11
122.901
21
-102.146
0
LINE
8
BLACK
6
CONTINUOUS
10
122.901
20
-102.146
11
122.852
21
-102.164
0
LINE
8
BLACK
6
CONTINUOUS
10
122.852
20
-102.164
11
121.852
21
-102.164
0
LINE
8
BLACK
6
CONTINUOUS
10
121.852
20
-102.164
11
121.843
21
-102.162
0
LINE
8
BLACK
6
CONTINUOUS
10
121.843
20
-102.162
11
121.839
21
-102.163
0
LINE
8
BLACK
6
CONTINUOUS
10
121.839
20
-102.163
11
121.836
21
-102.161
0
LINE
8
BLACK
6
CONTINUOUS
10
121.836
20
-102.161
11
121.827
21
-102.16
0
LINE
8
BLACK
6
CONTINUOUS
10
121.827
20
-102.16
11
121.812
21
-102.147
0
LINE
8
BLACK
6
CONTINUOUS
10
121.812
20
-102.147
11
121.795
21
-102.137
0
LINE
8
BLACK
6
CONTINUOUS
10
121.795
20
-102.137
11
121.793
21
-102.131
0
LINE
8
BLACK
6
CONTINUOUS
10
121.793
20
-102.131
11
121.787
21
-102.127
0
LINE
8
BLACK
6
CONTINUOUS
10
121.787
20
-102.127
11
121.784
21
-102.107
0
LINE
8
BLACK
6
CONTINUOUS
10
121.784
20
-102.107
11
121.777
21
-102.089
0
LINE
8
BLACK
6
CONTINUOUS
10
121.777
20
-102.089
11
121.777
21
-101.708
0
LINE
8
BLACK
6
CONTINUOUS
10
121.777
20
-101.708
11
121.782
21
-101.682
0
LINE
8
BLACK
6
CONTINUOUS
10
121.782
20
-101.682
11
121.785
21
-101.679
0
LINE
8
BLACK
6
CONTINUOUS
10
121.785
20
-101.679
11
121.785
21
-101.675
0
LINE
8
BLACK
6
CONTINUOUS
10
121.785
20
-101.675
11
121.833
21
-101.579
0
LINE
8
BLACK
6
CONTINUOUS
10
121.833
20
-101.579
11
121.846
21
-101.561
0
LINE
8
BLACK
6
CONTINUOUS
10
121.846
20
-101.561
11
121.847
21
-101.56
0
LINE
8
BLACK
6
CONTINUOUS
10
121.847
20
-101.56
11
121.895
21
-101.512
0
LINE
8
BLACK
6
CONTINUOUS
10
121.895
20
-101.512
11
121.913
21
-101.499
0
LINE
8
BLACK
6
CONTINUOUS
10
121.913
20
-101.499
11
121.914
21
-101.498
0
LINE
8
BLACK
6
CONTINUOUS
10
121.914
20
-101.498
11
122.009
21
-101.451
0
LINE
8
BLACK
6
CONTINUOUS
10
122.009
20
-101.451
11
122.034
21
-101.443
0
LINE
8
BLACK
6
CONTINUOUS
10
122.034
20
-101.443
11
122.039
21
-101.444
0
LINE
8
BLACK
6
CONTINUOUS
10
122.039
20
-101.444
11
122.043
21
-101.443
0
LINE
8
BLACK
6
CONTINUOUS
10
122.043
20
-101.443
11
122.186
21
-101.443
0
LINE
8
BLACK
6
CONTINUOUS
10
122.186
20
-101.443
11
122.211
21
-101.447
0
LINE
8
BLACK
6
CONTINUOUS
10
122.061
20
-101.593
11
121.992
21
-101.627
0
LINE
8
BLACK
6
CONTINUOUS
10
121.992
20
-101.627
11
121.962
21
-101.657
0
LINE
8
BLACK
6
CONTINUOUS
10
121.962
20
-101.657
11
121.927
21
-101.726
0
LINE
8
BLACK
6
CONTINUOUS
10
121.927
20
-101.726
11
121.927
21
-102.014
0
LINE
8
BLACK
6
CONTINUOUS
10
121.927
20
-102.014
11
122.301
21
-102.014
0
LINE
8
BLACK
6
CONTINUOUS
10
122.301
20
-102.014
11
122.301
21
-101.726
0
LINE
8
BLACK
6
CONTINUOUS
10
122.301
20
-101.726
11
122.267
21
-101.657
0
LINE
8
BLACK
6
CONTINUOUS
10
122.267
20
-101.657
11
122.237
21
-101.627
0
LINE
8
BLACK
6
CONTINUOUS
10
122.237
20
-101.627
11
122.168
21
-101.593
0
LINE
8
BLACK
6
CONTINUOUS
10
122.168
20
-101.593
11
122.061
21
-101.593
0
LINE
8
BLACK
6
CONTINUOUS
10
122.876
20
-100.827
11
122.899
21
-100.84
0
LINE
8
BLACK
6
CONTINUOUS
10
122.899
20
-100.84
11
122.9
21
-100.842
0
LINE
8
BLACK
6
CONTINUOUS
10
122.9
20
-100.842
11
122.902
21
-100.842
0
LINE
8
BLACK
6
CONTINUOUS
10
122.902
20
-100.842
11
122.913
21
-100.863
0
LINE
8
BLACK
6
CONTINUOUS
10
122.913
20
-100.863
11
122.926
21
-100.884
0
LINE
8
BLACK
6
CONTINUOUS
10
122.926
20
-100.884
11
122.926
21
-100.886
0
LINE
8
BLACK
6
CONTINUOUS
10
122.926
20
-100.886
11
122.927
21
-100.888
0
LINE
8
BLACK
6
CONTINUOUS
10
122.927
20
-100.888
11
122.922
21
-100.911
0
LINE
8
BLACK
6
CONTINUOUS
10
122.922
20
-100.911
11
122.918
21
-100.934
0
LINE
8
BLACK
6
CONTINUOUS
10
122.918
20
-100.934
11
122.917
21
-100.936
0
LINE
8
BLACK
6
CONTINUOUS
10
122.917
20
-100.936
11
122.916
21
-100.938
0
LINE
8
BLACK
6
CONTINUOUS
10
122.916
20
-100.938
11
122.898
21
-100.953
0
LINE
8
BLACK
6
CONTINUOUS
10
122.898
20
-100.953
11
122.88
21
-100.968
0
LINE
8
BLACK
6
CONTINUOUS
10
122.88
20
-100.968
11
122.878
21
-100.968
0
LINE
8
BLACK
6
CONTINUOUS
10
122.878
20
-100.968
11
122.876
21
-100.97
0
LINE
8
BLACK
6
CONTINUOUS
10
122.876
20
-100.97
11
121.876
21
-101.303
0
LINE
8
BLACK
6
CONTINUOUS
10
121.876
20
-101.303
11
121.85
21
-101.307
0
LINE
8
BLACK
6
CONTINUOUS
10
121.85
20
-101.307
11
121.803
21
-101.288
0
LINE
8
BLACK
6
CONTINUOUS
10
121.803
20
-101.288
11
121.778
21
-101.243
0
LINE
8
BLACK
6
CONTINUOUS
10
121.778
20
-101.243
11
121.788
21
-101.193
0
LINE
8
BLACK
6
CONTINUOUS
10
121.788
20
-101.193
11
121.829
21
-101.161
0
LINE
8
BLACK
6
CONTINUOUS
10
121.829
20
-101.161
11
122.615
21
-100.899
0
LINE
8
BLACK
6
CONTINUOUS
10
122.615
20
-100.899
11
121.829
21
-100.636
0
LINE
8
BLACK
6
CONTINUOUS
10
121.829
20
-100.636
11
121.806
21
-100.624
0
LINE
8
BLACK
6
CONTINUOUS
10
121.806
20
-100.624
11
121.779
21
-100.58
0
LINE
8
BLACK
6
CONTINUOUS
10
121.779
20
-100.58
11
121.786
21
-100.53
0
LINE
8
BLACK
6
CONTINUOUS
10
121.786
20
-100.53
11
121.825
21
-100.495
0
LINE
8
BLACK
6
CONTINUOUS
10
121.825
20
-100.495
11
121.876
21
-100.494
0
LINE
8
BLACK
6
CONTINUOUS
10
121.876
20
-100.494
11
122.876
21
-100.827
0
LINE
8
BLACK
6
CONTINUOUS
10
122.688
20
-99.6376
11
122.691
21
-99.6405
0
LINE
8
BLACK
6
CONTINUOUS
10
122.691
20
-99.6405
11
122.695
21
-99.641
0
LINE
8
BLACK
6
CONTINUOUS
10
122.695
20
-99.641
11
122.791
21
-99.6886
0
LINE
8
BLACK
6
CONTINUOUS
10
122.791
20
-99.6886
11
122.809
21
-99.702
0
LINE
8
BLACK
6
CONTINUOUS
10
122.809
20
-99.702
11
122.81
21
-99.7027
0
LINE
8
BLACK
6
CONTINUOUS
10
122.81
20
-99.7027
11
122.858
21
-99.7503
0
LINE
8
BLACK
6
CONTINUOUS
10
122.858
20
-99.7503
11
122.871
21
-99.7687
0
LINE
8
BLACK
6
CONTINUOUS
10
122.871
20
-99.7687
11
122.872
21
-99.7698
0
LINE
8
BLACK
6
CONTINUOUS
10
122.872
20
-99.7698
11
122.919
21
-99.865
0
LINE
8
BLACK
6
CONTINUOUS
10
122.919
20
-99.865
11
122.927
21
-99.89
0
LINE
8
BLACK
6
CONTINUOUS
10
122.927
20
-99.89
11
122.926
21
-99.8944
0
LINE
8
BLACK
6
CONTINUOUS
10
122.926
20
-99.8944
11
122.927
21
-99.8986
0
LINE
8
BLACK
6
CONTINUOUS
10
122.927
20
-99.8986
11
122.927
21
-100.137
0
LINE
8
BLACK
6
CONTINUOUS
10
122.927
20
-100.137
11
122.923
21
-100.162
0
LINE
8
BLACK
6
CONTINUOUS
10
122.923
20
-100.162
11
122.92
21
-100.166
0
LINE
8
BLACK
6
CONTINUOUS
10
122.92
20
-100.166
11
122.919
21
-100.17
0
LINE
8
BLACK
6
CONTINUOUS
10
122.919
20
-100.17
11
122.872
21
-100.265
0
LINE
8
BLACK
6
CONTINUOUS
10
122.872
20
-100.265
11
122.858
21
-100.283
0
LINE
8
BLACK
6
CONTINUOUS
10
122.858
20
-100.283
11
122.858
21
-100.285
0
LINE
8
BLACK
6
CONTINUOUS
10
122.858
20
-100.285
11
122.81
21
-100.333
0
LINE
8
BLACK
6
CONTINUOUS
10
122.81
20
-100.333
11
122.789
21
-100.347
0
LINE
8
BLACK
6
CONTINUOUS
10
122.789
20
-100.347
11
122.738
21
-100.352
0
LINE
8
BLACK
6
CONTINUOUS
10
122.738
20
-100.352
11
122.696
21
-100.323
0
LINE
8
BLACK
6
CONTINUOUS
10
122.696
20
-100.323
11
122.682
21
-100.273
0
LINE
8
BLACK
6
CONTINUOUS
10
122.682
20
-100.273
11
122.704
21
-100.226
0
LINE
8
BLACK
6
CONTINUOUS
10
122.704
20
-100.226
11
122.743
21
-100.187
0
LINE
8
BLACK
6
CONTINUOUS
10
122.743
20
-100.187
11
122.777
21
-100.119
0
LINE
8
BLACK
6
CONTINUOUS
10
122.777
20
-100.119
11
122.777
21
-99.9163
0
LINE
8
BLACK
6
CONTINUOUS
10
122.777
20
-99.9163
11
122.743
21
-99.8478
0
LINE
8
BLACK
6
CONTINUOUS
10
122.743
20
-99.8478
11
122.713
21
-99.8174
0
LINE
8
BLACK
6
CONTINUOUS
10
122.713
20
-99.8174
11
122.644
21
-99.7831
0
LINE
8
BLACK
6
CONTINUOUS
10
122.644
20
-99.7831
11
122.442
21
-99.7831
0
LINE
8
BLACK
6
CONTINUOUS
10
122.442
20
-99.7831
11
122.373
21
-99.8174
0
LINE
8
BLACK
6
CONTINUOUS
10
122.373
20
-99.8174
11
122.343
21
-99.8478
0
LINE
8
BLACK
6
CONTINUOUS
10
122.343
20
-99.8478
11
122.308
21
-99.9163
0
LINE
8
BLACK
6
CONTINUOUS
10
122.308
20
-99.9163
11
122.308
21
-100.119
0
LINE
8
BLACK
6
CONTINUOUS
10
122.308
20
-100.119
11
122.343
21
-100.187
0
LINE
8
BLACK
6
CONTINUOUS
10
122.343
20
-100.187
11
122.382
21
-100.226
0
LINE
8
BLACK
6
CONTINUOUS
10
122.382
20
-100.226
11
122.397
21
-100.248
0
LINE
8
BLACK
6
CONTINUOUS
10
122.397
20
-100.248
11
122.397
21
-100.248
0
LINE
8
BLACK
6
CONTINUOUS
10
122.397
20
-100.248
11
122.397
21
-100.249
0
LINE
8
BLACK
6
CONTINUOUS
10
122.397
20
-100.249
11
122.399
21
-100.274
0
LINE
8
BLACK
6
CONTINUOUS
10
122.399
20
-100.274
11
122.401
21
-100.299
0
LINE
8
BLACK
6
CONTINUOUS
10
122.401
20
-100.299
11
122.401
21
-100.299
0
LINE
8
BLACK
6
CONTINUOUS
10
122.401
20
-100.299
11
122.401
21
-100.3
0
LINE
8
BLACK
6
CONTINUOUS
10
122.401
20
-100.3
11
122.386
21
-100.32
0
LINE
8
BLACK
6
CONTINUOUS
10
122.386
20
-100.32
11
122.372
21
-100.341
0
LINE
8
BLACK
6
CONTINUOUS
10
122.372
20
-100.341
11
122.371
21
-100.341
0
LINE
8
BLACK
6
CONTINUOUS
10
122.371
20
-100.341
11
122.371
21
-100.341
0
LINE
8
BLACK
6
CONTINUOUS
10
122.371
20
-100.341
11
122.346
21
-100.348
0
LINE
8
BLACK
6
CONTINUOUS
10
122.346
20
-100.348
11
122.322
21
-100.354
0
LINE
8
BLACK
6
CONTINUOUS
10
122.322
20
-100.354
11
122.322
21
-100.354
0
LINE
8
BLACK
6
CONTINUOUS
10
122.322
20
-100.354
11
122.321
21
-100.354
0
LINE
8
BLACK
6
CONTINUOUS
10
122.321
20
-100.354
11
121.845
21
-100.307
0
LINE
8
BLACK
6
CONTINUOUS
10
121.845
20
-100.307
11
121.841
21
-100.305
0
LINE
8
BLACK
6
CONTINUOUS
10
121.841
20
-100.305
11
121.839
21
-100.306
0
LINE
8
BLACK
6
CONTINUOUS
10
121.839
20
-100.306
11
121.837
21
-100.304
0
LINE
8
BLACK
6
CONTINUOUS
10
121.837
20
-100.304
11
121.82
21
-100.299
0
LINE
8
BLACK
6
CONTINUOUS
10
121.82
20
-100.299
11
121.809
21
-100.288
0
LINE
8
BLACK
6
CONTINUOUS
10
121.809
20
-100.288
11
121.795
21
-100.28
0
LINE
8
BLACK
6
CONTINUOUS
10
121.795
20
-100.28
11
121.791
21
-100.27
0
LINE
8
BLACK
6
CONTINUOUS
10
121.791
20
-100.27
11
121.784
21
-100.263
0
LINE
8
BLACK
6
CONTINUOUS
10
121.784
20
-100.263
11
121.783
21
-100.247
0
LINE
8
BLACK
6
CONTINUOUS
10
121.783
20
-100.247
11
121.777
21
-100.232
0
LINE
8
BLACK
6
CONTINUOUS
10
121.777
20
-100.232
11
121.777
21
-99.7557
0
LINE
8
BLACK
6
CONTINUOUS
10
121.777
20
-99.7557
11
121.782
21
-99.7301
0
LINE
8
BLACK
6
CONTINUOUS
10
121.782
20
-99.7301
11
121.815
21
-99.6908
0
LINE
8
BLACK
6
CONTINUOUS
10
121.815
20
-99.6908
11
121.865
21
-99.6819
0
LINE
8
BLACK
6
CONTINUOUS
10
121.865
20
-99.6819
11
121.91
21
-99.7075
0
LINE
8
BLACK
6
CONTINUOUS
10
121.91
20
-99.7075
11
121.927
21
-99.7557
0
LINE
8
BLACK
6
CONTINUOUS
10
121.927
20
-99.7557
11
121.927
21
-100.164
0
LINE
8
BLACK
6
CONTINUOUS
10
121.927
20
-100.164
11
122.176
21
-100.189
0
LINE
8
BLACK
6
CONTINUOUS
10
122.176
20
-100.189
11
122.166
21
-100.17
0
LINE
8
BLACK
6
CONTINUOUS
10
122.166
20
-100.17
11
122.159
21
-100.145
0
LINE
8
BLACK
6
CONTINUOUS
10
122.159
20
-100.145
11
122.16
21
-100.141
0
LINE
8
BLACK
6
CONTINUOUS
10
122.16
20
-100.141
11
122.158
21
-100.137
0
LINE
8
BLACK
6
CONTINUOUS
10
122.158
20
-100.137
11
122.158
21
-99.8986
0
LINE
8
BLACK
6
CONTINUOUS
10
122.158
20
-99.8986
11
122.163
21
-99.8729
0
LINE
8
BLACK
6
CONTINUOUS
10
122.163
20
-99.8729
11
122.166
21
-99.8695
0
LINE
8
BLACK
6
CONTINUOUS
10
122.166
20
-99.8695
11
122.166
21
-99.865
0
LINE
8
BLACK
6
CONTINUOUS
10
122.166
20
-99.865
11
122.214
21
-99.7698
0
LINE
8
BLACK
6
CONTINUOUS
10
122.214
20
-99.7698
11
122.227
21
-99.7518
0
LINE
8
BLACK
6
CONTINUOUS
10
122.227
20
-99.7518
11
122.228
21
-99.7503
0
LINE
8
BLACK
6
CONTINUOUS
10
122.228
20
-99.7503
11
122.276
21
-99.7027
0
LINE
8
BLACK
6
CONTINUOUS
10
122.276
20
-99.7027
11
122.294
21
-99.6898
0
LINE
8
BLACK
6
CONTINUOUS
10
122.294
20
-99.6898
11
122.295
21
-99.6886
0
LINE
8
BLACK
6
CONTINUOUS
10
122.295
20
-99.6886
11
122.39
21
-99.641
0
LINE
8
BLACK
6
CONTINUOUS
10
122.39
20
-99.641
11
122.415
21
-99.6336
0
LINE
8
BLACK
6
CONTINUOUS
10
122.415
20
-99.6336
11
122.42
21
-99.6346
0
LINE
8
BLACK
6
CONTINUOUS
10
122.42
20
-99.6346
11
122.424
21
-99.6331
0
LINE
8
BLACK
6
CONTINUOUS
10
122.424
20
-99.6331
11
122.662
21
-99.6331
0
LINE
8
BLACK
6
CONTINUOUS
10
122.662
20
-99.6331
11
122.688
21
-99.6376
0
LINE
8
BLACK
6
CONTINUOUS
10
122.486
20
-98.6833
11
122.49
21
-98.683
0
LINE
8
BLACK
6
CONTINUOUS
10
122.49
20
-98.683
11
122.68
21
-98.7306
0
LINE
8
BLACK
6
CONTINUOUS
10
122.68
20
-98.7306
11
122.692
21
-98.7358
0
LINE
8
BLACK
6
CONTINUOUS
10
122.692
20
-98.7358
11
122.695
21
-98.7363
0
LINE
8
BLACK
6
CONTINUOUS
10
122.695
20
-98.7363
11
122.791
21
-98.7839
0
LINE
8
BLACK
6
CONTINUOUS
10
122.791
20
-98.7839
11
122.809
21
-98.7972
0
LINE
8
BLACK
6
CONTINUOUS
10
122.809
20
-98.7972
11
122.81
21
-98.7979
0
LINE
8
BLACK
6
CONTINUOUS
10
122.81
20
-98.7979
11
122.858
21
-98.8455
0
LINE
8
BLACK
6
CONTINUOUS
10
122.858
20
-98.8455
11
122.871
21
-98.8639
0
LINE
8
BLACK
6
CONTINUOUS
10
122.871
20
-98.8639
11
122.872
21
-98.865
0
LINE
8
BLACK
6
CONTINUOUS
10
122.872
20
-98.865
11
122.919
21
-98.9603
0
LINE
8
BLACK
6
CONTINUOUS
10
122.919
20
-98.9603
11
122.927
21
-98.9852
0
LINE
8
BLACK
6
CONTINUOUS
10
122.927
20
-98.9852
11
122.926
21
-98.9896
0
LINE
8
BLACK
6
CONTINUOUS
10
122.926
20
-98.9896
11
122.927
21
-98.9938
0
LINE
8
BLACK
6
CONTINUOUS
10
122.927
20
-98.9938
11
122.927
21
-99.089
0
LINE
8
BLACK
6
CONTINUOUS
10
122.927
20
-99.089
11
122.923
21
-99.1147
0
LINE
8
BLACK
6
CONTINUOUS
10
122.923
20
-99.1147
11
122.92
21
-99.1181
0
LINE
8
BLACK
6
CONTINUOUS
10
122.92
20
-99.1181
11
122.919
21
-99.1226
0
LINE
8
BLACK
6
CONTINUOUS
10
122.919
20
-99.1226
11
122.872
21
-99.2178
0
LINE
8
BLACK
6
CONTINUOUS
10
122.872
20
-99.2178
11
122.858
21
-99.2358
0
LINE
8
BLACK
6
CONTINUOUS
10
122.858
20
-99.2358
11
122.858
21
-99.2373
0
LINE
8
BLACK
6
CONTINUOUS
10
122.858
20
-99.2373
11
122.81
21
-99.2849
0
LINE
8
BLACK
6
CONTINUOUS
10
122.81
20
-99.2849
11
122.792
21
-99.2978
0
LINE
8
BLACK
6
CONTINUOUS
10
122.792
20
-99.2978
11
122.791
21
-99.299
0
LINE
8
BLACK
6
CONTINUOUS
10
122.791
20
-99.299
11
122.695
21
-99.3466
0
LINE
8
BLACK
6
CONTINUOUS
10
122.695
20
-99.3466
11
122.683
21
-99.3503
0
LINE
8
BLACK
6
CONTINUOUS
10
122.683
20
-99.3503
11
122.68
21
-99.3523
0
LINE
8
BLACK
6
CONTINUOUS
10
122.68
20
-99.3523
11
122.49
21
-99.3999
0
LINE
8
BLACK
6
CONTINUOUS
10
122.49
20
-99.3999
11
122.475
21
-99.401
0
LINE
8
BLACK
6
CONTINUOUS
10
122.475
20
-99.401
11
122.471
21
-99.4021
0
LINE
8
BLACK
6
CONTINUOUS
10
122.471
20
-99.4021
11
122.233
21
-99.4021
0
LINE
8
BLACK
6
CONTINUOUS
10
122.233
20
-99.4021
11
122.219
21
-99.3995
0
LINE
8
BLACK
6
CONTINUOUS
10
122.219
20
-99.3995
11
122.215
21
-99.3999
0
LINE
8
BLACK
6
CONTINUOUS
10
122.215
20
-99.3999
11
122.025
21
-99.3523
0
LINE
8
BLACK
6
CONTINUOUS
10
122.025
20
-99.3523
11
122.013
21
-99.347
0
LINE
8
BLACK
6
CONTINUOUS
10
122.013
20
-99.347
11
122.009
21
-99.3466
0
LINE
8
BLACK
6
CONTINUOUS
10
122.009
20
-99.3466
11
121.914
21
-99.299
0
LINE
8
BLACK
6
CONTINUOUS
10
121.914
20
-99.299
11
121.896
21
-99.2856
0
LINE
8
BLACK
6
CONTINUOUS
10
121.896
20
-99.2856
11
121.895
21
-99.2849
0
LINE
8
BLACK
6
CONTINUOUS
10
121.895
20
-99.2849
11
121.847
21
-99.2373
0
LINE
8
BLACK
6
CONTINUOUS
10
121.847
20
-99.2373
11
121.834
21
-99.219
0
LINE
8
BLACK
6
CONTINUOUS
10
121.834
20
-99.219
11
121.833
21
-99.2178
0
LINE
8
BLACK
6
CONTINUOUS
10
121.833
20
-99.2178
11
121.785
21
-99.1226
0
LINE
8
BLACK
6
CONTINUOUS
10
121.785
20
-99.1226
11
121.778
21
-99.0976
0
LINE
8
BLACK
6
CONTINUOUS
10
121.778
20
-99.0976
11
121.779
21
-99.0933
0
LINE
8
BLACK
6
CONTINUOUS
10
121.779
20
-99.0933
11
121.777
21
-99.089
0
LINE
8
BLACK
6
CONTINUOUS
10
121.777
20
-99.089
11
121.777
21
-98.9938
0
LINE
8
BLACK
6
CONTINUOUS
10
121.777
20
-98.9938
11
121.782
21
-98.9682
0
LINE
8
BLACK
6
CONTINUOUS
10
121.782
20
-98.9682
11
121.785
21
-98.9647
0
LINE
8
BLACK
6
CONTINUOUS
10
121.785
20
-98.9647
11
121.785
21
-98.9603
0
LINE
8
BLACK
6
CONTINUOUS
10
121.785
20
-98.9603
11
121.833
21
-98.865
0
LINE
8
BLACK
6
CONTINUOUS
10
121.833
20
-98.865
11
121.846
21
-98.847
0
LINE
8
BLACK
6
CONTINUOUS
10
121.846
20
-98.847
11
121.847
21
-98.8455
0
LINE
8
BLACK
6
CONTINUOUS
10
121.847
20
-98.8455
11
121.895
21
-98.7979
0
LINE
8
BLACK
6
CONTINUOUS
10
121.895
20
-98.7979
11
121.913
21
-98.7851
0
LINE
8
BLACK
6
CONTINUOUS
10
121.913
20
-98.7851
11
121.914
21
-98.7839
0
LINE
8
BLACK
6
CONTINUOUS
10
121.914
20
-98.7839
11
122.009
21
-98.7363
0
LINE
8
BLACK
6
CONTINUOUS
10
122.009
20
-98.7363
11
122.022
21
-98.7326
0
LINE
8
BLACK
6
CONTINUOUS
10
122.022
20
-98.7326
11
122.025
21
-98.7306
0
LINE
8
BLACK
6
CONTINUOUS
10
122.025
20
-98.7306
11
122.215
21
-98.683
0
LINE
8
BLACK
6
CONTINUOUS
10
122.215
20
-98.683
11
122.23
21
-98.6819
0
LINE
8
BLACK
6
CONTINUOUS
10
122.23
20
-98.6819
11
122.233
21
-98.6807
0
LINE
8
BLACK
6
CONTINUOUS
10
122.233
20
-98.6807
11
122.471
21
-98.6807
0
LINE
8
BLACK
6
CONTINUOUS
10
122.471
20
-98.6807
11
122.486
21
-98.6833
0
LINE
8
BLACK
6
CONTINUOUS
10
122.243
20
-98.8307
11
122.069
21
-98.8741
0
LINE
8
BLACK
6
CONTINUOUS
10
122.069
20
-98.8741
11
121.992
21
-98.9126
0
LINE
8
BLACK
6
CONTINUOUS
10
121.992
20
-98.9126
11
121.962
21
-98.943
0
LINE
8
BLACK
6
CONTINUOUS
10
121.962
20
-98.943
11
121.927
21
-99.0115
0
LINE
8
BLACK
6
CONTINUOUS
10
121.927
20
-99.0115
11
121.927
21
-99.0713
0
LINE
8
BLACK
6
CONTINUOUS
10
121.927
20
-99.0713
11
121.962
21
-99.1399
0
LINE
8
BLACK
6
CONTINUOUS
10
121.962
20
-99.1399
11
121.992
21
-99.1703
0
LINE
8
BLACK
6
CONTINUOUS
10
121.992
20
-99.1703
11
122.069
21
-99.2088
0
LINE
8
BLACK
6
CONTINUOUS
10
122.069
20
-99.2088
11
122.243
21
-99.2521
0
LINE
8
BLACK
6
CONTINUOUS
10
122.243
20
-99.2521
11
122.462
21
-99.2521
0
LINE
8
BLACK
6
CONTINUOUS
10
122.462
20
-99.2521
11
122.636
21
-99.2088
0
LINE
8
BLACK
6
CONTINUOUS
10
122.636
20
-99.2088
11
122.713
21
-99.1703
0
LINE
8
BLACK
6
CONTINUOUS
10
122.713
20
-99.1703
11
122.743
21
-99.1399
0
LINE
8
BLACK
6
CONTINUOUS
10
122.743
20
-99.1399
11
122.777
21
-99.0713
0
LINE
8
BLACK
6
CONTINUOUS
10
122.777
20
-99.0713
11
122.777
21
-99.0115
0
LINE
8
BLACK
6
CONTINUOUS
10
122.777
20
-99.0115
11
122.743
21
-98.943
0
LINE
8
BLACK
6
CONTINUOUS
10
122.743
20
-98.943
11
122.713
21
-98.9126
0
LINE
8
BLACK
6
CONTINUOUS
10
122.713
20
-98.9126
11
122.636
21
-98.8741
0
LINE
8
BLACK
6
CONTINUOUS
10
122.636
20
-98.8741
11
122.462
21
-98.8307
0
LINE
8
BLACK
6
CONTINUOUS
10
122.462
20
-98.8307
11
122.243
21
-98.8307
0
LINE
8
BLACK
6
CONTINUOUS
10
122.16
20
-97.7322
11
122.162
21
-97.7322
0
LINE
8
BLACK
6
CONTINUOUS
10
122.162
20
-97.7322
11
122.305
21
-97.7798
0
LINE
8
BLACK
6
CONTINUOUS
10
122.305
20
-97.7798
11
122.328
21
-97.7922
0
LINE
8
BLACK
6
CONTINUOUS
10
122.328
20
-97.7922
11
122.33
21
-97.796
0
LINE
8
BLACK
6
CONTINUOUS
10
122.33
20
-97.796
11
122.334
21
-97.7979
0
LINE
8
BLACK
6
CONTINUOUS
10
122.334
20
-97.7979
11
122.777
21
-98.2413
0
LINE
8
BLACK
6
CONTINUOUS
10
122.777
20
-98.2413
11
122.777
21
-97.8033
0
LINE
8
BLACK
6
CONTINUOUS
10
122.777
20
-97.8033
11
122.782
21
-97.7777
0
LINE
8
BLACK
6
CONTINUOUS
10
122.782
20
-97.7777
11
122.815
21
-97.7384
0
LINE
8
BLACK
6
CONTINUOUS
10
122.815
20
-97.7384
11
122.865
21
-97.7295
0
LINE
8
BLACK
6
CONTINUOUS
10
122.865
20
-97.7295
11
122.91
21
-97.7551
0
LINE
8
BLACK
6
CONTINUOUS
10
122.91
20
-97.7551
11
122.927
21
-97.8033
0
LINE
8
BLACK
6
CONTINUOUS
10
122.927
20
-97.8033
11
122.927
21
-98.4224
0
LINE
8
BLACK
6
CONTINUOUS
10
122.927
20
-98.4224
11
122.925
21
-98.4385
0
LINE
8
BLACK
6
CONTINUOUS
10
122.925
20
-98.4385
11
122.925
21
-98.4418
0
LINE
8
BLACK
6
CONTINUOUS
10
122.925
20
-98.4418
11
122.924
21
-98.4434
0
LINE
8
BLACK
6
CONTINUOUS
10
122.924
20
-98.4434
11
122.923
21
-98.448
0
LINE
8
BLACK
6
CONTINUOUS
10
122.923
20
-98.448
11
122.908
21
-98.4653
0
LINE
8
BLACK
6
CONTINUOUS
10
122.908
20
-98.4653
11
122.895
21
-98.4838
0
LINE
8
BLACK
6
CONTINUOUS
10
122.895
20
-98.4838
11
122.892
21
-98.4847
0
LINE
8
BLACK
6
CONTINUOUS
10
122.892
20
-98.4847
11
122.89
21
-98.4873
0
LINE
8
BLACK
6
CONTINUOUS
10
122.89
20
-98.4873
11
122.868
21
-98.4913
0
LINE
8
BLACK
6
CONTINUOUS
10
122.868
20
-98.4913
11
122.846
21
-98.4971
0
LINE
8
BLACK
6
CONTINUOUS
10
122.846
20
-98.4971
11
122.843
21
-98.4956
0
LINE
8
BLACK
6
CONTINUOUS
10
122.843
20
-98.4956
11
122.839
21
-98.4962
0
LINE
8
BLACK
6
CONTINUOUS
10
122.839
20
-98.4962
11
122.82
21
-98.485
0
LINE
8
BLACK
6
CONTINUOUS
10
122.82
20
-98.485
11
122.799
21
-98.4754
0
LINE
8
BLACK
6
CONTINUOUS
10
122.799
20
-98.4754
11
122.24
21
-97.9165
0
LINE
8
BLACK
6
CONTINUOUS
10
122.24
20
-97.9165
11
122.126
21
-97.8783
0
LINE
8
BLACK
6
CONTINUOUS
10
122.126
20
-97.8783
11
122.061
21
-97.8783
0
LINE
8
BLACK
6
CONTINUOUS
10
122.061
20
-97.8783
11
121.992
21
-97.9126
0
LINE
8
BLACK
6
CONTINUOUS
10
121.992
20
-97.9126
11
121.962
21
-97.943
0
LINE
8
BLACK
6
CONTINUOUS
10
121.962
20
-97.943
11
121.927
21
-98.0115
0
LINE
8
BLACK
6
CONTINUOUS
10
121.927
20
-98.0115
11
121.927
21
-98.2142
0
LINE
8
BLACK
6
CONTINUOUS
10
121.927
20
-98.2142
11
121.962
21
-98.2827
0
LINE
8
BLACK
6
CONTINUOUS
10
121.962
20
-98.2827
11
122.001
21
-98.3217
0
LINE
8
BLACK
6
CONTINUOUS
10
122.001
20
-98.3217
11
122.016
21
-98.3431
0
LINE
8
BLACK
6
CONTINUOUS
10
122.016
20
-98.3431
11
122.02
21
-98.3942
0
LINE
8
BLACK
6
CONTINUOUS
10
122.02
20
-98.3942
11
121.991
21
-98.4362
0
LINE
8
BLACK
6
CONTINUOUS
10
121.991
20
-98.4362
11
121.941
21
-98.4495
0
LINE
8
BLACK
6
CONTINUOUS
10
121.941
20
-98.4495
11
121.895
21
-98.4278
0
LINE
8
BLACK
6
CONTINUOUS
10
121.895
20
-98.4278
11
121.847
21
-98.3802
0
LINE
8
BLACK
6
CONTINUOUS
10
121.847
20
-98.3802
11
121.834
21
-98.3618
0
LINE
8
BLACK
6
CONTINUOUS
10
121.834
20
-98.3618
11
121.833
21
-98.3607
0
LINE
8
BLACK
6
CONTINUOUS
10
121.833
20
-98.3607
11
121.785
21
-98.2654
0
LINE
8
BLACK
6
CONTINUOUS
10
121.785
20
-98.2654
11
121.778
21
-98.2405
0
LINE
8
BLACK
6
CONTINUOUS
10
121.778
20
-98.2405
11
121.779
21
-98.2361
0
LINE
8
BLACK
6
CONTINUOUS
10
121.779
20
-98.2361
11
121.777
21
-98.2319
0
LINE
8
BLACK
6
CONTINUOUS
10
121.777
20
-98.2319
11
121.777
21
-97.9938
0
LINE
8
BLACK
6
CONTINUOUS
10
121.777
20
-97.9938
11
121.782
21
-97.9682
0
LINE
8
BLACK
6
CONTINUOUS
10
121.782
20
-97.9682
11
121.785
21
-97.9647
0
LINE
8
BLACK
6
CONTINUOUS
10
121.785
20
-97.9647
11
121.785
21
-97.9603
0
LINE
8
BLACK
6
CONTINUOUS
10
121.785
20
-97.9603
11
121.833
21
-97.865
0
LINE
8
BLACK
6
CONTINUOUS
10
121.833
20
-97.865
11
121.846
21
-97.847
0
LINE
8
BLACK
6
CONTINUOUS
10
121.846
20
-97.847
11
121.847
21
-97.8455
0
LINE
8
BLACK
6
CONTINUOUS
10
121.847
20
-97.8455
11
121.895
21
-97.7979
0
LINE
8
BLACK
6
CONTINUOUS
10
121.895
20
-97.7979
11
121.913
21
-97.7851
0
LINE
8
BLACK
6
CONTINUOUS
10
121.913
20
-97.7851
11
121.914
21
-97.7839
0
LINE
8
BLACK
6
CONTINUOUS
10
121.914
20
-97.7839
11
122.009
21
-97.7363
0
LINE
8
BLACK
6
CONTINUOUS
10
122.009
20
-97.7363
11
122.034
21
-97.7288
0
LINE
8
BLACK
6
CONTINUOUS
10
122.034
20
-97.7288
11
122.039
21
-97.7299
0
LINE
8
BLACK
6
CONTINUOUS
10
122.039
20
-97.7299
11
122.043
21
-97.7283
0
LINE
8
BLACK
6
CONTINUOUS
10
122.043
20
-97.7283
11
122.138
21
-97.7283
0
LINE
8
BLACK
6
CONTINUOUS
10
122.138
20
-97.7283
11
122.16
21
-97.7322
0
LINE
8
BLACK
6
CONTINUOUS
10
134.452
20
-94.1676
11
134.47
21
-94.21
0
LINE
8
BLACK
6
CONTINUOUS
10
134.47
20
-94.21
11
134.47
21
-97.27
0
LINE
8
BLACK
6
CONTINUOUS
10
134.47
20
-97.27
11
134.452
21
-97.3124
0
LINE
8
BLACK
6
CONTINUOUS
10
134.452
20
-97.3124
11
134.41
21
-97.33
0
LINE
8
BLACK
6
CONTINUOUS
10
134.41
20
-97.33
11
134.368
21
-97.3124
0
LINE
8
BLACK
6
CONTINUOUS
10
134.368
20
-97.3124
11
134.35
21
-97.27
0
LINE
8
BLACK
6
CONTINUOUS
10
134.35
20
-97.27
11
134.35
21
-94.27
0
LINE
8
BLACK
6
CONTINUOUS
10
134.35
20
-94.27
11
124.73
21
-94.27
0
LINE
8
BLACK
6
CONTINUOUS
10
124.73
20
-94.27
11
124.73
21
-97.27
0
LINE
8
BLACK
6
CONTINUOUS
10
124.73
20
-97.27
11
124.712
21
-97.3124
0
LINE
8
BLACK
6
CONTINUOUS
10
124.712
20
-97.3124
11
124.67
21
-97.33
0
LINE
8
BLACK
6
CONTINUOUS
10
124.67
20
-97.33
11
124.628
21
-97.3124
0
LINE
8
BLACK
6
CONTINUOUS
10
124.628
20
-97.3124
11
124.61
21
-97.27
0
LINE
8
BLACK
6
CONTINUOUS
10
124.61
20
-97.27
11
124.61
21
-94.21
0
LINE
8
BLACK
6
CONTINUOUS
10
124.61
20
-94.21
11
124.628
21
-94.1676
0
LINE
8
BLACK
6
CONTINUOUS
10
124.628
20
-94.1676
11
124.67
21
-94.15
0
LINE
8
BLACK
6
CONTINUOUS
10
124.67
20
-94.15
11
134.41
21
-94.15
0
LINE
8
BLACK
6
CONTINUOUS
10
134.41
20
-94.15
11
134.452
21
-94.1676
0
LINE
8
BLACK
6
CONTINUOUS
10
132.878
20
-82.9824
11
132.86
21
-82.94
0
LINE
8
BLACK
6
CONTINUOUS
10
132.86
20
-82.94
11
132.878
21
-82.8976
0
LINE
8
BLACK
6
CONTINUOUS
10
132.878
20
-82.8976
11
132.92
21
-82.88
0
LINE
8
BLACK
6
CONTINUOUS
10
132.92
20
-82.88
11
134.35
21
-82.88
0
LINE
8
BLACK
6
CONTINUOUS
10
134.35
20
-82.88
11
134.35
21
-78.22
0
LINE
8
BLACK
6
CONTINUOUS
10
134.35
20
-78.22
11
134.368
21
-78.1776
0
LINE
8
BLACK
6
CONTINUOUS
10
134.368
20
-78.1776
11
134.41
21
-78.16
0
LINE
8
BLACK
6
CONTINUOUS
10
134.41
20
-78.16
11
134.452
21
-78.1776
0
LINE
8
BLACK
6
CONTINUOUS
10
134.452
20
-78.1776
11
134.47
21
-78.22
0
LINE
8
BLACK
6
CONTINUOUS
10
134.47
20
-78.22
11
134.47
21
-82.94
0
LINE
8
BLACK
6
CONTINUOUS
10
134.47
20
-82.94
11
134.452
21
-82.9824
0
LINE
8
BLACK
6
CONTINUOUS
10
134.452
20
-82.9824
11
134.41
21
-83
0
LINE
8
BLACK
6
CONTINUOUS
10
134.41
20
-83
11
132.92
21
-83
0
LINE
8
BLACK
6
CONTINUOUS
10
132.92
20
-83
11
132.878
21
-82.9824
0
LINE
8
BLACK
6
CONTINUOUS
10
124.702
20
-78.1776
11
124.72
21
-78.22
0
LINE
8
BLACK
6
CONTINUOUS
10
124.72
20
-78.22
11
124.72
21
-82.88
0
LINE
8
BLACK
6
CONTINUOUS
10
124.72
20
-82.88
11
125.85
21
-82.88
0
LINE
8
BLACK
6
CONTINUOUS
10
125.85
20
-82.88
11
125.892
21
-82.8976
0
LINE
8
BLACK
6
CONTINUOUS
10
125.892
20
-82.8976
11
125.91
21
-82.94
0
LINE
8
BLACK
6
CONTINUOUS
10
125.91
20
-82.94
11
125.892
21
-82.9824
0
LINE
8
BLACK
6
CONTINUOUS
10
125.892
20
-82.9824
11
125.85
21
-83
0
LINE
8
BLACK
6
CONTINUOUS
10
125.85
20
-83
11
124.67
21
-83
0
LINE
8
BLACK
6
CONTINUOUS
10
124.67
20
-83
11
124.665
21
-82.9979
0
LINE
8
BLACK
6
CONTINUOUS
10
124.665
20
-82.9979
11
124.66
21
-83
0
LINE
8
BLACK
6
CONTINUOUS
10
124.66
20
-83
11
124.618
21
-82.9824
0
LINE
8
BLACK
6
CONTINUOUS
10
124.618
20
-82.9824
11
124.6
21
-82.94
0
LINE
8
BLACK
6
CONTINUOUS
10
124.6
20
-82.94
11
124.6
21
-78.22
0
LINE
8
BLACK
6
CONTINUOUS
10
124.6
20
-78.22
11
124.618
21
-78.1776
0
LINE
8
BLACK
6
CONTINUOUS
10
124.618
20
-78.1776
11
124.66
21
-78.16
0
LINE
8
BLACK
6
CONTINUOUS
10
124.66
20
-78.16
11
124.702
21
-78.1776
0
LINE
8
BLACK
6
CONTINUOUS
10
131.242
20
-82.8976
11
131.26
21
-82.94
0
LINE
8
BLACK
6
CONTINUOUS
10
131.26
20
-82.94
11
131.242
21
-82.9824
0
LINE
8
BLACK
6
CONTINUOUS
10
131.242
20
-82.9824
11
131.2
21
-83
0
LINE
8
BLACK
6
CONTINUOUS
10
131.2
20
-83
11
130.37
21
-83
0
LINE
8
BLACK
6
CONTINUOUS
10
130.37
20
-83
11
130.328
21
-82.9824
0
LINE
8
BLACK
6
CONTINUOUS
10
130.328
20
-82.9824
11
130.31
21
-82.94
0
LINE
8
BLACK
6
CONTINUOUS
10
130.31
20
-82.94
11
130.328
21
-82.8976
0
LINE
8
BLACK
6
CONTINUOUS
10
130.328
20
-82.8976
11
130.37
21
-82.88
0
LINE
8
BLACK
6
CONTINUOUS
10
130.37
20
-82.88
11
131.2
21
-82.88
0
LINE
8
BLACK
6
CONTINUOUS
10
131.2
20
-82.88
11
131.242
21
-82.8976
0
LINE
8
BLACK
6
CONTINUOUS
10
128.792
20
-82.8976
11
128.81
21
-82.94
0
LINE
8
BLACK
6
CONTINUOUS
10
128.81
20
-82.94
11
128.792
21
-82.9824
0
LINE
8
BLACK
6
CONTINUOUS
10
128.792
20
-82.9824
11
128.75
21
-83
0
LINE
8
BLACK
6
CONTINUOUS
10
128.75
20
-83
11
128.22
21
-83
0
LINE
8
BLACK
6
CONTINUOUS
10
128.22
20
-83
11
128.178
21
-82.9824
0
LINE
8
BLACK
6
CONTINUOUS
10
128.178
20
-82.9824
11
128.16
21
-82.94
0
LINE
8
BLACK
6
CONTINUOUS
10
128.16
20
-82.94
11
128.178
21
-82.8976
0
LINE
8
BLACK
6
CONTINUOUS
10
128.178
20
-82.8976
11
128.22
21
-82.88
0
LINE
8
BLACK
6
CONTINUOUS
10
128.22
20
-82.88
11
128.75
21
-82.88
0
LINE
8
BLACK
6
CONTINUOUS
10
128.75
20
-82.88
11
128.792
21
-82.8976
0
LINE
8
BLACK
6
CONTINUOUS
10
122.211
20
-78.5871
11
122.215
21
-78.59
0
LINE
8
BLACK
6
CONTINUOUS
10
122.215
20
-78.59
11
122.219
21
-78.5905
0
LINE
8
BLACK
6
CONTINUOUS
10
122.219
20
-78.5905
11
122.314
21
-78.6382
0
LINE
8
BLACK
6
CONTINUOUS
10
122.314
20
-78.6382
11
122.333
21
-78.6515
0
LINE
8
BLACK
6
CONTINUOUS
10
122.333
20
-78.6515
11
122.334
21
-78.6522
0
LINE
8
BLACK
6
CONTINUOUS
10
122.334
20
-78.6522
11
122.382
21
-78.6998
0
LINE
8
BLACK
6
CONTINUOUS
10
122.382
20
-78.6998
11
122.394
21
-78.7182
0
LINE
8
BLACK
6
CONTINUOUS
10
122.394
20
-78.7182
11
122.396
21
-78.7193
0
LINE
8
BLACK
6
CONTINUOUS
10
122.396
20
-78.7193
11
122.443
21
-78.8146
0
LINE
8
BLACK
6
CONTINUOUS
10
122.443
20
-78.8146
11
122.451
21
-78.8395
0
LINE
8
BLACK
6
CONTINUOUS
10
122.451
20
-78.8395
11
122.45
21
-78.8439
0
LINE
8
BLACK
6
CONTINUOUS
10
122.45
20
-78.8439
11
122.451
21
-78.8471
0
LINE
8
BLACK
6
CONTINUOUS
10
122.451
20
-78.8471
11
122.809
21
-78.5962
0
LINE
8
BLACK
6
CONTINUOUS
10
122.809
20
-78.5962
11
122.833
21
-78.5852
0
LINE
8
BLACK
6
CONTINUOUS
10
122.833
20
-78.5852
11
122.884
21
-78.5896
0
LINE
8
BLACK
6
CONTINUOUS
10
122.884
20
-78.5896
11
122.92
21
-78.6259
0
LINE
8
BLACK
6
CONTINUOUS
10
122.92
20
-78.6259
11
122.925
21
-78.677
0
LINE
8
BLACK
6
CONTINUOUS
10
122.925
20
-78.677
11
122.895
21
-78.7191
0
LINE
8
BLACK
6
CONTINUOUS
10
122.895
20
-78.7191
11
122.451
21
-79.03
0
LINE
8
BLACK
6
CONTINUOUS
10
122.451
20
-79.03
11
122.451
21
-79.154
0
LINE
8
BLACK
6
CONTINUOUS
10
122.451
20
-79.154
11
122.852
21
-79.154
0
LINE
8
BLACK
6
CONTINUOUS
10
122.852
20
-79.154
11
122.878
21
-79.1586
0
LINE
8
BLACK
6
CONTINUOUS
10
122.878
20
-79.1586
11
122.917
21
-79.1915
0
LINE
8
BLACK
6
CONTINUOUS
10
122.917
20
-79.1915
11
122.926
21
-79.2421
0
LINE
8
BLACK
6
CONTINUOUS
10
122.926
20
-79.2421
11
122.901
21
-79.2865
0
LINE
8
BLACK
6
CONTINUOUS
10
122.901
20
-79.2865
11
122.852
21
-79.304
0
LINE
8
BLACK
6
CONTINUOUS
10
122.852
20
-79.304
11
121.852
21
-79.304
0
LINE
8
BLACK
6
CONTINUOUS
10
121.852
20
-79.304
11
121.843
21
-79.3023
0
LINE
8
BLACK
6
CONTINUOUS
10
121.843
20
-79.3023
11
121.839
21
-79.3029
0
LINE
8
BLACK
6
CONTINUOUS
10
121.839
20
-79.3029
11
121.836
21
-79.3012
0
LINE
8
BLACK
6
CONTINUOUS
10
121.836
20
-79.3012
11
121.827
21
-79.2995
0
LINE
8
BLACK
6
CONTINUOUS
10
121.827
20
-79.2995
11
121.812
21
-79.287
0
LINE
8
BLACK
6
CONTINUOUS
10
121.812
20
-79.287
11
121.795
21
-79.2773
0
LINE
8
BLACK
6
CONTINUOUS
10
121.795
20
-79.2773
11
121.793
21
-79.2709
0
LINE
8
BLACK
6
CONTINUOUS
10
121.793
20
-79.2709
11
121.787
21
-79.2665
0
LINE
8
BLACK
6
CONTINUOUS
10
121.787
20
-79.2665
11
121.784
21
-79.2474
0
LINE
8
BLACK
6
CONTINUOUS
10
121.784
20
-79.2474
11
121.777
21
-79.229
0
LINE
8
BLACK
6
CONTINUOUS
10
121.777
20
-79.229
11
121.777
21
-78.8481
0
LINE
8
BLACK
6
CONTINUOUS
10
121.777
20
-78.8481
11
121.782
21
-78.8224
0
LINE
8
BLACK
6
CONTINUOUS
10
121.782
20
-78.8224
11
121.785
21
-78.819
0
LINE
8
BLACK
6
CONTINUOUS
10
121.785
20
-78.819
11
121.785
21
-78.8146
0
LINE
8
BLACK
6
CONTINUOUS
10
121.785
20
-78.8146
11
121.833
21
-78.7193
0
LINE
8
BLACK
6
CONTINUOUS
10
121.833
20
-78.7193
11
121.846
21
-78.7013
0
LINE
8
BLACK
6
CONTINUOUS
10
121.846
20
-78.7013
11
121.847
21
-78.6998
0
LINE
8
BLACK
6
CONTINUOUS
10
121.847
20
-78.6998
11
121.895
21
-78.6522
0
LINE
8
BLACK
6
CONTINUOUS
10
121.895
20
-78.6522
11
121.913
21
-78.6393
0
LINE
8
BLACK
6
CONTINUOUS
10
121.913
20
-78.6393
11
121.914
21
-78.6382
0
LINE
8
BLACK
6
CONTINUOUS
10
121.914
20
-78.6382
11
122.009
21
-78.5905
0
LINE
8
BLACK
6
CONTINUOUS
10
122.009
20
-78.5905
11
122.034
21
-78.5831
0
LINE
8
BLACK
6
CONTINUOUS
10
122.034
20
-78.5831
11
122.039
21
-78.5842
0
LINE
8
BLACK
6
CONTINUOUS
10
122.039
20
-78.5842
11
122.043
21
-78.5826
0
LINE
8
BLACK
6
CONTINUOUS
10
122.043
20
-78.5826
11
122.186
21
-78.5826
0
LINE
8
BLACK
6
CONTINUOUS
10
122.186
20
-78.5826
11
122.211
21
-78.5871
0
LINE
8
BLACK
6
CONTINUOUS
10
122.061
20
-78.7326
11
121.992
21
-78.7669
0
LINE
8
BLACK
6
CONTINUOUS
10
121.992
20
-78.7669
11
121.962
21
-78.7973
0
LINE
8
BLACK
6
CONTINUOUS
10
121.962
20
-78.7973
11
121.927
21
-78.8658
0
LINE
8
BLACK
6
CONTINUOUS
10
121.927
20
-78.8658
11
121.927
21
-79.154
0
LINE
8
BLACK
6
CONTINUOUS
10
121.927
20
-79.154
11
122.301
21
-79.154
0
LINE
8
BLACK
6
CONTINUOUS
10
122.301
20
-79.154
11
122.301
21
-78.8658
0
LINE
8
BLACK
6
CONTINUOUS
10
122.301
20
-78.8658
11
122.267
21
-78.7973
0
LINE
8
BLACK
6
CONTINUOUS
10
122.267
20
-78.7973
11
122.237
21
-78.7669
0
LINE
8
BLACK
6
CONTINUOUS
10
122.237
20
-78.7669
11
122.168
21
-78.7326
0
LINE
8
BLACK
6
CONTINUOUS
10
122.168
20
-78.7326
11
122.061
21
-78.7326
0
LINE
8
BLACK
6
CONTINUOUS
10
122.876
20
-77.9674
11
122.899
21
-77.9798
0
LINE
8
BLACK
6
CONTINUOUS
10
122.899
20
-77.9798
11
122.9
21
-77.9817
0
LINE
8
BLACK
6
CONTINUOUS
10
122.9
20
-77.9817
11
122.902
21
-77.9825
0
LINE
8
BLACK
6
CONTINUOUS
10
122.902
20
-77.9825
11
122.913
21
-78.0033
0
LINE
8
BLACK
6
CONTINUOUS
10
122.913
20
-78.0033
11
122.926
21
-78.0235
0
LINE
8
BLACK
6
CONTINUOUS
10
122.926
20
-78.0235
11
122.926
21
-78.0257
0
LINE
8
BLACK
6
CONTINUOUS
10
122.926
20
-78.0257
11
122.927
21
-78.0276
0
LINE
8
BLACK
6
CONTINUOUS
10
122.927
20
-78.0276
11
122.922
21
-78.0508
0
LINE
8
BLACK
6
CONTINUOUS
10
122.922
20
-78.0508
11
122.918
21
-78.0743
0
LINE
8
BLACK
6
CONTINUOUS
10
122.918
20
-78.0743
11
122.917
21
-78.0757
0
LINE
8
BLACK
6
CONTINUOUS
10
122.917
20
-78.0757
11
122.916
21
-78.0778
0
LINE
8
BLACK
6
CONTINUOUS
10
122.916
20
-78.0778
11
122.898
21
-78.0926
0
LINE
8
BLACK
6
CONTINUOUS
10
122.898
20
-78.0926
11
122.88
21
-78.1083
0
LINE
8
BLACK
6
CONTINUOUS
10
122.88
20
-78.1083
11
122.878
21
-78.1084
0
LINE
8
BLACK
6
CONTINUOUS
10
122.878
20
-78.1084
11
122.876
21
-78.1097
0
LINE
8
BLACK
6
CONTINUOUS
10
122.876
20
-78.1097
11
121.876
21
-78.4431
0
LINE
8
BLACK
6
CONTINUOUS
10
121.876
20
-78.4431
11
121.85
21
-78.4469
0
LINE
8
BLACK
6
CONTINUOUS
10
121.85
20
-78.4469
11
121.803
21
-78.428
0
LINE
8
BLACK
6
CONTINUOUS
10
121.803
20
-78.428
11
121.778
21
-78.3829
0
LINE
8
BLACK
6
CONTINUOUS
10
121.778
20
-78.3829
11
121.788
21
-78.3326
0
LINE
8
BLACK
6
CONTINUOUS
10
121.788
20
-78.3326
11
121.829
21
-78.3008
0
LINE
8
BLACK
6
CONTINUOUS
10
121.829
20
-78.3008
11
122.615
21
-78.0386
0
LINE
8
BLACK
6
CONTINUOUS
10
122.615
20
-78.0386
11
121.829
21
-77.7764
0
LINE
8
BLACK
6
CONTINUOUS
10
121.829
20
-77.7764
11
121.806
21
-77.764
0
LINE
8
BLACK
6
CONTINUOUS
10
121.806
20
-77.764
11
121.779
21
-77.7203
0
LINE
8
BLACK
6
CONTINUOUS
10
121.779
20
-77.7203
11
121.786
21
-77.6695
0
LINE
8
BLACK
6
CONTINUOUS
10
121.786
20
-77.6695
11
121.825
21
-77.6355
0
LINE
8
BLACK
6
CONTINUOUS
10
121.825
20
-77.6355
11
121.876
21
-77.6341
0
LINE
8
BLACK
6
CONTINUOUS
10
121.876
20
-77.6341
11
122.876
21
-77.9674
0
LINE
8
BLACK
6
CONTINUOUS
10
122.688
20
-76.7776
11
122.691
21
-76.7805
0
LINE
8
BLACK
6
CONTINUOUS
10
122.691
20
-76.7805
11
122.695
21
-76.781
0
LINE
8
BLACK
6
CONTINUOUS
10
122.695
20
-76.781
11
122.791
21
-76.8286
0
LINE
8
BLACK
6
CONTINUOUS
10
122.791
20
-76.8286
11
122.809
21
-76.842
0
LINE
8
BLACK
6
CONTINUOUS
10
122.809
20
-76.842
11
122.81
21
-76.8427
0
LINE
8
BLACK
6
CONTINUOUS
10
122.81
20
-76.8427
11
122.858
21
-76.8903
0
LINE
8
BLACK
6
CONTINUOUS
10
122.858
20
-76.8903
11
122.871
21
-76.9087
0
LINE
8
BLACK
6
CONTINUOUS
10
122.871
20
-76.9087
11
122.872
21
-76.9098
0
LINE
8
BLACK
6
CONTINUOUS
10
122.872
20
-76.9098
11
122.919
21
-77.005
0
LINE
8
BLACK
6
CONTINUOUS
10
122.919
20
-77.005
11
122.927
21
-77.03
0
LINE
8
BLACK
6
CONTINUOUS
10
122.927
20
-77.03
11
122.926
21
-77.0344
0
LINE
8
BLACK
6
CONTINUOUS
10
122.926
20
-77.0344
11
122.927
21
-77.0386
0
LINE
8
BLACK
6
CONTINUOUS
10
122.927
20
-77.0386
11
122.927
21
-77.2767
0
LINE
8
BLACK
6
CONTINUOUS
10
122.927
20
-77.2767
11
122.923
21
-77.3023
0
LINE
8
BLACK
6
CONTINUOUS
10
122.923
20
-77.3023
11
122.92
21
-77.3058
0
LINE
8
BLACK
6
CONTINUOUS
10
122.92
20
-77.3058
11
122.919
21
-77.3102
0
LINE
8
BLACK
6
CONTINUOUS
10
122.919
20
-77.3102
11
122.872
21
-77.4054
0
LINE
8
BLACK
6
CONTINUOUS
10
122.872
20
-77.4054
11
122.858
21
-77.4235
0
LINE
8
BLACK
6
CONTINUOUS
10
122.858
20
-77.4235
11
122.858
21
-77.4249
0
LINE
8
BLACK
6
CONTINUOUS
10
122.858
20
-77.4249
11
122.81
21
-77.4726
0
LINE
8
BLACK
6
CONTINUOUS
10
122.81
20
-77.4726
11
122.789
21
-77.4875
0
LINE
8
BLACK
6
CONTINUOUS
10
122.789
20
-77.4875
11
122.738
21
-77.492
0
LINE
8
BLACK
6
CONTINUOUS
10
122.738
20
-77.492
11
122.696
21
-77.4625
0
LINE
8
BLACK
6
CONTINUOUS
10
122.696
20
-77.4625
11
122.682
21
-77.413
0
LINE
8
BLACK
6
CONTINUOUS
10
122.682
20
-77.413
11
122.704
21
-77.3665
0
LINE
8
BLACK
6
CONTINUOUS
10
122.704
20
-77.3665
11
122.743
21
-77.3275
0
LINE
8
BLACK
6
CONTINUOUS
10
122.743
20
-77.3275
11
122.777
21
-77.259
0
LINE
8
BLACK
6
CONTINUOUS
10
122.777
20
-77.259
11
122.777
21
-77.0563
0
LINE
8
BLACK
6
CONTINUOUS
10
122.777
20
-77.0563
11
122.743
21
-76.9878
0
LINE
8
BLACK
6
CONTINUOUS
10
122.743
20
-76.9878
11
122.713
21
-76.9574
0
LINE
8
BLACK
6
CONTINUOUS
10
122.713
20
-76.9574
11
122.644
21
-76.9231
0
LINE
8
BLACK
6
CONTINUOUS
10
122.644
20
-76.9231
11
122.442
21
-76.9231
0
LINE
8
BLACK
6
CONTINUOUS
10
122.442
20
-76.9231
11
122.373
21
-76.9574
0
LINE
8
BLACK
6
CONTINUOUS
10
122.373
20
-76.9574
11
122.343
21
-76.9878
0
LINE
8
BLACK
6
CONTINUOUS
10
122.343
20
-76.9878
11
122.308
21
-77.0563
0
LINE
8
BLACK
6
CONTINUOUS
10
122.308
20
-77.0563
11
122.308
21
-77.259
0
LINE
8
BLACK
6
CONTINUOUS
10
122.308
20
-77.259
11
122.343
21
-77.3275
0
LINE
8
BLACK
6
CONTINUOUS
10
122.343
20
-77.3275
11
122.382
21
-77.3665
0
LINE
8
BLACK
6
CONTINUOUS
10
122.382
20
-77.3665
11
122.397
21
-77.3878
0
LINE
8
BLACK
6
CONTINUOUS
10
122.397
20
-77.3878
11
122.397
21
-77.3883
0
LINE
8
BLACK
6
CONTINUOUS
10
122.397
20
-77.3883
11
122.397
21
-77.3887
0
LINE
8
BLACK
6
CONTINUOUS
10
122.397
20
-77.3887
11
122.399
21
-77.4138
0
LINE
8
BLACK
6
CONTINUOUS
10
122.399
20
-77.4138
11
122.401
21
-77.4389
0
LINE
8
BLACK
6
CONTINUOUS
10
122.401
20
-77.4389
11
122.401
21
-77.4393
0
LINE
8
BLACK
6
CONTINUOUS
10
122.401
20
-77.4393
11
122.401
21
-77.4398
0
LINE
8
BLACK
6
CONTINUOUS
10
122.401
20
-77.4398
11
122.386
21
-77.4603
0
LINE
8
BLACK
6
CONTINUOUS
10
122.386
20
-77.4603
11
122.372
21
-77.481
0
LINE
8
BLACK
6
CONTINUOUS
10
122.372
20
-77.481
11
122.371
21
-77.4811
0
LINE
8
BLACK
6
CONTINUOUS
10
122.371
20
-77.4811
11
122.371
21
-77.4815
0
LINE
8
BLACK
6
CONTINUOUS
10
122.371
20
-77.4815
11
122.346
21
-77.4877
0
LINE
8
BLACK
6
CONTINUOUS
10
122.346
20
-77.4877
11
122.322
21
-77.4942
0
LINE
8
BLACK
6
CONTINUOUS
10
122.322
20
-77.4942
11
122.322
21
-77.494
0
LINE
8
BLACK
6
CONTINUOUS
10
122.322
20
-77.494
11
122.321
21
-77.4942
0
LINE
8
BLACK
6
CONTINUOUS
10
122.321
20
-77.4942
11
121.845
21
-77.4465
0
LINE
8
BLACK
6
CONTINUOUS
10
121.845
20
-77.4465
11
121.841
21
-77.4455
0
LINE
8
BLACK
6
CONTINUOUS
10
121.841
20
-77.4455
11
121.839
21
-77.4458
0
LINE
8
BLACK
6
CONTINUOUS
10
121.839
20
-77.4458
11
121.837
21
-77.4442
0
LINE
8
BLACK
6
CONTINUOUS
10
121.837
20
-77.4442
11
121.82
21
-77.4395
0
LINE
8
BLACK
6
CONTINUOUS
10
121.82
20
-77.4395
11
121.809
21
-77.4281
0
LINE
8
BLACK
6
CONTINUOUS
10
121.809
20
-77.4281
11
121.795
21
-77.4201
0
LINE
8
BLACK
6
CONTINUOUS
10
121.795
20
-77.4201
11
121.791
21
-77.4103
0
LINE
8
BLACK
6
CONTINUOUS
10
121.791
20
-77.4103
11
121.784
21
-77.4028
0
LINE
8
BLACK
6
CONTINUOUS
10
121.784
20
-77.4028
11
121.783
21
-77.3869
0
LINE
8
BLACK
6
CONTINUOUS
10
121.783
20
-77.3869
11
121.777
21
-77.3719
0
LINE
8
BLACK
6
CONTINUOUS
10
121.777
20
-77.3719
11
121.777
21
-76.8957
0
LINE
8
BLACK
6
CONTINUOUS
10
121.777
20
-76.8957
11
121.782
21
-76.8701
0
LINE
8
BLACK
6
CONTINUOUS
10
121.782
20
-76.8701
11
121.815
21
-76.8308
0
LINE
8
BLACK
6
CONTINUOUS
10
121.815
20
-76.8308
11
121.865
21
-76.8219
0
LINE
8
BLACK
6
CONTINUOUS
10
121.865
20
-76.8219
11
121.91
21
-76.8475
0
LINE
8
BLACK
6
CONTINUOUS
10
121.91
20
-76.8475
11
121.927
21
-76.8957
0
LINE
8
BLACK
6
CONTINUOUS
10
121.927
20
-76.8957
11
121.927
21
-77.304
0
LINE
8
BLACK
6
CONTINUOUS
10
121.927
20
-77.304
11
122.176
21
-77.3288
0
LINE
8
BLACK
6
CONTINUOUS
10
122.176
20
-77.3288
11
122.166
21
-77.3102
0
LINE
8
BLACK
6
CONTINUOUS
10
122.166
20
-77.3102
11
122.159
21
-77.2852
0
LINE
8
BLACK
6
CONTINUOUS
10
122.159
20
-77.2852
11
122.16
21
-77.2809
0
LINE
8
BLACK
6
CONTINUOUS
10
122.16
20
-77.2809
11
122.158
21
-77.2767
0
LINE
8
BLACK
6
CONTINUOUS
10
122.158
20
-77.2767
11
122.158
21
-77.0386
0
LINE
8
BLACK
6
CONTINUOUS
10
122.158
20
-77.0386
11
122.163
21
-77.0129
0
LINE
8
BLACK
6
CONTINUOUS
10
122.163
20
-77.0129
11
122.166
21
-77.0095
0
LINE
8
BLACK
6
CONTINUOUS
10
122.166
20
-77.0095
11
122.166
21
-77.005
0
LINE
8
BLACK
6
CONTINUOUS
10
122.166
20
-77.005
11
122.214
21
-76.9098
0
LINE
8
BLACK
6
CONTINUOUS
10
122.214
20
-76.9098
11
122.227
21
-76.8918
0
LINE
8
BLACK
6
CONTINUOUS
10
122.227
20
-76.8918
11
122.228
21
-76.8903
0
LINE
8
BLACK
6
CONTINUOUS
10
122.228
20
-76.8903
11
122.276
21
-76.8427
0
LINE
8
BLACK
6
CONTINUOUS
10
122.276
20
-76.8427
11
122.294
21
-76.8298
0
LINE
8
BLACK
6
CONTINUOUS
10
122.294
20
-76.8298
11
122.295
21
-76.8286
0
LINE
8
BLACK
6
CONTINUOUS
10
122.295
20
-76.8286
11
122.39
21
-76.781
0
LINE
8
BLACK
6
CONTINUOUS
10
122.39
20
-76.781
11
122.415
21
-76.7736
0
LINE
8
BLACK
6
CONTINUOUS
10
122.415
20
-76.7736
11
122.42
21
-76.7746
0
LINE
8
BLACK
6
CONTINUOUS
10
122.42
20
-76.7746
11
122.424
21
-76.7731
0
LINE
8
BLACK
6
CONTINUOUS
10
122.424
20
-76.7731
11
122.662
21
-76.7731
0
LINE
8
BLACK
6
CONTINUOUS
10
122.662
20
-76.7731
11
122.688
21
-76.7776
0
LINE
8
BLACK
6
CONTINUOUS
10
122.486
20
-75.8233
11
122.49
21
-75.823
0
LINE
8
BLACK
6
CONTINUOUS
10
122.49
20
-75.823
11
122.68
21
-75.8706
0
LINE
8
BLACK
6
CONTINUOUS
10
122.68
20
-75.8706
11
122.692
21
-75.8758
0
LINE
8
BLACK
6
CONTINUOUS
10
122.692
20
-75.8758
11
122.695
21
-75.8763
0
LINE
8
BLACK
6
CONTINUOUS
10
122.695
20
-75.8763
11
122.791
21
-75.9239
0
LINE
8
BLACK
6
CONTINUOUS
10
122.791
20
-75.9239
11
122.809
21
-75.9372
0
LINE
8
BLACK
6
CONTINUOUS
10
122.809
20
-75.9372
11
122.81
21
-75.9379
0
LINE
8
BLACK
6
CONTINUOUS
10
122.81
20
-75.9379
11
122.858
21
-75.9855
0
LINE
8
BLACK
6
CONTINUOUS
10
122.858
20
-75.9855
11
122.871
21
-76.0039
0
LINE
8
BLACK
6
CONTINUOUS
10
122.871
20
-76.0039
11
122.872
21
-76.005
0
LINE
8
BLACK
6
CONTINUOUS
10
122.872
20
-76.005
11
122.919
21
-76.1003
0
LINE
8
BLACK
6
CONTINUOUS
10
122.919
20
-76.1003
11
122.927
21
-76.1252
0
LINE
8
BLACK
6
CONTINUOUS
10
122.927
20
-76.1252
11
122.926
21
-76.1296
0
LINE
8
BLACK
6
CONTINUOUS
10
122.926
20
-76.1296
11
122.927
21
-76.1338
0
LINE
8
BLACK
6
CONTINUOUS
10
122.927
20
-76.1338
11
122.927
21
-76.229
0
LINE
8
BLACK
6
CONTINUOUS
10
122.927
20
-76.229
11
122.923
21
-76.2547
0
LINE
8
BLACK
6
CONTINUOUS
10
122.923
20
-76.2547
11
122.92
21
-76.2581
0
LINE
8
BLACK
6
CONTINUOUS
10
122.92
20
-76.2581
11
122.919
21
-76.2626
0
LINE
8
BLACK
6
CONTINUOUS
10
122.919
20
-76.2626
11
122.872
21
-76.3578
0
LINE
8
BLACK
6
CONTINUOUS
10
122.872
20
-76.3578
11
122.858
21
-76.3758
0
LINE
8
BLACK
6
CONTINUOUS
10
122.858
20
-76.3758
11
122.858
21
-76.3773
0
LINE
8
BLACK
6
CONTINUOUS
10
122.858
20
-76.3773
11
122.81
21
-76.4249
0
LINE
8
BLACK
6
CONTINUOUS
10
122.81
20
-76.4249
11
122.792
21
-76.4378
0
LINE
8
BLACK
6
CONTINUOUS
10
122.792
20
-76.4378
11
122.791
21
-76.439
0
LINE
8
BLACK
6
CONTINUOUS
10
122.791
20
-76.439
11
122.695
21
-76.4866
0
LINE
8
BLACK
6
CONTINUOUS
10
122.695
20
-76.4866
11
122.683
21
-76.4903
0
LINE
8
BLACK
6
CONTINUOUS
10
122.683
20
-76.4903
11
122.68
21
-76.4923
0
LINE
8
BLACK
6
CONTINUOUS
10
122.68
20
-76.4923
11
122.49
21
-76.5399
0
LINE
8
BLACK
6
CONTINUOUS
10
122.49
20
-76.5399
11
122.475
21
-76.541
0
LINE
8
BLACK
6
CONTINUOUS
10
122.475
20
-76.541
11
122.471
21
-76.5421
0
LINE
8
BLACK
6
CONTINUOUS
10
122.471
20
-76.5421
11
122.233
21
-76.5421
0
LINE
8
BLACK
6
CONTINUOUS
10
122.233
20
-76.5421
11
122.219
21
-76.5395
0
LINE
8
BLACK
6
CONTINUOUS
10
122.219
20
-76.5395
11
122.215
21
-76.5399
0
LINE
8
BLACK
6
CONTINUOUS
10
122.215
20
-76.5399
11
122.025
21
-76.4923
0
LINE
8
BLACK
6
CONTINUOUS
10
122.025
20
-76.4923
11
122.013
21
-76.487
0
LINE
8
BLACK
6
CONTINUOUS
10
122.013
20
-76.487
11
122.009
21
-76.4866
0
LINE
8
BLACK
6
CONTINUOUS
10
122.009
20
-76.4866
11
121.914
21
-76.439
0
LINE
8
BLACK
6
CONTINUOUS
10
121.914
20
-76.439
11
121.896
21
-76.4256
0
LINE
8
BLACK
6
CONTINUOUS
10
121.896
20
-76.4256
11
121.895
21
-76.4249
0
LINE
8
BLACK
6
CONTINUOUS
10
121.895
20
-76.4249
11
121.847
21
-76.3773
0
LINE
8
BLACK
6
CONTINUOUS
10
121.847
20
-76.3773
11
121.834
21
-76.359
0
LINE
8
BLACK
6
CONTINUOUS
10
121.834
20
-76.359
11
121.833
21
-76.3578
0
LINE
8
BLACK
6
CONTINUOUS
10
121.833
20
-76.3578
11
121.785
21
-76.2626
0
LINE
8
BLACK
6
CONTINUOUS
10
121.785
20
-76.2626
11
121.778
21
-76.2376
0
LINE
8
BLACK
6
CONTINUOUS
10
121.778
20
-76.2376
11
121.779
21
-76.2333
0
LINE
8
BLACK
6
CONTINUOUS
10
121.779
20
-76.2333
11
121.777
21
-76.229
0
LINE
8
BLACK
6
CONTINUOUS
10
121.777
20
-76.229
11
121.777
21
-76.1338
0
LINE
8
BLACK
6
CONTINUOUS
10
121.777
20
-76.1338
11
121.782
21
-76.1082
0
LINE
8
BLACK
6
CONTINUOUS
10
121.782
20
-76.1082
11
121.785
21
-76.1047
0
LINE
8
BLACK
6
CONTINUOUS
10
121.785
20
-76.1047
11
121.785
21
-76.1003
0
LINE
8
BLACK
6
CONTINUOUS
10
121.785
20
-76.1003
11
121.833
21
-76.005
0
LINE
8
BLACK
6
CONTINUOUS
10
121.833
20
-76.005
11
121.846
21
-75.987
0
LINE
8
BLACK
6
CONTINUOUS
10
121.846
20
-75.987
11
121.847
21
-75.9855
0
LINE
8
BLACK
6
CONTINUOUS
10
121.847
20
-75.9855
11
121.895
21
-75.9379
0
LINE
8
BLACK
6
CONTINUOUS
10
121.895
20
-75.9379
11
121.913
21
-75.9251
0
LINE
8
BLACK
6
CONTINUOUS
10
121.913
20
-75.9251
11
121.914
21
-75.9239
0
LINE
8
BLACK
6
CONTINUOUS
10
121.914
20
-75.9239
11
122.009
21
-75.8763
0
LINE
8
BLACK
6
CONTINUOUS
10
122.009
20
-75.8763
11
122.022
21
-75.8726
0
LINE
8
BLACK
6
CONTINUOUS
10
122.022
20
-75.8726
11
122.025
21
-75.8706
0
LINE
8
BLACK
6
CONTINUOUS
10
122.025
20
-75.8706
11
122.215
21
-75.823
0
LINE
8
BLACK
6
CONTINUOUS
10
122.215
20
-75.823
11
122.23
21
-75.8219
0
LINE
8
BLACK
6
CONTINUOUS
10
122.23
20
-75.8219
11
122.233
21
-75.8207
0
LINE
8
BLACK
6
CONTINUOUS
10
122.233
20
-75.8207
11
122.471
21
-75.8207
0
LINE
8
BLACK
6
CONTINUOUS
10
122.471
20
-75.8207
11
122.486
21
-75.8233
0
LINE
8
BLACK
6
CONTINUOUS
10
122.243
20
-75.9707
11
122.069
21
-76.0141
0
LINE
8
BLACK
6
CONTINUOUS
10
122.069
20
-76.0141
11
121.992
21
-76.0526
0
LINE
8
BLACK
6
CONTINUOUS
10
121.992
20
-76.0526
11
121.962
21
-76.083
0
LINE
8
BLACK
6
CONTINUOUS
10
121.962
20
-76.083
11
121.927
21
-76.1515
0
LINE
8
BLACK
6
CONTINUOUS
10
121.927
20
-76.1515
11
121.927
21
-76.2113
0
LINE
8
BLACK
6
CONTINUOUS
10
121.927
20
-76.2113
11
121.962
21
-76.2799
0
LINE
8
BLACK
6
CONTINUOUS
10
121.962
20
-76.2799
11
121.992
21
-76.3103
0
LINE
8
BLACK
6
CONTINUOUS
10
121.992
20
-76.3103
11
122.069
21
-76.3488
0
LINE
8
BLACK
6
CONTINUOUS
10
122.069
20
-76.3488
11
122.243
21
-76.3921
0
LINE
8
BLACK
6
CONTINUOUS
10
122.243
20
-76.3921
11
122.462
21
-76.3921
0
LINE
8
BLACK
6
CONTINUOUS
10
122.462
20
-76.3921
11
122.636
21
-76.3488
0
LINE
8
BLACK
6
CONTINUOUS
10
122.636
20
-76.3488
11
122.713
21
-76.3103
0
LINE
8
BLACK
6
CONTINUOUS
10
122.713
20
-76.3103
11
122.743
21
-76.2799
0
LINE
8
BLACK
6
CONTINUOUS
10
122.743
20
-76.2799
11
122.777
21
-76.2113
0
LINE
8
BLACK
6
CONTINUOUS
10
122.777
20
-76.2113
11
122.777
21
-76.1515
0
LINE
8
BLACK
6
CONTINUOUS
10
122.777
20
-76.1515
11
122.743
21
-76.083
0
LINE
8
BLACK
6
CONTINUOUS
10
122.743
20
-76.083
11
122.713
21
-76.0526
0
LINE
8
BLACK
6
CONTINUOUS
10
122.713
20
-76.0526
11
122.636
21
-76.0141
0
LINE
8
BLACK
6
CONTINUOUS
10
122.636
20
-76.0141
11
122.462
21
-75.9707
0
LINE
8
BLACK
6
CONTINUOUS
10
122.462
20
-75.9707
11
122.243
21
-75.9707
0
LINE
8
BLACK
6
CONTINUOUS
10
122.91
20
-74.8951
11
122.927
21
-74.9433
0
LINE
8
BLACK
6
CONTINUOUS
10
122.927
20
-74.9433
11
122.927
21
-75.5148
0
LINE
8
BLACK
6
CONTINUOUS
10
122.927
20
-75.5148
11
122.923
21
-75.5404
0
LINE
8
BLACK
6
CONTINUOUS
10
122.923
20
-75.5404
11
122.89
21
-75.5797
0
LINE
8
BLACK
6
CONTINUOUS
10
122.89
20
-75.5797
11
122.839
21
-75.5886
0
LINE
8
BLACK
6
CONTINUOUS
10
122.839
20
-75.5886
11
122.795
21
-75.563
0
LINE
8
BLACK
6
CONTINUOUS
10
122.795
20
-75.563
11
122.777
21
-75.5148
0
LINE
8
BLACK
6
CONTINUOUS
10
122.777
20
-75.5148
11
122.777
21
-75.304
0
LINE
8
BLACK
6
CONTINUOUS
10
122.777
20
-75.304
11
122.081
21
-75.304
0
LINE
8
BLACK
6
CONTINUOUS
10
122.081
20
-75.304
11
122.144
21
-75.3665
0
LINE
8
BLACK
6
CONTINUOUS
10
122.144
20
-75.3665
11
122.156
21
-75.3849
0
LINE
8
BLACK
6
CONTINUOUS
10
122.156
20
-75.3849
11
122.158
21
-75.386
0
LINE
8
BLACK
6
CONTINUOUS
10
122.158
20
-75.386
11
122.205
21
-75.4812
0
LINE
8
BLACK
6
CONTINUOUS
10
122.205
20
-75.4812
11
122.213
21
-75.5062
0
LINE
8
BLACK
6
CONTINUOUS
10
122.213
20
-75.5062
11
122.201
21
-75.5561
0
LINE
8
BLACK
6
CONTINUOUS
10
122.201
20
-75.5561
11
122.159
21
-75.5866
0
LINE
8
BLACK
6
CONTINUOUS
10
122.159
20
-75.5866
11
122.108
21
-75.5836
0
LINE
8
BLACK
6
CONTINUOUS
10
122.108
20
-75.5836
11
122.071
21
-75.5483
0
LINE
8
BLACK
6
CONTINUOUS
10
122.071
20
-75.5483
11
122.029
21
-75.4639
0
LINE
8
BLACK
6
CONTINUOUS
10
122.029
20
-75.4639
11
121.947
21
-75.3826
0
LINE
8
BLACK
6
CONTINUOUS
10
121.947
20
-75.3826
11
121.811
21
-75.2915
0
LINE
8
BLACK
6
CONTINUOUS
10
121.811
20
-75.2915
11
121.792
21
-75.2735
0
LINE
8
BLACK
6
CONTINUOUS
10
121.792
20
-75.2735
11
121.791
21
-75.2693
0
LINE
8
BLACK
6
CONTINUOUS
10
121.791
20
-75.2693
11
121.787
21
-75.2665
0
LINE
8
BLACK
6
CONTINUOUS
10
121.787
20
-75.2665
11
121.784
21
-75.2451
0
LINE
8
BLACK
6
CONTINUOUS
10
121.784
20
-75.2451
11
121.778
21
-75.2242
0
LINE
8
BLACK
6
CONTINUOUS
10
121.778
20
-75.2242
11
121.779
21
-75.2203
0
LINE
8
BLACK
6
CONTINUOUS
10
121.779
20
-75.2203
11
121.779
21
-75.216
0
LINE
8
BLACK
6
CONTINUOUS
10
121.779
20
-75.216
11
121.789
21
-75.1972
0
LINE
8
BLACK
6
CONTINUOUS
10
121.789
20
-75.1972
11
121.798
21
-75.1772
0
LINE
8
BLACK
6
CONTINUOUS
10
121.798
20
-75.1772
11
121.802
21
-75.1753
0
LINE
8
BLACK
6
CONTINUOUS
10
121.802
20
-75.1753
11
121.804
21
-75.1716
0
LINE
8
BLACK
6
CONTINUOUS
10
121.804
20
-75.1716
11
121.825
21
-75.1641
0
LINE
8
BLACK
6
CONTINUOUS
10
121.825
20
-75.1641
11
121.844
21
-75.1545
0
LINE
8
BLACK
6
CONTINUOUS
10
121.844
20
-75.1545
11
121.848
21
-75.1555
0
LINE
8
BLACK
6
CONTINUOUS
10
121.848
20
-75.1555
11
121.852
21
-75.154
0
LINE
8
BLACK
6
CONTINUOUS
10
121.852
20
-75.154
11
122.777
21
-75.154
0
LINE
8
BLACK
6
CONTINUOUS
10
122.777
20
-75.154
11
122.777
21
-74.9433
0
LINE
8
BLACK
6
CONTINUOUS
10
122.777
20
-74.9433
11
122.782
21
-74.9177
0
LINE
8
BLACK
6
CONTINUOUS
10
122.782
20
-74.9177
11
122.815
21
-74.8784
0
LINE
8
BLACK
6
CONTINUOUS
10
122.815
20
-74.8784
11
122.865
21
-74.8695
0
LINE
8
BLACK
6
CONTINUOUS
10
122.865
20
-74.8695
11
122.91
21
-74.8951
0
LINE
8
BLACK
6
CONTINUOUS
10
134.452
20
-71.3076
11
134.47
21
-71.35
0
LINE
8
BLACK
6
CONTINUOUS
10
134.47
20
-71.35
11
134.47
21
-74.41
0
LINE
8
BLACK
6
CONTINUOUS
10
134.47
20
-74.41
11
134.452
21
-74.4524
0
LINE
8
BLACK
6
CONTINUOUS
10
134.452
20
-74.4524
11
134.41
21
-74.47
0
LINE
8
BLACK
6
CONTINUOUS
10
134.41
20
-74.47
11
134.368
21
-74.4524
0
LINE
8
BLACK
6
CONTINUOUS
10
134.368
20
-74.4524
11
134.35
21
-74.41
0
LINE
8
BLACK
6
CONTINUOUS
10
134.35
20
-74.41
11
134.35
21
-71.41
0
LINE
8
BLACK
6
CONTINUOUS
10
134.35
20
-71.41
11
124.73
21
-71.41
0
LINE
8
BLACK
6
CONTINUOUS
10
124.73
20
-71.41
11
124.73
21
-74.41
0
LINE
8
BLACK
6
CONTINUOUS
10
124.73
20
-74.41
11
124.712
21
-74.4524
0
LINE
8
BLACK
6
CONTINUOUS
10
124.712
20
-74.4524
11
124.67
21
-74.47
0
LINE
8
BLACK
6
CONTINUOUS
10
124.67
20
-74.47
11
124.628
21
-74.4524
0
LINE
8
BLACK
6
CONTINUOUS
10
124.628
20
-74.4524
11
124.61
21
-74.41
0
LINE
8
BLACK
6
CONTINUOUS
10
124.61
20
-74.41
11
124.61
21
-71.35
0
LINE
8
BLACK
6
CONTINUOUS
10
124.61
20
-71.35
11
124.628
21
-71.3076
0
LINE
8
BLACK
6
CONTINUOUS
10
124.628
20
-71.3076
11
124.67
21
-71.29
0
LINE
8
BLACK
6
CONTINUOUS
10
124.67
20
-71.29
11
134.41
21
-71.29
0
LINE
8
BLACK
6
CONTINUOUS
10
134.41
20
-71.29
11
134.452
21
-71.3076
0
LINE
8
BLACK
6
CONTINUOUS
10
133.796
20
-121.61
11
133.838
21
-121.466
0
LINE
8
BLACK
6
CONTINUOUS
10
133.838
20
-121.466
11
133.916
21
-121.339
0
LINE
8
BLACK
6
CONTINUOUS
10
133.916
20
-121.339
11
134.026
21
-121.238
0
LINE
8
BLACK
6
CONTINUOUS
10
134.026
20
-121.238
11
134.159
21
-121.171
0
LINE
8
BLACK
6
CONTINUOUS
10
134.159
20
-121.171
11
134.305
21
-121.141
0
LINE
8
BLACK
6
CONTINUOUS
10
134.305
20
-121.141
11
134.454
21
-121.152
0
LINE
8
BLACK
6
CONTINUOUS
10
134.454
20
-121.152
11
134.595
21
-121.203
0
LINE
8
BLACK
6
CONTINUOUS
10
134.595
20
-121.203
11
134.717
21
-121.289
0
LINE
8
BLACK
6
CONTINUOUS
10
134.717
20
-121.289
11
134.81
21
-121.405
0
LINE
8
BLACK
6
CONTINUOUS
10
134.81
20
-121.405
11
134.87
21
-121.542
0
LINE
8
BLACK
6
CONTINUOUS
10
134.87
20
-121.542
11
134.89
21
-121.69
0
LINE
8
BLACK
6
CONTINUOUS
10
134.89
20
-121.69
11
134.89
21
-122.39
0
LINE
8
BLACK
6
CONTINUOUS
10
134.89
20
-122.39
11
134.884
21
-122.47
0
LINE
8
BLACK
6
CONTINUOUS
10
134.884
20
-122.47
11
134.842
21
-122.614
0
LINE
8
BLACK
6
CONTINUOUS
10
134.842
20
-122.614
11
134.764
21
-122.741
0
LINE
8
BLACK
6
CONTINUOUS
10
134.764
20
-122.741
11
134.654
21
-122.842
0
LINE
8
BLACK
6
CONTINUOUS
10
134.654
20
-122.842
11
134.521
21
-122.909
0
LINE
8
BLACK
6
CONTINUOUS
10
134.521
20
-122.909
11
134.375
21
-122.939
0
LINE
8
BLACK
6
CONTINUOUS
10
134.375
20
-122.939
11
134.226
21
-122.928
0
LINE
8
BLACK
6
CONTINUOUS
10
134.226
20
-122.928
11
134.085
21
-122.877
0
LINE
8
BLACK
6
CONTINUOUS
10
134.085
20
-122.877
11
133.963
21
-122.791
0
LINE
8
BLACK
6
CONTINUOUS
10
133.963
20
-122.791
11
133.87
21
-122.675
0
LINE
8
BLACK
6
CONTINUOUS
10
133.87
20
-122.675
11
133.81
21
-122.538
0
LINE
8
BLACK
6
CONTINUOUS
10
133.81
20
-122.538
11
133.79
21
-122.39
0
LINE
8
BLACK
6
CONTINUOUS
10
133.79
20
-122.39
11
133.79
21
-121.69
0
LINE
8
BLACK
6
CONTINUOUS
10
133.79
20
-121.69
11
133.796
21
-121.61
0
LINE
8
BLACK
6
CONTINUOUS
10
124.196
20
-121.61
11
124.238
21
-121.466
0
LINE
8
BLACK
6
CONTINUOUS
10
124.238
20
-121.466
11
124.316
21
-121.339
0
LINE
8
BLACK
6
CONTINUOUS
10
124.316
20
-121.339
11
124.426
21
-121.238
0
LINE
8
BLACK
6
CONTINUOUS
10
124.426
20
-121.238
11
124.559
21
-121.171
0
LINE
8
BLACK
6
CONTINUOUS
10
124.559
20
-121.171
11
124.705
21
-121.141
0
LINE
8
BLACK
6
CONTINUOUS
10
124.705
20
-121.141
11
124.854
21
-121.152
0
LINE
8
BLACK
6
CONTINUOUS
10
124.854
20
-121.152
11
124.995
21
-121.203
0
LINE
8
BLACK
6
CONTINUOUS
10
124.995
20
-121.203
11
125.117
21
-121.289
0
LINE
8
BLACK
6
CONTINUOUS
10
125.117
20
-121.289
11
125.21
21
-121.405
0
LINE
8
BLACK
6
CONTINUOUS
10
125.21
20
-121.405
11
125.27
21
-121.542
0
LINE
8
BLACK
6
CONTINUOUS
10
125.27
20
-121.542
11
125.29
21
-121.69
0
LINE
8
BLACK
6
CONTINUOUS
10
125.29
20
-121.69
11
125.29
21
-122.39
0
LINE
8
BLACK
6
CONTINUOUS
10
125.29
20
-122.39
11
125.284
21
-122.47
0
LINE
8
BLACK
6
CONTINUOUS
10
125.284
20
-122.47
11
125.242
21
-122.614
0
LINE
8
BLACK
6
CONTINUOUS
10
125.242
20
-122.614
11
125.164
21
-122.741
0
LINE
8
BLACK
6
CONTINUOUS
10
125.164
20
-122.741
11
125.054
21
-122.842
0
LINE
8
BLACK
6
CONTINUOUS
10
125.054
20
-122.842
11
124.921
21
-122.909
0
LINE
8
BLACK
6
CONTINUOUS
10
124.921
20
-122.909
11
124.775
21
-122.939
0
LINE
8
BLACK
6
CONTINUOUS
10
124.775
20
-122.939
11
124.626
21
-122.928
0
LINE
8
BLACK
6
CONTINUOUS
10
124.626
20
-122.928
11
124.485
21
-122.877
0
LINE
8
BLACK
6
CONTINUOUS
10
124.485
20
-122.877
11
124.363
21
-122.791
0
LINE
8
BLACK
6
CONTINUOUS
10
124.363
20
-122.791
11
124.27
21
-122.675
0
LINE
8
BLACK
6
CONTINUOUS
10
124.27
20
-122.675
11
124.21
21
-122.538
0
LINE
8
BLACK
6
CONTINUOUS
10
124.21
20
-122.538
11
124.19
21
-122.39
0
LINE
8
BLACK
6
CONTINUOUS
10
124.19
20
-122.39
11
124.19
21
-121.69
0
LINE
8
BLACK
6
CONTINUOUS
10
124.19
20
-121.69
11
124.196
21
-121.61
0
CIRCLE
8
BLACK
10
127.04
20
-129.54
40
0.5
0
CIRCLE
8
BLACK
10
129.54
20
-129.54
40
0.5
0
CIRCLE
8
BLACK
10
132.04
20
-129.54
40
0.5
0
LINE
8
BLACK
6
CONTINUOUS
10
124.196
20
-98.7497
11
124.238
21
-98.6063
0
LINE
8
BLACK
6
CONTINUOUS
10
124.238
20
-98.6063
11
124.316
21
-98.4794
0
LINE
8
BLACK
6
CONTINUOUS
10
124.316
20
-98.4794
11
124.426
21
-98.3784
0
LINE
8
BLACK
6
CONTINUOUS
10
124.426
20
-98.3784
11
124.559
21
-98.3106
0
LINE
8
BLACK
6
CONTINUOUS
10
124.559
20
-98.3106
11
124.705
21
-98.2811
0
LINE
8
BLACK
6
CONTINUOUS
10
124.705
20
-98.2811
11
124.854
21
-98.292
0
LINE
8
BLACK
6
CONTINUOUS
10
124.854
20
-98.292
11
124.995
21
-98.3426
0
LINE
8
BLACK
6
CONTINUOUS
10
124.995
20
-98.3426
11
125.117
21
-98.4291
0
LINE
8
BLACK
6
CONTINUOUS
10
125.117
20
-98.4291
11
125.21
21
-98.5451
0
LINE
8
BLACK
6
CONTINUOUS
10
125.21
20
-98.5451
11
125.27
21
-98.6821
0
LINE
8
BLACK
6
CONTINUOUS
10
125.27
20
-98.6821
11
125.29
21
-98.83
0
LINE
8
BLACK
6
CONTINUOUS
10
125.29
20
-98.83
11
125.29
21
-99.53
0
LINE
8
BLACK
6
CONTINUOUS
10
125.29
20
-99.53
11
125.284
21
-99.6103
0
LINE
8
BLACK
6
CONTINUOUS
10
125.284
20
-99.6103
11
125.242
21
-99.7537
0
LINE
8
BLACK
6
CONTINUOUS
10
125.242
20
-99.7537
11
125.164
21
-99.8806
0
LINE
8
BLACK
6
CONTINUOUS
10
125.164
20
-99.8806
11
125.054
21
-99.9816
0
LINE
8
BLACK
6
CONTINUOUS
10
125.054
20
-99.9816
11
124.921
21
-100.049
0
LINE
8
BLACK
6
CONTINUOUS
10
124.921
20
-100.049
11
124.775
21
-100.079
0
LINE
8
BLACK
6
CONTINUOUS
10
124.775
20
-100.079
11
124.626
21
-100.068
0
LINE
8
BLACK
6
CONTINUOUS
10
124.626
20
-100.068
11
124.485
21
-100.017
0
LINE
8
BLACK
6
CONTINUOUS
10
124.485
20
-100.017
11
124.363
21
-99.9309
0
LINE
8
BLACK
6
CONTINUOUS
10
124.363
20
-99.9309
11
124.27
21
-99.8149
0
LINE
8
BLACK
6
CONTINUOUS
10
124.27
20
-99.8149
11
124.21
21
-99.6779
0
LINE
8
BLACK
6
CONTINUOUS
10
124.21
20
-99.6779
11
124.19
21
-99.53
0
LINE
8
BLACK
6
CONTINUOUS
10
124.19
20
-99.53
11
124.19
21
-98.83
0
LINE
8
BLACK
6
CONTINUOUS
10
124.19
20
-98.83
11
124.196
21
-98.7497
0
LINE
8
BLACK
6
CONTINUOUS
10
133.796
20
-98.7497
11
133.838
21
-98.6063
0
LINE
8
BLACK
6
CONTINUOUS
10
133.838
20
-98.6063
11
133.916
21
-98.4794
0
LINE
8
BLACK
6
CONTINUOUS
10
133.916
20
-98.4794
11
134.026
21
-98.3784
0
LINE
8
BLACK
6
CONTINUOUS
10
134.026
20
-98.3784
11
134.159
21
-98.3106
0
LINE
8
BLACK
6
CONTINUOUS
10
134.159
20
-98.3106
11
134.305
21
-98.2811
0
LINE
8
BLACK
6
CONTINUOUS
10
134.305
20
-98.2811
11
134.454
21
-98.292
0
LINE
8
BLACK
6
CONTINUOUS
10
134.454
20
-98.292
11
134.595
21
-98.3426
0
LINE
8
BLACK
6
CONTINUOUS
10
134.595
20
-98.3426
11
134.717
21
-98.4291
0
LINE
8
BLACK
6
CONTINUOUS
10
134.717
20
-98.4291
11
134.81
21
-98.5451
0
LINE
8
BLACK
6
CONTINUOUS
10
134.81
20
-98.5451
11
134.87
21
-98.6821
0
LINE
8
BLACK
6
CONTINUOUS
10
134.87
20
-98.6821
11
134.89
21
-98.83
0
LINE
8
BLACK
6
CONTINUOUS
10
134.89
20
-98.83
11
134.89
21
-99.53
0
LINE
8
BLACK
6
CONTINUOUS
10
134.89
20
-99.53
11
134.884
21
-99.6103
0
LINE
8
BLACK
6
CONTINUOUS
10
134.884
20
-99.6103
11
134.842
21
-99.7537
0
LINE
8
BLACK
6
CONTINUOUS
10
134.842
20
-99.7537
11
134.764
21
-99.8806
0
LINE
8
BLACK
6
CONTINUOUS
10
134.764
20
-99.8806
11
134.654
21
-99.9816
0
LINE
8
BLACK
6
CONTINUOUS
10
134.654
20
-99.9816
11
134.521
21
-100.049
0
LINE
8
BLACK
6
CONTINUOUS
10
134.521
20
-100.049
11
134.375
21
-100.079
0
LINE
8
BLACK
6
CONTINUOUS
10
134.375
20
-100.079
11
134.226
21
-100.068
0
LINE
8
BLACK
6
CONTINUOUS
10
134.226
20
-100.068
11
134.085
21
-100.017
0
LINE
8
BLACK
6
CONTINUOUS
10
134.085
20
-100.017
11
133.963
21
-99.9309
0
LINE
8
BLACK
6
CONTINUOUS
10
133.963
20
-99.9309
11
133.87
21
-99.8149
0
LINE
8
BLACK
6
CONTINUOUS
10
133.87
20
-99.8149
11
133.81
21
-99.6779
0
LINE
8
BLACK
6
CONTINUOUS
10
133.81
20
-99.6779
11
133.79
21
-99.53
0
LINE
8
BLACK
6
CONTINUOUS
10
133.79
20
-99.53
11
133.79
21
-98.83
0
LINE
8
BLACK
6
CONTINUOUS
10
133.79
20
-98.83
11
133.796
21
-98.7497
0
CIRCLE
8
BLACK
10
127.04
20
-106.68
40
0.5
0
CIRCLE
8
BLACK
10
129.54
20
-106.68
40
0.5
0
CIRCLE
8
BLACK
10
132.04
20
-106.68
40
0.5
0
CIRCLE
8
BLACK
10
132.075
20
-144.78
40
0.45
0
CIRCLE
8
BLACK
10
134.615
20
-144.78
40
0.45
0
LINE
8
BLACK
6
CONTINUOUS
10
133.796
20
-75.8897
11
133.838
21
-75.7463
0
LINE
8
BLACK
6
CONTINUOUS
10
133.838
20
-75.7463
11
133.916
21
-75.6194
0
LINE
8
BLACK
6
CONTINUOUS
10
133.916
20
-75.6194
11
134.026
21
-75.5184
0
LINE
8
BLACK
6
CONTINUOUS
10
134.026
20
-75.5184
11
134.159
21
-75.4506
0
LINE
8
BLACK
6
CONTINUOUS
10
134.159
20
-75.4506
11
134.305
21
-75.4211
0
LINE
8
BLACK
6
CONTINUOUS
10
134.305
20
-75.4211
11
134.454
21
-75.432
0
LINE
8
BLACK
6
CONTINUOUS
10
134.454
20
-75.432
11
134.595
21
-75.4826
0
LINE
8
BLACK
6
CONTINUOUS
10
134.595
20
-75.4826
11
134.717
21
-75.5691
0
LINE
8
BLACK
6
CONTINUOUS
10
134.717
20
-75.5691
11
134.81
21
-75.6851
0
LINE
8
BLACK
6
CONTINUOUS
10
134.81
20
-75.6851
11
134.87
21
-75.8221
0
LINE
8
BLACK
6
CONTINUOUS
10
134.87
20
-75.8221
11
134.89
21
-75.97
0
LINE
8
BLACK
6
CONTINUOUS
10
134.89
20
-75.97
11
134.89
21
-76.67
0
LINE
8
BLACK
6
CONTINUOUS
10
134.89
20
-76.67
11
134.884
21
-76.7503
0
LINE
8
BLACK
6
CONTINUOUS
10
134.884
20
-76.7503
11
134.842
21
-76.8937
0
LINE
8
BLACK
6
CONTINUOUS
10
134.842
20
-76.8937
11
134.764
21
-77.0206
0
LINE
8
BLACK
6
CONTINUOUS
10
134.764
20
-77.0206
11
134.654
21
-77.1216
0
LINE
8
BLACK
6
CONTINUOUS
10
134.654
20
-77.1216
11
134.521
21
-77.1894
0
LINE
8
BLACK
6
CONTINUOUS
10
134.521
20
-77.1894
11
134.375
21
-77.2189
0
LINE
8
BLACK
6
CONTINUOUS
10
134.375
20
-77.2189
11
134.226
21
-77.208
0
LINE
8
BLACK
6
CONTINUOUS
10
134.226
20
-77.208
11
134.085
21
-77.1574
0
LINE
8
BLACK
6
CONTINUOUS
10
134.085
20
-77.1574
11
133.963
21
-77.0709
0
LINE
8
BLACK
6
CONTINUOUS
10
133.963
20
-77.0709
11
133.87
21
-76.9549
0
LINE
8
BLACK
6
CONTINUOUS
10
133.87
20
-76.9549
11
133.81
21
-76.8179
0
LINE
8
BLACK
6
CONTINUOUS
10
133.81
20
-76.8179
11
133.79
21
-76.67
0
LINE
8
BLACK
6
CONTINUOUS
10
133.79
20
-76.67
11
133.79
21
-75.97
0
LINE
8
BLACK
6
CONTINUOUS
10
133.79
20
-75.97
11
133.796
21
-75.8897
0
LINE
8
BLACK
6
CONTINUOUS
10
124.196
20
-75.8897
11
124.238
21
-75.7463
0
LINE
8
BLACK
6
CONTINUOUS
10
124.238
20
-75.7463
11
124.316
21
-75.6194
0
LINE
8
BLACK
6
CONTINUOUS
10
124.316
20
-75.6194
11
124.426
21
-75.5184
0
LINE
8
BLACK
6
CONTINUOUS
10
124.426
20
-75.5184
11
124.559
21
-75.4506
0
LINE
8
BLACK
6
CONTINUOUS
10
124.559
20
-75.4506
11
124.705
21
-75.4211
0
LINE
8
BLACK
6
CONTINUOUS
10
124.705
20
-75.4211
11
124.854
21
-75.432
0
LINE
8
BLACK
6
CONTINUOUS
10
124.854
20
-75.432
11
124.995
21
-75.4826
0
LINE
8
BLACK
6
CONTINUOUS
10
124.995
20
-75.4826
11
125.117
21
-75.5691
0
LINE
8
BLACK
6
CONTINUOUS
10
125.117
20
-75.5691
11
125.21
21
-75.6851
0
LINE
8
BLACK
6
CONTINUOUS
10
125.21
20
-75.6851
11
125.27
21
-75.8221
0
LINE
8
BLACK
6
CONTINUOUS
10
125.27
20
-75.8221
11
125.29
21
-75.97
0
LINE
8
BLACK
6
CONTINUOUS
10
125.29
20
-75.97
11
125.29
21
-76.67
0
LINE
8
BLACK
6
CONTINUOUS
10
125.29
20
-76.67
11
125.284
21
-76.7503
0
LINE
8
BLACK
6
CONTINUOUS
10
125.284
20
-76.7503
11
125.242
21
-76.8937
0
LINE
8
BLACK
6
CONTINUOUS
10
125.242
20
-76.8937
11
125.164
21
-77.0206
0
LINE
8
BLACK
6
CONTINUOUS
10
125.164
20
-77.0206
11
125.054
21
-77.1216
0
LINE
8
BLACK
6
CONTINUOUS
10
125.054
20
-77.1216
11
124.921
21
-77.1894
0
LINE
8
BLACK
6
CONTINUOUS
10
124.921
20
-77.1894
11
124.775
21
-77.2189
0
LINE
8
BLACK
6
CONTINUOUS
10
124.775
20
-77.2189
11
124.626
21
-77.208
0
LINE
8
BLACK
6
CONTINUOUS
10
124.626
20
-77.208
11
124.485
21
-77.1574
0
LINE
8
BLACK
6
CONTINUOUS
10
124.485
20
-77.1574
11
124.363
21
-77.0709
0
LINE
8
BLACK
6
CONTINUOUS
10
124.363
20
-77.0709
11
124.27
21
-76.9549
0
LINE
8
BLACK
6
CONTINUOUS
10
124.27
20
-76.9549
11
124.21
21
-76.8179
0
LINE
8
BLACK
6
CONTINUOUS
10
124.21
20
-76.8179
11
124.19
21
-76.67
0
LINE
8
BLACK
6
CONTINUOUS
10
124.19
20
-76.67
11
124.19
21
-75.97
0
LINE
8
BLACK
6
CONTINUOUS
10
124.19
20
-75.97
11
124.196
21
-75.8897
0
CIRCLE
8
BLACK
10
127.04
20
-83.82
40
0.5
0
CIRCLE
8
BLACK
10
129.54
20
-83.82
40
0.5
0
CIRCLE
8
BLACK
10
132.04
20
-83.82
40
0.5
0
CIRCLE
8
BLACK
10
119.38
20
-151.384
40
0.65
0
CIRCLE
8
BLACK
10
111.76
20
-151.384
40
0.65
0
CIRCLE
8
BLACK
10
162.306
20
-102.506
40
0.381
0
CIRCLE
8
BLACK
10
162.306
20
-120.506
40
0.381
0
CIRCLE
8
BLACK
10
162.306
20
-112.776
40
0.45
0
CIRCLE
8
BLACK
10
162.306
20
-110.236
40
0.45
0
CIRCLE
8
BLACK
10
156.306
20
-111.506
40
0.4
0
CIRCLE
8
BLACK
10
157.11
20
-114.506
40
0.4
0
CIRCLE
8
BLACK
10
159.306
20
-116.702
40
0.4
0
CIRCLE
8
BLACK
10
162.306
20
-117.506
40
0.4
0
CIRCLE
8
BLACK
10
165.306
20
-116.702
40
0.4
0
CIRCLE
8
BLACK
10
167.502
20
-114.506
40
0.4
0
CIRCLE
8
BLACK
10
168.306
20
-111.506
40
0.4
0
CIRCLE
8
BLACK
10
167.502
20
-108.506
40
0.4
0
CIRCLE
8
BLACK
10
165.306
20
-106.31
40
0.4
0
CIRCLE
8
BLACK
10
162.306
20
-105.506
40
0.4
0
CIRCLE
8
BLACK
10
159.306
20
-106.31
40
0.4
0
CIRCLE
8
BLACK
10
157.11
20
-108.506
40
0.4
0
CIRCLE
8
BLACK
10
189.23
20
-129.794
40
0.5
0
CIRCLE
8
BLACK
10
186.69
20
-129.794
40
0.5
0
CIRCLE
8
BLACK
10
184.15
20
-129.794
40
0.5
0
CIRCLE
8
BLACK
10
181.61
20
-129.794
40
0.5
0
CIRCLE
8
BLACK
10
179.07
20
-129.794
40
0.5
0
CIRCLE
8
BLACK
10
176.53
20
-129.794
40
0.5
0
CIRCLE
8
BLACK
10
168.108
20
-89.408
40
0.4
0
CIRCLE
8
BLACK
10
163.108
20
-89.408
40
0.4
0
CIRCLE
8
BLACK
10
163.513
20
-95.313
40
0.4
0
CIRCLE
8
BLACK
10
166.053
20
-95.313
40
0.4
0
CIRCLE
8
BLACK
10
168.593
20
-95.313
40
0.4
0
CIRCLE
8
BLACK
10
134.874
20
-64.008
40
0.5
0
CIRCLE
8
BLACK
10
163.312
20
-125.476
40
0.4
0
CIRCLE
8
BLACK
10
165.852
20
-125.476
40
0.4
0
CIRCLE
8
BLACK
10
168.392
20
-125.476
40
0.4
0
CIRCLE
8
BLACK
10
189.738
20
-62.992
40
0.4
0
CIRCLE
8
BLACK
10
189.738
20
-67.992
40
0.4
0
CIRCLE
8
BLACK
10
185.915
20
-55.965
40
0.7
0
CIRCLE
8
BLACK
10
169.685
20
-55.965
40
0.7
0
CIRCLE
8
BLACK
10
185.915
20
-49.615
40
0.7
0
CIRCLE
8
BLACK
10
169.685
20
-49.615
40
0.7
0
CIRCLE
8
BLACK
10
185.915
20
-62.315
40
0.7
0
CIRCLE
8
BLACK
10
169.685
20
-62.315
40
0.7
0
CIRCLE
8
BLACK
10
120.562
20
-128.524
40
0.4
0
CIRCLE
8
BLACK
10
118.062
20
-128.524
40
0.4
0
CIRCLE
8
BLACK
10
111.76
20
-147.32
40
0.5
0
CIRCLE
8
BLACK
10
139.7
20
-47.3
40
0.8
0
LINE
8
BLACK
6
CONTINUOUS
10
140.706
20
-55.8
11
140.846
21
-55.8218
0
LINE
8
BLACK
6
CONTINUOUS
10
140.846
20
-55.8218
11
140.975
21
-55.8821
0
LINE
8
BLACK
6
CONTINUOUS
10
140.975
20
-55.8821
11
141.081
21
-55.9759
0
LINE
8
BLACK
6
CONTINUOUS
10
141.081
20
-55.9759
11
141.156
21
-56.0958
0
LINE
8
BLACK
6
CONTINUOUS
10
141.156
20
-56.0958
11
141.195
21
-56.2321
0
LINE
8
BLACK
6
CONTINUOUS
10
141.195
20
-56.2321
11
141.195
21
-56.3739
0
LINE
8
BLACK
6
CONTINUOUS
10
141.195
20
-56.3739
11
141.154
21
-56.5097
0
LINE
8
BLACK
6
CONTINUOUS
10
141.154
20
-56.5097
11
141.077
21
-56.6287
0
LINE
8
BLACK
6
CONTINUOUS
10
141.077
20
-56.6287
11
140.969
21
-56.7212
0
LINE
8
BLACK
6
CONTINUOUS
10
140.969
20
-56.7212
11
140.84
21
-56.7799
0
LINE
8
BLACK
6
CONTINUOUS
10
140.84
20
-56.7799
11
140.7
21
-56.8
0
LINE
8
BLACK
6
CONTINUOUS
10
140.7
20
-56.8
11
138.7
21
-56.8
0
LINE
8
BLACK
6
CONTINUOUS
10
138.7
20
-56.8
11
138.694
21
-56.8
0
LINE
8
BLACK
6
CONTINUOUS
10
138.694
20
-56.8
11
138.554
21
-56.7782
0
LINE
8
BLACK
6
CONTINUOUS
10
138.554
20
-56.7782
11
138.425
21
-56.7179
0
LINE
8
BLACK
6
CONTINUOUS
10
138.425
20
-56.7179
11
138.319
21
-56.6241
0
LINE
8
BLACK
6
CONTINUOUS
10
138.319
20
-56.6241
11
138.244
21
-56.5042
0
LINE
8
BLACK
6
CONTINUOUS
10
138.244
20
-56.5042
11
138.205
21
-56.3679
0
LINE
8
BLACK
6
CONTINUOUS
10
138.205
20
-56.3679
11
138.205
21
-56.2261
0
LINE
8
BLACK
6
CONTINUOUS
10
138.205
20
-56.2261
11
138.246
21
-56.0903
0
LINE
8
BLACK
6
CONTINUOUS
10
138.246
20
-56.0903
11
138.323
21
-55.9713
0
LINE
8
BLACK
6
CONTINUOUS
10
138.323
20
-55.9713
11
138.431
21
-55.8788
0
LINE
8
BLACK
6
CONTINUOUS
10
138.431
20
-55.8788
11
138.56
21
-55.8201
0
LINE
8
BLACK
6
CONTINUOUS
10
138.56
20
-55.8201
11
138.7
21
-55.8
0
LINE
8
BLACK
6
CONTINUOUS
10
138.7
20
-55.8
11
140.7
21
-55.8
0
LINE
8
BLACK
6
CONTINUOUS
10
140.7
20
-55.8
11
140.706
21
-55.8
0
LINE
8
BLACK
6
CONTINUOUS
10
140.356
20
-49.8
11
140.496
21
-49.8218
0
LINE
8
BLACK
6
CONTINUOUS
10
140.496
20
-49.8218
11
140.625
21
-49.8821
0
LINE
8
BLACK
6
CONTINUOUS
10
140.625
20
-49.8821
11
140.731
21
-49.9759
0
LINE
8
BLACK
6
CONTINUOUS
10
140.731
20
-49.9759
11
140.806
21
-50.0958
0
LINE
8
BLACK
6
CONTINUOUS
10
140.806
20
-50.0958
11
140.845
21
-50.2321
0
LINE
8
BLACK
6
CONTINUOUS
10
140.845
20
-50.2321
11
140.845
21
-50.3739
0
LINE
8
BLACK
6
CONTINUOUS
10
140.845
20
-50.3739
11
140.804
21
-50.5097
0
LINE
8
BLACK
6
CONTINUOUS
10
140.804
20
-50.5097
11
140.727
21
-50.6287
0
LINE
8
BLACK
6
CONTINUOUS
10
140.727
20
-50.6287
11
140.619
21
-50.7212
0
LINE
8
BLACK
6
CONTINUOUS
10
140.619
20
-50.7212
11
140.49
21
-50.7799
0
LINE
8
BLACK
6
CONTINUOUS
10
140.49
20
-50.7799
11
140.35
21
-50.8
0
LINE
8
BLACK
6
CONTINUOUS
10
140.35
20
-50.8
11
139.05
21
-50.8
0
LINE
8
BLACK
6
CONTINUOUS
10
139.05
20
-50.8
11
139.044
21
-50.8
0
LINE
8
BLACK
6
CONTINUOUS
10
139.044
20
-50.8
11
138.904
21
-50.7782
0
LINE
8
BLACK
6
CONTINUOUS
10
138.904
20
-50.7782
11
138.775
21
-50.7179
0
LINE
8
BLACK
6
CONTINUOUS
10
138.775
20
-50.7179
11
138.669
21
-50.6241
0
LINE
8
BLACK
6
CONTINUOUS
10
138.669
20
-50.6241
11
138.594
21
-50.5042
0
LINE
8
BLACK
6
CONTINUOUS
10
138.594
20
-50.5042
11
138.555
21
-50.3679
0
LINE
8
BLACK
6
CONTINUOUS
10
138.555
20
-50.3679
11
138.555
21
-50.2261
0
LINE
8
BLACK
6
CONTINUOUS
10
138.555
20
-50.2261
11
138.596
21
-50.0903
0
LINE
8
BLACK
6
CONTINUOUS
10
138.596
20
-50.0903
11
138.673
21
-49.9713
0
LINE
8
BLACK
6
CONTINUOUS
10
138.673
20
-49.9713
11
138.781
21
-49.8788
0
LINE
8
BLACK
6
CONTINUOUS
10
138.781
20
-49.8788
11
138.91
21
-49.8201
0
LINE
8
BLACK
6
CONTINUOUS
10
138.91
20
-49.8201
11
139.05
21
-49.8
0
LINE
8
BLACK
6
CONTINUOUS
10
139.05
20
-49.8
11
140.35
21
-49.8
0
LINE
8
BLACK
6
CONTINUOUS
10
140.35
20
-49.8
11
140.356
21
-49.8
0
LINE
8
BLACK
6
CONTINUOUS
10
135.7
20
-50.0561
11
135.678
21
-50.1962
0
LINE
8
BLACK
6
CONTINUOUS
10
135.678
20
-50.1962
11
135.618
21
-50.3245
0
LINE
8
BLACK
6
CONTINUOUS
10
135.618
20
-50.3245
11
135.524
21
-50.4308
0
LINE
8
BLACK
6
CONTINUOUS
10
135.524
20
-50.4308
11
135.404
21
-50.5064
0
LINE
8
BLACK
6
CONTINUOUS
10
135.404
20
-50.5064
11
135.268
21
-50.5454
0
LINE
8
BLACK
6
CONTINUOUS
10
135.268
20
-50.5454
11
135.126
21
-50.5445
0
LINE
8
BLACK
6
CONTINUOUS
10
135.126
20
-50.5445
11
134.99
21
-50.5039
0
LINE
8
BLACK
6
CONTINUOUS
10
134.99
20
-50.5039
11
134.871
21
-50.4268
0
LINE
8
BLACK
6
CONTINUOUS
10
134.871
20
-50.4268
11
134.779
21
-50.3194
0
LINE
8
BLACK
6
CONTINUOUS
10
134.779
20
-50.3194
11
134.72
21
-50.1903
0
LINE
8
BLACK
6
CONTINUOUS
10
134.72
20
-50.1903
11
134.7
21
-50.05
0
LINE
8
BLACK
6
CONTINUOUS
10
134.7
20
-50.05
11
134.7
21
-48.55
0
LINE
8
BLACK
6
CONTINUOUS
10
134.7
20
-48.55
11
134.7
21
-48.5439
0
LINE
8
BLACK
6
CONTINUOUS
10
134.7
20
-48.5439
11
134.722
21
-48.4038
0
LINE
8
BLACK
6
CONTINUOUS
10
134.722
20
-48.4038
11
134.782
21
-48.2755
0
LINE
8
BLACK
6
CONTINUOUS
10
134.782
20
-48.2755
11
134.876
21
-48.1692
0
LINE
8
BLACK
6
CONTINUOUS
10
134.876
20
-48.1692
11
134.996
21
-48.0936
0
LINE
8
BLACK
6
CONTINUOUS
10
134.996
20
-48.0936
11
135.132
21
-48.0546
0
LINE
8
BLACK
6
CONTINUOUS
10
135.132
20
-48.0546
11
135.274
21
-48.0555
0
LINE
8
BLACK
6
CONTINUOUS
10
135.274
20
-48.0555
11
135.41
21
-48.0961
0
LINE
8
BLACK
6
CONTINUOUS
10
135.41
20
-48.0961
11
135.529
21
-48.1732
0
LINE
8
BLACK
6
CONTINUOUS
10
135.529
20
-48.1732
11
135.621
21
-48.2806
0
LINE
8
BLACK
6
CONTINUOUS
10
135.621
20
-48.2806
11
135.68
21
-48.4097
0
LINE
8
BLACK
6
CONTINUOUS
10
135.68
20
-48.4097
11
135.7
21
-48.55
0
LINE
8
BLACK
6
CONTINUOUS
10
135.7
20
-48.55
11
135.7
21
-50.05
0
LINE
8
BLACK
6
CONTINUOUS
10
135.7
20
-50.05
11
135.7
21
-50.0561
0
LINE
8
BLACK
6
CONTINUOUS
10
144.7
20
-50.0561
11
144.678
21
-50.1962
0
LINE
8
BLACK
6
CONTINUOUS
10
144.678
20
-50.1962
11
144.618
21
-50.3245
0
LINE
8
BLACK
6
CONTINUOUS
10
144.618
20
-50.3245
11
144.524
21
-50.4308
0
LINE
8
BLACK
6
CONTINUOUS
10
144.524
20
-50.4308
11
144.404
21
-50.5064
0
LINE
8
BLACK
6
CONTINUOUS
10
144.404
20
-50.5064
11
144.268
21
-50.5454
0
LINE
8
BLACK
6
CONTINUOUS
10
144.268
20
-50.5454
11
144.126
21
-50.5445
0
LINE
8
BLACK
6
CONTINUOUS
10
144.126
20
-50.5445
11
143.99
21
-50.5039
0
LINE
8
BLACK
6
CONTINUOUS
10
143.99
20
-50.5039
11
143.871
21
-50.4268
0
LINE
8
BLACK
6
CONTINUOUS
10
143.871
20
-50.4268
11
143.779
21
-50.3194
0
LINE
8
BLACK
6
CONTINUOUS
10
143.779
20
-50.3194
11
143.72
21
-50.1903
0
LINE
8
BLACK
6
CONTINUOUS
10
143.72
20
-50.1903
11
143.7
21
-50.05
0
LINE
8
BLACK
6
CONTINUOUS
10
143.7
20
-50.05
11
143.7
21
-48.55
0
LINE
8
BLACK
6
CONTINUOUS
10
143.7
20
-48.55
11
143.7
21
-48.5439
0
LINE
8
BLACK
6
CONTINUOUS
10
143.7
20
-48.5439
11
143.722
21
-48.4038
0
LINE
8
BLACK
6
CONTINUOUS
10
143.722
20
-48.4038
11
143.782
21
-48.2755
0
LINE
8
BLACK
6
CONTINUOUS
10
143.782
20
-48.2755
11
143.876
21
-48.1692
0
LINE
8
BLACK
6
CONTINUOUS
10
143.876
20
-48.1692
11
143.996
21
-48.0936
0
LINE
8
BLACK
6
CONTINUOUS
10
143.996
20
-48.0936
11
144.132
21
-48.0546
0
LINE
8
BLACK
6
CONTINUOUS
10
144.132
20
-48.0546
11
144.274
21
-48.0555
0
LINE
8
BLACK
6
CONTINUOUS
10
144.274
20
-48.0555
11
144.41
21
-48.0961
0
LINE
8
BLACK
6
CONTINUOUS
10
144.41
20
-48.0961
11
144.529
21
-48.1732
0
LINE
8
BLACK
6
CONTINUOUS
10
144.529
20
-48.1732
11
144.621
21
-48.2806
0
LINE
8
BLACK
6
CONTINUOUS
10
144.621
20
-48.2806
11
144.68
21
-48.4097
0
LINE
8
BLACK
6
CONTINUOUS
10
144.68
20
-48.4097
11
144.7
21
-48.55
0
LINE
8
BLACK
6
CONTINUOUS
10
144.7
20
-48.55
11
144.7
21
-50.05
0
LINE
8
BLACK
6
CONTINUOUS
10
144.7
20
-50.05
11
144.7
21
-50.0561
0
CIRCLE
8
BLACK
10
113.792
20
-120.396
40
0.4
0
CIRCLE
8
BLACK
10
111.292
20
-120.396
40
0.4
0
CIRCLE
8
BLACK
10
130.815
20
-109.235
40
0.5
0
CIRCLE
8
BLACK
10
128.275
20
-109.235
40
0.5
0
CIRCLE
8
BLACK
10
130.815
20
-111.775
40
0.5
0
CIRCLE
8
BLACK
10
128.275
20
-111.775
40
0.5
0
CIRCLE
8
BLACK
10
130.815
20
-114.315
40
0.5
0
CIRCLE
8
BLACK
10
128.275
20
-114.315
40
0.5
0
CIRCLE
8
BLACK
10
165.1
20
-55.965
40
0.7
0
CIRCLE
8
BLACK
10
148.87
20
-55.965
40
0.7
0
CIRCLE
8
BLACK
10
165.1
20
-49.615
40
0.7
0
CIRCLE
8
BLACK
10
148.87
20
-49.615
40
0.7
0
CIRCLE
8
BLACK
10
165.1
20
-62.315
40
0.7
0
CIRCLE
8
BLACK
10
148.87
20
-62.315
40
0.7
0
CIRCLE
8
BLACK
10
160.06
20
-85.598
40
0.4
0
CIRCLE
8
BLACK
10
165.06
20
-85.598
40
0.4
0
CIRCLE
8
BLACK
10
130.556
20
-55.965
40
0.7
0
CIRCLE
8
BLACK
10
114.326
20
-55.965
40
0.7
0
CIRCLE
8
BLACK
10
130.556
20
-49.615
40
0.7
0
CIRCLE
8
BLACK
10
114.326
20
-49.615
40
0.7
0
CIRCLE
8
BLACK
10
130.556
20
-62.315
40
0.7
0
CIRCLE
8
BLACK
10
114.326
20
-62.315
40
0.7
0
CIRCLE
8
BLACK
10
120.65
20
-120.396
40
0.4
0
CIRCLE
8
BLACK
10
118.15
20
-120.396
40
0.4
0
CIRCLE
8
BLACK
10
111.76
20
-143.51
40
0.5
0
CIRCLE
8
BLACK
10
114.29
20
-75.692
40
0.4
0
CIRCLE
8
BLACK
10
116.83
20
-75.692
40
0.4
0
CIRCLE
8
BLACK
10
119.37
20
-75.692
40
0.4
0
CIRCLE
8
BLACK
10
113.704
20
-128.524
40
0.4
0
CIRCLE
8
BLACK
10
111.204
20
-128.524
40
0.4
  0
ENDSEC
  0
EOF
