G04 #@! TF.GenerationSoftware,KiCad,Pcbnew,6.0.5+dfsg-1~bpo11+1*
G04 #@! TF.CreationDate,2023-01-30T19:57:19+00:00*
G04 #@! TF.ProjectId,phasor_II_jack_panel,70686173-6f72-45f4-9949-5f6a61636b5f,0.1*
G04 #@! TF.SameCoordinates,Original*
G04 #@! TF.FileFunction,Legend,Top*
G04 #@! TF.FilePolarity,Positive*
%FSLAX46Y46*%
G04 Gerber Fmt 4.6, Leading zero omitted, Abs format (unit mm)*
G04 Created by KiCad (PCBNEW 6.0.5+dfsg-1~bpo11+1) date 2023-01-30 19:57:19*
%MOMM*%
%LPD*%
G01*
G04 APERTURE LIST*
%ADD10C,0.400000*%
%ADD11C,0.120000*%
%ADD12C,1.000000*%
G04 APERTURE END LIST*
D10*
X163068000Y-111887000D02*
X163068000Y-111252000D01*
D11*
X167640000Y-111252000D02*
G75*
G03*
X167640000Y-111252000I-127000J0D01*
G01*
D10*
X168782999Y-110617001D02*
G75*
G03*
X168783332Y-111886332I-1269999J-634999D01*
G01*
X167513000Y-111252000D02*
X170434000Y-111252000D01*
D11*
X167962013Y-111252000D02*
G75*
G03*
X167962013Y-111252000I-449013J0D01*
G01*
X167836788Y-111252000D02*
G75*
G03*
X167836788Y-111252000I-323788J0D01*
G01*
X167899255Y-111252000D02*
G75*
G03*
X167899255Y-111252000I-386255J0D01*
G01*
D10*
X171323000Y-111252000D02*
X172593000Y-111252000D01*
X162433000Y-111252000D02*
X163068000Y-111252000D01*
X163068000Y-111252000D02*
X163703000Y-111252000D01*
D11*
X168036634Y-111252000D02*
G75*
G03*
X168036634Y-111252000I-523634J0D01*
G01*
X167576500Y-111252000D02*
G75*
G03*
X167576500Y-111252000I-63500J0D01*
G01*
D10*
X163068000Y-110617000D02*
X163068000Y-111252000D01*
D11*
X167767000Y-111252000D02*
G75*
G03*
X167767000Y-111252000I-254000J0D01*
G01*
X167703500Y-111252000D02*
G75*
G03*
X167703500Y-111252000I-190500J0D01*
G01*
D10*
X164592000Y-111252000D02*
X166073000Y-111252000D01*
D11*
X168148000Y-111252000D02*
G75*
G03*
X168148000Y-111252000I-635000J0D01*
G01*
G36*
X186143652Y-94616141D02*
G01*
X186293721Y-94689811D01*
X186390310Y-94822417D01*
X186422506Y-95023781D01*
X186389764Y-95236060D01*
X186291538Y-95375214D01*
X186128918Y-95452158D01*
X185902997Y-95477806D01*
X185684716Y-95477806D01*
X185684716Y-94604681D01*
X185817867Y-94593767D01*
X185951019Y-94591584D01*
X186143652Y-94616141D01*
G37*
G36*
X190500000Y-94667983D02*
G01*
X190678991Y-94870984D01*
X190770669Y-95163481D01*
X190796863Y-95504000D01*
X190788677Y-95696633D01*
X190764121Y-95872895D01*
X190654980Y-96163209D01*
X190454161Y-96355297D01*
X190146385Y-96425147D01*
X190098363Y-96425147D01*
X190050341Y-96420781D01*
X190050341Y-94604681D01*
X190128922Y-94593767D01*
X190207503Y-94591584D01*
X190500000Y-94667983D01*
G37*
G36*
X177780344Y-97417469D02*
G01*
X177593699Y-97389782D01*
X177410666Y-97343935D01*
X177233009Y-97280368D01*
X177062437Y-97199694D01*
X176900594Y-97102689D01*
X176749039Y-96990288D01*
X176609231Y-96863573D01*
X176482516Y-96723765D01*
X176370115Y-96572210D01*
X176273110Y-96410367D01*
X176192436Y-96239796D01*
X176128869Y-96062138D01*
X176083022Y-95879105D01*
X176055336Y-95692460D01*
X176046077Y-95504000D01*
X178481435Y-95504000D01*
X178500261Y-95822963D01*
X178556742Y-96103182D01*
X178650875Y-96344656D01*
X178782663Y-96547384D01*
X179013556Y-96751114D01*
X179304597Y-96873351D01*
X179655788Y-96914097D01*
X179894260Y-96899363D01*
X180103264Y-96855161D01*
X180411041Y-96726375D01*
X180275706Y-96302909D01*
X180055242Y-96398953D01*
X179708175Y-96446975D01*
X179396579Y-96385311D01*
X179186483Y-96200317D01*
X179097958Y-96011868D01*
X179044843Y-95775396D01*
X179027138Y-95490903D01*
X179041872Y-95246428D01*
X179086074Y-95045609D01*
X179238871Y-94759661D01*
X179452786Y-94606864D01*
X179699444Y-94561025D01*
X180024683Y-94606864D01*
X180266975Y-94718187D01*
X180406675Y-94290356D01*
X180317180Y-94237969D01*
X180170931Y-94172484D01*
X180105972Y-94155022D01*
X180603128Y-94155022D01*
X180653333Y-94399497D01*
X180725366Y-94705091D01*
X180783089Y-94933801D01*
X180845663Y-95171727D01*
X180913088Y-95418870D01*
X180984393Y-95670864D01*
X181058609Y-95923343D01*
X181135735Y-96176306D01*
X181250332Y-96536470D01*
X181358381Y-96857344D01*
X181912816Y-96857344D01*
X185147744Y-96857344D01*
X185684716Y-96857344D01*
X187369847Y-96857344D01*
X189103000Y-96857344D01*
X189103000Y-96826784D01*
X189513369Y-96826784D01*
X189808049Y-96876989D01*
X190089631Y-96892269D01*
X190353206Y-96873169D01*
X190593861Y-96815870D01*
X190807231Y-96717098D01*
X190988950Y-96573578D01*
X191136836Y-96383128D01*
X191248705Y-96143564D01*
X191319101Y-95851613D01*
X191342566Y-95504000D01*
X191321283Y-95164027D01*
X191257436Y-94877533D01*
X191155390Y-94640698D01*
X191019510Y-94449702D01*
X190849796Y-94303999D01*
X190646249Y-94203044D01*
X190414325Y-94144108D01*
X190159481Y-94124462D01*
X189858253Y-94137559D01*
X189513369Y-94189947D01*
X189513369Y-96826784D01*
X189103000Y-96826784D01*
X189103000Y-96412050D01*
X187906819Y-96412050D01*
X187906819Y-95652431D01*
X188862891Y-95652431D01*
X188862891Y-95207137D01*
X187906819Y-95207137D01*
X187906819Y-94600316D01*
X189006956Y-94600316D01*
X189006956Y-94155022D01*
X187369847Y-94155022D01*
X187369847Y-96857344D01*
X185684716Y-96857344D01*
X185684716Y-95944928D01*
X185876803Y-95944928D01*
X186199617Y-95920917D01*
X186469558Y-95848884D01*
X186686627Y-95728830D01*
X186845487Y-95554932D01*
X186940803Y-95321371D01*
X186972575Y-95028147D01*
X186941046Y-94737833D01*
X186846457Y-94507182D01*
X186688810Y-94336195D01*
X186473924Y-94218566D01*
X186207621Y-94147988D01*
X185889900Y-94124462D01*
X185719641Y-94128828D01*
X185523188Y-94139742D01*
X185324552Y-94159387D01*
X185147744Y-94189947D01*
X185147744Y-96857344D01*
X181912816Y-96857344D01*
X181996248Y-96624753D01*
X182077739Y-96386826D01*
X182157291Y-96143564D01*
X182201629Y-96001681D01*
X183222503Y-96001681D01*
X184418685Y-96001681D01*
X184418685Y-95473441D01*
X183222503Y-95473441D01*
X183222503Y-96001681D01*
X182201629Y-96001681D01*
X182233689Y-95899089D01*
X182305722Y-95657524D01*
X182373389Y-95418870D01*
X182466159Y-95071257D01*
X182548014Y-94740016D01*
X182618410Y-94432239D01*
X182676800Y-94155022D01*
X182113635Y-94155022D01*
X182074344Y-94382034D01*
X182026322Y-94643972D01*
X181971752Y-94927192D01*
X181912816Y-95218052D01*
X181849514Y-95510548D01*
X181781847Y-95798680D01*
X181711997Y-96068803D01*
X181642147Y-96307275D01*
X181571751Y-96065529D01*
X181500264Y-95794314D01*
X181430414Y-95506183D01*
X181364930Y-95213686D01*
X181304357Y-94923372D01*
X181249241Y-94641789D01*
X181203402Y-94381489D01*
X181170660Y-94155022D01*
X180603128Y-94155022D01*
X180105972Y-94155022D01*
X179967930Y-94117914D01*
X179708175Y-94093903D01*
X179452240Y-94117368D01*
X179217042Y-94187764D01*
X179007492Y-94303453D01*
X178828502Y-94462798D01*
X178682799Y-94664163D01*
X178573113Y-94905909D01*
X178504354Y-95186401D01*
X178481435Y-95504000D01*
X176046077Y-95504000D01*
X176055336Y-95315540D01*
X176083022Y-95128895D01*
X176128869Y-94945862D01*
X176192436Y-94768204D01*
X176273110Y-94597633D01*
X176370115Y-94435790D01*
X176482516Y-94284235D01*
X176609231Y-94144427D01*
X176749039Y-94017712D01*
X176900594Y-93905311D01*
X177062437Y-93808306D01*
X177233009Y-93727632D01*
X177410666Y-93664065D01*
X177593699Y-93618218D01*
X177780344Y-93590531D01*
X177968804Y-93581273D01*
X191855196Y-93581273D01*
X192043656Y-93590531D01*
X192230301Y-93618218D01*
X192413334Y-93664065D01*
X192590992Y-93727632D01*
X192761563Y-93808306D01*
X192923406Y-93905311D01*
X193074961Y-94017712D01*
X193214769Y-94144427D01*
X193341484Y-94284235D01*
X193453885Y-94435790D01*
X193550890Y-94597633D01*
X193631564Y-94768204D01*
X193695131Y-94945862D01*
X193740978Y-95128895D01*
X193768664Y-95315540D01*
X193777923Y-95504000D01*
X193768664Y-95692460D01*
X193740978Y-95879105D01*
X193695131Y-96062138D01*
X193631564Y-96239796D01*
X193550890Y-96410367D01*
X193453885Y-96572210D01*
X193341484Y-96723765D01*
X193214769Y-96863573D01*
X193074961Y-96990288D01*
X192923406Y-97102689D01*
X192761563Y-97199694D01*
X192590992Y-97280368D01*
X192413334Y-97343935D01*
X192230301Y-97389782D01*
X192043656Y-97417469D01*
X191855196Y-97426727D01*
X177968804Y-97426727D01*
X177780344Y-97417469D01*
G37*
X168213000Y-111252000D02*
G75*
G03*
X168213000Y-111252000I-700000J0D01*
G01*
G36*
X161192409Y-96574635D02*
G01*
X161095184Y-96412425D01*
X161014326Y-96241466D01*
X160950615Y-96063405D01*
X160904663Y-95879957D01*
X160876914Y-95692888D01*
X160867635Y-95504000D01*
X160876914Y-95315112D01*
X160904663Y-95128043D01*
X160934060Y-95010684D01*
X163307358Y-95010684D01*
X163355380Y-95344655D01*
X163508176Y-95617506D01*
X163778845Y-95803045D01*
X163962201Y-95853796D01*
X164180483Y-95870713D01*
X164486076Y-95796497D01*
X164332188Y-96068803D01*
X164097536Y-96257070D01*
X163803948Y-96367848D01*
X163473251Y-96407684D01*
X163490714Y-96870441D01*
X163840510Y-96843701D01*
X164156472Y-96763483D01*
X164433689Y-96631968D01*
X164667250Y-96451341D01*
X164854426Y-96221600D01*
X164992489Y-95942745D01*
X165077619Y-95616961D01*
X165105995Y-95246428D01*
X165079316Y-94909305D01*
X164999280Y-94625539D01*
X164865886Y-94395131D01*
X164682044Y-94225357D01*
X164532199Y-94159387D01*
X165350470Y-94159387D01*
X165400675Y-94403862D01*
X165472708Y-94709456D01*
X165530431Y-94938166D01*
X165593005Y-95176093D01*
X165660430Y-95423236D01*
X165731735Y-95675230D01*
X165805950Y-95927708D01*
X165883076Y-96180672D01*
X165997674Y-96540836D01*
X166105723Y-96861709D01*
X166660158Y-96861709D01*
X166671120Y-96831150D01*
X167712273Y-96831150D01*
X168006953Y-96881355D01*
X168288536Y-96896634D01*
X168552110Y-96877535D01*
X168792765Y-96820236D01*
X169006135Y-96721464D01*
X169187855Y-96577944D01*
X169335740Y-96387493D01*
X169447609Y-96147930D01*
X169518005Y-95855979D01*
X169541470Y-95508366D01*
X169777214Y-95508366D01*
X169796041Y-95827329D01*
X169852521Y-96107548D01*
X169946655Y-96349021D01*
X170078442Y-96551750D01*
X170309335Y-96755479D01*
X170600377Y-96877717D01*
X170951567Y-96918463D01*
X171190039Y-96903729D01*
X171399044Y-96859527D01*
X171706820Y-96730741D01*
X171571486Y-96307275D01*
X171351022Y-96403319D01*
X171003955Y-96451341D01*
X170692358Y-96389676D01*
X170482262Y-96204683D01*
X170393737Y-96016233D01*
X170340622Y-95779762D01*
X170322917Y-95495269D01*
X170337651Y-95250794D01*
X170381853Y-95049975D01*
X170534650Y-94764027D01*
X170748565Y-94611230D01*
X170995223Y-94565391D01*
X171320462Y-94611230D01*
X171562755Y-94722553D01*
X171702455Y-94294722D01*
X171612959Y-94242334D01*
X171466711Y-94176850D01*
X171263709Y-94122280D01*
X171003955Y-94098269D01*
X170748020Y-94121734D01*
X170512822Y-94192130D01*
X170303272Y-94307819D01*
X170124281Y-94467164D01*
X169978578Y-94668529D01*
X169868892Y-94910275D01*
X169800133Y-95190766D01*
X169777214Y-95508366D01*
X169541470Y-95508366D01*
X169520188Y-95168393D01*
X169456340Y-94881898D01*
X169354294Y-94645063D01*
X169218414Y-94454067D01*
X169048700Y-94308364D01*
X168845153Y-94207409D01*
X168613229Y-94148473D01*
X168358386Y-94128828D01*
X168057158Y-94141925D01*
X167712273Y-94194312D01*
X167712273Y-96831150D01*
X166671120Y-96831150D01*
X166743590Y-96629119D01*
X166825081Y-96391192D01*
X166904633Y-96147930D01*
X166981031Y-95903455D01*
X167053064Y-95661890D01*
X167120731Y-95423236D01*
X167213501Y-95075623D01*
X167295356Y-94744381D01*
X167365752Y-94436605D01*
X167424142Y-94159387D01*
X166860976Y-94159387D01*
X166821686Y-94386400D01*
X166773664Y-94648337D01*
X166719094Y-94931557D01*
X166660158Y-95222417D01*
X166596856Y-95514914D01*
X166529189Y-95803045D01*
X166459339Y-96073168D01*
X166389489Y-96311641D01*
X166319093Y-96069894D01*
X166247606Y-95798680D01*
X166177756Y-95510548D01*
X166112272Y-95218052D01*
X166051699Y-94927737D01*
X165996583Y-94646155D01*
X165950744Y-94385854D01*
X165918001Y-94159387D01*
X165350470Y-94159387D01*
X164532199Y-94159387D01*
X164450666Y-94123492D01*
X164171751Y-94089537D01*
X163967658Y-94110820D01*
X163791942Y-94174667D01*
X163523456Y-94392948D01*
X163361928Y-94689811D01*
X163307358Y-95010684D01*
X160934060Y-95010684D01*
X160950615Y-94944595D01*
X161014326Y-94766534D01*
X161095184Y-94595575D01*
X161192409Y-94433365D01*
X161305065Y-94281465D01*
X161432067Y-94141340D01*
X161572193Y-94014337D01*
X161724092Y-93901681D01*
X161886302Y-93804456D01*
X162057261Y-93723599D01*
X162235322Y-93659887D01*
X162418770Y-93613936D01*
X162605839Y-93586187D01*
X162794727Y-93576907D01*
X172219450Y-93576907D01*
X172408338Y-93586187D01*
X172595408Y-93613936D01*
X172778856Y-93659887D01*
X172956917Y-93723598D01*
X173127876Y-93804456D01*
X173290086Y-93901681D01*
X173441985Y-94014337D01*
X173582111Y-94141340D01*
X173709113Y-94281465D01*
X173821769Y-94433365D01*
X173918994Y-94595575D01*
X173999852Y-94766534D01*
X174063563Y-94944595D01*
X174109515Y-95128043D01*
X174137264Y-95315112D01*
X174146543Y-95504000D01*
X174137264Y-95692888D01*
X174109515Y-95879957D01*
X174063563Y-96063405D01*
X173999852Y-96241466D01*
X173918994Y-96412425D01*
X173821769Y-96574635D01*
X173709113Y-96726535D01*
X173582111Y-96866660D01*
X173441985Y-96993663D01*
X173290086Y-97106319D01*
X173127876Y-97203544D01*
X172956917Y-97284402D01*
X172778856Y-97348113D01*
X172595408Y-97394064D01*
X172408338Y-97421813D01*
X172219450Y-97431093D01*
X162794727Y-97431093D01*
X162605839Y-97421813D01*
X162418770Y-97394064D01*
X162235322Y-97348113D01*
X162057261Y-97284401D01*
X161886302Y-97203544D01*
X161724092Y-97106319D01*
X161572193Y-96993663D01*
X161432067Y-96866660D01*
X161305065Y-96726535D01*
X161192409Y-96574635D01*
G37*
G36*
X164374753Y-94604681D02*
G01*
X164496990Y-94753112D01*
X164562475Y-94956114D01*
X164582120Y-95176578D01*
X164579937Y-95274805D01*
X164573389Y-95359934D01*
X164424958Y-95407956D01*
X164250333Y-95425419D01*
X164056062Y-95398134D01*
X163927276Y-95316278D01*
X163831233Y-95001953D01*
X163850878Y-94827328D01*
X163911997Y-94683262D01*
X164021137Y-94585036D01*
X164184848Y-94547928D01*
X164374753Y-94604681D01*
G37*
G36*
X168698905Y-94672348D02*
G01*
X168877895Y-94875350D01*
X168969573Y-95167847D01*
X168995767Y-95508366D01*
X168987581Y-95700999D01*
X168963025Y-95877261D01*
X168853884Y-96167575D01*
X168653065Y-96359663D01*
X168345289Y-96429513D01*
X168297267Y-96429513D01*
X168249245Y-96425147D01*
X168249245Y-94609047D01*
X168327826Y-94598133D01*
X168406408Y-94595950D01*
X168698905Y-94672348D01*
G37*
G36*
X129616944Y-94600861D02*
G01*
X129767013Y-94674531D01*
X129863602Y-94807137D01*
X129895799Y-95008502D01*
X129863057Y-95220780D01*
X129764830Y-95359934D01*
X129602211Y-95436879D01*
X129376289Y-95462527D01*
X129158008Y-95462527D01*
X129158008Y-94589402D01*
X129291160Y-94578487D01*
X129424311Y-94576305D01*
X129616944Y-94600861D01*
G37*
G36*
X123555819Y-97402263D02*
G01*
X123370657Y-97374796D01*
X123189078Y-97329313D01*
X123012833Y-97266252D01*
X122843617Y-97186218D01*
X122683060Y-97089985D01*
X122532709Y-96978477D01*
X122394012Y-96852769D01*
X122384310Y-96842064D01*
X124255411Y-96842064D01*
X125971102Y-96842064D01*
X126403299Y-96842064D01*
X126887883Y-96842064D01*
X126887883Y-95047792D01*
X127050139Y-95347323D01*
X127205119Y-95646368D01*
X127352822Y-95944928D01*
X127493250Y-96243488D01*
X127626401Y-96542534D01*
X127752277Y-96842064D01*
X128184474Y-96842064D01*
X128621036Y-96842064D01*
X129158008Y-96842064D01*
X129158008Y-95929648D01*
X129350096Y-95929648D01*
X129672909Y-95905638D01*
X129828332Y-95864164D01*
X130738364Y-95864164D01*
X130749278Y-96088994D01*
X130782021Y-96291995D01*
X130840957Y-96469895D01*
X130930452Y-96619417D01*
X131212035Y-96826784D01*
X131410125Y-96880809D01*
X131650780Y-96898817D01*
X131895255Y-96880809D01*
X132096074Y-96826784D01*
X132257602Y-96738926D01*
X132384205Y-96619417D01*
X132476975Y-96469895D01*
X132537002Y-96291995D01*
X132569744Y-96088994D01*
X132580658Y-95864164D01*
X132580658Y-94585036D01*
X132860058Y-94585036D01*
X133571655Y-94585036D01*
X133571655Y-96842064D01*
X134112993Y-96842064D01*
X134112993Y-94585036D01*
X134824589Y-94585036D01*
X134824589Y-94139742D01*
X132860058Y-94139742D01*
X132860058Y-94585036D01*
X132580658Y-94585036D01*
X132580658Y-94139742D01*
X132043686Y-94139742D01*
X132043686Y-95824873D01*
X132026224Y-96110822D01*
X131965105Y-96298544D01*
X131847233Y-96401136D01*
X131659511Y-96431695D01*
X131471789Y-96401136D01*
X131356100Y-96300727D01*
X131297164Y-96115188D01*
X131279702Y-95829239D01*
X131279702Y-94139742D01*
X130738364Y-94139742D01*
X130738364Y-95864164D01*
X129828332Y-95864164D01*
X129942851Y-95833605D01*
X130159919Y-95713550D01*
X130318779Y-95539653D01*
X130414095Y-95306092D01*
X130445868Y-95012867D01*
X130414338Y-94722553D01*
X130319749Y-94491903D01*
X130162102Y-94320916D01*
X129947216Y-94203286D01*
X129680913Y-94132709D01*
X129363193Y-94109183D01*
X129192933Y-94113548D01*
X128996480Y-94124462D01*
X128797844Y-94144108D01*
X128621036Y-94174667D01*
X128621036Y-96842064D01*
X128184474Y-96842064D01*
X128184474Y-94139742D01*
X127699889Y-94139742D01*
X127699889Y-95803045D01*
X127622945Y-95632786D01*
X127531813Y-95436333D01*
X127429221Y-95223509D01*
X127317897Y-95004136D01*
X127200571Y-94780943D01*
X127079971Y-94556659D01*
X126957733Y-94340015D01*
X126835496Y-94139742D01*
X126403299Y-94139742D01*
X126403299Y-96842064D01*
X125971102Y-96842064D01*
X125971102Y-96396770D01*
X125386108Y-96396770D01*
X125386108Y-94585036D01*
X125971102Y-94585036D01*
X125971102Y-94139742D01*
X124255411Y-94139742D01*
X124255411Y-94585036D01*
X124844771Y-94585036D01*
X124844771Y-96396770D01*
X124255411Y-96396770D01*
X124255411Y-96842064D01*
X122384310Y-96842064D01*
X122268304Y-96714072D01*
X122156797Y-96563721D01*
X122060563Y-96403164D01*
X121980529Y-96233949D01*
X121917468Y-96057703D01*
X121871985Y-95876125D01*
X121844519Y-95690963D01*
X121835334Y-95504000D01*
X121844519Y-95317037D01*
X121871985Y-95131875D01*
X121917468Y-94950297D01*
X121980529Y-94774051D01*
X122060563Y-94604836D01*
X122156797Y-94444279D01*
X122268304Y-94293928D01*
X122394012Y-94155231D01*
X122532709Y-94029523D01*
X122683060Y-93918015D01*
X122843617Y-93821782D01*
X123012833Y-93741748D01*
X123189078Y-93678687D01*
X123370657Y-93633204D01*
X123555819Y-93605737D01*
X123742781Y-93596553D01*
X135337220Y-93596553D01*
X135524182Y-93605738D01*
X135709344Y-93633204D01*
X135890922Y-93678687D01*
X136067168Y-93741749D01*
X136236384Y-93821782D01*
X136396940Y-93918016D01*
X136547291Y-94029523D01*
X136685988Y-94155231D01*
X136811696Y-94293928D01*
X136923204Y-94444279D01*
X137019437Y-94604836D01*
X137099471Y-94774052D01*
X137162532Y-94950297D01*
X137208015Y-95131876D01*
X137235481Y-95317038D01*
X137244666Y-95504000D01*
X137235481Y-95690962D01*
X137208015Y-95876124D01*
X137162532Y-96057703D01*
X137099471Y-96233948D01*
X137019437Y-96403164D01*
X136923204Y-96563721D01*
X136811696Y-96714072D01*
X136685988Y-96852769D01*
X136547291Y-96978477D01*
X136396940Y-97089984D01*
X136236384Y-97186218D01*
X136067168Y-97266251D01*
X135890922Y-97329313D01*
X135709344Y-97374796D01*
X135524182Y-97402262D01*
X135337220Y-97411447D01*
X123742781Y-97411447D01*
X123555819Y-97402263D01*
G37*
G36*
X151595287Y-94616141D02*
G01*
X151745355Y-94689811D01*
X151841944Y-94822417D01*
X151874141Y-95023781D01*
X151841399Y-95236060D01*
X151743172Y-95375214D01*
X151580553Y-95452158D01*
X151354631Y-95477806D01*
X151136350Y-95477806D01*
X151136350Y-94604681D01*
X151269502Y-94593767D01*
X151402653Y-94591584D01*
X151595287Y-94616141D01*
G37*
G36*
X157504022Y-93590531D02*
G01*
X157690667Y-93618218D01*
X157873700Y-93664065D01*
X158051357Y-93727632D01*
X158221929Y-93808306D01*
X158383771Y-93905311D01*
X158535327Y-94017712D01*
X158675135Y-94144427D01*
X158801850Y-94284235D01*
X158914250Y-94435790D01*
X159011255Y-94597633D01*
X159091929Y-94768204D01*
X159155496Y-94945862D01*
X159201344Y-95128895D01*
X159229030Y-95315540D01*
X159238288Y-95504000D01*
X159229030Y-95692460D01*
X159201344Y-95879105D01*
X159155496Y-96062138D01*
X159091929Y-96239796D01*
X159011255Y-96410367D01*
X158914250Y-96572210D01*
X158801850Y-96723765D01*
X158675135Y-96863573D01*
X158535327Y-96990288D01*
X158383771Y-97102689D01*
X158221929Y-97199694D01*
X158051357Y-97280368D01*
X157873700Y-97343935D01*
X157690667Y-97389782D01*
X157504022Y-97417469D01*
X157315562Y-97426727D01*
X143420439Y-97426727D01*
X143231979Y-97417469D01*
X143045333Y-97389782D01*
X142862301Y-97343935D01*
X142684643Y-97280368D01*
X142514071Y-97199694D01*
X142352229Y-97102689D01*
X142200674Y-96990288D01*
X142060865Y-96863573D01*
X141934151Y-96723765D01*
X141821750Y-96572210D01*
X141724745Y-96410367D01*
X141644071Y-96239796D01*
X141580504Y-96062138D01*
X141534656Y-95879105D01*
X141506970Y-95692460D01*
X141497712Y-95504000D01*
X143933069Y-95504000D01*
X143948758Y-95831831D01*
X143995825Y-96116825D01*
X144074270Y-96358980D01*
X144184092Y-96558298D01*
X144376422Y-96755964D01*
X144618715Y-96874564D01*
X144910969Y-96914097D01*
X145196190Y-96874564D01*
X145434844Y-96755964D01*
X145626931Y-96558298D01*
X145737709Y-96358980D01*
X145816836Y-96116825D01*
X145856380Y-95879444D01*
X146168269Y-95879444D01*
X146179183Y-96104273D01*
X146211925Y-96307275D01*
X146270861Y-96485174D01*
X146360356Y-96634697D01*
X146641939Y-96842064D01*
X146840029Y-96896089D01*
X147080685Y-96914097D01*
X147325160Y-96896089D01*
X147525978Y-96842064D01*
X147687506Y-96754206D01*
X147814110Y-96634697D01*
X147906879Y-96485174D01*
X147966906Y-96307275D01*
X147999649Y-96104273D01*
X148010563Y-95879444D01*
X148010563Y-94600316D01*
X148289963Y-94600316D01*
X149001560Y-94600316D01*
X149001560Y-96857344D01*
X149542897Y-96857344D01*
X150599378Y-96857344D01*
X151136350Y-96857344D01*
X151136350Y-95944928D01*
X151328438Y-95944928D01*
X151651251Y-95920917D01*
X151806670Y-95879444D01*
X152716706Y-95879444D01*
X152727621Y-96104273D01*
X152760363Y-96307275D01*
X152819299Y-96485174D01*
X152908794Y-96634697D01*
X153190377Y-96842064D01*
X153388467Y-96896089D01*
X153629122Y-96914097D01*
X153873597Y-96896089D01*
X154074416Y-96842064D01*
X154235944Y-96754206D01*
X154362547Y-96634697D01*
X154455317Y-96485174D01*
X154515344Y-96307275D01*
X154548086Y-96104273D01*
X154559000Y-95879444D01*
X154559000Y-94600316D01*
X154838400Y-94600316D01*
X155549997Y-94600316D01*
X155549997Y-96857344D01*
X156091335Y-96857344D01*
X156091335Y-94600316D01*
X156802931Y-94600316D01*
X156802931Y-94155022D01*
X154838400Y-94155022D01*
X154838400Y-94600316D01*
X154559000Y-94600316D01*
X154559000Y-94155022D01*
X154022028Y-94155022D01*
X154022028Y-95840153D01*
X154004566Y-96126102D01*
X153943447Y-96313823D01*
X153825575Y-96416416D01*
X153637853Y-96446975D01*
X153450131Y-96416416D01*
X153334442Y-96316006D01*
X153275506Y-96130467D01*
X153258044Y-95844519D01*
X153258044Y-94155022D01*
X152716706Y-94155022D01*
X152716706Y-95879444D01*
X151806670Y-95879444D01*
X151921193Y-95848884D01*
X152138261Y-95728830D01*
X152297121Y-95554932D01*
X152392438Y-95321371D01*
X152424210Y-95028147D01*
X152392680Y-94737833D01*
X152298092Y-94507182D01*
X152140444Y-94336195D01*
X151925558Y-94218566D01*
X151659255Y-94147988D01*
X151341535Y-94124462D01*
X151171275Y-94128828D01*
X150974822Y-94139742D01*
X150776186Y-94159387D01*
X150599378Y-94189947D01*
X150599378Y-96857344D01*
X149542897Y-96857344D01*
X149542897Y-94600316D01*
X150254494Y-94600316D01*
X150254494Y-94155022D01*
X148289963Y-94155022D01*
X148289963Y-94600316D01*
X148010563Y-94600316D01*
X148010563Y-94155022D01*
X147473591Y-94155022D01*
X147473591Y-95840153D01*
X147456128Y-96126102D01*
X147395010Y-96313823D01*
X147277138Y-96416416D01*
X147089416Y-96446975D01*
X146901694Y-96416416D01*
X146786005Y-96316006D01*
X146727069Y-96130467D01*
X146709606Y-95844519D01*
X146709606Y-94155022D01*
X146168269Y-94155022D01*
X146168269Y-95879444D01*
X145856380Y-95879444D01*
X145864312Y-95831831D01*
X145880138Y-95504000D01*
X145864585Y-95176169D01*
X145817928Y-94891175D01*
X145740165Y-94649020D01*
X145631297Y-94449702D01*
X145440180Y-94252036D01*
X145198615Y-94133436D01*
X144906603Y-94093903D01*
X144623323Y-94133436D01*
X144384669Y-94252036D01*
X144190641Y-94449702D01*
X144077953Y-94649020D01*
X143997462Y-94891175D01*
X143949167Y-95176169D01*
X143933069Y-95504000D01*
X141497712Y-95504000D01*
X141506970Y-95315540D01*
X141534656Y-95128895D01*
X141580504Y-94945862D01*
X141644071Y-94768204D01*
X141724745Y-94597633D01*
X141821750Y-94435790D01*
X141934151Y-94284235D01*
X142060865Y-94144427D01*
X142200674Y-94017712D01*
X142352229Y-93905311D01*
X142514071Y-93808306D01*
X142684643Y-93727632D01*
X142862301Y-93664065D01*
X143045333Y-93618218D01*
X143231979Y-93590531D01*
X143420439Y-93581273D01*
X157315562Y-93581273D01*
X157504022Y-93590531D01*
G37*
G36*
X145129250Y-94635241D02*
G01*
X145258036Y-94836059D01*
X145319155Y-95135105D01*
X145330615Y-95313550D01*
X145334435Y-95504000D01*
X145330615Y-95693905D01*
X145319155Y-95870713D01*
X145258036Y-96169758D01*
X145127067Y-96372759D01*
X144906603Y-96446975D01*
X144683956Y-96372759D01*
X144555171Y-96171941D01*
X144494052Y-95872895D01*
X144482592Y-95694450D01*
X144478772Y-95504000D01*
X144482592Y-95314095D01*
X144494052Y-95137287D01*
X144555171Y-94838242D01*
X144683956Y-94635241D01*
X144906603Y-94561025D01*
X145129250Y-94635241D01*
G37*
%LPC*%
D12*
X167513000Y-111252000D03*
M02*
