G04 #@! TF.GenerationSoftware,KiCad,Pcbnew,6.0.5+dfsg-1~bpo11+1*
G04 #@! TF.CreationDate,2023-01-30T19:57:19+00:00*
G04 #@! TF.ProjectId,phasor_II_jack_panel,70686173-6f72-45f4-9949-5f6a61636b5f,0.1*
G04 #@! TF.SameCoordinates,Original*
G04 #@! TF.FileFunction,Legend,Bot*
G04 #@! TF.FilePolarity,Positive*
%FSLAX46Y46*%
G04 Gerber Fmt 4.6, Leading zero omitted, Abs format (unit mm)*
G04 Created by KiCad (PCBNEW 6.0.5+dfsg-1~bpo11+1) date 2023-01-30 19:57:19*
%MOMM*%
%LPD*%
G01*
G04 APERTURE LIST*
%ADD10C,0.200000*%
G04 APERTURE END LIST*
D10*
X138778095Y-92884761D02*
X138778095Y-94313333D01*
X138873333Y-94599047D01*
X139063809Y-94789523D01*
X139349523Y-94884761D01*
X139540000Y-94884761D01*
X136873333Y-94884761D02*
X137825714Y-94884761D01*
X137825714Y-92884761D01*
X135063809Y-94694285D02*
X135159047Y-94789523D01*
X135444761Y-94884761D01*
X135635238Y-94884761D01*
X135920952Y-94789523D01*
X136111428Y-94599047D01*
X136206666Y-94408571D01*
X136301904Y-94027619D01*
X136301904Y-93741904D01*
X136206666Y-93360952D01*
X136111428Y-93170476D01*
X135920952Y-92980000D01*
X135635238Y-92884761D01*
X135444761Y-92884761D01*
X135159047Y-92980000D01*
X135063809Y-93075238D01*
X133635238Y-92884761D02*
X133635238Y-94313333D01*
X133730476Y-94599047D01*
X133920952Y-94789523D01*
X134206666Y-94884761D01*
X134397142Y-94884761D01*
X131730476Y-94884761D02*
X132682857Y-94884761D01*
X132682857Y-92884761D01*
X129920952Y-94694285D02*
X130016190Y-94789523D01*
X130301904Y-94884761D01*
X130492380Y-94884761D01*
X130778095Y-94789523D01*
X130968571Y-94599047D01*
X131063809Y-94408571D01*
X131159047Y-94027619D01*
X131159047Y-93741904D01*
X131063809Y-93360952D01*
X130968571Y-93170476D01*
X130778095Y-92980000D01*
X130492380Y-92884761D01*
X130301904Y-92884761D01*
X130016190Y-92980000D01*
X129920952Y-93075238D01*
X128492380Y-92884761D02*
X128492380Y-94313333D01*
X128587619Y-94599047D01*
X128778095Y-94789523D01*
X129063809Y-94884761D01*
X129254285Y-94884761D01*
X126587619Y-94884761D02*
X127540000Y-94884761D01*
X127540000Y-92884761D01*
X124778095Y-94694285D02*
X124873333Y-94789523D01*
X125159047Y-94884761D01*
X125349523Y-94884761D01*
X125635238Y-94789523D01*
X125825714Y-94599047D01*
X125920952Y-94408571D01*
X126016190Y-94027619D01*
X126016190Y-93741904D01*
X125920952Y-93360952D01*
X125825714Y-93170476D01*
X125635238Y-92980000D01*
X125349523Y-92884761D01*
X125159047Y-92884761D01*
X124873333Y-92980000D01*
X124778095Y-93075238D01*
X123349523Y-92884761D02*
X123349523Y-94313333D01*
X123444761Y-94599047D01*
X123635238Y-94789523D01*
X123920952Y-94884761D01*
X124111428Y-94884761D01*
X121444761Y-94884761D02*
X122397142Y-94884761D01*
X122397142Y-92884761D01*
X119635238Y-94694285D02*
X119730476Y-94789523D01*
X120016190Y-94884761D01*
X120206666Y-94884761D01*
X120492380Y-94789523D01*
X120682857Y-94599047D01*
X120778095Y-94408571D01*
X120873333Y-94027619D01*
X120873333Y-93741904D01*
X120778095Y-93360952D01*
X120682857Y-93170476D01*
X120492380Y-92980000D01*
X120206666Y-92884761D01*
X120016190Y-92884761D01*
X119730476Y-92980000D01*
X119635238Y-93075238D01*
%LPC*%
M02*
